<svg width="120" height="117" viewBox="0 0 120 117" fill="none" xmlns="http://www.w3.org/2000/svg">
<circle cx="59.5" cy="57.2415" r="47.5" fill="white"/>
<g clip-path="url(#clip0_128_705)">
<path d="M67.2702 37.6767L66.5629 34.1625H64.2443L63.5369 37.6767C63.4634 38.0418 63.1899 38.3339 62.8305 38.4312C62.0188 38.6501 61.239 38.9737 60.5109 39.3941C60.1865 39.5822 59.7832 39.5693 59.4715 39.3607L56.4956 37.3663L54.8579 39.0129L56.8464 41.9858C57.055 42.2975 57.068 42.7008 56.8798 43.0252C56.4594 43.7533 56.1358 44.5331 55.917 45.3448C55.8196 45.7042 55.5275 45.9777 55.1624 46.0512L51.6492 46.7576V49.0762L55.1634 49.7825C55.5285 49.856 55.8206 50.1295 55.9179 50.4889C56.1368 51.3007 56.4604 52.0804 56.8808 52.8085C57.0689 53.133 57.056 53.5362 56.8473 53.8479L54.853 56.8238L56.4996 58.4616L59.4725 56.4731C59.7842 56.2644 60.1875 56.2515 60.5119 56.4397C61.24 56.86 62.0198 57.1836 62.8315 57.4025C63.1909 57.4998 63.4644 57.7919 63.5379 58.157L64.2443 61.6712H66.5629L67.2692 58.157C67.3427 57.7919 67.6162 57.4998 67.9756 57.4025C68.7874 57.1836 69.5671 56.86 70.2952 56.4397C70.6197 56.2515 71.0229 56.2644 71.3346 56.4731L74.3105 58.4675L75.9483 56.8209L73.9598 53.8479C73.7511 53.5362 73.7382 53.133 73.9264 52.8085C74.3467 52.0804 74.6703 51.3007 74.8892 50.4889C74.9865 50.1295 75.2786 49.856 75.6437 49.7825L79.1579 49.0762V46.7566L75.6437 46.0502C75.2786 45.9767 74.9865 45.7032 74.8892 45.3438C74.6703 44.5321 74.3467 43.7523 73.9264 43.0242C73.7382 42.6998 73.7511 42.2965 73.9598 41.9848L75.9542 39.0089L74.3076 37.3722L71.3346 39.3607C71.0229 39.5693 70.6197 39.5822 70.2952 39.3941C69.5671 38.9737 68.7874 38.6501 67.9756 38.4312C67.6166 38.3336 67.3435 38.0415 67.2702 37.6767ZM72.2808 47.9169C72.2808 51.715 69.2017 54.7941 65.4036 54.7941C61.6054 54.7941 58.5264 51.715 58.5264 47.9169C58.5264 44.1187 61.6054 41.0397 65.4036 41.0397C69.1999 41.044 72.2764 44.1205 72.2808 47.9169Z" fill="#F9556D"/>
<path d="M75.9237 42.5861C76.1949 43.1192 76.4248 43.6723 76.6114 44.2406L78.1028 44.5353C79.637 43.7682 80.4919 42.0905 80.2109 40.3983C79.9298 38.7062 78.5785 37.3949 76.8787 37.1649L77.3375 37.6237C77.9972 38.2815 78.1043 39.3123 77.5939 40.0917L75.9237 42.5861Z" fill="#F9556D"/>
<path d="M60.4912 47.9169C60.4912 50.6299 62.6905 52.8292 65.4035 52.8292C68.1165 52.8292 70.3158 50.6299 70.3158 47.9169C70.3158 45.2039 68.1165 43.0046 65.4035 43.0046C62.6919 43.0079 60.4945 45.2053 60.4912 47.9169ZM66.3859 47.9169C66.3859 48.4595 65.9461 48.8994 65.4035 48.8994C64.8609 48.8994 64.421 48.4595 64.421 47.9169C64.421 47.3743 64.8609 46.9345 65.4035 46.9345C65.9461 46.9345 66.3859 47.3743 66.3859 47.9169Z" fill="#F9556D"/>
<path d="M32.6249 63.3758C32.8813 63.5547 33.1521 63.7121 33.4344 63.8464C34.2724 64.2748 35.4199 64.8623 35.6567 66.0599C35.7974 66.8024 35.7058 67.5701 35.3944 68.2587C35.2234 68.6231 35.0466 68.9375 34.8924 69.2087C34.8452 69.2932 34.7941 69.3875 34.744 69.473C35.1517 69.8011 35.7078 70.2177 35.9436 70.3906C36.1581 70.5485 36.2992 70.7867 36.3348 71.0506C36.3704 71.3145 36.2973 71.5816 36.1322 71.7906C35.9862 71.9804 35.8591 72.1841 35.753 72.3987C35.8227 72.44 35.8935 72.4803 35.9642 72.5205C36.8297 72.8941 37.4904 73.625 37.7749 74.5238C37.9206 75.2253 37.8885 75.9521 37.6816 76.638C37.6354 76.8394 37.5892 77.0408 37.5607 77.2422C37.5081 77.8334 37.5911 78.4289 37.8034 78.9831C38.0213 79.889 38.9118 80.4644 39.8272 80.2908C42.6903 79.6022 45.5114 78.7494 48.2764 77.7364H48.2823C49.305 77.3886 50.2324 77.0644 50.9624 76.81C51.6432 76.5712 52.1571 76.3924 52.4243 76.3069C56.5084 75.0052 57.3366 73.5344 57.313 72.5294C57.3004 71.9871 57.7296 71.5372 58.2719 71.5243C58.5333 71.5145 58.7876 71.6109 58.977 71.7915C59.1663 71.9721 59.2745 72.2216 59.2769 72.4832C59.3349 74.9217 57.2305 76.8375 53.0236 78.1815C52.7662 78.264 52.2691 78.4369 51.6108 78.6727L50.7266 78.9812C52.3461 80.7763 53.5281 82.922 54.1799 85.2502L76.464 85.1883L76.3982 85.0901C76.1156 84.6822 75.8612 84.2555 75.6368 83.8129C75.1482 82.82 74.7405 81.7894 74.4176 80.7309C73.8215 78.7199 73.4078 76.6592 73.1816 74.5739C72.7942 71.2871 73.2914 67.9565 74.6219 64.9262C75.4063 63.2863 76.3765 61.7419 77.5133 60.3234C78.0831 59.5551 78.6726 58.7612 79.1835 57.9547C80.5443 55.8531 81.2755 53.4062 81.2908 50.9026C81.2967 50.6805 81.2908 50.4595 81.2859 50.2384L80.8998 49.9801C80.6282 50.5108 80.1294 50.8887 79.545 51.0067L76.6094 51.5962C76.4228 52.1645 76.1929 52.7176 75.9217 53.2507L77.586 55.7304C78.1082 56.5153 77.9993 57.5604 77.3266 58.2209L75.6967 59.8508C75.0389 60.5105 74.0082 60.6176 73.2288 60.1072L70.7343 58.437C70.2012 58.7082 69.6481 58.9382 69.0799 59.1248L68.4904 62.0643C68.3035 62.98 67.4974 63.6373 66.5628 63.6362H64.2442C63.3075 63.6367 62.5007 62.9758 62.3166 62.0574L61.7272 59.1218C61.1589 58.9352 60.6058 58.7053 60.0727 58.4341L57.59 60.0994C56.805 60.6189 55.7621 60.5106 55.1005 59.841L53.4696 58.2101C52.8099 57.5523 52.7028 56.5216 53.2132 55.7422L54.8834 53.2477C54.6122 52.7146 54.3823 52.1615 54.1957 51.5932L51.2562 51.0038C50.3404 50.8169 49.6831 50.0108 49.6842 49.0762V46.7576C49.6838 45.8209 50.3446 45.0141 51.263 44.83L54.1986 44.2405C54.3852 43.6723 54.6151 43.1192 54.8863 42.5861L53.2211 40.1034C52.6989 39.3185 52.8077 38.2734 53.4804 37.6129L55.1103 35.983C55.7682 35.3232 56.7989 35.2162 57.5783 35.7266L60.0727 37.3968C60.6058 37.1256 61.1589 36.8956 61.7272 36.709L62.3166 33.7695C62.5036 32.8538 63.3096 32.1965 64.2442 32.1976H66.5628C66.6929 32.1988 66.8225 32.2126 66.9499 32.2389L67.7555 31.4332C65.1662 30.4988 62.4141 30.0997 59.666 30.2602C56.5659 30.4782 53.486 30.9221 50.4505 31.5885C46.4853 32.3744 43.5232 33.7843 41.6438 35.7708C40.0927 37.4337 38.8936 39.393 38.1187 41.5309C37.755 42.5943 37.4597 43.6798 37.2345 44.7809C36.9954 45.6989 36.6664 46.591 36.2521 47.4443C36.0674 47.8579 35.8817 48.2706 35.7216 48.6911C35.6257 48.9114 35.5717 49.1476 35.5624 49.3876C35.6046 49.6824 35.9809 50.0243 36.3798 50.3888C37.193 50.9602 37.7184 51.8562 37.8201 52.8449C37.802 53.3117 37.672 53.7672 37.4409 54.1732C36.2113 56.7624 34.7046 59.2106 32.9471 61.4748C32.1994 62.3855 32.0432 62.7461 32.0393 62.8954C32.2196 63.0729 32.4156 63.2337 32.6249 63.3758ZM39.3399 44.2327C39.4943 43.5501 39.6879 42.877 39.9196 42.2167C40.6025 40.3257 41.6613 38.5925 43.032 37.1217C44.6275 35.4397 47.2438 34.2215 50.8091 33.5121C51.3414 33.4066 51.8585 33.7525 51.964 34.2848C52.0695 34.8171 51.7236 35.3342 51.1913 35.4397C48.0337 36.0675 45.7691 37.0883 44.4595 38.4716C43.2723 39.7486 42.3553 41.2524 41.7637 42.8926C41.5579 43.4833 41.386 44.0852 41.2489 44.6954C41.1669 45.0378 40.9081 45.3101 40.5703 45.4093C40.2326 45.5086 39.8676 45.4195 39.6135 45.1759C39.3594 44.9323 39.255 44.5714 39.3399 44.2297V44.2327ZM38.8772 47.9169C39.4198 47.9169 39.8597 48.3568 39.8597 48.8994C39.8597 49.4419 39.4198 49.8818 38.8772 49.8818C38.3346 49.8818 37.8947 49.4419 37.8947 48.8994C37.8947 48.3568 38.3346 47.9169 38.8772 47.9169Z" fill="#082471"/>
<path d="M69.0798 36.7169C69.6481 36.9035 70.2012 37.1334 70.7343 37.4046L73.217 35.7344C73.6233 35.4695 74.1124 35.3619 74.5924 35.4318C75.1558 35.2457 75.7449 35.1489 76.3382 35.1449C78.7412 35.1369 80.9074 36.5916 81.8092 38.819C82.711 41.0464 82.1669 43.5983 80.4351 45.2642C80.8709 45.6381 81.122 46.1834 81.1228 46.7576V47.7616L83.3068 49.2265L84.3973 48.136L82.8912 45.8901C82.68 45.5751 82.6689 45.1668 82.8627 44.8408C83.1937 44.2784 83.4466 43.6736 83.6143 43.0429C83.7116 42.6826 84.0047 42.4085 84.3708 42.3355L87.0234 41.808V40.2714L84.3757 39.7438C84.0096 39.6709 83.7165 39.3968 83.6192 39.0365C83.4515 38.4058 83.1986 37.801 82.8676 37.2386C82.6724 36.9136 82.6815 36.5052 82.8912 36.1893L84.3983 33.9434L83.3078 32.8529L81.0609 34.359C80.746 34.5702 80.3376 34.5813 80.0116 34.3875C79.4492 34.0565 78.8444 33.8036 78.2137 33.6359C77.8534 33.5386 77.5793 33.2455 77.5064 32.8794L76.9788 30.2327H75.4422L74.9147 32.8853C74.8417 33.2514 74.5676 33.5445 74.2073 33.6418C73.5766 33.8095 72.9718 34.0624 72.4094 34.3934C72.0823 34.5854 71.6739 34.572 71.3601 34.359L69.1142 32.8529L68.4265 33.5406C68.4543 33.6163 68.4769 33.6937 68.4943 33.7725L69.0798 36.7169Z" fill="#F9556D"/>
</g>
<path d="M42.8538 2.58574C32.0976 5.74934 22.3959 12.0765 15.2251 20.5128C7.84334 28.9491 3.20339 39.7053 1.72705 50.6724C0.250703 61.8505 1.93796 73.4504 6.78881 83.5739C11.6397 93.6974 19.4432 102.555 29.1449 108.461C19.4432 102.555 11.2178 94.1192 6.15608 83.7848C1.09433 73.6613 -1.01474 61.8505 0.461608 50.4615C1.72705 39.0726 6.367 28.1054 13.7487 19.2474C21.1305 10.3893 31.0431 3.64028 42.0102 0.0548628C42.6429 -0.156044 43.2756 0.265773 43.4865 0.898492C43.9084 1.53121 43.4865 2.37484 42.8538 2.58574Z" fill="white"/>
<path d="M72.3808 114.367C83.7697 111.836 94.526 105.72 102.54 97.0724C110.555 88.4253 116.038 77.4581 117.515 65.6474C119.202 53.8366 117.304 41.604 112.031 31.0587C106.759 20.3024 98.1114 11.4444 87.5661 5.74988C98.1114 11.4444 106.969 20.0915 112.453 30.8478C117.937 41.604 120.257 53.8366 118.569 65.8583C117.093 77.8799 111.82 89.4798 103.595 98.3379C95.3696 107.407 84.6134 113.945 72.5917 116.687C71.959 116.898 71.3263 116.476 71.1154 115.843C71.3263 115.21 71.7481 114.578 72.3808 114.367Z" fill="white"/>
<path d="M17.5135 28.7704C11.1863 36.9957 7.60094 47.3301 7.17912 57.8755C6.75731 68.4208 9.71 78.9661 15.4045 87.8242C18.3572 92.2533 21.7317 96.2605 25.9498 99.635C29.957 103.009 34.597 105.751 39.4478 107.649C44.2987 109.758 49.5713 110.813 54.844 111.235C60.1167 111.657 65.3893 111.235 70.662 110.18C65.6002 111.446 60.1167 112.078 54.844 111.657C49.5713 111.235 44.2987 110.391 39.2369 108.282C34.1752 106.384 29.5352 103.642 25.3171 100.268C21.099 96.8932 17.5135 92.886 14.5609 88.4569C8.65547 79.5989 5.49187 68.8426 5.70278 57.8755C5.91368 47.1192 9.4991 36.363 16.0372 27.5049C16.459 27.0831 17.0917 26.8722 17.5135 27.294C17.7244 27.5049 17.9354 28.1376 17.5135 28.7704Z" fill="white"/>
<path d="M102.572 86.2844C108.899 77.6372 112.485 66.881 112.274 56.1248C112.274 45.3685 108.688 34.4014 102.15 25.7542C95.8229 16.8961 86.3321 10.358 75.9977 6.98352C70.725 5.29626 65.2415 4.66354 59.7579 4.66354C54.2743 4.66354 48.7907 5.71808 43.5181 7.40533C48.5798 5.50717 54.0634 4.45264 59.547 4.45264C65.0305 4.45264 70.5141 5.08536 75.7868 6.5617C86.3321 9.7253 96.0338 16.2634 102.572 25.1215C109.321 33.7687 113.117 44.9467 113.328 56.1248C113.539 67.3028 110.165 78.4809 103.837 87.5499C103.416 87.9717 102.783 88.1826 102.361 87.7607C102.361 87.5499 102.15 86.7062 102.572 86.2844Z" fill="white"/>
<defs>
<clipPath id="clip0_128_705">
<rect width="56" height="56" fill="white" transform="translate(32 29.7415)"/>
</clipPath>
</defs>
</svg>
