<svg width="63" height="63" viewBox="0 0 63 63" fill="none" xmlns="http://www.w3.org/2000/svg">
<path d="M30.2393 7.78858C30.5763 7.78858 30.8496 7.51538 30.8496 7.17822V2.77979C30.8496 2.44263 30.5763 2.16943 30.2393 2.16943C29.9022 2.16943 29.6289 2.44263 29.6289 2.77979V7.17822C29.6289 7.51538 29.9022 7.78858 30.2393 7.78858Z" fill="white"/>
<path d="M40.0088 10.4072C40.2198 10.4072 40.4249 10.2978 40.538 10.102L42.7388 6.29269C42.9074 6.00082 42.8075 5.62753 42.5157 5.45895C42.2237 5.29025 41.8504 5.39022 41.6818 5.68209L39.481 9.49142C39.245 9.89962 39.543 10.4072 40.0088 10.4072Z" fill="white"/>
<path d="M47.4681 17.4784L51.2775 15.2776C51.5694 15.109 51.6693 14.7357 51.5006 14.4438C51.3319 14.1519 50.9588 14.052 50.6668 14.2207L46.8573 16.4215C46.5655 16.5901 46.4656 16.9633 46.6342 17.2552C46.8025 17.5466 47.1753 17.6474 47.4681 17.4784Z" fill="white"/>
<path d="M49.1707 28.5508C49.1707 28.8879 49.444 29.1611 49.781 29.1611H54.1794C54.5165 29.1611 54.7898 28.8879 54.7898 28.5508C54.7898 28.2136 54.5165 27.9404 54.1794 27.9404H49.781C49.444 27.9404 49.1707 28.2137 49.1707 28.5508Z" fill="white"/>
<path d="M51.2774 39.5912L47.4679 37.3905C47.1761 37.222 46.8028 37.3218 46.6341 37.6137C46.4655 37.9056 46.5653 38.2788 46.8573 38.4474L50.6668 40.6481C50.9587 40.8168 51.332 40.7168 51.5007 40.425C51.6692 40.1331 51.5693 39.7598 51.2774 39.5912Z" fill="white"/>
<path d="M13.7063 37.3904L9.89535 39.5897C9.60336 39.7582 9.50326 40.1315 9.67184 40.4234C9.84115 40.7169 10.2149 40.8146 10.5056 40.647L14.3165 38.4478C14.6085 38.2792 14.7086 37.9061 14.5401 37.6141C14.3715 37.3221 13.9981 37.2219 13.7063 37.3904Z" fill="white"/>
<path d="M6.60498 28.5508C6.60498 28.8879 6.8783 29.1611 7.21533 29.1611H11.6138C11.9508 29.1611 12.2241 28.8879 12.2241 28.5508C12.2241 28.2136 11.9508 27.9404 11.6138 27.9404H7.21533C6.8783 27.9404 6.60498 28.2137 6.60498 28.5508Z" fill="white"/>
<path d="M14.7533 17.0756L10.9441 14.8749C10.6521 14.7063 10.2788 14.8062 10.1103 15.0981C9.94168 15.3899 10.0415 15.7632 10.3334 15.9318L14.1426 18.1325C14.4352 18.3014 14.8081 18.2007 14.9765 17.9093C15.1452 17.6175 15.0452 17.2441 14.7533 17.0756Z" fill="white"/>
<path d="M20.2758 10.6864C20.4451 10.9797 20.8191 11.0776 21.1095 10.9098C21.4015 10.7412 21.5015 10.368 21.3329 10.076L19.1337 6.26672C18.9652 5.97473 18.5922 5.87475 18.2999 6.04333C18.0079 6.21191 17.908 6.5852 18.0765 6.87707L20.2758 10.6864Z" fill="white"/>
<path d="M6.72961 58.8345C7.31547 58.8345 7.79041 58.3595 7.79041 57.7737C7.79041 57.1878 7.31547 56.7129 6.72961 56.7129C6.14376 56.7129 5.66882 57.1878 5.66882 57.7737C5.66882 58.3595 6.14376 58.8345 6.72961 58.8345Z" fill="white"/>
<path d="M56.5875 8.67871C57.1734 8.67871 57.6483 8.20378 57.6483 7.61792C57.6483 7.03206 57.1734 6.55713 56.5875 6.55713C56.0017 6.55713 55.5267 7.03206 55.5267 7.61792C55.5267 8.20378 56.0017 8.67871 56.5875 8.67871Z" fill="white"/>
<path d="M30.892 23.1304C29.2699 23.1304 27.9502 24.4506 27.9502 26.0735C27.9502 27.6947 29.2699 29.0137 30.892 29.0137C32.5139 29.0137 33.8336 27.6947 33.8336 26.0735C33.8335 24.4507 32.5139 23.1304 30.892 23.1304Z" fill="white"/>
<path d="M24.5977 47.3755H37.2618V51.8826H24.5977V47.3755Z" fill="white"/>
<path d="M27.5273 58.9329H34.3322C35.7277 58.9329 36.8975 57.9515 37.1902 56.6431H24.6693C24.962 57.9515 26.1318 58.9329 27.5273 58.9329Z" fill="white"/>
<path d="M38.9487 24.4008C38.6755 24.4008 38.4357 24.2192 38.3615 23.9563C38.1985 23.3795 37.9658 22.8187 37.6697 22.2893C37.5364 22.0509 37.5776 21.7529 37.7708 21.5598L39.2506 20.08C39.3569 19.9738 39.3565 19.7935 39.2498 19.6863L37.2771 17.7151C37.2065 17.6445 37.1234 17.631 37.0797 17.6342C37.0366 17.6342 36.9542 17.6447 36.8851 17.714L35.4041 19.1934C35.2108 19.3865 34.9131 19.4275 34.6748 19.2943C34.1448 18.9978 33.5847 18.7657 33.0103 18.6045C32.747 18.5306 32.5649 18.2905 32.5649 18.017V15.9241C32.5649 15.7747 32.438 15.6484 32.2877 15.6484H29.4963C29.3434 15.6484 29.2191 15.7721 29.2191 15.9241V18.017C29.2191 18.2905 29.0371 18.5306 28.7737 18.6045C28.1971 18.7664 27.6366 18.9985 27.1077 19.2943C26.8695 19.4275 26.5715 19.3864 26.3784 19.1934L24.8986 17.7151C24.8088 17.6251 24.6912 17.6331 24.7034 17.6342C24.66 17.6342 24.5773 17.6447 24.507 17.715L22.5332 19.6874C22.4275 19.7935 22.4271 19.9738 22.5333 20.0798L24.0133 21.5598C24.2068 21.7533 24.2478 22.0519 24.1138 22.2904C23.8198 22.8132 23.5874 23.3737 23.4227 23.9562C23.3485 24.219 23.1085 24.4006 22.8353 24.4006H20.7441C20.5913 24.4006 20.467 24.5244 20.467 24.6764V27.4679C20.467 27.619 20.594 27.7467 20.7441 27.7467H22.8351C23.1079 27.7467 23.3477 27.9277 23.4222 28.1903C23.5881 28.7745 23.8208 29.3347 24.1135 29.8554C24.2477 30.0939 24.2065 30.3925 24.0131 30.5859L22.5331 32.0658C22.4272 32.1716 22.4277 32.3513 22.5341 32.4581L24.5068 34.4309C24.6128 34.5361 24.7924 34.5366 24.8982 34.4309L26.3783 32.9525C26.5707 32.7601 26.8685 32.7179 27.1075 32.8516C27.631 33.1443 28.192 33.3766 28.775 33.5418C29.0376 33.6161 29.219 33.856 29.219 34.129V36.2201C29.219 36.3731 29.3434 36.4974 29.4962 36.4974H32.2876C32.4379 36.4974 32.5648 36.3704 32.5648 36.2201V34.129C32.5648 33.8561 32.7461 33.6162 33.0088 33.5418C33.5897 33.3771 34.1502 33.1449 34.6747 32.8516C34.9127 32.7181 35.2107 32.7594 35.4039 32.9524L36.8839 34.4306C36.9904 34.5371 37.1707 34.5368 37.2777 34.4299L39.2506 32.4572C39.356 32.3513 39.3564 32.1716 39.2506 32.0658L37.7708 30.5859C37.5776 30.3928 37.5364 30.0949 37.6697 29.8563C37.9645 29.3294 38.1974 28.7687 38.3616 28.1903C38.4362 27.9279 38.6759 27.7467 38.9487 27.7467H41.0399C41.1902 27.7467 41.3171 27.619 41.3171 27.4679V24.6764C41.3171 24.5269 41.1902 24.4006 41.0399 24.4006H38.9487V24.4008ZM30.892 30.2346C28.5968 30.2346 26.7295 28.368 26.7295 26.0737C26.7295 23.7777 28.5967 21.9099 30.892 21.9099C33.187 21.9099 35.0543 23.7778 35.0543 26.0737C35.0542 28.368 33.187 30.2346 30.892 30.2346Z" fill="white"/>
<path d="M8.27429 5.04797C8.27429 4.19617 7.58142 3.50342 6.72974 3.50342C5.87793 3.50342 5.18506 4.19629 5.18506 5.04797C5.18506 5.89966 5.87793 6.59265 6.72974 6.59265C7.58142 6.59277 8.27429 5.89978 8.27429 5.04797Z" fill="white"/>
<path d="M24.5977 53.103H37.2618V55.3928H24.5977V53.103Z" fill="white"/>
<path d="M30.818 10.5132C22.1735 10.5498 15.1364 17.761 15.1364 26.5881C15.1364 39.1063 24.1027 38.8197 24.579 46.1548H37.2804C37.7456 38.8256 46.5049 39.1149 46.5049 26.5881C46.5046 17.761 39.4677 10.5498 30.818 10.5132ZM42.5378 24.6763V27.4678C42.5378 28.2947 41.8658 28.9673 41.0399 28.9673H39.3972C39.2722 29.3337 39.1232 29.6924 38.9517 30.0404L40.1139 31.2025C40.6964 31.785 40.6968 32.7345 40.1149 33.3191L38.1401 35.2938C37.5542 35.8774 36.6039 35.8768 36.021 35.2938L34.8589 34.1331C34.5116 34.3041 34.1528 34.4526 33.7855 34.5778V36.2199C33.7855 37.0459 33.1135 37.7179 32.2876 37.7179H29.4962C28.6702 37.7179 27.9983 37.0458 27.9983 36.2199V34.5778C27.63 34.4526 27.2708 34.304 26.9235 34.1331L25.7611 35.2941C25.1787 35.8765 24.2292 35.8766 23.6447 35.2949L21.67 33.3201C21.0872 32.7345 21.0875 31.785 21.67 31.2025L22.8319 30.0407C22.661 29.6945 22.5121 29.3357 22.3866 28.9672H20.744C19.9181 28.9672 19.2462 28.2944 19.2462 27.4677V24.6762C19.2462 23.851 19.9181 23.1797 20.744 23.1797H22.3861C22.5112 22.8113 22.6604 22.4518 22.8319 22.1045L21.67 20.9428C21.087 20.36 21.0865 19.4097 21.6692 18.8246L23.6439 16.8512C24.1215 16.3738 24.717 16.4106 24.7048 16.4131C25.1051 16.4136 25.4806 16.5695 25.7623 16.8523L26.9235 18.0122C27.2726 17.8401 27.632 17.6913 27.9984 17.567V15.9238C27.9984 15.0988 28.6704 14.4275 29.4963 14.4275H32.2877C33.1138 14.4275 33.7856 15.0988 33.7856 15.9238V17.5671C34.1511 17.6913 34.51 17.84 34.8591 18.0122L36.0214 16.8512C36.6072 16.2627 37.5601 16.2711 38.1403 16.8514L40.1138 18.8235C40.6974 19.4097 40.697 20.3599 40.1139 20.9428L38.9518 22.1049C39.124 22.454 39.2731 22.8134 39.3978 23.1797H41.04C41.8658 23.1798 42.5378 23.8511 42.5378 24.6763Z" fill="white"/>
<path d="M54.4684 57.5742C53.6166 57.5742 52.9237 58.2672 52.9237 59.1189C52.9237 59.9707 53.6166 60.6634 54.4684 60.6634C55.3202 60.6634 56.0131 59.9706 56.0131 59.1189C56.013 58.2672 55.3201 57.5742 54.4684 57.5742Z" fill="white"/>
</svg>
