<svg width="20" height="20" viewBox="0 0 20 20" fill="none" xmlns="http://www.w3.org/2000/svg">
<path d="M9.77767 6.20793C7.66673 6.20793 5.94954 7.92511 5.94954 10.0361C5.94954 12.147 7.66673 13.8642 9.77767 13.8642C11.8886 13.8642 13.6058 12.147 13.6058 10.0361C13.6058 7.92511 11.8886 6.20793 9.77767 6.20793ZM9.77767 6.20793C7.66673 6.20793 5.94954 7.92511 5.94954 10.0361C5.94954 12.147 7.66673 13.8642 9.77767 13.8642C11.8886 13.8642 13.6058 12.147 13.6058 10.0361C13.6058 7.92511 11.8886 6.20793 9.77767 6.20793ZM16.3766 0.66626H3.17871C1.66934 0.66626 0.444336 1.89126 0.444336 3.40064V16.5986C0.444336 18.1079 1.66934 19.3329 3.17871 19.3329H16.3766C17.886 19.3329 19.111 18.1079 19.111 16.5986V3.40064C19.111 1.89126 17.886 0.66626 16.3766 0.66626ZM9.77767 14.9579C7.06521 14.9579 4.85579 12.7485 4.85579 10.0361C4.85579 7.32352 7.06521 5.11418 9.77767 5.11418C12.4901 5.11418 14.6995 7.32352 14.6995 10.0361C14.6995 12.7485 12.4901 14.9579 9.77767 14.9579ZM15.7933 5.11418C15.1917 5.11418 14.6995 4.62199 14.6995 4.02043C14.6995 3.41886 15.1917 2.92668 15.7933 2.92668C16.3949 2.92668 16.887 3.41886 16.887 4.02043C16.887 4.62199 16.3949 5.11418 15.7933 5.11418ZM9.77767 6.20793C7.66673 6.20793 5.94954 7.92511 5.94954 10.0361C5.94954 12.147 7.66673 13.8642 9.77767 13.8642C11.8886 13.8642 13.6058 12.147 13.6058 10.0361C13.6058 7.92511 11.8886 6.20793 9.77767 6.20793ZM9.77767 6.20793C7.66673 6.20793 5.94954 7.92511 5.94954 10.0361C5.94954 12.147 7.66673 13.8642 9.77767 13.8642C11.8886 13.8642 13.6058 12.147 13.6058 10.0361C13.6058 7.92511 11.8886 6.20793 9.77767 6.20793ZM9.77767 6.20793C7.66673 6.20793 5.94954 7.92511 5.94954 10.0361C5.94954 12.147 7.66673 13.8642 9.77767 13.8642C11.8886 13.8642 13.6058 12.147 13.6058 10.0361C13.6058 7.92511 11.8886 6.20793 9.77767 6.20793Z" fill="#082471"/>
</svg>
