<svg width="457" height="347" viewBox="0 0 457 347" fill="none" xmlns="http://www.w3.org/2000/svg">
<path fill-rule="evenodd" clip-rule="evenodd" d="M226.251 2.46411C175.013 2.46411 180.836 91.594 143.857 118.747C94.8882 154.715 10.6372 136.903 10.6372 198.605C10.6372 306.921 119.923 346.162 239.02 346.162C358.095 346.162 459.701 286.086 424.235 178.045C388.792 70.027 345.349 2.46411 226.251 2.46411Z" fill="#E0E8F5"/>
<path fill-rule="evenodd" clip-rule="evenodd" d="M67.1713 259.665C67.1713 259.665 46.1487 248.836 50.0231 222.301C53.8746 195.743 37.5975 187.363 33.4939 179.442C29.3673 171.543 38.6062 158.813 37.5517 147.664C36.52 136.514 23.613 133.537 29.6424 118.221C35.6947 102.927 30.5823 97.1116 22.6272 80.7189C14.695 64.3261 26.4558 39.2791 32.0496 39.4165C37.6434 39.5538 30.8116 45.4149 35.7406 56.3129C40.6466 67.2109 61.417 70.5306 67.9049 79.6428C74.3928 88.755 62.9989 100.821 70.3809 113.115C77.7858 125.433 99.863 121.609 105.709 133.537C111.555 145.466 97.6392 159.775 101.674 172.276C105.709 184.799 120.633 191.897 126.915 201.925C133.197 211.975 144.934 231.23 125.7 254.239C106.465 277.203 67.1713 259.665 67.1713 259.665Z" fill="#C4D1EB"/>
<path fill-rule="evenodd" clip-rule="evenodd" d="M49.7483 232.741C49.6336 231.711 49.5649 230.612 49.5419 229.49L106.603 261.497L101.56 248.401C101.537 248.355 101.514 248.287 101.514 248.241L98.9004 241.51L50.5965 214.402C50.5965 213.303 50.5507 212.227 50.4819 211.22L97.3644 237.526L92.8022 225.689L48.1664 200.665C47.5933 199.154 46.9284 197.758 46.2407 196.453L91.2662 221.706L89.0195 215.822C88.9737 215.753 88.9737 215.707 88.9507 215.639L79.024 189.928L34.3424 164.858C34.5946 163.965 34.8697 163.095 35.1677 162.179L77.488 185.944L72.5361 173.1L37.3227 153.341C37.4832 152.357 37.5749 151.373 37.6207 150.365L70.9772 169.093L67.2633 159.432C67.2404 159.386 67.2174 159.34 67.2174 159.294L56.3966 131.225L30.2846 116.572C30.6055 115.679 30.9036 114.786 31.1328 113.939L54.8377 127.241L45.4154 102.744C45.3695 102.698 45.3695 102.629 45.3466 102.583L29.7802 62.1511C29.5051 61.4414 29.849 60.6629 30.5597 60.3882C31.2475 60.1364 32.0269 60.4798 32.325 61.1666L46.4929 97.9358L54.5855 70.3017C55.4108 70.7138 56.2591 71.1488 57.0615 71.5609L48.0976 102.126L58.735 129.76C58.758 129.806 58.7809 129.828 58.7809 129.874L68.6388 155.425L84.1822 122.136C85.0534 122.41 85.9475 122.662 86.8187 122.937L69.9914 158.951L73.7512 168.681L94.2465 125.158C95.1406 125.478 95.9888 125.776 96.8142 126.119L75.4247 171.566L75.7457 171.749C76.4105 172.138 76.6398 172.94 76.273 173.626C76.1583 173.81 76.0208 173.947 75.8374 174.084L81.3854 188.416C81.4083 188.462 81.4312 188.508 81.4312 188.554L90.3721 211.769L105.549 179.533C106.145 180.357 106.787 181.136 107.452 181.937L91.7247 215.295L94.0402 221.271L110.867 185.532C111.555 186.219 112.266 186.86 112.954 187.524L95.3928 224.819L101.262 240.044C101.285 240.09 101.285 240.113 101.308 240.159L102.935 244.372L124.485 198.582C125.173 199.383 125.792 200.184 126.365 201.032L104.288 247.897L110.501 263.993C110.524 264.015 110.524 264.084 110.546 264.107L110.592 264.153C109.492 264.473 108.414 264.771 107.337 265L49.7483 232.741Z" fill="#E0E8F5"/>
<path fill-rule="evenodd" clip-rule="evenodd" d="M69.991 220.034C69.991 220.034 53.5535 203.069 65.704 179.144C77.8773 155.219 65.1537 142.077 63.7782 133.263C62.4027 124.471 75.2409 115.359 77.8315 104.438C80.3992 93.54 69.1428 86.6029 79.7802 74.0107C90.4176 61.4643 87.4372 54.2982 85.1447 36.2341C82.8751 18.17 102.064 -1.79434 107.314 0.128829C112.564 2.02911 104.219 5.41755 105.388 17.3229C106.58 29.2054 125.172 38.9815 128.405 49.6734C131.637 60.3882 116.965 68.1725 120.037 82.1842C123.109 96.2187 145.255 99.653 146.952 112.818C148.671 126.005 130.904 135.094 130.743 148.259C130.56 161.401 142.412 172.894 145.141 184.41C147.869 195.949 152.843 217.928 127.213 233.565C101.605 249.202 69.991 220.034 69.991 220.034Z" fill="#B0C2E4"/>
<path fill-rule="evenodd" clip-rule="evenodd" d="M62.1279 188.943C62.3572 187.913 62.6323 186.86 62.9762 185.784L106.764 234.367L106.191 220.355C106.168 220.286 106.168 220.24 106.168 220.172L105.87 212.983L68.7992 171.863C69.1431 170.833 69.4411 169.803 69.6933 168.818L105.686 208.724L105.159 196.04L70.8854 158.035C70.8396 156.432 70.6562 154.898 70.4269 153.433L104.976 191.736L104.723 185.463C104.7 185.394 104.7 185.326 104.7 185.257L103.554 157.714L69.2577 119.709C69.785 118.953 70.3581 118.175 70.8854 117.419L103.371 153.456L102.798 139.696L75.7915 109.75C76.25 108.857 76.6626 107.941 77.0065 107.025L102.614 135.438L102.179 125.089C102.179 125.043 102.179 124.998 102.179 124.952L100.918 94.8908L80.8809 72.6599C81.4999 71.9043 82.0501 71.1488 82.5545 70.4162L100.757 90.6095L99.6568 64.3719C99.6568 64.3261 99.6568 64.2575 99.6568 64.2117L97.8457 20.9174C97.7999 20.1619 98.396 19.5208 99.1525 19.5208C99.909 19.475 100.551 20.0474 100.574 20.8258L102.224 60.1822L118.731 36.6004C119.396 37.2644 120.038 37.9283 120.679 38.5923L102.385 64.6696L103.623 94.2498C103.646 94.2956 103.646 94.3185 103.646 94.3642L104.792 121.701L130.171 95.1427C130.904 95.6693 131.661 96.2187 132.417 96.7453L104.953 125.478L105.388 135.896L138.722 101.21C139.478 101.782 140.189 102.377 140.831 102.973L105.984 139.192L106.236 139.467C106.741 140.04 106.695 140.887 106.122 141.39C105.961 141.551 105.778 141.642 105.595 141.711L106.236 157.073C106.236 157.119 106.236 157.165 106.236 157.188L107.268 182.052L131.959 156.364C132.28 157.325 132.624 158.287 132.99 159.225L107.406 185.829L107.658 192.24L135.054 163.759C135.489 164.606 135.948 165.453 136.383 166.3L107.795 196.018L108.483 212.319C108.483 212.365 108.483 212.41 108.483 212.456L108.667 216.966L143.742 180.472C144.132 181.434 144.476 182.418 144.751 183.38L108.919 220.744L109.652 237.984C109.652 238.03 109.652 238.076 109.652 238.098V238.144C108.529 238.121 107.406 238.053 106.282 237.915L62.1279 188.943Z" fill="#C4D1EB"/>
<path fill-rule="evenodd" clip-rule="evenodd" d="M366.463 252.911H297.87C294.821 252.911 292.322 255.384 292.322 258.452V326.931C292.322 329.976 294.821 332.471 297.87 332.471H366.463C369.512 332.471 371.988 329.999 371.988 326.931V258.452C371.988 255.384 369.512 252.911 366.463 252.911Z" fill="#B0C2E4"/>
<path fill-rule="evenodd" clip-rule="evenodd" d="M353.029 173.375H284.436C281.387 173.375 278.911 175.847 278.911 178.892V247.394C278.911 250.439 281.387 252.911 284.436 252.911H353.029C356.078 252.911 358.554 250.439 358.554 247.394V178.892C358.554 175.87 356.078 173.375 353.029 173.375Z" fill="#C4D1EB"/>
<path fill-rule="evenodd" clip-rule="evenodd" d="M339.594 93.8377H271.025C267.975 93.8377 265.477 96.3104 265.477 99.3554V167.857C265.477 170.902 267.952 173.397 271.025 173.397H339.594C342.644 173.397 345.142 170.902 345.142 167.857V99.3554C345.12 96.3104 342.621 93.8377 339.594 93.8377Z" fill="#9DB2D9"/>
<path fill-rule="evenodd" clip-rule="evenodd" d="M254.472 252.911H185.879C182.83 252.911 180.354 255.384 180.354 258.452V326.931C180.354 329.976 182.83 332.471 185.879 332.471H254.472C257.521 332.471 259.997 329.999 259.997 326.931V258.452C259.997 255.384 257.521 252.911 254.472 252.911Z" fill="#C4D1EB"/>
<path fill-rule="evenodd" clip-rule="evenodd" d="M154.517 252.911H85.9245C82.8754 252.911 80.3994 255.384 80.3994 258.452V326.931C80.3994 329.976 82.8754 332.471 85.9245 332.471H154.517C157.566 332.471 160.065 329.999 160.065 326.931V258.452C160.042 255.384 157.543 252.911 154.517 252.911Z" fill="#B0C2E4"/>
<path fill-rule="evenodd" clip-rule="evenodd" d="M163.917 173.375H95.3239C92.2748 173.375 89.7988 175.847 89.7988 178.892V247.394C89.7988 250.439 92.2748 252.911 95.3239 252.911H163.917C166.966 252.911 169.465 250.439 169.465 247.394V178.892C169.465 175.87 166.966 173.375 163.917 173.375Z" fill="#859AC6"/>
<path fill-rule="evenodd" clip-rule="evenodd" d="M145.714 93.8377H77.1212C74.0721 93.8377 71.5732 96.3104 71.5732 99.3554V167.857C71.5732 170.902 74.0721 173.397 77.1212 173.397H145.714C148.763 173.397 151.239 170.902 151.239 167.857V99.3554C151.239 96.3104 148.763 93.8377 145.714 93.8377Z" fill="#9DB2D9"/>
<path fill-rule="evenodd" clip-rule="evenodd" d="M248.695 173.375H180.102C177.053 173.375 174.554 175.847 174.554 178.892V247.394C174.554 250.439 177.053 252.911 180.102 252.911H248.695C251.744 252.911 254.22 250.439 254.22 247.394V178.892C254.22 175.87 251.744 173.375 248.695 173.375Z" fill="#B0C2E4"/>
<path fill-rule="evenodd" clip-rule="evenodd" d="M254.472 93.8377H185.879C182.83 93.8377 180.354 96.3104 180.354 99.3554V167.857C180.354 170.902 182.83 173.397 185.879 173.397H254.472C257.521 173.397 259.997 170.902 259.997 167.857V99.3554C259.997 96.3104 257.521 93.8377 254.472 93.8377Z" fill="#859AC6"/>
<path fill-rule="evenodd" clip-rule="evenodd" d="M380.218 336.066C337.944 336.066 303.647 338.195 303.647 340.828C303.647 343.484 337.921 345.613 380.218 345.613C422.493 345.613 456.789 343.484 456.789 340.828C456.766 338.195 422.493 336.066 380.218 336.066Z" fill="#C4D1EB"/>
<path fill-rule="evenodd" clip-rule="evenodd" d="M84.3885 336.066C37.804 336.066 0 338.195 0 340.828C0 343.484 37.7811 345.613 84.3885 345.613C130.996 345.613 168.777 343.484 168.777 340.828C168.754 338.195 130.996 336.066 84.3885 336.066Z" fill="#C4D1EB"/>
<path fill-rule="evenodd" clip-rule="evenodd" d="M19.3259 340.347C17.0104 339.523 16.8499 338.332 15.589 337.76C14.3281 337.165 14.1906 336.134 15.4056 335.013C16.2997 335.722 17.446 336.615 18.0191 336.134C18.4088 335.814 19.7614 335.837 20.0365 336.318C21.2287 339.042 22.8564 338.172 23.1544 339.431C23.2232 341.057 20.4034 340.713 19.3259 340.347Z" fill="#0E2952"/>
<path fill-rule="evenodd" clip-rule="evenodd" d="M39.1569 340.416C34.8928 340.37 31.7061 340.301 30.2389 339.843C28.6571 339.34 28.978 338.378 29.895 336.821C33.907 338.653 32.8524 336.432 34.7323 336.707C36.062 337.76 38.0106 338.47 40.6012 338.836C41.6787 339.683 41.2431 340.393 39.1569 340.416Z" fill="#0E2952"/>
<path fill-rule="evenodd" clip-rule="evenodd" d="M24.4155 237.068C25.1033 237.114 26.1579 236.977 26.3642 236.748C27.0978 235.832 27.6022 234.87 27.7856 234.275C27.648 233.886 27.4875 233.382 27.327 232.741C24.7135 230.978 24.3468 229.65 26.2496 228.803C26.6393 229.009 27.1207 229.673 27.6939 230.772C28.1524 230.749 28.4963 230.52 28.7255 230.085C28.1982 228.208 27.8314 226.697 27.6709 225.529C28.9777 223.606 32.0038 223.331 36.0158 223.858C36.1992 224.911 36.3368 226.033 36.4743 227.246C37.185 227.91 37.0933 230.314 36.4285 233.107C36.7494 234.687 35.7636 235.557 33.494 235.695C33.4482 236.244 33.5169 236.954 33.5399 237.022C33.5857 237.137 33.792 237.274 34.0671 237.366C34.1588 239.93 30.9264 239.861 24.4155 237.068Z" fill="#F9AF79"/>
<path fill-rule="evenodd" clip-rule="evenodd" d="M27.6708 225.506C27.8542 226.697 28.1981 228.185 28.7254 230.062C28.4961 230.52 28.1522 230.749 27.6937 230.749C27.1206 229.65 26.6392 228.986 26.2494 228.78C24.3466 229.627 24.7134 230.955 27.3269 232.718C27.4874 233.336 27.6479 233.84 27.7854 234.252C25.4241 233.726 23.3608 231.825 23.3379 228.986C24.6905 227.521 26.1577 226.353 27.6708 225.506Z" fill="#20386F"/>
<path fill-rule="evenodd" clip-rule="evenodd" d="M59.8584 246.364C56.282 256.071 54.5856 261.634 49.5878 266.305C47.7996 265.778 46.1949 264.542 44.8193 262.619C44.8881 268.732 44.7276 274.845 44.3608 280.912C40.7157 282.629 35.8784 282.515 29.872 280.591L27.4189 277.592C26.8 277.478 25.3786 278.165 24.6908 279.218C18.9824 274.845 15.1309 270.174 12.8384 265.527C13.4574 255.544 14.81 247.669 16.9191 241.899C17.9737 240.251 20.4725 238.648 24.3928 237.068C30.9036 239.861 34.1361 239.93 34.0444 237.32C35.9472 237.938 38.5148 239.06 41.6786 240.64C44.315 242.655 46.5617 248.058 48.4186 256.918C51.1238 252.637 53.9666 248.447 57.5429 244.715C58.2766 244.944 59.1248 245.471 59.8584 246.364ZM26.1122 274.891C28.015 268.663 26.9604 260.97 22.9943 251.858C21.9856 256.369 20.9081 260.787 19.7389 265.16C21.0686 265.801 23.2007 269.052 26.1122 274.891Z" fill="#6D96CE"/>
<path fill-rule="evenodd" clip-rule="evenodd" d="M25.4016 282.995C26.3186 282.927 27.8087 282.125 29.872 280.591C35.8785 282.537 40.7157 282.629 44.3609 280.912C45.0028 291.146 42.481 301.838 39.2943 313.789C36.1765 319.032 36.314 322.718 34.6405 334.829C33.7235 335.493 32.1875 335.379 30.0554 334.532C29.3676 324.206 29.8491 317.383 32.5314 313.537C32.1187 310.08 33.2191 301.586 33.265 296.251C31.3163 300.601 29.9866 306.463 27.419 312.369C24.3241 319.581 22.1691 327.297 20.5414 334.349C18.822 334.669 17.2172 334.486 15.7041 333.73C17.4235 322.168 19.3492 314.201 21.4584 309.851C21.3896 298.472 22.4671 288.261 24.7138 279.218C25.1264 280.271 25.3557 281.553 25.4016 282.995Z" fill="#20386F"/>
<path fill-rule="evenodd" clip-rule="evenodd" d="M44.8193 262.619C44.613 256.666 44.1315 251.79 43.375 247.989C45.3007 256.071 47.1806 261.428 48.9917 264.084C50.138 264.038 51.4448 263.306 53.1871 262.001C52.1325 263.58 51.0092 265.046 49.5878 266.305C47.7996 265.755 46.1948 264.542 44.8193 262.619Z" fill="#466FB5"/>
<path fill-rule="evenodd" clip-rule="evenodd" d="M27.4187 277.592C27.0749 276.722 26.6393 275.829 26.0891 274.891C27.9919 268.663 26.9373 260.97 22.9712 251.858C28.7713 260.1 30.399 268.869 27.9002 278.187L27.4187 277.592Z" fill="#466FB5"/>
<path fill-rule="evenodd" clip-rule="evenodd" d="M30.8574 235.099C31.4993 235.42 32.3934 235.603 33.4939 235.649C33.448 236.015 33.4709 236.45 33.5168 236.725C32.3705 236.519 31.4993 235.969 30.8574 235.099Z" fill="#ED7D57"/>
<path fill-rule="evenodd" clip-rule="evenodd" d="M30.2842 337.004C30.4905 336.295 30.5822 335.539 30.5363 334.738C32.164 335.31 33.402 335.425 34.2732 335.035C34.2273 335.654 34.2961 336.203 34.4795 336.707C32.9894 336.661 33.6542 338.447 30.2842 337.004ZM19.5321 335.997C19.0278 335.883 18.2942 335.928 18.0191 336.134C17.4918 336.569 16.5518 335.883 15.6807 335.241C15.8182 334.852 15.9329 334.417 16.0475 333.914C17.0562 334.349 18.1108 334.532 19.2341 334.486C19.257 335.104 19.3258 335.608 19.5321 335.997Z" fill="#F9AF79"/>
<path fill-rule="evenodd" clip-rule="evenodd" d="M62.4947 224.819L19.2115 281.004C17.7672 282.881 17.7443 285.331 19.6242 286.773C21.5041 288.215 24.2322 287.872 25.6536 286.017L68.4553 230.452C72.4902 231.413 76.7314 229.971 79.2761 226.697C81.2477 224.155 81.4082 221.385 81.0872 218.5L80.4224 217.333L75.012 224.362L68.7992 223.537L66.2316 217.539L71.5044 210.67L70.7479 209.915C67.2632 210.533 65.2229 211.54 63.1137 213.738C60.569 217.035 61.5777 220.63 62.4947 224.819Z" fill="#9C7357"/>
<path fill-rule="evenodd" clip-rule="evenodd" d="M70.771 209.915C67.8824 209.938 65.0167 211.266 63.1368 213.738C60.5921 217.035 60.4774 221.454 62.5178 224.819L19.2346 281.004C18.0424 282.56 18.3405 284.804 19.8994 285.972C21.4354 287.162 23.6821 286.865 24.8742 285.331L68.1575 229.147C71.9172 230.246 76.1584 229.032 78.7261 225.712C80.6289 223.24 81.1791 220.149 80.4684 217.333L75.058 224.362L68.0658 223.446L65.3835 216.944L70.771 209.915Z" fill="#E5BB9A"/>
<path fill-rule="evenodd" clip-rule="evenodd" d="M14.9248 269.121C17.2403 272.578 20.4498 275.989 24.691 279.241C25.1954 278.393 26.4563 276.379 27.167 276.424C26.4563 275.806 26.6397 275.852 26.1124 274.913C24.0033 270.655 22.3068 267.793 21 266.305C19.464 267.106 17.4466 268.068 14.9248 269.121Z" fill="#6D96CE"/>
<path fill-rule="evenodd" clip-rule="evenodd" d="M26.089 281.416C25.4241 280.133 24.6905 279.08 23.8423 278.302C24.0257 277.066 25.0115 275.829 25.6305 275.692L27.9918 276.837C30.078 277.02 31.7286 277.294 32.9666 277.729C32.0954 278.462 31.2701 278.691 30.4907 278.462C31.4994 279.195 32.0267 279.698 32.0954 279.973C30.7199 282.675 29.5507 283.957 28.542 283.865C27.1435 282.927 26.3412 282.125 26.089 281.416Z" fill="#F9AF79"/>
<path fill-rule="evenodd" clip-rule="evenodd" d="M59.858 246.386C59.9727 246.066 60.4312 244.875 60.8897 243.708C62.0818 243.09 63.251 241.212 63.0905 240.113C62.6779 238.717 62.953 238.007 61.5774 237.663C61.1877 237.801 60.5458 238.694 60.1331 240.113C60.5917 241.006 59.7663 241.739 59.3078 242.357C58.7576 243.25 59.1244 242.586 58.4825 243.593C58.2303 244.12 57.7489 244.555 57.6343 244.852C58.3908 245.081 59.1015 245.471 59.858 246.386Z" fill="#F9AF79"/>
<path fill-rule="evenodd" clip-rule="evenodd" d="M23.2923 229.055C27.4189 224.453 33.1732 222.782 36.1535 224.774C36.4744 220.607 31.9352 217.745 27.075 219.943C21.8022 222.644 22.0543 226.605 23.2923 229.055Z" fill="#6D96CE"/>
<path fill-rule="evenodd" clip-rule="evenodd" d="M36.1532 224.774C33.746 223.377 30.7199 223.743 27.0977 225.873C29.6195 221.362 32.9437 219.119 38.1706 219.966C41.2656 220.63 39.2481 223.171 36.1532 224.774Z" fill="#466FB5"/>
<path fill-rule="evenodd" clip-rule="evenodd" d="M402.869 152.975L426.757 171.886L416.578 179.236L402.869 152.975Z" fill="#C4D1EB"/>
<path fill-rule="evenodd" clip-rule="evenodd" d="M431.869 168.521L403.694 153.273L440.352 166.827L431.869 168.521Z" fill="#C4D1EB"/>
<path fill-rule="evenodd" clip-rule="evenodd" d="M431.869 168.521L427.559 180.77L426.757 171.886L402.869 152.975L403.694 153.273L431.869 168.521Z" fill="#9DB2D9"/>
<path fill-rule="evenodd" clip-rule="evenodd" d="M427.559 180.77L422.241 175.16L426.757 171.886L427.559 180.77Z" fill="#859AC6"/>
<path fill-rule="evenodd" clip-rule="evenodd" d="M433.909 175.893C433.245 175.527 432.74 176.488 433.336 176.832C433.634 177.015 433.955 177.198 434.23 177.404C434.918 177.793 435.377 176.809 434.826 176.511C434.505 176.282 434.207 176.076 433.909 175.893ZM402.845 232.169C403.029 232.856 404.083 232.604 403.877 231.894C403.785 231.573 403.717 231.207 403.625 230.864C403.441 230.108 402.41 230.429 402.57 231.093C402.662 231.459 402.731 231.825 402.845 232.169ZM402.135 227.773C402.135 228.414 403.212 228.505 403.212 227.727C403.189 227.384 403.189 227.017 403.189 226.674C403.189 225.941 402.089 225.964 402.089 226.674C402.089 227.04 402.089 227.429 402.135 227.773ZM402.41 223.331C402.295 224.064 403.304 224.224 403.464 223.537C403.533 223.194 403.602 222.85 403.694 222.507C403.877 221.774 402.8 221.545 402.662 222.232C402.547 222.576 402.456 222.965 402.41 223.331ZM403.808 219.073C403.487 219.622 404.404 220.24 404.771 219.554C404.932 219.256 405.092 218.89 405.275 218.615C405.642 217.997 404.679 217.47 404.336 218.088C404.152 218.386 403.969 218.752 403.808 219.073ZM406.284 215.341C405.826 215.89 406.674 216.577 407.11 216.051C407.362 215.776 407.568 215.524 407.82 215.249C408.302 214.769 407.568 213.99 407.041 214.494C406.789 214.791 406.513 215.043 406.284 215.341ZM409.494 212.273C408.898 212.754 409.654 213.555 410.159 213.143C410.434 212.914 410.732 212.708 411.03 212.502C411.626 212.09 410.984 211.22 410.411 211.609C410.09 211.838 409.792 212.044 409.494 212.273ZM413.231 209.892C412.566 210.258 413.162 211.174 413.735 210.854C414.056 210.67 414.377 210.533 414.698 210.373C415.386 209.984 414.767 209.068 414.239 209.388C413.873 209.549 413.574 209.686 413.231 209.892ZM417.265 208.06C416.578 208.312 416.967 209.32 417.655 209.068L418.664 208.724C419.375 208.45 418.939 207.465 418.32 207.694C417.953 207.809 417.609 207.923 417.265 208.06ZM421.484 206.755C420.796 206.939 421.048 207.992 421.736 207.809L422.768 207.557C423.524 207.374 423.18 206.32 422.538 206.503L421.484 206.755ZM425.817 205.954C425.129 206.046 425.244 207.145 425.977 207.03L427.032 206.916C427.788 206.801 427.605 205.748 426.917 205.84C426.55 205.862 426.183 205.908 425.817 205.954ZM430.195 205.611C429.485 205.702 429.531 206.687 430.264 206.687C430.631 206.664 430.998 206.641 431.365 206.618C432.144 206.526 431.938 205.45 431.273 205.542L430.195 205.611ZM434.505 205.198C433.795 205.29 433.909 206.389 434.643 206.275C435.01 206.229 435.377 206.183 435.743 206.137C436.408 206.046 436.317 204.947 435.56 205.061C435.216 205.107 434.849 205.176 434.505 205.198ZM438.724 204.443C438.036 204.626 438.288 205.679 438.976 205.496C439.32 205.405 439.687 205.313 440.053 205.221C440.695 205.061 440.489 203.985 439.732 204.191C439.411 204.283 439.045 204.351 438.724 204.443ZM442.736 203.115C442.094 203.39 442.483 204.397 443.171 204.1C443.538 203.939 443.859 203.779 444.203 203.619C444.845 203.23 444.295 202.314 443.676 202.657C443.378 202.817 443.034 202.978 442.736 203.115ZM446.197 200.848C445.693 201.352 446.45 202.131 446.954 201.604C447.229 201.329 447.481 201.055 447.733 200.734C448.146 200.23 447.367 199.475 446.862 200.07C446.656 200.368 446.427 200.62 446.197 200.848ZM448.123 197.391C447.963 198.032 449.017 198.353 449.201 197.597C449.269 197.208 449.315 196.842 449.338 196.453C449.338 195.651 448.261 195.743 448.261 196.384C448.238 196.727 448.192 197.025 448.123 197.391ZM447.894 193.339C448.054 193.98 449.132 193.774 448.925 193.041C448.834 192.675 448.719 192.309 448.582 191.965C448.329 191.278 447.321 191.668 447.573 192.354C447.665 192.675 447.802 193.018 447.894 193.339ZM446.197 189.493C446.541 190.088 447.504 189.584 447.137 188.966C446.977 188.645 446.748 188.302 446.541 188.004C446.22 187.455 445.234 187.89 445.647 188.6C445.808 188.829 446.06 189.241 446.197 189.493ZM443.744 186.013C444.226 186.562 445.051 185.852 444.593 185.326C444.363 185.051 444.134 184.776 443.882 184.479C443.446 183.952 442.598 184.616 443.057 185.188C443.309 185.44 443.538 185.738 443.744 186.013ZM440.879 182.83C441.383 183.311 442.162 182.578 441.658 182.052C441.406 181.8 441.131 181.525 440.856 181.296C440.374 180.838 439.572 181.548 440.099 182.098C440.374 182.326 440.626 182.578 440.879 182.83ZM437.692 179.945C438.219 180.403 438.953 179.556 438.38 179.098L437.532 178.411C437.004 177.976 436.271 178.778 436.844 179.259C437.142 179.488 437.417 179.716 437.692 179.945Z" fill="#859AC6"/>
<path fill-rule="evenodd" clip-rule="evenodd" d="M234.068 32.7311L201.125 46.2162L210.18 57.7324L234.068 32.7311Z" fill="#C4D1EB"/>
<path fill-rule="evenodd" clip-rule="evenodd" d="M196.494 40.7902L233.06 32.8228L187.53 36.1425L196.494 40.7902Z" fill="#C4D1EB"/>
<path fill-rule="evenodd" clip-rule="evenodd" d="M196.494 40.7901L197.342 55.9237L201.125 46.2162L234.068 32.7311L233.06 32.8227L196.494 40.7901Z" fill="#9DB2D9"/>
<path fill-rule="evenodd" clip-rule="evenodd" d="M197.342 55.9237L205.136 51.3219L201.125 46.2163L197.342 55.9237Z" fill="#859AC6"/>
<path fill-rule="evenodd" clip-rule="evenodd" d="M188.883 54.8018C189.937 54.6645 189.708 53.1305 188.699 53.245L187.14 53.4282C186.086 53.5426 186.315 55.0995 187.324 54.985L188.883 54.8018ZM134.916 117.465C134.205 117.465 133.884 118.312 134.343 118.793C134.458 118.93 134.687 119.045 134.916 119.045H135.948C136.979 119.045 136.979 117.465 135.925 117.465H134.916ZM140.624 117.328C139.707 117.328 139.57 118.908 140.716 118.908L142.321 118.793C143.444 118.656 143.146 117.099 142.206 117.213L140.624 117.328ZM146.837 116.733C145.851 116.847 145.989 118.404 147.089 118.267L146.837 116.733ZM152.867 115.405C151.927 115.748 152.316 117.168 153.371 116.916C153.898 116.733 154.403 116.572 154.907 116.366C155.87 115.954 155.297 114.535 154.311 114.901C153.83 115.084 153.348 115.244 152.867 115.405ZM158.231 112.726C157.406 113.413 158.438 114.603 159.217 113.962C159.653 113.573 160.065 113.207 160.455 112.772C161.166 111.948 159.905 110.963 159.263 111.741C158.942 112.085 158.598 112.405 158.231 112.726ZM161.166 107.941C161.028 109.063 162.61 109.154 162.702 108.216C162.816 107.643 162.885 107.117 162.885 106.544C162.885 105.445 161.303 105.514 161.303 106.499C161.326 106.979 161.257 107.437 161.166 107.941ZM160.753 102.034C161.005 102.996 162.541 102.675 162.289 101.622C162.151 101.095 161.991 100.592 161.831 100.088C161.441 99.0577 159.996 99.6758 160.34 100.592C160.455 101.072 160.615 101.553 160.753 102.034ZM158.575 96.2645C158.965 97.1803 160.432 96.6079 159.996 95.6235C159.79 95.1427 159.561 94.6619 159.309 94.1582C158.736 93.1508 157.429 94.0437 157.887 94.845C158.14 95.3258 158.369 95.7837 158.575 96.2645ZM155.755 90.6782C156.283 91.6397 157.635 90.7926 157.154 89.9226L156.397 88.526C155.87 87.5645 154.517 88.4116 154.999 89.2816C155.274 89.7395 155.526 90.1974 155.755 90.6782ZM152.798 85.0689C153.371 86.0534 154.678 85.1834 154.219 84.3592L153.531 82.9626C153.004 82.0239 151.697 82.7107 152.11 83.6494L152.798 85.0689ZM150.253 79.1849C150.597 80.1465 151.996 79.7573 151.743 78.7041C151.583 78.2233 151.445 77.7425 151.308 77.2388C151.056 76.2315 149.542 76.6207 149.772 77.6281C149.932 78.1546 150.07 78.6583 150.253 79.1849ZM149.451 72.637C149.336 73.6672 150.895 73.8733 151.033 72.8201C151.078 72.3393 151.17 71.8586 151.285 71.3549C151.537 70.3475 150.001 69.9812 149.749 70.9656C149.634 71.538 149.52 72.0875 149.451 72.637ZM151.881 66.4553C151.262 67.3254 152.569 68.2183 153.165 67.394C153.44 66.9819 153.761 66.5927 154.082 66.2264C154.815 65.3564 153.532 64.4177 152.913 65.1732C152.569 65.5853 152.202 66.0203 151.881 66.4553ZM156.649 61.968C155.847 62.5403 156.581 63.8224 157.543 63.273C157.979 62.9753 158.415 62.7235 158.85 62.4487C159.721 61.9451 158.965 60.5485 158.025 61.0979C157.566 61.3727 157.085 61.6703 156.649 61.968ZM162.358 58.9458C161.395 59.3579 162.037 60.8232 162.977 60.4111C163.458 60.2279 163.94 60.0219 164.421 59.8387C165.384 59.4724 164.857 58.0071 163.871 58.3735C163.344 58.5337 162.839 58.7398 162.358 58.9458ZM168.41 56.8395C167.47 57.0913 167.791 58.6253 168.846 58.3735L170.359 57.9613C171.345 57.7095 170.978 56.1755 169.969 56.4274L168.41 56.8395ZM174.6 55.3284C173.5 55.6032 173.981 57.1142 174.921 56.8624L176.457 56.5419C177.466 56.29 177.214 54.8705 176.159 55.0079L174.6 55.3284ZM180.859 54.2295C179.896 54.3439 180.033 55.9237 181.111 55.7863L182.647 55.5574C183.656 55.4429 183.495 53.8632 182.441 54.0005L180.859 54.2295Z" fill="#859AC6"/>
<path fill-rule="evenodd" clip-rule="evenodd" d="M101.17 329.792C101.17 329.792 99.6567 331.281 99.6337 331.83C99.5879 332.357 99.4962 338.241 100.115 338.79C100.734 339.317 102.545 339.729 101.949 340.347C101.514 340.805 98.1207 340.691 95.874 340.576C95.2091 340.53 94.4067 335.241 94.1316 334.463C93.7419 333.318 92.3893 330.846 92.7332 330.067C92.9166 329.678 94.1546 328.808 95.2779 328.075C96.47 327.297 97.5934 325.58 97.5934 325.58L101.17 329.792Z" fill="#F9AF79"/>
<path fill-rule="evenodd" clip-rule="evenodd" d="M121.436 333.456L120.083 337.348C119.969 337.966 119.579 339.477 119.579 340.027C119.579 342.133 128.933 338.264 126.823 337.325C126.64 337.233 126.044 336.569 125.998 335.86C125.884 334.761 126.778 333.387 126.778 333.387L121.436 333.456Z" fill="#F9AF79"/>
<path fill-rule="evenodd" clip-rule="evenodd" d="M134.32 259.917L137.69 268.663C137.69 268.663 139.914 289.52 138.63 302.021C138.103 307.264 126.456 335.219 126.456 335.219L120.702 334.394L128.428 301.288L125.585 288.628L121.55 263.603L134.32 259.917Z" fill="#0E2952"/>
<path fill-rule="evenodd" clip-rule="evenodd" d="M118.387 260.375L115.498 270.106L111.096 299.503L96.1719 326.976C96.1719 326.976 98.4186 330.434 100.826 330.96L121.986 303.166L133.472 268.388L133.082 260.65L118.387 260.375Z" fill="#223F81"/>
<path fill-rule="evenodd" clip-rule="evenodd" d="M164.054 259.757C161.808 259.643 161.876 260.032 161.578 260.009C161.257 259.986 157.612 257.193 157.612 257.193C157.612 257.193 146.837 248.996 146.287 248.539L139.57 236.175L132.555 237.824C132.555 237.824 140.235 251.057 140.762 251.675C141.289 252.293 157.108 261.657 158.483 262.527C158.483 262.527 159.744 264.176 160.547 265.183C161.372 266.213 162.587 266.786 162.885 267.038C162.931 267.06 163.871 267.839 165.315 268.457C166.553 269.007 165.636 267.93 165.636 267.93C165.636 267.93 163.527 266.488 163.665 266.351C163.779 266.236 164.88 267.083 166.255 267.702C166.599 267.862 166.943 267.999 167.264 268.137C168.089 268.503 168.571 268.114 167.745 267.564C167.447 267.381 166.966 267.106 166.599 266.923C166.186 266.74 165.865 266.465 165.544 266.259C164.925 265.87 164.444 265.572 164.49 265.549C164.536 265.549 164.444 265.366 164.834 265.527C165.292 265.71 166.163 266.328 166.851 266.557C167.241 266.671 168.043 267.015 168.043 267.015C168.043 267.015 169.396 267.381 169.442 267.289C169.648 266.9 168.754 266.374 168.227 266.259C167.906 266.007 167.035 265.71 167.035 265.71C167.035 265.71 165.476 264.702 165.613 264.45C165.728 264.267 169.946 265.962 170.152 265.549C170.313 265.229 169.052 264.656 169.052 264.656C169.052 264.656 168.273 264.382 168.02 264.267C167.722 264.13 166.874 263.649 166.874 263.649C166.874 263.649 163.963 261.886 164.1 261.68C164.261 261.474 164.857 261.108 165.063 261.154C165.269 261.176 165.636 261.497 165.842 261.543C166.072 261.589 166.37 261.451 166.461 261.199C166.53 260.925 165.567 260.306 165.567 260.306C165.567 260.306 164.719 259.803 164.054 259.757Z" fill="#F9AF79"/>
<path fill-rule="evenodd" clip-rule="evenodd" d="M142.252 239.61L135.054 243.662C135.054 243.662 131.959 237.549 130.652 234.573C129.07 230.955 127.465 226.17 127.924 226.079C129.253 225.827 131.065 225.781 132.624 226.697C138.034 229.925 142.252 239.61 142.252 239.61Z" fill="#466FB5"/>
<path fill-rule="evenodd" clip-rule="evenodd" d="M107.108 275.967C105.847 273.906 105.572 274.227 105.434 273.929C105.251 273.608 105.457 268.732 105.457 268.732C105.457 268.732 105.939 254.308 106.007 253.53L112.426 240.205L106.879 234.962C106.879 234.962 100.253 249.66 100.047 250.485C99.8175 251.309 101.353 270.907 101.445 272.647C101.445 272.647 100.803 274.753 100.436 276.081C100.07 277.409 100.299 278.828 100.253 279.218C100.23 279.286 100.161 280.591 100.482 282.24C100.757 283.659 101.147 282.194 101.147 282.194C101.147 282.194 101.078 279.47 101.285 279.515C101.468 279.561 101.399 281.049 101.674 282.606C101.743 282.995 101.835 283.407 101.904 283.774C102.087 284.735 102.729 284.896 102.66 283.865C102.66 283.522 102.614 282.904 102.523 282.469C102.431 282.011 102.477 281.576 102.477 281.141C102.431 280.362 102.385 279.767 102.431 279.79C102.477 279.813 102.569 279.653 102.683 280.065C102.798 280.591 102.798 281.736 103.004 282.469C103.119 282.904 103.325 283.797 103.325 283.797C103.325 283.797 103.875 285.102 103.967 285.102C104.426 285.079 104.288 284.071 104.036 283.499C104.059 283.087 103.807 282.148 103.807 282.148C103.807 282.148 103.715 280.156 103.99 280.111C104.105 280.111 104.311 281.347 104.678 282.515C105.022 283.614 105.549 284.644 105.778 284.621C106.145 284.552 105.893 283.293 105.893 283.293C105.893 283.293 105.641 282.446 105.618 282.148C105.549 281.805 105.434 280.752 105.434 280.752C105.434 280.752 105.205 277.111 105.48 277.111C105.732 277.134 106.397 277.432 106.489 277.638C106.603 277.867 106.535 278.371 106.649 278.577C106.741 278.806 107.039 279.012 107.314 278.92C107.589 278.828 107.543 277.592 107.543 277.592C107.543 277.592 107.475 276.562 107.108 275.967Z" fill="#F9AF79"/>
<path fill-rule="evenodd" clip-rule="evenodd" d="M95.3698 328.052C95.3698 328.052 98.5564 337.806 99.909 338.309C100.276 338.424 102.316 338.928 102.637 339.706L102.683 339.798C102.775 340.278 102.362 340.736 101.858 340.736H95.3698C95.3698 340.736 94.4528 336.34 94.086 334.44C94.086 334.44 92.1602 329.724 92.3665 329.312C92.5729 328.877 95.3698 328.052 95.3698 328.052Z" fill="#0E2952"/>
<path fill-rule="evenodd" clip-rule="evenodd" d="M119.052 340.713L120.106 337.302C120.106 337.302 122.353 338.264 123.476 338.103C124.6 337.943 126.801 337.302 126.801 337.302C131.271 338.79 134.962 339.523 134.274 340.713H119.052Z" fill="#0E2952"/>
<path fill-rule="evenodd" clip-rule="evenodd" d="M161.349 261.84C162.289 262.207 163.183 262.207 164.031 261.68C163.39 262.642 162.014 262.55 161.349 261.84Z" fill="#F48661"/>
<path fill-rule="evenodd" clip-rule="evenodd" d="M119.419 224.682C119.419 224.682 115.063 225.3 113.916 226.124C112.633 227.086 108.644 231.505 108.644 231.505C108.644 231.505 116.965 255.315 116.645 259.551C116.324 263.787 115.384 270.083 115.384 270.083C115.384 270.083 131.684 271.113 137.782 268.686C137.782 268.686 135.741 259.07 135.741 256.552C135.741 254.033 134.641 228.849 133.884 227.521C133.105 226.193 131.546 225.46 128.589 224.797C125.654 224.133 119.419 224.682 119.419 224.682Z" fill="#6D96CE"/>
<path fill-rule="evenodd" clip-rule="evenodd" d="M120.634 217.882L119.556 224.934C119.556 224.934 123.476 233.336 125.838 232.627C127.809 232.008 126.594 224.59 126.594 224.59C126.594 224.59 125.517 220.584 125.838 218.592C126.159 216.577 120.634 217.882 120.634 217.882Z" fill="#F9AF79"/>
<path fill-rule="evenodd" clip-rule="evenodd" d="M125.837 218.569C126.158 216.577 120.633 217.882 120.633 217.882L120.542 218.478C120.702 218.867 120.885 219.21 121.138 219.439C122.376 220.767 124.324 221.568 125.975 221.614C125.814 220.561 125.723 219.393 125.837 218.569Z" fill="#F48661"/>
<path fill-rule="evenodd" clip-rule="evenodd" d="M119.717 207.9C119.579 207.854 118.456 215.936 120.542 218.157C122.628 220.378 126.686 221.133 128.153 219.348C128.887 218.478 130.308 216.051 129.3 213.303C128.268 210.533 128.245 207.694 126.457 206.412C123.202 204.145 119.717 207.9 119.717 207.9Z" fill="#F9AF79"/>
<path fill-rule="evenodd" clip-rule="evenodd" d="M126.274 199.589C123.224 205.817 119.946 204.924 119.373 205.565C114.582 206.114 111.624 214.127 116.484 217.836C118.754 219.576 120.244 220.515 120.244 220.515L120.634 219.439C120.886 218.661 121.001 217.814 120.909 216.966C120.863 216.463 120.748 215.936 120.542 215.501C119.992 214.311 121.734 213.532 122.216 212.571C122.583 211.815 122.605 210.098 123.179 208.885L123.889 207.923C123.889 207.923 125.494 206.664 127.076 207.03C128.658 207.396 129.712 203.321 126.274 199.589Z" fill="#20386F"/>
<path fill-rule="evenodd" clip-rule="evenodd" d="M122.078 214.013C122.101 214.998 121.619 215.822 121.069 215.822C120.473 215.822 120.014 215.043 119.992 214.059C119.969 213.074 120.427 212.273 121 212.25C121.573 212.227 122.032 213.029 122.078 214.013Z" fill="#F9AF79"/>
<path fill-rule="evenodd" clip-rule="evenodd" d="M103.233 240.022L110.524 245.7C110.524 245.7 113.733 242.632 115.361 239.22C116.989 235.763 115.567 225.712 113.825 226.17C109.905 227.2 103.233 240.022 103.233 240.022Z" fill="#466FB5"/>
<path fill-rule="evenodd" clip-rule="evenodd" d="M358.943 115.015C361.075 114.42 361.121 114.809 361.419 114.718C361.74 114.603 364.354 111.169 364.354 111.169C364.354 111.169 372.148 101.004 372.561 100.431L375.106 87.221L382.373 87.2439C382.373 87.2439 379.186 101.507 378.888 102.217C378.59 102.904 366.279 115.29 365.248 116.412C365.248 116.412 364.56 118.244 364.079 119.388C363.62 120.51 362.611 121.357 362.428 121.632C362.405 121.678 361.717 122.617 360.525 123.532C359.516 124.311 360.067 123.074 360.067 123.074C360.067 123.074 361.648 121.243 361.465 121.151C361.327 121.06 360.525 122.113 359.402 122.983C359.127 123.212 358.852 123.441 358.576 123.647C357.889 124.173 357.316 123.899 357.934 123.212C358.164 122.96 358.531 122.571 358.829 122.342C359.172 122.09 359.379 121.724 359.631 121.472C360.112 120.945 360.456 120.579 360.433 120.579C360.388 120.579 360.41 120.396 360.112 120.625C359.723 120.899 359.081 121.678 358.508 122.021C358.164 122.25 357.499 122.708 357.499 122.708C357.499 122.708 356.307 123.212 356.261 123.166C355.94 122.845 356.605 122.273 357.086 122.067C357.316 121.747 358.049 121.289 358.049 121.289C358.049 121.289 359.241 119.961 359.035 119.778C358.943 119.686 358.095 120.419 357.155 120.968C356.261 121.472 355.252 121.861 355.115 121.678C354.862 121.403 355.757 120.716 355.757 120.716C355.757 120.716 356.444 120.258 356.651 120.098C356.903 119.915 357.568 119.274 357.568 119.274C357.568 119.274 359.814 116.939 359.608 116.801C359.402 116.618 358.714 116.412 358.508 116.481C358.324 116.572 358.072 116.939 357.866 117.03C357.682 117.145 357.338 117.076 357.178 116.847C356.995 116.595 357.728 115.794 357.728 115.794C357.728 115.794 358.324 115.176 358.943 115.015Z" fill="#F9AF79"/>
<path fill-rule="evenodd" clip-rule="evenodd" d="M370.361 181.594L370.567 186.173C370.659 186.745 371.025 188.21 371.025 188.714C370.98 190.683 362.199 186.951 364.194 186.081C364.377 186.013 365.294 185.417 365.386 184.73C365.5 183.7 365.753 181.617 365.753 181.617L370.361 181.594Z" fill="#F9AF79"/>
<path fill-rule="evenodd" clip-rule="evenodd" d="M364.217 186.058C364.217 186.058 366.28 186.676 367.334 186.837C368.389 187.02 369.81 185.738 370.544 186.081C371.369 186.47 371.255 190.202 371.255 190.202C371.255 190.202 360.182 190.729 357.064 189.699C355.849 189.309 359.952 187.432 364.217 186.058Z" fill="#0E2952"/>
<path fill-rule="evenodd" clip-rule="evenodd" d="M389.801 182.212L390.03 186.814C390.122 187.386 390.466 188.829 390.466 189.355C390.443 191.324 381.663 187.569 383.634 186.722C383.818 186.631 385.033 185.623 385.101 184.937C385.216 183.906 385.17 182.258 385.17 182.258L389.801 182.212Z" fill="#F9AF79"/>
<path fill-rule="evenodd" clip-rule="evenodd" d="M383.657 186.677C383.657 186.677 385.72 187.318 386.775 187.501C387.829 187.638 389.251 186.402 389.984 186.745C390.81 187.134 390.81 190.569 390.81 190.569C390.81 190.569 378.98 191.301 376.206 190.454C374.968 190.088 379.416 188.073 383.657 186.677Z" fill="#0E2952"/>
<path fill-rule="evenodd" clip-rule="evenodd" d="M376.504 116.091L372.744 117.671L364.514 155.036L364.537 183.105L370.842 183.311C370.842 183.311 374.028 158.79 374.028 156.89C374.051 154.99 387.944 123.715 387.944 123.715L376.504 116.091Z" fill="#20386F"/>
<path fill-rule="evenodd" clip-rule="evenodd" d="M379.347 118.198C379.347 118.198 381.823 147.068 381.754 151.922C381.708 156.799 383.657 184.044 383.657 184.044L389.962 184.066C389.962 184.066 390.512 175.779 391.314 163.576C391.429 161.652 391.222 157.806 391.383 155.814C392.506 141.596 394.592 128.203 393.721 122.891C393.584 122.044 393.332 119.801 392.781 119.228C388.678 114.947 379.347 118.198 379.347 118.198Z" fill="#20386F"/>
<path fill-rule="evenodd" clip-rule="evenodd" d="M371.896 95.3487L379.531 94.8908C379.531 94.8908 379.989 88.091 379.989 84.84C380.035 80.902 381.296 75.1096 380.814 75.2012C379.485 75.4988 377.192 76.6894 376.115 78.1546C372.424 83.2144 371.896 95.3487 371.896 95.3487Z" fill="#466FB5"/>
<path fill-rule="evenodd" clip-rule="evenodd" d="M390.168 75.1554C390.168 75.1554 394.524 75.8194 395.647 76.6665C396.931 77.6281 398.33 79.7573 398.33 79.7573C398.33 79.7573 392.713 104.942 392.667 109.177C392.644 112.451 393.699 120.533 393.699 120.533C393.699 120.533 377.559 121.38 371.461 118.908C371.461 118.908 373.501 109.36 373.501 106.819C373.547 104.301 376.069 81.4286 376.619 79.826C377.124 78.3836 378.018 75.7965 380.975 75.1783C383.955 74.5372 390.168 75.1554 390.168 75.1554Z" fill="#6D96CE"/>
<path fill-rule="evenodd" clip-rule="evenodd" d="M389.067 68.3557L390.076 75.4073C390.076 75.4073 386.041 83.7411 383.703 83.0084C381.731 82.3903 383.015 74.9723 383.015 74.9723C383.015 74.9723 384.138 71.0115 383.84 68.9967C383.542 66.982 389.067 68.3557 389.067 68.3557Z" fill="#F9AF79"/>
<path fill-rule="evenodd" clip-rule="evenodd" d="M383.84 68.9738C383.542 66.9819 389.067 68.3556 389.067 68.3556L389.159 68.9509C388.975 69.3401 388.792 69.6606 388.54 69.9125C387.279 71.2175 385.353 71.9959 383.657 72.0188C383.863 70.9656 383.955 69.8209 383.84 68.9738Z" fill="#F27458"/>
<path fill-rule="evenodd" clip-rule="evenodd" d="M390.076 58.3964C390.236 58.3506 391.268 66.4325 389.136 68.6304C387.027 70.8283 382.969 71.5152 381.525 69.7523C379.92 67.7833 380.103 59.129 383.359 56.8395C386.637 54.6187 390.076 58.3964 390.076 58.3964Z" fill="#F9AF79"/>
<path fill-rule="evenodd" clip-rule="evenodd" d="M384.666 52.5124C387.142 53.0389 388.769 54.5729 389.365 55.2369C390.489 55.3742 392.048 56.0153 393.607 58.6482C395.532 61.8764 394.065 65.4251 391.75 67.1651C389.457 68.9051 389.457 70.9199 389.457 70.9199L389.113 69.8667C388.861 69.0654 388.769 68.2183 388.861 67.394C388.93 66.8904 389.045 66.3409 389.251 65.9059C389.824 64.7382 388.082 63.9369 387.623 62.9753C387.256 62.2198 387.256 60.5027 386.683 59.2664L385.995 58.3048C385.995 58.3048 384.391 57.0455 382.809 57.3661C381.158 57.7324 381.433 51.8255 384.666 52.5124Z" fill="#20386F"/>
<path fill-rule="evenodd" clip-rule="evenodd" d="M387.669 64.4635C387.646 65.448 388.104 66.2722 388.678 66.2951C389.228 66.318 389.732 65.5166 389.755 64.5551C389.778 63.5477 389.342 62.7235 388.769 62.7235C388.173 62.7006 387.692 63.479 387.669 64.4635Z" fill="#F9AF79"/>
<path fill-rule="evenodd" clip-rule="evenodd" d="M396.748 78.4752C395.28 78.4294 393.905 88.0682 394.799 89.0297C395.739 89.9913 395.785 101.874 395.785 101.874L381.961 101.37C381.708 101.187 378.82 99.218 378.407 98.8059C377.972 98.348 375.862 98.554 375.289 99.1493C374.716 99.7446 376.344 99.4698 376.848 99.7903C377.33 100.134 376.619 100.775 376.619 100.775C376.619 100.775 373.111 101.233 372.447 100.523C371.759 99.7903 369.948 98.554 369.696 99.2638C369.558 99.6301 370.475 100.775 371.025 101.233C370.36 100.729 369.581 100.202 369.306 100.294C368.801 100.454 369.008 101.095 369.26 101.279C369.535 101.462 372.286 103.614 372.722 103.751C373.157 103.911 379.622 104.14 380.723 104.392C380.723 104.392 398.903 108.719 399.957 108.468C400.851 108.261 401.837 102.423 401.883 97.9817C401.952 93.54 401.333 78.6584 396.748 78.4752Z" fill="#F9AF79"/>
<path fill-rule="evenodd" clip-rule="evenodd" d="M394.868 76.2544C394.868 76.2544 397.412 76.8726 400.026 79.8718C402.387 82.5734 403.74 97.6382 403.74 97.6382L395.464 98.8746L394.868 91.6169C391.429 86.2824 390.603 79.9634 394.868 76.2544Z" fill="#466FB5"/>
<path fill-rule="evenodd" clip-rule="evenodd" d="M354.886 196.315H358.531L317.999 340.736H314.376L354.886 196.315Z" fill="#9C7357"/>
<path fill-rule="evenodd" clip-rule="evenodd" d="M382.235 196.315H385.858L345.348 340.736H341.703L382.235 196.315Z" fill="#9C7357"/>
<path fill-rule="evenodd" clip-rule="evenodd" d="M355.871 205.748H379.576L378.911 208.175H355.184L355.871 205.748Z" fill="#9C7357"/>
<path fill-rule="evenodd" clip-rule="evenodd" d="M351.653 220.767H375.358L374.693 223.194H350.988L351.653 220.767Z" fill="#9C7357"/>
<path fill-rule="evenodd" clip-rule="evenodd" d="M412.428 219.576H388.723L389.388 222.003H413.116L412.428 219.576Z" fill="#9C7357"/>
<path fill-rule="evenodd" clip-rule="evenodd" d="M347.435 235.786H371.163L370.475 238.213H346.77L347.435 235.786Z" fill="#9C7357"/>
<path fill-rule="evenodd" clip-rule="evenodd" d="M416.647 234.596H392.942L393.607 236.999H417.312L416.647 234.596Z" fill="#9C7357"/>
<path fill-rule="evenodd" clip-rule="evenodd" d="M343.24 250.805H366.944L366.257 253.232H342.552L343.24 250.805Z" fill="#9C7357"/>
<path fill-rule="evenodd" clip-rule="evenodd" d="M339.021 265.824H362.749L362.061 268.251H338.333L339.021 265.824Z" fill="#9C7357"/>
<path fill-rule="evenodd" clip-rule="evenodd" d="M334.803 280.843H358.531L357.843 283.27H334.115L334.803 280.843Z" fill="#9C7357"/>
<path fill-rule="evenodd" clip-rule="evenodd" d="M330.585 295.862H354.29L353.648 298.266H329.92L330.585 295.862Z" fill="#9C7357"/>
<path fill-rule="evenodd" clip-rule="evenodd" d="M326.367 310.881H350.094L349.429 313.285H325.702L326.367 310.881Z" fill="#9C7357"/>
<path fill-rule="evenodd" clip-rule="evenodd" d="M322.171 325.9H345.876L345.188 328.304H321.483L322.171 325.9Z" fill="#9C7357"/>
<path fill-rule="evenodd" clip-rule="evenodd" d="M409.54 196.315H405.917L446.427 340.736H450.049L409.54 196.315Z" fill="#9C7357"/>
<path fill-rule="evenodd" clip-rule="evenodd" d="M382.19 196.315H378.568L419.077 340.736H422.699L382.19 196.315Z" fill="#9C7357"/>
<path fill-rule="evenodd" clip-rule="evenodd" d="M408.554 205.748H384.849L385.514 208.175H409.219L408.554 205.748Z" fill="#9C7357"/>
<path fill-rule="evenodd" clip-rule="evenodd" d="M421.186 250.805H397.481L398.146 253.232H421.874L421.186 250.805Z" fill="#9C7357"/>
<path fill-rule="evenodd" clip-rule="evenodd" d="M425.405 265.824H401.7L402.365 268.251H426.092L425.405 265.824Z" fill="#9C7357"/>
<path fill-rule="evenodd" clip-rule="evenodd" d="M429.622 280.843H405.917L406.582 283.27H430.287L429.622 280.843Z" fill="#9C7357"/>
<path fill-rule="evenodd" clip-rule="evenodd" d="M433.841 295.862H410.113L410.801 298.266H434.505L433.841 295.862Z" fill="#9C7357"/>
<path fill-rule="evenodd" clip-rule="evenodd" d="M438.036 310.881H414.331L415.019 313.285H438.724L438.036 310.881Z" fill="#9C7357"/>
<path fill-rule="evenodd" clip-rule="evenodd" d="M442.254 325.9H418.526L419.214 328.304H442.942L442.254 325.9Z" fill="#9C7357"/>
<path d="M414.767 190.614H350.071V196.292H414.767V190.614Z" fill="#D0A382"/>
<path fill-rule="evenodd" clip-rule="evenodd" d="M317.333 215.089C318.227 212.639 319.167 210.212 321.896 208.656C324.119 207.396 326.572 207.396 328.727 208.472C334.848 211.449 332.097 216.829 336.086 222.53C337.783 224.957 340.328 226.216 341.611 228.757C343.927 233.382 341.909 240.869 335.72 245.081C320.566 255.407 312.221 236.977 312.198 233.016C312.152 230.039 316.76 216.669 317.333 215.089Z" fill="#002923"/>
<path fill-rule="evenodd" clip-rule="evenodd" d="M297.87 261.68C299.681 261.108 299.704 261.428 299.933 261.36C300.186 261.268 302.547 258.223 302.547 258.223C302.547 258.223 309.562 249.271 309.906 248.768L312.749 237.297L318.801 237.16C318.801 237.16 315.385 249.546 315.11 250.164C314.812 250.782 303.922 261.749 303.005 262.756C303.005 262.756 302.318 264.359 301.905 265.366C301.446 266.351 300.575 267.083 300.415 267.358C300.369 267.381 299.773 268.228 298.741 269.029C297.847 269.762 298.374 268.663 298.374 268.663C298.374 268.663 299.773 267.061 299.635 266.969C299.521 266.9 298.81 267.816 297.824 268.617C297.572 268.823 297.32 269.007 297.091 269.19C296.472 269.671 296.036 269.442 296.563 268.823C296.77 268.617 297.091 268.297 297.366 268.068C297.664 267.816 297.847 267.541 298.076 267.289C298.489 266.832 298.833 266.511 298.81 266.511C298.764 266.488 298.787 266.328 298.512 266.557C298.191 266.809 297.618 267.473 297.091 267.816C296.816 267.999 296.219 268.434 296.219 268.434C296.219 268.434 295.188 269.007 295.165 268.961C294.913 268.709 295.509 268.068 295.921 267.862C296.128 267.587 296.747 267.175 296.747 267.175C296.747 267.175 297.824 266.007 297.641 265.847C297.526 265.71 294.431 267.976 294.179 267.702C293.996 267.45 294.89 266.74 294.89 266.74C294.89 266.74 295.463 266.351 295.646 266.213C295.876 266.03 296.472 265.458 296.472 265.458C296.472 265.458 298.443 263.42 298.306 263.26C298.145 263.145 297.572 262.962 297.412 263.054C297.228 263.145 297.022 263.443 296.861 263.512C296.678 263.603 296.403 263.558 296.265 263.374C296.151 263.168 296.793 262.459 296.793 262.459C296.793 262.459 297.343 261.84 297.87 261.68Z" fill="#F9AF79"/>
<path fill-rule="evenodd" clip-rule="evenodd" d="M331.456 245.448C331.892 245.081 337.875 239.907 340.512 237.618C340.512 237.618 337.852 235.626 336.202 238.511C334.574 241.395 331.456 245.448 331.456 245.448Z" fill="#233761"/>
<path fill-rule="evenodd" clip-rule="evenodd" d="M322.011 245.791C322.011 245.791 322.653 248.058 325.839 251.996C329.507 251.95 322.011 245.791 322.011 245.791Z" fill="#233761"/>
<path fill-rule="evenodd" clip-rule="evenodd" d="M306.628 306.096C307.636 308.683 312.795 313.995 318.113 319.009C324.487 324.985 331.066 330.548 331.066 330.548C331.066 330.548 334.092 331.464 332.763 327.045C332.763 327.045 325.495 313.697 322.377 309.782C321.483 308.661 320.566 307.607 319.695 306.737C317.54 304.494 315.752 303.12 315.752 303.12C315.752 303.12 316.142 302.456 316.807 301.311C320.062 295.771 329.37 278.806 326.481 271.25C323.019 262.184 314.422 258.086 314.422 258.086C314.422 258.086 311.694 269.579 309.402 281.393C307.315 292.245 305.573 303.372 306.628 306.096Z" fill="#223F81"/>
<path fill-rule="evenodd" clip-rule="evenodd" d="M309.447 281.393C311.029 288.65 313.78 298.953 316.852 301.311C320.108 295.771 329.415 278.806 326.527 271.25C323.065 262.184 314.468 258.086 314.468 258.086C314.468 258.086 311.74 269.579 309.447 281.393Z" fill="#20386F"/>
<path fill-rule="evenodd" clip-rule="evenodd" d="M318.136 318.986C324.51 324.962 331.089 330.525 331.089 330.525C331.089 330.525 334.115 331.441 332.786 327.022C332.786 327.022 325.518 313.675 322.4 309.759C321.506 308.638 320.589 307.584 319.718 306.714C319.833 310.126 319.718 315.895 318.136 318.986Z" fill="#20386F"/>
<path fill-rule="evenodd" clip-rule="evenodd" d="M316.623 262.642L317.242 260.421C321.46 262.253 333.909 259.574 333.909 259.574C333.909 259.574 337.6 263.97 335.697 272.853C334.78 277.203 331.479 295.771 330.126 301.197C329.645 303.166 329.255 304.562 329.094 305.135C329.049 305.318 329.094 305.478 329.14 305.638C329.713 307.058 330.149 308.523 330.47 309.966C333.565 324.366 325.128 340.278 325.128 340.278L323.684 339.431C323.684 339.431 323.134 320.222 321.644 311.568C321.392 310.103 321.116 308.935 320.795 308.226C319.901 306.119 319.259 302.822 318.824 298.953C317.999 291.627 317.838 282.263 317.884 275.028C317.723 275.028 316.623 262.642 316.623 262.642Z" fill="#223F81"/>
<path fill-rule="evenodd" clip-rule="evenodd" d="M335.743 264.977C337.439 262.367 331.547 251.767 331.777 250.759C332.166 248.79 333.152 246.592 334.092 244.646C335.055 242.677 335.995 240.937 336.316 239.838C335.995 239.403 335.72 239.014 335.422 238.625C335.009 238.053 334.619 237.526 334.39 237.022C334.138 236.496 334 235.992 334.138 235.488C334.23 235.099 334.367 234.733 334.528 234.389C334.596 234.206 334.688 234.069 334.757 233.886C335.651 232.146 336.958 230.703 336.958 230.703C334.872 229.375 331.593 228.712 331.57 228.803C331.318 228.734 331.112 228.666 330.928 228.62C330.814 228.574 330.676 228.551 330.562 228.528C330.172 228.414 329.736 228.345 329.37 228.277C328.613 227.521 327.742 224.751 327.994 220.675L327.627 220.721L321.575 221.545C321.575 221.545 321.598 223.446 321.483 225.209C321.391 226.605 321.231 227.91 320.956 228.185C320.474 228.231 320.199 228.254 320.199 228.254V228.277C319.855 228.322 319.535 228.322 319.237 228.368C319.237 228.368 319.214 228.368 319.191 228.368C318.663 228.437 318.205 228.505 317.861 228.551L317.769 228.574C316.738 228.757 316.394 228.94 316.394 228.94V228.963C316.44 230.864 313.368 234.206 313.574 238.511C313.574 238.671 315.156 249.981 315.133 250.141C315.018 253.369 313.436 262.413 313.436 262.413C312.038 265.183 334.803 267.656 335.743 264.977Z" fill="#F9AF79"/>
<path fill-rule="evenodd" clip-rule="evenodd" d="M321.621 221.523C321.621 221.523 321.643 223.423 321.529 225.186C324.876 225.3 326.848 222.37 327.65 220.721L321.621 221.523Z" fill="#ED9760"/>
<path fill-rule="evenodd" clip-rule="evenodd" d="M320.383 223.125C320.383 223.125 328.292 223.72 328.613 218.798C328.911 213.876 330.149 210.647 325.105 210.029C320.062 209.411 318.984 211.243 318.48 212.845C317.976 214.517 318.342 222.85 320.383 223.125Z" fill="#F9AF79"/>
<path fill-rule="evenodd" clip-rule="evenodd" d="M318.87 210.167C320.199 208.77 321.093 209.136 321.575 209.64C326.045 207.534 328.636 211.197 328.636 211.197C328.957 214.769 331.387 216.944 331.387 216.944C331.387 216.944 329.874 217.745 326.619 216.692C325.61 216.371 324.762 215.593 324.028 214.654C325.243 216.989 326.985 218.729 326.985 218.729C323.111 216.669 321.873 211.037 321.735 210.441C321.231 210.854 320.199 211.724 319.856 212.639C319.397 213.876 319.053 216.44 318.297 216.302C318.274 216.302 316.898 212.273 318.87 210.167Z" fill="#002923"/>
<path fill-rule="evenodd" clip-rule="evenodd" d="M315.683 340.736H327.971C327.971 340.736 328.43 338.767 327.627 337.462C326.917 336.272 327.352 335.493 327.673 334.486C327.123 334.715 326.435 335.081 325.656 335.013C325.037 334.99 324.097 334.532 323.524 334.188C322.996 334.807 321.048 337.531 320.337 338.035C319.489 338.63 315.912 338.401 315.683 340.736Z" fill="#0E2952"/>
<path fill-rule="evenodd" clip-rule="evenodd" d="M333.932 340.439L338.563 329.083C338.563 329.083 336.912 327.915 335.376 328.19C334 328.396 333.473 327.892 332.785 327.045C332.785 327.64 332.694 328.373 332.373 329.083C332.098 329.632 331.616 330.136 331.089 330.548C331.433 331.258 332.969 334.303 333.175 335.15C333.381 336.112 331.868 339.34 333.932 340.439Z" fill="#0E2952"/>
<path fill-rule="evenodd" clip-rule="evenodd" d="M315.179 250.095C315.179 250.004 314.698 246.455 314.285 243.296C313.322 243.181 312.176 242.975 311.167 242.517C311.236 241.121 312.13 229.375 317.082 228.712C317.334 228.643 317.563 228.597 317.792 228.528C317.815 228.528 317.838 228.528 317.884 228.505C318.503 228.391 319.03 228.322 319.214 228.322C319.26 228.299 319.26 228.299 319.26 228.299C319.26 228.299 317.792 232.489 317.815 232.993C317.838 233.474 322.584 233.657 325.702 233.68C328.819 233.726 330.539 228.551 330.562 228.483C330.676 228.505 330.814 228.528 330.929 228.574C331.112 228.62 335.239 229.261 336.958 230.681C336.958 230.681 335.628 232.1 334.757 233.863C334.688 234.046 334.597 234.183 334.528 234.367C334.367 234.733 334.23 235.099 334.138 235.466C334.001 235.946 334.115 236.45 334.39 237C334.62 237.503 335.009 238.03 335.422 238.602C335.697 238.991 335.995 239.381 336.316 239.816C336.201 240.182 336.018 240.64 335.789 241.143C335.353 242.105 334.734 243.318 334.092 244.624C333.129 246.592 332.167 248.768 331.777 250.736C331.571 251.744 337.462 262.344 335.743 264.954C335.468 265.756 333.267 266.076 330.378 266.099C323.478 266.145 312.474 264.336 313.482 262.344C313.482 262.39 315.064 253.324 315.179 250.095Z" fill="#6D96CE"/>
<path fill-rule="evenodd" clip-rule="evenodd" d="M330.378 266.122C333.29 266.099 335.468 265.778 335.743 264.977C337.439 262.367 331.547 251.767 331.777 250.759C332.166 248.79 333.152 246.592 334.092 244.646C334.711 243.364 335.353 242.151 335.789 241.166C335.536 240.205 335.399 239.632 335.399 239.632C335.399 239.632 329.117 246.936 327.673 250.37C326.527 253.095 329.163 262.275 330.378 266.122Z" fill="#466FB5"/>
<path fill-rule="evenodd" clip-rule="evenodd" d="M333.359 261.176L334.597 263.329C342.575 260.169 347.664 253.049 347.664 253.049C347.939 249.019 346.06 244.372 343.79 240.365C343.4 239.701 343.033 239.037 342.644 238.442C341.039 239.816 338.792 241.601 336.66 242.906C336.981 243.433 337.394 244.12 337.829 244.807C339.595 247.714 341.887 251.469 342.185 251.767C342.667 252.247 333.359 261.176 333.359 261.176Z" fill="#F9AF79"/>
<path fill-rule="evenodd" clip-rule="evenodd" d="M337.485 245.677C341.406 245.425 344.317 240.296 344.317 240.296C341.268 234.893 336.981 230.681 336.981 230.681C326.069 234.847 335.72 244.509 337.485 245.677Z" fill="#6D96CE"/>
<path fill-rule="evenodd" clip-rule="evenodd" d="M333.358 261.176C333.358 261.176 332.671 261.062 332.258 260.696C331.822 260.306 330.424 259.23 330.355 259.574C330.263 259.917 331.364 260.421 330.791 260.513C330.218 260.604 329.323 260.215 328.406 260.352C327.512 260.49 326.114 262.573 326.527 262.802C326.962 263.054 328.521 262.253 328.934 262.527C329.323 262.802 332.258 264.428 334.596 263.351C336.935 262.253 333.358 261.176 333.358 261.176Z" fill="#F9AF79"/>
</svg>
