<svg width="148" height="151" viewBox="0 0 148 151" fill="none" xmlns="http://www.w3.org/2000/svg">
<path d="M107.69 0H35.9501L0.0800781 62.135L35.9501 124.27H107.69L143.56 62.135L107.69 0ZM104.46 117.895L104.205 118.405H39.3501L6.88008 62.22L39.3501 5.95H39.8601L47.2551 18.7L55.0751 5.1H56.0951L47.7651 19.55L51.6751 26.35L64.0001 5.1H65.3601L52.3551 27.625L56.0101 34L72.6701 5.1H74.7101L57.0301 35.785L60.3451 41.565L81.4251 5.1H84.1451L61.7051 43.945L64.7651 49.215L90.1801 5.1H93.5801L66.3801 52.19L69.0151 56.78L98.8501 5.1H103.015L71.1401 60.35L73.6901 64.77L105.65 9.435L108.37 14.195L76.4101 69.53L104.46 117.895Z" fill="#666666" fill-opacity="0.5"/>
<path d="M10.1951 145.605C10.5351 146.115 10.7901 146.71 10.7901 147.39C10.7901 148.41 10.4501 149.175 9.68506 149.685C8.92005 150.195 7.81508 150.45 6.37008 150.45H0.675049V139.06H6.03005C7.39006 139.06 8.41007 139.315 9.17507 139.825C9.94008 140.335 10.2801 141.1 10.2801 142.035C10.2801 142.63 10.1101 143.14 9.85507 143.565C9.60007 143.99 9.26007 144.33 8.75007 144.585C9.34508 144.755 9.85509 145.095 10.1951 145.605ZM2.71508 140.76V143.905H5.69008C6.45509 143.905 6.96509 143.735 7.39009 143.48C7.81509 143.225 7.98505 142.8 7.98505 142.29C7.98505 141.78 7.81509 141.355 7.39009 141.1C6.96509 140.845 6.45509 140.675 5.69008 140.675H2.71508V140.76ZM8.58006 147.22C8.58006 146.115 7.73009 145.605 6.11509 145.605H2.71508V148.92H6.11509C7.81509 148.835 8.58006 148.325 8.58006 147.22Z" fill="#666666" fill-opacity="0.5"/>
<path d="M23.7099 150.535L21.415 147.22C21.33 147.22 21.16 147.22 20.99 147.22H18.4399V150.535H16.3149V139.145H20.99C22.01 139.145 22.86 139.315 23.54 139.655C24.305 139.995 24.815 140.42 25.24 141.015C25.665 141.61 25.8349 142.375 25.8349 143.225C25.8349 144.075 25.665 144.84 25.24 145.435C24.815 146.03 24.2199 146.54 23.4549 146.795L26.09 150.535H23.7099ZM22.9449 141.525C22.4349 141.1 21.7549 140.93 20.8199 140.93H18.3549V145.52H20.8199C21.7549 145.52 22.4349 145.35 22.9449 144.925C23.4549 144.5 23.6249 143.99 23.6249 143.225C23.7099 142.46 23.4549 141.865 22.9449 141.525Z" fill="#666666" fill-opacity="0.5"/>
<path d="M38.8401 147.9H33.1451L32.0401 150.535H29.8301L34.9301 139.145H37.055L42.2401 150.535H40.03L38.8401 147.9ZM38.16 146.2L36.035 141.185L33.91 146.2H38.16Z" fill="#666666" fill-opacity="0.5"/>
<path d="M57.03 139.145V150.535H55.2451L48.9551 142.8V150.535H46.8301V139.145H48.6151L54.905 146.88V139.145H57.03Z" fill="#666666" fill-opacity="0.5"/>
<path d="M63.405 139.145H68.42C69.61 139.145 70.715 139.4 71.65 139.825C72.585 140.335 73.35 140.93 73.86 141.865C74.37 142.715 74.625 143.735 74.625 144.84C74.625 145.945 74.37 146.965 73.86 147.815C73.35 148.665 72.585 149.345 71.65 149.855C70.715 150.365 69.61 150.535 68.42 150.535H63.405V139.145ZM68.25 148.75C69.1 148.75 69.865 148.58 70.46 148.24C71.055 147.9 71.565 147.475 71.905 146.88C72.245 146.285 72.415 145.605 72.415 144.84C72.415 144.075 72.245 143.395 71.905 142.8C71.565 142.205 71.055 141.78 70.46 141.44C69.865 141.1 69.1 140.93 68.25 140.93H65.445V148.75H68.25Z" fill="#666666" fill-opacity="0.5"/>
<path d="M98 139.145V150.535H96.3L90.01 142.8V150.535H87.885V139.145H89.67L95.96 146.88V139.145H98Z" fill="#666666" fill-opacity="0.5"/>
<path d="M111.77 147.9H106.075L104.97 150.535H102.76L107.86 139.145H109.985L115.17 150.535H112.96L111.77 147.9ZM111.005 146.2L108.88 141.185L106.755 146.2H111.005Z" fill="#666666" fill-opacity="0.5"/>
<path d="M130.3 150.535V142.97L126.56 149.26H125.625L121.885 143.14V150.62H119.845V139.23H121.63L126.135 146.795L130.555 139.23H132.34V150.62H130.3V150.535Z" fill="#666666" fill-opacity="0.5"/>
<path d="M147.215 148.75V150.535H138.63V139.145H146.96V140.93H140.755V143.905H146.28V145.69H140.755V148.835H147.215V148.75Z" fill="#666666" fill-opacity="0.5"/>
</svg>
