<svg width="126" height="151" viewBox="0 0 126 151" fill="none" xmlns="http://www.w3.org/2000/svg">
<path d="M19.3799 0L41.6499 22.27H103.7V84.32L125.97 106.59V0H19.3799Z" fill="#B2B2B2"/>
<path d="M0.679932 22.27V125.29H103.7V84.32L41.6499 22.27H0.679932V22.27ZM84.0649 110.16H16.9999V40.885H21.7599V105.4H84.1499V110.16H84.0649Z" fill="#B2B2B2"/>
<path d="M8.92499 148.325C9.00999 148.325 9.095 148.325 9.18 148.41L9.77499 149.09C9.26499 149.685 8.75499 150.11 8.075 150.365C7.395 150.705 6.545 150.79 5.61 150.79C4.76 150.79 3.995 150.62 3.315 150.365C2.635 150.11 2.04 149.685 1.53 149.175C1.02 148.665 0.68 147.985 0.425 147.305C0.17 146.54 0 145.775 0 144.925C0 144.075 0.17 143.225 0.425 142.545C0.68 141.78 1.105 141.185 1.615 140.675C2.125 140.165 2.72 139.74 3.485 139.485C4.165 139.23 5.015 139.06 5.865 139.06C6.715 139.06 7.48 139.23 8.075 139.485C8.66999 139.74 9.26499 140.08 9.77499 140.59L9.265 141.355C9.265 141.44 9.18 141.44 9.095 141.525C9.01 141.525 9.00999 141.61 8.92499 141.61C8.83999 141.61 8.755 141.61 8.67 141.525C8.585 141.44 8.5 141.44 8.415 141.355C8.33 141.27 8.16 141.185 7.99 141.1C7.82 141.015 7.65 140.93 7.48 140.845C7.31 140.76 7.055 140.675 6.8 140.675C6.545 140.59 6.205 140.59 5.865 140.59C5.27 140.59 4.675 140.675 4.165 140.93C3.655 141.185 3.23 141.44 2.805 141.865C2.465 142.29 2.125 142.715 1.955 143.31C1.785 143.905 1.615 144.5 1.615 145.265C1.615 146.03 1.7 146.625 1.955 147.22C2.125 147.815 2.465 148.24 2.805 148.665C3.145 149.09 3.57 149.345 4.08 149.6C4.59 149.77 5.1 149.94 5.695 149.94C6.035 149.94 6.375 149.94 6.63 149.855C6.885 149.855 7.14 149.77 7.395 149.685C7.65 149.6 7.82 149.515 8.075 149.345C8.245 149.175 8.5 149.09 8.67 148.835C8.755 148.41 8.83999 148.325 8.92499 148.325Z" fill="#B2B2B2"/>
<path d="M26.7751 144.925C26.7751 145.775 26.6051 146.625 26.3501 147.305C26.0951 148.07 25.6701 148.665 25.1601 149.175C24.6501 149.685 24.0551 150.11 23.3751 150.365C22.6951 150.62 21.8451 150.79 20.9951 150.79C20.1451 150.79 19.3801 150.62 18.6151 150.365C17.9351 150.11 17.3401 149.685 16.8301 149.175C16.3201 148.665 15.8951 147.985 15.6401 147.305C15.3851 146.54 15.2151 145.775 15.2151 144.925C15.2151 144.075 15.3851 143.225 15.6401 142.545C15.8951 141.78 16.3201 141.185 16.8301 140.675C17.3401 140.165 17.9351 139.74 18.6151 139.4C19.2951 139.145 20.1451 138.975 20.9951 138.975C21.8451 138.975 22.6101 139.145 23.3751 139.4C24.0551 139.655 24.6501 140.08 25.1601 140.675C25.6701 141.185 26.0951 141.865 26.3501 142.545C26.6901 143.225 26.7751 144.075 26.7751 144.925ZM25.1601 144.925C25.1601 144.245 25.0751 143.565 24.9051 142.97C24.7351 142.375 24.3951 141.95 24.0551 141.525C23.7151 141.1 23.2901 140.845 22.7801 140.59C22.2701 140.42 21.6751 140.25 21.0801 140.25C20.4851 140.25 19.8901 140.335 19.3801 140.59C18.8701 140.76 18.4451 141.1 18.1051 141.525C17.7651 141.95 17.4251 142.375 17.2551 142.97C17.0851 143.565 17.0001 144.16 17.0001 144.925C17.0001 145.605 17.0851 146.285 17.2551 146.88C17.4251 147.475 17.7651 147.9 18.1051 148.325C18.4451 148.75 18.8701 149.005 19.3801 149.26C19.8901 149.43 20.4851 149.6 21.0801 149.6C21.6751 149.6 22.2701 149.515 22.7801 149.26C23.2901 149.09 23.7151 148.75 24.0551 148.325C24.3951 147.9 24.6501 147.475 24.9051 146.88C25.0751 146.285 25.1601 145.605 25.1601 144.925Z" fill="#B2B2B2"/>
<path d="M39.0149 146.965C39.0999 147.135 39.0999 147.22 39.1849 147.39C39.2699 147.22 39.2699 147.05 39.3549 146.965C39.4399 146.795 39.5249 146.71 39.5249 146.54L43.5199 139.4C43.6049 139.315 43.6899 139.23 43.7749 139.145C43.8599 139.145 43.9449 139.145 44.1149 139.145H45.3049V150.79H43.9449V142.205C43.9449 142.12 43.9449 141.95 43.9449 141.865C43.9449 141.695 43.9449 141.61 43.9449 141.44L39.9499 148.75C39.7799 149.005 39.6099 149.09 39.3549 149.09H39.0999C38.8449 149.09 38.6749 149.005 38.5049 148.75L34.4249 141.44C34.4249 141.61 34.4249 141.695 34.4249 141.865C34.4249 142.035 34.4249 142.12 34.4249 142.205V150.79H33.0649V139.145H34.2549C34.4249 139.145 34.5099 139.145 34.5949 139.145C34.6799 139.145 34.7649 139.23 34.8499 139.4L38.8449 146.625C38.8449 146.71 38.9299 146.795 39.0149 146.965Z" fill="#B2B2B2"/>
<path d="M53.8899 146.37V150.705H52.2749V139.06H55.7599C56.5249 139.06 57.1199 139.145 57.7149 139.315C58.2249 139.485 58.7349 139.74 59.0749 140.08C59.4149 140.42 59.6699 140.76 59.8399 141.185C60.0099 141.61 60.0949 142.12 60.0949 142.715C60.0949 143.225 60.0099 143.735 59.8399 144.245C59.6699 144.67 59.3299 145.095 58.9899 145.435C58.6499 145.775 58.1399 146.03 57.6299 146.2C57.1199 146.37 56.4399 146.455 55.7599 146.455H53.8899V146.37ZM53.8899 145.18H55.7599C56.1849 145.18 56.6099 145.095 56.9499 145.01C57.2899 144.925 57.5449 144.755 57.7999 144.5C58.0549 144.245 58.2249 143.99 58.3099 143.735C58.3949 143.395 58.4799 143.14 58.4799 142.715C58.4799 141.95 58.2249 141.355 57.7999 140.93C57.3749 140.505 56.6099 140.335 55.6749 140.335H53.8049V145.18H53.8899Z" fill="#B2B2B2"/>
<path d="M74.63 150.79H73.44C73.27 150.79 73.185 150.79 73.1 150.705C73.015 150.62 72.93 150.535 72.93 150.45L71.825 147.645H66.555L65.45 150.45C65.45 150.535 65.365 150.62 65.28 150.705C65.195 150.79 65.11 150.79 64.94 150.79H63.75L68.425 139.145H70.04L74.63 150.79ZM66.98 146.455H71.315L69.445 141.695C69.36 141.44 69.19 141.015 69.105 140.59C69.02 140.845 69.02 141.015 68.935 141.185C68.85 141.355 68.85 141.525 68.765 141.695L66.98 146.455Z" fill="#B2B2B2"/>
<path d="M81.345 139.145C81.43 139.145 81.515 139.23 81.6 139.4L88.4 148.24C88.4 148.07 88.4 147.985 88.4 147.815C88.4 147.645 88.4 147.56 88.4 147.39V139.145H89.76V150.79H88.995C88.91 150.79 88.74 150.79 88.655 150.705C88.57 150.62 88.485 150.62 88.4 150.45L81.685 141.695C81.685 141.865 81.685 141.95 81.685 142.12C81.685 142.29 81.685 142.375 81.685 142.46V150.79H80.155V139.145H81.005C81.175 139.06 81.26 139.145 81.345 139.145Z" fill="#B2B2B2"/>
<path d="M101.065 146.115V150.79H99.4499V146.115L95.2 139.06H96.56C96.73 139.06 96.815 139.06 96.9 139.145C96.985 139.23 97.07 139.315 97.155 139.4L99.79 143.905C99.875 144.075 99.9599 144.245 100.045 144.415C100.13 144.585 100.215 144.755 100.215 144.925C100.3 144.755 100.3 144.585 100.385 144.415C100.47 144.245 100.555 144.075 100.64 143.905L103.275 139.4C103.36 139.315 103.36 139.23 103.445 139.145C103.53 139.06 103.615 139.06 103.785 139.06H105.145L101.065 146.115Z" fill="#B2B2B2"/>
</svg>
