<svg width="40" height="40" viewBox="0 0 40 40" fill="none" xmlns="http://www.w3.org/2000/svg">
<path d="M33.5225 23.8441C32.6534 22.9391 31.605 22.4552 30.4939 22.4552C29.3917 22.4552 28.3344 22.9301 27.4293 23.8351L24.5978 26.6577C24.3648 26.5323 24.1319 26.4158 23.9078 26.2993C23.5853 26.138 23.2806 25.9857 23.0207 25.8244C20.3684 24.1398 17.958 21.9444 15.6462 19.1039C14.5261 17.6882 13.7734 16.4964 13.2268 15.2867C13.9616 14.6147 14.6426 13.9158 15.3057 13.2437C15.5566 12.9928 15.8075 12.733 16.0584 12.4821C17.9401 10.6004 17.9401 8.16308 16.0584 6.28136L13.6121 3.83513C13.3344 3.55735 13.0476 3.27061 12.7788 2.98387C12.2412 2.42832 11.6767 1.85484 11.0942 1.3172C10.225 0.456989 9.18562 0 8.09243 0C6.99924 0 5.94189 0.456989 5.04583 1.3172C5.03687 1.32616 5.03687 1.32616 5.02791 1.33513L1.98132 4.4086C0.834362 5.55556 0.180241 6.95341 0.0368714 8.57527C-0.178182 11.1918 0.592427 13.629 1.18382 15.224C2.63544 19.1398 4.8039 22.7688 8.03866 26.6577C11.9634 31.3441 16.6856 35.0448 22.0799 37.6523C24.1408 38.629 26.8917 39.7849 29.9652 39.9821C30.1534 39.991 30.3505 40 30.5297 40C32.5996 40 34.3379 39.2563 35.7 37.7778C35.7089 37.7599 35.7268 37.7509 35.7358 37.733C36.2017 37.1685 36.7394 36.6577 37.3039 36.1111C37.6892 35.7437 38.0835 35.3584 38.4688 34.9552C39.3559 34.0323 39.8218 32.957 39.8218 31.8548C39.8218 30.7437 39.3469 29.6774 38.4419 28.7814L33.5225 23.8441ZM36.7304 33.2796C36.7215 33.2796 36.7215 33.2885 36.7304 33.2796C36.381 33.6559 36.0225 33.9964 35.6372 34.3728C35.0548 34.9283 34.4634 35.5108 33.9078 36.1649C33.0028 37.1326 31.9365 37.5896 30.5387 37.5896C30.4043 37.5896 30.2609 37.5896 30.1265 37.5806C27.4652 37.4104 24.9921 36.371 23.1372 35.4839C18.0655 33.0287 13.6121 29.543 9.91142 25.1254C6.85587 21.4427 4.81286 18.0376 3.45981 14.3817C2.62648 12.1505 2.32182 10.4122 2.45623 8.7724C2.54583 7.72401 2.94906 6.85484 3.69279 6.11111L6.74834 3.05556C7.18741 2.64337 7.65336 2.41935 8.11035 2.41935C8.67486 2.41935 9.13185 2.75986 9.41859 3.04659C9.42755 3.05556 9.43651 3.06452 9.44547 3.07348C9.99207 3.58423 10.5118 4.1129 11.0584 4.67742C11.3362 4.96416 11.6229 5.2509 11.9096 5.5466L14.3559 7.99283C15.3057 8.94265 15.3057 9.82079 14.3559 10.7706C14.096 11.0305 13.8451 11.2903 13.5853 11.5412C12.8326 12.3118 12.1157 13.0287 11.3362 13.7276C11.3182 13.7455 11.3003 13.7545 11.2914 13.7724C10.5207 14.543 10.6641 15.2957 10.8254 15.8065C10.8344 15.8333 10.8433 15.8602 10.8523 15.8871C11.4885 17.4283 12.3845 18.8799 13.7465 20.6093L13.7555 20.6183C16.2286 23.6649 18.8362 26.0394 21.7125 27.8584C22.0799 28.0914 22.4562 28.2796 22.8146 28.4588C23.1372 28.6201 23.4419 28.7724 23.7017 28.9337C23.7376 28.9516 23.7734 28.9785 23.8093 28.9964C24.1139 29.1487 24.4007 29.2204 24.6964 29.2204C25.4401 29.2204 25.906 28.7545 26.0584 28.6021L29.1229 25.5376C29.4275 25.233 29.9114 24.8656 30.4759 24.8656C31.0315 24.8656 31.4885 25.2151 31.7663 25.5197C31.7752 25.5287 31.7752 25.5287 31.7842 25.5376L36.7215 30.4749C37.6444 31.3889 37.6444 32.3298 36.7304 33.2796Z" fill="#082471"/>
</svg>
