<svg width="25" height="25" viewBox="0 0 25 25" fill="none" xmlns="http://www.w3.org/2000/svg">
<path d="M5.57165 16.3851L5.57141 16.3848C3.69449 14.1296 2.42659 12.0133 1.58558 9.73061C1.03733 8.25411 0.821514 7.02116 0.914298 5.85405L0.914348 5.85341C0.993588 4.90751 1.37612 4.08809 2.04914 3.41507L3.83157 1.63264L3.83411 1.6301L3.83414 1.63013C4.36718 1.122 4.98432 0.85 5.63428 0.85C6.28811 0.85 6.90067 1.12131 7.41535 1.62534C7.74204 1.9281 8.07268 2.26359 8.38697 2.58741L8.39984 2.60066C8.55744 2.76289 8.71002 2.91997 8.87151 3.08146L10.2912 4.5012C10.2913 4.50128 10.2914 4.50137 10.2915 4.50146C10.8335 5.03856 11.1268 5.67082 11.1268 6.32346C11.1268 6.97673 10.8282 7.6088 10.2917 8.14523C10.1438 8.29313 9.99698 8.43999 9.855 8.5867L9.85451 8.58721C9.47337 8.97732 9.07719 9.37834 8.65554 9.76453C8.96579 10.454 9.40448 11.1409 10.0501 11.9581C11.3901 13.601 12.7888 14.876 14.3266 15.8524L14.3267 15.8525C14.4767 15.948 14.6467 16.0354 14.8375 16.1309L14.8392 16.1317C14.9592 16.1917 15.088 16.2561 15.2165 16.3264L16.8424 14.7006C17.3657 14.1773 17.9885 13.8894 18.6451 13.8894C19.3015 13.8894 19.92 14.1771 20.4297 14.7064C20.4301 14.7067 20.4304 14.7071 20.4307 14.7074L23.293 17.5696C23.8291 18.1058 24.1053 18.7346 24.1066 19.3762C24.1079 20.0175 23.8346 20.6539 23.3048 21.2061C23.3047 21.2062 23.3047 21.2062 23.3047 21.2062L23.1965 21.1024C22.9772 21.3311 22.7485 21.5551 22.5245 21.7696L5.57165 16.3851ZM5.57165 16.3851C7.85362 19.1129 10.6013 21.2613 13.7375 22.7815L13.7387 22.782C14.9289 23.3461 16.5373 24.0239 18.3351 24.1402L18.3351 24.1402L18.3383 24.1403L18.3523 24.1409C18.4564 24.1455 18.5603 24.15 18.6689 24.15C19.8945 24.15 20.8874 23.7247 21.6932 22.8511C21.6981 22.8464 21.7132 22.8311 21.7269 22.8104C21.9772 22.5095 22.2597 22.2355 22.5626 21.9415C22.5845 21.9203 22.6065 21.899 22.6285 21.8776L5.57165 16.3851ZM6.38503 2.68752L6.38515 2.6874C6.13366 2.4315 5.87458 2.31763 5.63428 2.31763C5.3875 2.31763 5.11836 2.43303 4.86248 2.67975L3.09053 4.45169C2.65832 4.8839 2.43036 5.37978 2.37616 5.97871C2.30238 6.90737 2.48163 7.93755 2.96766 9.2352L2.96785 9.2357C3.75194 11.3518 4.93844 13.3294 6.70754 15.459C8.85287 18.0257 11.4379 20.0472 14.3825 21.4723C15.4706 21.9902 16.9024 22.5893 18.4354 22.6874C18.4354 22.6874 18.4354 22.6874 18.4354 22.6874L18.4258 22.8371C18.5069 22.8419 18.5926 22.8467 18.6737 22.8467C19.5172 22.8467 20.1701 22.5702 20.7182 21.9793L6.38503 2.68752ZM6.38503 2.68752L6.39026 2.69236C6.66431 2.94596 6.92412 3.21013 7.20045 3.49111C7.24273 3.5341 7.2854 3.57748 7.32856 3.62128C7.40991 3.70501 7.49237 3.78867 7.57499 3.87248L7.57648 3.87399C7.65885 3.95755 7.74139 4.04127 7.82387 4.12611L7.82386 4.12612L7.82536 4.12762L9.24558 5.54784C9.52529 5.82755 9.64964 6.09189 9.64964 6.33299C9.64964 6.57409 9.52529 6.83843 9.24558 7.11814C9.17128 7.19244 9.09705 7.26786 9.02332 7.34278L9.02312 7.34298C8.94918 7.41812 8.87573 7.49275 8.80235 7.56612L8.80179 7.56669C8.76852 7.60033 8.73543 7.6338 8.7025 7.66711C8.29562 8.0787 7.91269 8.46607 7.49361 8.83714L7.49343 8.83693L7.48698 8.84337L7.48692 8.84343L7.48687 8.84349L7.48681 8.84354L7.48676 8.8436L7.4867 8.84365L7.48665 8.84371L7.48659 8.84376L7.48654 8.84382L7.48648 8.84387L7.48643 8.84393L7.48637 8.84398L7.48632 8.84404L7.48626 8.84409L7.48621 8.84415L7.48616 8.8442L7.4861 8.84425L7.48605 8.84431L7.48599 8.84436L7.48594 8.84442L7.48589 8.84447L7.48583 8.84452L7.48578 8.84458L7.48572 8.84463L7.48567 8.84468L7.48562 8.84474L7.48556 8.84479L7.48551 8.84484L7.48546 8.8449L7.4854 8.84495L7.48535 8.845L7.4853 8.84506L7.48525 8.84511L7.48519 8.84516L7.48514 8.84521L7.48509 8.84527L7.48504 8.84532L7.48499 8.84537L7.48493 8.84542L7.48488 8.84547L7.48483 8.84553L7.48478 8.84558L7.48473 8.84563L7.48467 8.84568L7.48462 8.84573L7.48457 8.84578L7.48452 8.84584L7.48447 8.84589L7.48442 8.84594L7.48437 8.84599L7.48432 8.84604L7.48426 8.84609L7.48421 8.84614L7.48416 8.84619L7.48411 8.84624L7.48406 8.84629L7.48401 8.84634L7.48396 8.84639L7.48391 8.84644L7.48386 8.84649L7.48381 8.84654L7.48376 8.84659L7.48371 8.84664L7.48366 8.84669L7.48361 8.84674L7.48356 8.84679L7.48351 8.84684L7.48346 8.84689L7.48341 8.84694L7.48336 8.84699L7.48331 8.84704L7.48326 8.84709L7.48322 8.84714L7.48317 8.84719L7.48312 8.84724L7.48307 8.84729L7.48302 8.84734L7.48297 8.84738L7.48292 8.84743L7.48287 8.84748L7.48283 8.84753L7.48278 8.84758L7.48273 8.84763L7.48268 8.84767L7.48263 8.84772L7.48258 8.84777L7.48254 8.84782L7.48249 8.84787L7.48244 8.84792L7.48239 8.84796L7.48234 8.84801L7.4823 8.84806L7.48225 8.84811L7.4822 8.84815L7.48215 8.8482L7.48211 8.84825L7.48206 8.8483L7.48201 8.84834L7.48196 8.84839L7.48192 8.84844L7.48187 8.84848L7.48182 8.84853L7.48178 8.84858L7.48173 8.84863L7.48168 8.84867L7.48164 8.84872L7.48159 8.84877L7.48154 8.84881L7.4815 8.84886L7.48145 8.84891L7.4814 8.84895L7.48136 8.849L7.48131 8.84905L7.48126 8.84909L7.48122 8.84914L7.48117 8.84918L7.48113 8.84923L7.48108 8.84928L7.48103 8.84932L7.48099 8.84937L7.48094 8.84941L7.4809 8.84946L7.48085 8.84951L7.4808 8.84955L7.48076 8.8496L7.48071 8.84964L7.48067 8.84969L7.48062 8.84973L7.48058 8.84978L7.48053 8.84982L7.48049 8.84987L7.48044 8.84991L7.4804 8.84996L7.48035 8.85L7.48031 8.85005L7.48026 8.85009L7.48022 8.85014L7.48017 8.85018L7.48013 8.85023L7.48008 8.85027L7.48004 8.85032L7.47999 8.85036L7.47995 8.85041L7.4799 8.85045L7.47986 8.8505L7.47981 8.85054L7.47977 8.85059L7.47972 8.85063L7.47968 8.85068L7.47964 8.85072L7.47959 8.85076L7.47955 8.85081L7.4795 8.85085L7.47946 8.8509L7.47941 8.85094L7.47937 8.85099L7.47933 8.85103L7.47928 8.85107L7.47924 8.85112L7.47919 8.85116L7.47915 8.8512L7.47911 8.85125L7.47906 8.85129L7.47902 8.85134L7.47898 8.85138L7.47893 8.85142L7.47889 8.85147L7.47884 8.85151L7.4788 8.85155L7.47876 8.8516L7.47871 8.85164L7.47867 8.85169L7.47863 8.85173L7.47858 8.85177L7.47854 8.85182L7.4785 8.85186L7.47845 8.8519L7.47841 8.85194L7.47837 8.85199L7.47832 8.85203L7.47828 8.85207L7.47824 8.85212L7.47819 8.85216L7.47815 8.8522L7.47811 8.85225L7.47807 8.85229L7.47802 8.85233L7.47798 8.85238L7.47794 8.85242L7.47789 8.85246L7.47785 8.8525L7.47781 8.85255L7.47777 8.85259L7.47772 8.85263L7.47768 8.85267L7.47764 8.85272L7.47759 8.85276L7.47755 8.8528L7.47751 8.85285L7.47747 8.85289L7.47742 8.85293L7.47738 8.85297L7.47734 8.85302L7.4773 8.85306L7.47725 8.8531L7.47721 8.85314L7.47717 8.85319L7.47713 8.85323L7.47708 8.85327L7.47704 8.85331L7.477 8.85336L7.47696 8.8534L7.47692 8.85344L7.47687 8.85348L7.47683 8.85352L7.47679 8.85357L7.47675 8.85361L7.4767 8.85365L7.47666 8.85369L7.47662 8.85374L7.47658 8.85378L7.47654 8.85382L7.47649 8.85386L7.47645 8.8539L7.47641 8.85395L7.47637 8.85399L7.47632 8.85403L7.47628 8.85407L7.47624 8.85411L7.4762 8.85416L7.47616 8.8542L7.47611 8.85424L7.47607 8.85428L7.47603 8.85432L7.47599 8.85437L7.47595 8.85441L7.4759 8.85445L7.47586 8.85449L7.47582 8.85453L7.47578 8.85458L7.47574 8.85462L7.47569 8.85466L7.47565 8.8547L7.47561 8.85474L7.47557 8.85479L7.47553 8.85483L7.47549 8.85487L7.47544 8.85491L7.4754 8.85495L7.47536 8.855L7.47532 8.85504L7.47528 8.85508L7.47523 8.85512L7.47519 8.85516L7.47515 8.85521L7.47511 8.85525L7.47507 8.85529L7.47502 8.85533L7.47498 8.85537L7.47494 8.85541L7.4749 8.85546L7.47486 8.8555L7.47481 8.85554L7.47477 8.85558L7.47473 8.85562L7.47469 8.85567L7.47465 8.85571L7.47461 8.85575L7.47456 8.85579L7.47452 8.85583L7.47448 8.85588L7.47444 8.85592L7.4744 8.85596L7.47435 8.856L7.47431 8.85604L7.47427 8.85609L7.47423 8.85613L7.47419 8.85617L7.47414 8.85621L7.4741 8.85625L7.47406 8.8563L7.47402 8.85634L7.47398 8.85638L7.47393 8.85642L7.47389 8.85646L7.47385 8.85651L7.47381 8.85655L7.47377 8.85659L7.47372 8.85663L7.47368 8.85667L7.47364 8.85672L7.4736 8.85676L7.47356 8.8568L7.47351 8.85684L7.47347 8.85688L7.47343 8.85693L7.47339 8.85697L7.47334 8.85701L7.4733 8.85705L7.47326 8.8571L7.47322 8.85714L7.47317 8.85718L7.47313 8.85722L7.47309 8.85726L7.47305 8.85731L7.47301 8.85735L7.47296 8.85739L7.47292 8.85743L7.47288 8.85748L7.47284 8.85752L7.47279 8.85756L7.47275 8.8576L7.47271 8.85765L7.47267 8.85769L7.47262 8.85773L7.47258 8.85777L7.47254 8.85782L7.4725 8.85786L7.47245 8.8579L7.47241 8.85795L7.47237 8.85799L7.47232 8.85803L7.47228 8.85807L7.47224 8.85812L7.4722 8.85816L7.47215 8.8582L7.47211 8.85825L7.47207 8.85829L7.47202 8.85833L7.47198 8.85837L7.47194 8.85842L7.47189 8.85846L7.47185 8.8585L7.47181 8.85855L7.47177 8.85859L7.47172 8.85863L7.47168 8.85868L7.47164 8.85872L7.47159 8.85876L7.47155 8.85881L7.47151 8.85885L7.47146 8.85889L7.47142 8.85894L7.47137 8.85898L7.47133 8.85902L7.47129 8.85907L7.47124 8.85911L7.4712 8.85915L7.47116 8.8592L7.47111 8.85924L7.47107 8.85929L7.47103 8.85933L7.47098 8.85937L7.47094 8.85942L7.47089 8.85946L7.47085 8.8595L7.47081 8.85955L7.47076 8.85959L7.47072 8.85964L7.47067 8.85968L7.47063 8.85972L7.47059 8.85977L7.47054 8.85981L7.4705 8.85986L7.47045 8.8599L7.47041 8.85995L7.47036 8.85999L7.47032 8.86004L7.47027 8.86008L7.47023 8.86012L7.47019 8.86017L7.47014 8.86021L7.4701 8.86026L7.47005 8.8603L7.47001 8.86035L7.46996 8.86039L7.46992 8.86044L7.46987 8.86048L7.46983 8.86053L7.46978 8.86057L7.46974 8.86062L7.46969 8.86066L7.46965 8.86071L7.4696 8.86075L7.46956 8.8608L7.46951 8.86084L7.46946 8.86089L7.46942 8.86094L7.46937 8.86098L7.46933 8.86103L7.46928 8.86107L7.46924 8.86112L7.46919 8.86116L7.46914 8.86121L7.4691 8.86126L7.46905 8.8613L7.46901 8.86135L7.46896 8.86139L7.46891 8.86144L7.46887 8.86149L7.46882 8.86153L7.46878 8.86158L7.46873 8.86163L7.46868 8.86167L7.46864 8.86172L7.46859 8.86176L7.46854 8.86181L7.4685 8.86186L7.46845 8.86191L7.4684 8.86195L7.46836 8.862L7.46831 8.86205L7.46826 8.86209L7.46821 8.86214L7.46817 8.86219L7.46812 8.86223L7.46807 8.86228L7.46803 8.86233L7.46798 8.86238L7.46793 8.86242L7.46788 8.86247L7.46784 8.86252L7.46779 8.86257L7.46774 8.86261L7.46769 8.86266L7.46764 8.86271L7.4676 8.86276L7.46755 8.86281L7.4675 8.86285L7.46745 8.8629L7.4674 8.86295L7.46736 8.863L7.46731 8.86305L7.46726 8.8631L7.46721 8.86315L7.46716 8.86319L7.46711 8.86324L7.46706 8.86329L7.46701 8.86334L7.46697 8.86339L7.46692 8.86344L7.46687 8.86349L7.46682 8.86354L7.46677 8.86359L7.46672 8.86364L7.46667 8.86369L7.46662 8.86373L7.46657 8.86378L7.46652 8.86383L7.46647 8.86388L7.46642 8.86393L7.46637 8.86398L7.46632 8.86403L7.46627 8.86408L7.46622 8.86413L7.46617 8.86418L7.46612 8.86423L7.46607 8.86428L7.46602 8.86434L7.46597 8.86439L7.46592 8.86444L7.46587 8.86449L7.46582 8.86454L7.46577 8.86459L7.46571 8.86464L7.46566 8.86469L7.46561 8.86474L7.46556 8.86479L7.46551 8.86485L7.46546 8.8649L7.46541 8.86495L7.46535 8.865L7.4653 8.86505L7.46525 8.8651L7.4652 8.86516L7.46515 8.86521L7.4651 8.86526L7.46504 8.86531L7.46499 8.86537L7.46494 8.86542L7.46489 8.86547L7.46483 8.86552L7.46478 8.86558L7.46473 8.86563L7.46467 8.86568L7.46462 8.86573L7.46457 8.86579L7.46451 8.86584L7.46446 8.86589L7.46441 8.86595L7.46435 8.866L7.4643 8.86605L7.46425 8.86611L7.46419 8.86616L7.46414 8.86622L7.46409 8.86627L7.46403 8.86632L7.46398 8.86638L7.46392 8.86643L7.46387 8.86649L7.46381 8.86654L7.46376 8.8666L7.4637 8.86665L7.46365 8.8667L7.46359 8.86676L7.46354 8.86682L7.46348 8.86687L7.46343 8.86693L7.46337 8.86698L7.46332 8.86704L7.46326 8.86709L7.46321 8.86715L7.46315 8.8672C7.24401 9.08634 7.14362 9.30946 7.11711 9.52508C7.09108 9.73688 7.13819 9.92744 7.18862 10.0787C7.19257 10.0906 7.19649 10.1003 7.1988 10.1061C7.20126 10.1122 7.2021 10.1144 7.20292 10.1169L7.20254 10.117L7.20674 10.1271C7.58028 11.0245 8.09834 11.8752 8.90063 12.8841L8.90152 12.8852C10.3399 14.6591 11.8575 16.0383 13.5312 17.1013C13.709 17.217 13.8978 17.3124 14.0714 17.4002C14.106 17.4177 14.1399 17.4349 14.1731 17.4518L14.1743 17.4524C14.3651 17.5478 14.5351 17.6353 14.6851 17.7308L14.6916 17.7349L14.6986 17.7384C14.7039 17.741 14.7088 17.7438 14.7174 17.7488C14.7253 17.7533 14.7368 17.7598 14.7502 17.7666M6.38503 2.68752L20.6056 21.8801C20.9075 21.5191 21.239 21.1974 21.5537 20.8919C21.5724 20.8737 21.5911 20.8556 21.6098 20.8375L21.6105 20.8367C21.834 20.6227 22.0413 20.4202 22.2385 20.2089L22.2399 20.2073C22.5141 19.9219 22.6358 19.6505 22.6378 19.3992C22.6398 19.1491 22.5234 18.8877 22.2565 18.6207C22.2564 18.6206 22.2564 18.6206 22.2564 18.6206L19.3826 15.7516L19.3786 15.7476L19.3787 15.7475C19.2036 15.5589 18.9453 15.3713 18.6451 15.3713C18.4016 15.3713 18.1373 15.4932 17.879 15.7515L16.0965 17.534C16.0127 17.6178 15.7268 17.902 15.2804 17.902C15.1017 17.902 14.9261 17.857 14.7502 17.7666M14.7502 17.7666C14.7499 17.7664 14.7497 17.7663 14.7494 17.7662L14.8181 17.6328L14.751 17.767C14.7507 17.7668 14.7505 17.7667 14.7502 17.7666Z" fill="#F9556D" stroke="#F9556D" stroke-width="0.3"/>
</svg>
