<svg width="98" height="65" viewBox="0 0 98 65" fill="none" xmlns="http://www.w3.org/2000/svg">
<path d="M97.2648 55.261C97.1718 55.153 97.0348 55.089 96.8908 55.089H0.493814C0.349814 55.089 0.213814 55.152 0.119814 55.261C0.0258138 55.369 -0.0161862 55.514 0.00481379 55.657C0.0188138 55.747 1.47281 64.673 12.7578 64.673H84.6268C95.9108 64.673 97.3648 55.747 97.3798 55.657C97.3998 55.514 97.3578 55.369 97.2648 55.261ZM55.9418 61.547H41.4418V58.213H55.9418V61.547Z" fill="url(#paint0_linear_248_46)"/>
<path d="M10.5068 51.619H86.8768C87.9808 51.619 88.8768 50.723 88.8768 49.619V2.71301C88.8768 1.60901 87.9808 0.713013 86.8768 0.713013H10.5068C9.40284 0.713013 8.50684 1.60901 8.50684 2.71301V49.619C8.50684 50.723 9.40284 51.619 10.5068 51.619ZM15.5068 7.71301H81.8768V44.619H15.5068V7.71301Z" fill="url(#paint1_linear_248_46)"/>
<defs>
<linearGradient id="paint0_linear_248_46" x1="3" y1="53.6336" x2="4.6382" y2="70.298" gradientUnits="userSpaceOnUse">
<stop stop-color="#082471"/>
<stop offset="1" stop-color="#F9556D"/>
</linearGradient>
<linearGradient id="paint1_linear_248_46" x1="10.9831" y1="-7.01761" x2="51.3627" y2="56.8036" gradientUnits="userSpaceOnUse">
<stop stop-color="#082471"/>
<stop offset="1" stop-color="#F9556D"/>
</linearGradient>
</defs>
</svg>
