<svg width="21" height="16" viewBox="0 0 21 16" fill="none" xmlns="http://www.w3.org/2000/svg">
<path d="M20.5154 2.72649C20.2753 1.83398 19.5716 1.13042 18.6792 0.890096C17.049 0.444031 10.5277 0.444031 10.5277 0.444031C10.5277 0.444031 4.00677 0.444031 2.37649 0.873184C1.50128 1.11326 0.780426 1.83411 0.540354 2.72649C0.111328 4.35664 0.111328 7.73735 0.111328 7.73735C0.111328 7.73735 0.111328 11.1351 0.540354 12.7482C0.78068 13.6406 1.48411 14.3441 2.37662 14.5845C4.02393 15.0307 10.528 15.0307 10.528 15.0307C10.528 15.0307 17.049 15.0307 18.6792 14.6015C19.5717 14.3613 20.2753 13.6578 20.5156 12.7654C20.9445 11.1351 20.9445 7.75451 20.9445 7.75451C20.9445 7.75451 20.9617 4.35664 20.5154 2.72649ZM8.45152 10.8606V4.61413L13.8742 7.73735L8.45152 10.8606Z" fill="white"/>
</svg>
