<svg width="21" height="16" viewBox="0 0 21 16" fill="none" xmlns="http://www.w3.org/2000/svg">
<path d="M20.5151 2.72655C20.2751 1.83404 19.5714 1.13048 18.679 0.890157C17.0487 0.444092 10.5275 0.444092 10.5275 0.444092C10.5275 0.444092 4.00652 0.444092 2.37625 0.873245C1.50103 1.11332 0.780182 1.83417 0.54011 2.72655C0.111084 4.3567 0.111084 7.73741 0.111084 7.73741C0.111084 7.73741 0.111084 11.1352 0.54011 12.7483C0.780436 13.6407 1.48387 14.3442 2.37638 14.5845C4.02369 15.0307 10.5277 15.0307 10.5277 15.0307C10.5277 15.0307 17.0487 15.0307 18.679 14.6016C19.5715 14.3614 20.2751 13.6578 20.5154 12.7654C20.9443 11.1352 20.9443 7.75457 20.9443 7.75457C20.9443 7.75457 20.9614 4.3567 20.5151 2.72655ZM8.45128 10.8606V4.61419L13.874 7.73741L8.45128 10.8606Z" fill="#082471"/>
</svg>
