<svg width="54" height="54" viewBox="0 0 54 54" fill="none" xmlns="http://www.w3.org/2000/svg">
<path d="M39.5508 15.9258H52.418C53.2924 15.9258 54 15.2182 54 14.3438V1.58203C54 0.70759 53.2924 0 52.418 0H39.5508C38.6763 0 37.9688 0.70759 37.9688 1.58203V6.43359H33.2227C32.3482 6.43359 31.6406 7.14118 31.6406 8.01562V25.418H25.3125V19.0898H18.9844V23.8359C18.9844 24.7104 18.2768 25.418 17.4023 25.418H7.91016C7.03571 25.418 6.32812 24.7104 6.32812 23.8359V19.0898H0V42.8203C0 45.4374 2.12899 47.5664 4.74609 47.5664H20.5664C23.1835 47.5664 25.3125 45.4374 25.3125 42.8203V28.582H31.6406V42.8203C31.6406 43.6948 32.3482 44.4023 33.2227 44.4023H37.9688V52.418C37.9688 53.2924 38.6763 54 39.5508 54H52.418C53.2924 54 54 53.2924 54 52.418V39.6562C54 38.7818 53.2924 38.0742 52.418 38.0742H39.5508C38.6763 38.0742 37.9688 38.7818 37.9688 39.6562V41.2383H34.8047V28.582H37.9688V33.3281C37.9688 34.2026 38.6763 34.9102 39.5508 34.9102H52.418C53.2924 34.9102 54 34.2026 54 33.3281V20.6719C54 19.7974 53.2924 19.0898 52.418 19.0898H39.5508C38.6763 19.0898 37.9688 19.7974 37.9688 20.6719V25.418H34.8047V9.59766H37.9688V14.3438C37.9688 15.2182 38.6763 15.9258 39.5508 15.9258ZM12.6562 41.2383C10.912 41.2383 9.49219 39.8185 9.49219 38.0742C9.49219 36.33 10.912 34.9102 12.6562 34.9102C14.4005 34.9102 15.8203 36.33 15.8203 38.0742C15.8203 39.8185 14.4005 41.2383 12.6562 41.2383Z" fill="white"/>
<path d="M15.8203 19.0898H9.49219V22.2539H15.8203V19.0898Z" fill="white"/>
<path d="M25.3125 12.7617H0V15.9258H25.3125V12.7617Z" fill="white"/>
<path d="M20.5664 3.16406H4.74609C2.12899 3.16406 0 5.39852 0 8.01562V9.59766H25.3125V8.01562C25.3125 5.39852 23.1835 3.16406 20.5664 3.16406Z" fill="white"/>
</svg>
