<svg width="34" height="38" viewBox="0 0 34 38" fill="none" xmlns="http://www.w3.org/2000/svg">
<path d="M3.99056 28.902H3.98944C3.97374 28.9018 3.95789 28.9015 3.94181 28.9011C1.94387 28.8502 0.365246 27.1896 0.415318 25.1918V19.6238C0.415318 17.5726 1.96631 15.7812 3.99056 15.7812H4.42518V13.698C4.42518 6.62987 10.155 0.9 17.2232 0.9C24.2914 0.9 30.0212 6.62987 30.0212 13.698V15.7812C31.0811 15.7852 31.9727 16.3745 32.5962 17.1963C33.2215 18.0205 33.5855 19.0886 33.5855 20.0691V25.6384C33.5855 26.5314 33.2758 27.293 32.7149 27.8481C32.1639 28.3934 31.3775 28.7328 30.4223 28.8088L29.6029 30.0164L29.6002 30.0204L29.6001 30.0203C27.9246 32.2484 25.3052 33.564 22.5208 33.5799C22.3801 34.3749 22.0032 35.1099 21.4382 35.6885L21.4382 35.6885C20.5743 36.5726 19.3963 37.0798 18.1604 37.0998L18.1588 37.0998C15.6606 37.1 13.6283 35.0881 13.6034 32.59L13.6033 32.5882C13.6202 30.4578 15.1252 28.6297 17.2127 28.204C19.6269 27.7115 21.9839 29.2471 22.5169 31.6423C24.668 31.6277 26.6919 30.6159 27.9945 28.9019H27.1588H27.1543L27.1543 28.9018C27.1354 28.9009 27.1166 28.8995 27.0979 28.8975C26.5799 28.8421 26.2045 28.3787 26.2569 27.8611V16.9504C26.2569 16.6651 26.3397 16.3774 26.4919 16.1582C26.6448 15.938 26.8731 15.7811 27.1588 15.7811H28.039V13.6979C28.039 7.72455 23.1966 2.8821 17.2232 2.8821C11.2498 2.8821 6.40736 7.72455 6.40736 13.6979V15.7811H7.28757C7.57328 15.7811 7.80157 15.938 7.95449 16.1582C8.10667 16.3774 8.18954 16.6652 8.18954 16.9504V27.8611L3.99056 28.902ZM3.99056 28.902H7.28757V28.9021L7.29226 28.9018C7.81439 28.8773 8.2178 28.4341 8.19328 27.912L3.99056 28.902ZM2.39738 25.1978L2.3975 25.1978V25.193V19.6237C2.3975 18.636 3.08214 17.7633 3.99056 17.7633H6.20736V26.9198H3.99176C3.08815 26.8971 2.37367 26.1466 2.39568 25.2428L2.29571 25.2404L2.39567 25.2431C2.39608 25.2281 2.39665 25.213 2.39738 25.1978ZM20.0032 34.3014L20.0012 34.3034C19.5264 34.8182 18.8595 35.1131 18.1593 35.1178C16.7641 35.0951 15.632 33.982 15.5856 32.5874C15.5859 31.1916 16.7173 30.0599 18.1133 30.0593C19.5099 30.0587 20.6424 31.1904 20.643 32.5869C20.643 32.5869 20.643 32.5869 20.643 32.5869V32.587V32.587V32.587V32.587V32.587V32.5871V32.5871V32.5871V32.5871V32.5871V32.5871V32.5872V32.5872V32.5872V32.5872V32.5872V32.5872V32.5873V32.5873V32.5873V32.5873V32.5873V32.5873V32.5874V32.5874V32.5874V32.5874V32.5874V32.5874V32.5875V32.5875V32.5875V32.5875V32.5875V32.5875V32.5876V32.5876V32.5876V32.5876V32.5876V32.5876V32.5877V32.5877V32.5877V32.5877V32.5877V32.5877V32.5878V32.5878V32.5878V32.5878V32.5878V32.5878V32.5879V32.5879V32.5879V32.5879V32.5879V32.5879V32.588V32.588V32.588V32.588V32.588V32.588V32.5881V32.5881V32.5881V32.5881V32.5881V32.5881V32.5882V32.5882V32.5882V32.5882V32.5882V32.5883V32.5883V32.5883V32.5883V32.5883V32.5883V32.5884V32.5884V32.5884V32.5884V32.5884V32.5884V32.5885V32.5885V32.5885V32.5885V32.5885V32.5885V32.5886V32.5886V32.5886V32.5886V32.5886V32.5886V32.5887V32.5887V32.5887V32.5887V32.5887V32.5887V32.5888V32.5888V32.5888V32.5888V32.5888V32.5888V32.5889V32.5889V32.5889V32.5889V32.5889V32.5889V32.5889V32.589V32.589V32.589V32.589V32.589V32.589V32.5891H20.6429L20.6432 32.5947C20.6787 33.2282 20.4465 33.8475 20.0032 34.3014ZM31.6034 25.6386C31.6034 26.1995 31.3374 26.5131 31.0094 26.6925C30.674 26.876 30.27 26.9198 30.0103 26.9198H28.239V17.7634H30.0103C30.4505 17.7634 30.8472 18.0748 31.14 18.5357C31.4313 18.9941 31.6034 19.5771 31.6034 20.0693V25.6386Z" fill="white" stroke="white" stroke-width="0.2"/>
</svg>
