<svg width="13" height="23" viewBox="0 0 13 23" fill="none" xmlns="http://www.w3.org/2000/svg">
<path d="M3.71363 12.9234C3.62829 12.9234 1.75096 12.9234 0.897626 12.9234C0.442515 12.9234 0.300293 12.7528 0.300293 12.3261C0.300293 11.1883 0.300293 10.0221 0.300293 8.88431C0.300293 8.42919 0.47096 8.28697 0.897626 8.28697H3.71363C3.71363 8.20164 3.71363 6.55186 3.71363 5.78386C3.71363 4.64608 3.91274 3.56519 4.48163 2.56964C5.07896 1.54564 5.93229 0.862971 7.01318 0.464748C7.72429 0.208748 8.4354 0.0949707 9.2034 0.0949707H11.991C12.3892 0.0949707 12.5598 0.265637 12.5598 0.66386V3.90653C12.5598 4.30475 12.3892 4.47542 11.991 4.47542C11.223 4.47542 10.455 4.47542 9.68696 4.50386C8.91896 4.50386 8.52074 4.87364 8.52074 5.67008C8.49229 6.52342 8.52074 7.34831 8.52074 8.23008H11.8203C12.2754 8.23008 12.4461 8.40075 12.4461 8.85586V12.2976C12.4461 12.7528 12.3038 12.895 11.8203 12.895C10.7963 12.895 8.60607 12.895 8.52074 12.895V22.1679C8.52074 22.6514 8.37852 22.8221 7.86652 22.8221C6.67185 22.8221 5.50563 22.8221 4.31096 22.8221C3.88429 22.8221 3.71363 22.6514 3.71363 22.2248C3.71363 19.2381 3.71363 13.0087 3.71363 12.9234Z" fill="#082471"/>
</svg>
