<svg width="20" height="20" viewBox="0 0 20 20" fill="none" xmlns="http://www.w3.org/2000/svg">
<path d="M9.77767 6.20805C7.66673 6.20805 5.94954 7.92524 5.94954 10.0362C5.94954 12.1471 7.66673 13.8643 9.77767 13.8643C11.8886 13.8643 13.6058 12.1471 13.6058 10.0362C13.6058 7.92524 11.8886 6.20805 9.77767 6.20805ZM9.77767 6.20805C7.66673 6.20805 5.94954 7.92524 5.94954 10.0362C5.94954 12.1471 7.66673 13.8643 9.77767 13.8643C11.8886 13.8643 13.6058 12.1471 13.6058 10.0362C13.6058 7.92524 11.8886 6.20805 9.77767 6.20805ZM16.3766 0.666382H3.17871C1.66934 0.666382 0.444336 1.89138 0.444336 3.40076V16.5987C0.444336 18.108 1.66934 19.333 3.17871 19.333H16.3766C17.886 19.333 19.111 18.108 19.111 16.5987V3.40076C19.111 1.89138 17.886 0.666382 16.3766 0.666382ZM9.77767 14.958C7.06521 14.958 4.85579 12.7486 4.85579 10.0362C4.85579 7.32364 7.06521 5.1143 9.77767 5.1143C12.4901 5.1143 14.6995 7.32364 14.6995 10.0362C14.6995 12.7486 12.4901 14.958 9.77767 14.958ZM15.7933 5.1143C15.1917 5.1143 14.6995 4.62211 14.6995 4.02055C14.6995 3.41899 15.1917 2.9268 15.7933 2.9268C16.3949 2.9268 16.887 3.41899 16.887 4.02055C16.887 4.62211 16.3949 5.1143 15.7933 5.1143ZM9.77767 6.20805C7.66673 6.20805 5.94954 7.92524 5.94954 10.0362C5.94954 12.1471 7.66673 13.8643 9.77767 13.8643C11.8886 13.8643 13.6058 12.1471 13.6058 10.0362C13.6058 7.92524 11.8886 6.20805 9.77767 6.20805ZM9.77767 6.20805C7.66673 6.20805 5.94954 7.92524 5.94954 10.0362C5.94954 12.1471 7.66673 13.8643 9.77767 13.8643C11.8886 13.8643 13.6058 12.1471 13.6058 10.0362C13.6058 7.92524 11.8886 6.20805 9.77767 6.20805ZM9.77767 6.20805C7.66673 6.20805 5.94954 7.92524 5.94954 10.0362C5.94954 12.1471 7.66673 13.8643 9.77767 13.8643C11.8886 13.8643 13.6058 12.1471 13.6058 10.0362C13.6058 7.92524 11.8886 6.20805 9.77767 6.20805Z" fill="white"/>
</svg>
