<svg width="19" height="27" viewBox="0 0 19 27" fill="none" xmlns="http://www.w3.org/2000/svg">
<path d="M9.05483 25.757C9.21849 26.0025 9.49403 26.15 9.78906 26.15L10.3985 25.6738L10.5233 25.757C10.5233 25.757 10.5233 25.757 10.5233 25.757C11.0736 24.9315 11.7102 24.0399 12.3799 23.1019C13.8061 21.104 15.3826 18.8958 16.5957 16.669C18.0247 14.0461 18.7281 11.7937 18.7281 9.78906C18.7281 4.85993 14.7182 0.85 9.78906 0.85C4.85993 0.85 0.85 4.85993 0.85 9.78906C0.85 11.7937 1.55345 14.0461 2.98239 16.669C4.19507 18.8949 5.77413 21.1069 7.20102 23.1058C7.87026 24.0433 8.50603 24.9339 9.05483 25.757ZM9.78906 2.61484C13.7448 2.61484 16.9633 5.83333 16.9633 9.78906C16.9633 11.4724 16.3427 13.4444 15.046 15.8247C13.8842 17.9572 12.3465 20.1111 10.9409 22.0798C10.5425 22.6379 10.1547 23.1811 9.78906 23.7047C9.42349 23.1812 9.03571 22.638 8.63729 22.0799C7.23183 20.1113 5.69401 17.9573 4.53216 15.8247C3.2354 13.4444 2.61484 11.4724 2.61484 9.78906C2.61484 5.83333 5.83333 2.61484 9.78906 2.61484Z" fill="#F9556D" stroke="#F9556D" stroke-width="0.3"/>
<path d="M9.78906 14.3336C12.295 14.3336 14.3336 12.295 14.3336 9.78906C14.3336 7.28308 12.295 5.24453 9.78906 5.24453C7.28308 5.24453 5.24453 7.28308 5.24453 9.78906C5.24453 12.295 7.28308 14.3336 9.78906 14.3336ZM9.78906 7.00937C11.3216 7.00937 12.5687 8.25648 12.5687 9.78906C12.5687 11.3216 11.3216 12.5687 9.78906 12.5687C8.25648 12.5687 7.00937 11.3216 7.00937 9.78906C7.00937 8.25648 8.25648 7.00937 9.78906 7.00937Z" fill="#F9556D" stroke="#F9556D" stroke-width="0.3"/>
</svg>
