<svg width="116" height="104" viewBox="0 0 116 104" fill="none" xmlns="http://www.w3.org/2000/svg">
<rect width="116" height="104" fill="white"/>
<path d="M103.216 36.7378C102.431 34.1474 101.101 31.9691 99.2271 30.0852C97.3533 28.2602 94.996 26.8472 92.1552 25.8464C89.3143 24.8456 86.0504 24.3157 82.3029 24.3157C79.1598 24.3157 76.3794 24.6101 73.8408 25.2577C71.3022 25.8464 68.9449 26.7884 66.8294 27.9658C64.6534 29.1432 62.5983 30.6739 60.6641 32.3812C58.8508 33.9708 56.7958 35.6192 54.922 37.6797L54.5594 38.0918C54.4989 38.1507 54.4989 38.2096 54.4385 38.2096L41.5036 53.1042L51.7789 9.24445C44.284 10.5396 37.333 13.4244 31.2886 17.5454L16.1777 82.1282L30.9864 98.2592L38.1792 67.1158L51.1745 92.7252H66.9503L75.4124 99.3778L72.2693 92.7252L55.2242 57.9906L65.4996 46.8049C68.1591 43.9202 70.1538 41.3298 72.2693 39.9757C74.5057 38.5039 77.0443 37.7386 79.7643 37.7386C82.5447 37.7386 84.7207 38.5039 86.2922 39.9757C87.8637 41.4475 88.4681 43.6258 88.1055 46.5694C87.9242 47.9824 87.5615 49.2775 87.0175 50.5139C86.4735 51.6913 85.6273 52.9276 84.5393 54.1639C83.4513 55.4003 82.0611 56.7543 80.3687 58.1084C78.6763 59.5213 76.6212 61.052 74.2639 62.8181L67.192 67.9989L59.1531 59.6979L65.8018 73.2385L75.4124 92.7841H99.1666L100.617 80.2443H70.2142L82.5447 71.7078C85.8691 69.4118 88.7704 67.2336 91.309 65.2908C93.8476 63.348 95.9631 61.3463 97.716 59.3447C99.4084 57.343 100.799 55.2236 101.826 52.9865C102.854 50.7493 103.519 48.2178 103.821 45.392C104.183 42.2129 104.002 39.3281 103.216 36.7378Z" fill="#082471"/>
</svg>
