<svg width="40" height="32" viewBox="0 0 40 32" fill="none" xmlns="http://www.w3.org/2000/svg">
<path d="M35.0813 0H4.91867C3.61459 0.00141172 2.36433 0.52008 1.4422 1.4422C0.52008 2.36433 0.00141172 3.61459 0 4.91867V27.0813C0.00141172 28.3854 0.52008 29.6357 1.4422 30.5578C2.36433 31.4799 3.61459 31.9986 4.91867 32H35.0813C36.3854 31.9986 37.6357 31.4799 38.5578 30.5578C39.4799 29.6357 39.9986 28.3854 40 27.0813V4.91867C39.9986 3.61459 39.4799 2.36433 38.5578 1.4422C37.6357 0.52008 36.3854 0.00141172 35.0813 0ZM4.91867 2.66667H35.0813C35.6784 2.66737 36.2508 2.90486 36.673 3.32704C37.0951 3.74922 37.3326 4.32162 37.3333 4.91867V5.93867L20 17.0813L2.66667 5.93867V4.91867C2.66737 4.32162 2.90486 3.74922 3.32704 3.32704C3.74922 2.90486 4.32162 2.66737 4.91867 2.66667ZM35.0813 29.3333H4.91867C4.32162 29.3326 3.74922 29.0951 3.32704 28.673C2.90486 28.2508 2.66737 27.6784 2.66667 27.0813V9.10933L19.2787 19.788C19.4938 19.9264 19.7442 20 20 20C20.2558 20 20.5062 19.9264 20.7213 19.788L37.3333 9.10933V27.0813C37.3326 27.6784 37.0951 28.2508 36.673 28.673C36.2508 29.0951 35.6784 29.3326 35.0813 29.3333Z" fill="#082471"/>
</svg>
