<svg width="162" height="128" viewBox="0 0 162 128" fill="none" xmlns="http://www.w3.org/2000/svg">
<path d="M12.3201 106.675C12.9151 107.44 13.2551 108.375 13.2551 109.395C13.2551 110.84 12.7451 112.03 11.8101 112.88C10.7901 113.73 9.4301 114.155 7.5601 114.155H0.0800781V96.73H7.39008C9.17509 96.73 10.5351 97.155 11.4701 97.92C12.4051 98.685 12.9151 99.79 12.9151 101.15C12.9151 102.255 12.6601 103.105 12.0651 103.785C11.4701 104.465 10.7901 104.89 9.85511 105.145C10.7901 105.4 11.6401 105.91 12.3201 106.675ZM3.56507 104.04H6.71009C7.5601 104.04 8.24009 103.87 8.66509 103.445C9.09009 103.02 9.34508 102.51 9.34508 101.745C9.34508 100.98 9.09009 100.47 8.66509 100.045C8.24009 99.62 7.56012 99.45 6.62511 99.45H3.56507V104.04ZM8.92008 110.67C9.43008 110.245 9.6851 109.65 9.6851 108.885C9.6851 108.12 9.43008 107.525 8.92008 107.1C8.41008 106.675 7.73008 106.505 6.79507 106.505H3.48009V111.265H6.79507C7.73008 111.35 8.49508 111.095 8.92008 110.67Z" fill="#666666" fill-opacity="0.5"/>
<path d="M27.195 114.155L23.1151 107.355H21.5851V114.155H18.1001V96.73H24.7301C26.7701 96.73 28.3 97.24 29.32 98.175C30.34 99.195 30.935 100.47 30.935 102.085C30.935 103.36 30.5951 104.465 29.8301 105.4C29.0651 106.25 28.045 106.845 26.6851 107.185L31.02 114.155H27.195ZM21.5851 104.975H24.4751C26.4301 104.975 27.4501 104.125 27.4501 102.34C27.4501 101.49 27.1951 100.81 26.6851 100.385C26.1751 99.875 25.41 99.705 24.39 99.705H21.5001V104.975H21.5851Z" fill="#666666" fill-opacity="0.5"/>
<path d="M46.4052 110.67H39.4351L38.1601 114.155H34.5051L40.8802 96.9849H44.8752L51.2502 114.155H47.5952L46.4052 110.67ZM45.4702 108.035L42.9201 100.725L40.3701 108.035H45.4702Z" fill="#666666" fill-opacity="0.5"/>
<path d="M70.3751 114.155H66.89L59.07 102.34V114.155H55.585V96.73H59.07L66.89 108.63V96.73H70.3751V114.155Z" fill="#666666" fill-opacity="0.5"/>
<path d="M90.1801 109.99C89.4151 111.265 88.3951 112.37 87.0351 113.05C85.6751 113.815 84.0601 114.155 82.1051 114.155H75.9001V96.73H82.1051C83.9751 96.73 85.5901 97.07 87.0351 97.835C88.3951 98.515 89.4151 99.535 90.1801 100.895C90.9451 102.17 91.2851 103.7 91.2851 105.485C91.2851 107.1 90.9451 108.63 90.1801 109.99ZM86.1851 109.565C87.2051 108.545 87.7151 107.185 87.7151 105.4C87.7151 103.615 87.2051 102.255 86.1851 101.235C85.1651 100.215 83.7201 99.79 81.8501 99.79H79.4701V111.095H81.8501C83.7201 111.01 85.1651 110.585 86.1851 109.565Z" fill="#666666" fill-opacity="0.5"/>
<path d="M48.53 0C48.53 0 93.4101 16.915 92.4751 41.48V82.96C92.4751 82.96 47.595 66.045 48.53 41.48V0Z" fill="#666666" fill-opacity="0.5"/>
<path d="M132.51 73.1849C140.84 67.4899 150.615 63.7499 160.985 62.6449V49.6399C154.95 51.9349 149.255 55.2499 144.24 59.5849C139.565 63.5799 135.655 68.1699 132.51 73.1849Z" fill="#666666" fill-opacity="0.5"/>
<path d="M127.41 77.095C131.065 69.785 136.165 63.155 142.625 57.715C148.15 53.04 154.44 49.385 161.07 47.005V9.60498C161.07 9.60498 97.1502 33.745 98.5102 68.68V127.755C98.5102 127.755 101.4 126.65 105.82 124.695C105.82 122.825 105.905 120.87 105.99 119C107.35 102 115.425 87.295 127.41 77.095Z" fill="#666666" fill-opacity="0.5"/>
<path d="M121.29 99.0251C121.63 94.8601 122.395 90.8651 123.5 86.9551C116.02 95.7951 111.175 106.845 110.155 119.17C110.07 120.275 109.985 121.38 109.985 122.57C113.64 120.785 117.805 118.66 122.31 116.11C121.205 110.5 120.78 104.805 121.29 99.0251Z" fill="#666666" fill-opacity="0.5"/>
<path d="M123.84 99.195C123.415 104.465 123.67 109.65 124.605 114.665C142.03 104.21 161.665 88.06 160.9 68.595V66.895C148.235 68.34 136.59 73.95 127.665 82.45C125.625 87.72 124.35 93.415 123.84 99.195Z" fill="#666666" fill-opacity="0.5"/>
</svg>
