<svg width="127" height="151" viewBox="0 0 127 151" fill="none" xmlns="http://www.w3.org/2000/svg">
<path d="M20.0549 0L42.3249 22.27H104.375V84.32L126.645 106.59V0H20.0549Z" fill="#F9556D"/>
<path d="M1.35498 22.27V125.29H104.375V84.32L42.325 22.27H1.35498ZM84.74 110.16H17.675V40.885H22.435V105.4H84.825V110.16H84.74Z" fill="#F8962D"/>
<path d="M9.60004 148.325C9.68504 148.325 9.77005 148.325 9.85505 148.41L10.45 149.09C9.94004 149.685 9.43004 150.11 8.75004 150.365C8.07004 150.705 7.22005 150.79 6.28505 150.79C5.43505 150.79 4.67005 150.62 3.99005 150.365C3.31005 150.11 2.71505 149.685 2.20505 149.175C1.69505 148.665 1.35505 147.985 1.10005 147.305C0.845049 146.54 0.675049 145.775 0.675049 144.925C0.675049 144.075 0.845049 143.225 1.10005 142.545C1.35505 141.78 1.78005 141.185 2.29005 140.675C2.80005 140.165 3.39505 139.74 4.16005 139.485C4.84005 139.23 5.69005 139.06 6.54005 139.06C7.39005 139.06 8.15504 139.23 8.75004 139.485C9.34504 139.74 9.94004 140.08 10.45 140.59L9.94004 141.355C9.94004 141.44 9.85505 141.44 9.77005 141.525C9.68505 141.525 9.68504 141.61 9.60004 141.61C9.51504 141.61 9.43005 141.61 9.34505 141.525C9.26005 141.44 9.17505 141.44 9.09004 141.355C9.00504 141.27 8.83504 141.185 8.66505 141.1C8.49505 141.015 8.32505 140.93 8.15505 140.845C7.98505 140.76 7.73004 140.675 7.47504 140.675C7.22005 140.59 6.88005 140.59 6.54005 140.59C5.94505 140.59 5.35005 140.675 4.84005 140.93C4.33005 141.185 3.90505 141.44 3.48005 141.865C3.14005 142.29 2.80005 142.715 2.63005 143.31C2.46005 143.905 2.29005 144.5 2.29005 145.265C2.29005 146.03 2.37505 146.625 2.63005 147.22C2.80005 147.815 3.14005 148.24 3.48005 148.665C3.82005 149.09 4.24505 149.345 4.75505 149.6C5.26505 149.77 5.77505 149.94 6.37005 149.94C6.71005 149.94 7.05005 149.94 7.30505 149.855C7.56005 149.855 7.81505 149.77 8.07005 149.685C8.32505 149.6 8.49504 149.515 8.75004 149.345C8.92004 149.175 9.17505 149.09 9.34505 148.835C9.43005 148.41 9.51504 148.325 9.60004 148.325Z" fill="#082471"/>
<path d="M27.4501 144.925C27.4501 145.775 27.2801 146.625 27.0251 147.305C26.7701 148.07 26.3451 148.665 25.8351 149.175C25.3251 149.685 24.7301 150.11 24.0501 150.365C23.3701 150.62 22.5201 150.79 21.6701 150.79C20.8201 150.79 20.0551 150.62 19.2901 150.365C18.6101 150.11 18.0151 149.685 17.5051 149.175C16.9951 148.665 16.5701 147.985 16.3151 147.305C16.0601 146.54 15.8901 145.775 15.8901 144.925C15.8901 144.075 16.0601 143.225 16.3151 142.545C16.5701 141.78 16.9951 141.185 17.5051 140.675C18.0151 140.165 18.6101 139.74 19.2901 139.4C19.9701 139.145 20.8201 138.975 21.6701 138.975C22.5201 138.975 23.2851 139.145 24.0501 139.4C24.7301 139.655 25.3251 140.08 25.8351 140.675C26.3451 141.185 26.7701 141.865 27.0251 142.545C27.3651 143.225 27.4501 144.075 27.4501 144.925ZM25.8351 144.925C25.8351 144.245 25.7501 143.565 25.5801 142.97C25.4101 142.375 25.0701 141.95 24.7301 141.525C24.3901 141.1 23.9651 140.845 23.4551 140.59C22.9451 140.42 22.3501 140.25 21.7551 140.25C21.1601 140.25 20.5651 140.335 20.0551 140.59C19.5451 140.76 19.1201 141.1 18.7801 141.525C18.4401 141.95 18.1001 142.375 17.9301 142.97C17.7601 143.565 17.6751 144.16 17.6751 144.925C17.6751 145.605 17.7601 146.285 17.9301 146.88C18.1001 147.475 18.4401 147.9 18.7801 148.325C19.1201 148.75 19.5451 149.005 20.0551 149.26C20.5651 149.43 21.1601 149.6 21.7551 149.6C22.3501 149.6 22.9451 149.515 23.4551 149.26C23.9651 149.09 24.3901 148.75 24.7301 148.325C25.0701 147.9 25.3251 147.475 25.5801 146.88C25.7501 146.285 25.8351 145.605 25.8351 144.925Z" fill="#082471"/>
<path d="M39.69 146.965C39.775 147.135 39.775 147.22 39.86 147.39C39.945 147.22 39.945 147.05 40.03 146.965C40.115 146.795 40.2 146.71 40.2 146.54L44.195 139.4C44.28 139.315 44.365 139.23 44.45 139.145C44.535 139.145 44.62 139.145 44.79 139.145H45.98V150.79H44.62V142.205C44.62 142.12 44.62 141.95 44.62 141.865C44.62 141.695 44.62 141.61 44.62 141.44L40.625 148.75C40.455 149.005 40.285 149.09 40.03 149.09H39.775C39.52 149.09 39.35 149.005 39.18 148.75L35.1 141.44C35.1 141.61 35.1 141.695 35.1 141.865C35.1 142.035 35.1 142.12 35.1 142.205V150.79H33.74V139.145H34.93C35.1 139.145 35.185 139.145 35.27 139.145C35.355 139.145 35.44 139.23 35.525 139.4L39.52 146.625C39.52 146.71 39.605 146.795 39.69 146.965Z" fill="#082471"/>
<path d="M54.565 146.37V150.705H52.95V139.06H56.435C57.2 139.06 57.795 139.145 58.39 139.315C58.9 139.485 59.4099 139.74 59.7499 140.08C60.0899 140.42 60.345 140.76 60.515 141.185C60.685 141.61 60.7699 142.12 60.7699 142.715C60.7699 143.225 60.685 143.735 60.515 144.245C60.345 144.67 60.005 145.095 59.665 145.435C59.325 145.775 58.8149 146.03 58.305 146.2C57.795 146.37 57.115 146.455 56.435 146.455H54.565V146.37ZM54.565 145.18H56.435C56.86 145.18 57.2849 145.095 57.6249 145.01C57.9649 144.925 58.2199 144.755 58.4749 144.5C58.7299 144.245 58.9 143.99 58.985 143.735C59.07 143.395 59.1549 143.14 59.1549 142.715C59.1549 141.95 58.8999 141.355 58.4749 140.93C58.0499 140.505 57.2849 140.335 56.3499 140.335H54.48V145.18H54.565Z" fill="#082471"/>
<path d="M75.3051 150.79H74.1151C73.9451 150.79 73.8601 150.79 73.7751 150.705C73.6901 150.62 73.6051 150.535 73.6051 150.45L72.5001 147.645H67.2301L66.125 150.45C66.125 150.535 66.0401 150.62 65.9551 150.705C65.8701 150.79 65.7851 150.79 65.6151 150.79H64.425L69.1 139.145H70.7151L75.3051 150.79ZM67.6551 146.455H71.9901L70.12 141.695C70.035 141.44 69.8651 141.015 69.7801 140.59C69.6951 140.845 69.6951 141.015 69.6101 141.185C69.5251 141.355 69.5251 141.525 69.4401 141.695L67.6551 146.455Z" fill="#082471"/>
<path d="M82.0201 139.145C82.1051 139.145 82.1901 139.23 82.2751 139.4L89.0751 148.24C89.0751 148.07 89.0751 147.985 89.0751 147.815C89.0751 147.645 89.0751 147.56 89.0751 147.39V139.145H90.4351V150.79H89.6701C89.5851 150.79 89.4151 150.79 89.3301 150.705C89.2451 150.62 89.1601 150.62 89.0751 150.45L82.3601 141.695C82.3601 141.865 82.3601 141.95 82.3601 142.12C82.3601 142.29 82.3601 142.375 82.3601 142.46V150.79H80.8301V139.145H81.6801C81.8501 139.06 81.9351 139.145 82.0201 139.145Z" fill="#082471"/>
<path d="M101.74 146.115V150.79H100.125V146.115L95.875 139.06H97.235C97.405 139.06 97.49 139.06 97.575 139.145C97.66 139.23 97.745 139.315 97.83 139.4L100.465 143.905C100.55 144.075 100.635 144.245 100.72 144.415C100.805 144.585 100.89 144.755 100.89 144.925C100.975 144.755 100.975 144.585 101.06 144.415C101.145 144.245 101.23 144.075 101.315 143.905L103.95 139.4C104.035 139.315 104.035 139.23 104.12 139.145C104.205 139.06 104.29 139.06 104.46 139.06H105.82L101.74 146.115Z" fill="#082471"/>
</svg>
