<svg width="136" height="148" viewBox="0 0 136 148" fill="none" xmlns="http://www.w3.org/2000/svg">
<path d="M21.0752 145.01C21.1602 145.01 21.2451 145.01 21.3301 145.095L22.0102 145.86C21.5002 146.455 20.8201 146.965 20.0551 147.305C19.2901 147.645 18.4402 147.815 17.3352 147.815C16.4002 147.815 15.5502 147.645 14.7851 147.305C14.0201 146.965 13.4251 146.54 12.8301 145.945C12.3201 145.35 11.8951 144.67 11.5551 143.905C11.3001 143.14 11.1301 142.205 11.1301 141.27C11.1301 140.335 11.3001 139.4 11.6401 138.635C11.9801 137.87 12.4051 137.105 13.0001 136.595C13.5951 136 14.2751 135.575 15.0401 135.235C15.8051 134.895 16.7401 134.725 17.6751 134.725C18.6102 134.725 19.4601 134.895 20.1401 135.15C20.8202 135.405 21.4152 135.83 21.9252 136.34L21.3301 137.105C21.3301 137.19 21.2452 137.19 21.1602 137.275C21.0752 137.275 20.9901 137.36 20.9051 137.36C20.8201 137.36 20.7352 137.36 20.6502 137.275C20.5652 137.19 20.4802 137.19 20.3102 137.105C20.2252 137.02 20.0552 136.935 19.8852 136.85C19.7152 136.765 19.5451 136.68 19.2901 136.595C19.0351 136.51 18.7802 136.425 18.5252 136.425C18.2702 136.34 17.9301 136.34 17.5051 136.34C16.8251 136.34 16.2302 136.425 15.6352 136.68C15.0401 136.935 14.5301 137.275 14.1901 137.7C13.7651 138.125 13.4251 138.635 13.2551 139.315C13.0001 139.91 12.9151 140.675 12.9151 141.44C12.9151 142.205 13.0001 142.97 13.2551 143.565C13.5101 144.16 13.7651 144.755 14.1901 145.18C14.6151 145.605 15.0401 145.945 15.6352 146.2C16.1452 146.455 16.7402 146.54 17.4202 146.54C17.8452 146.54 18.1851 146.54 18.4401 146.455C18.7801 146.37 19.0351 146.37 19.2901 146.285C19.5451 146.2 19.8001 146.03 20.0551 145.945C20.3101 145.775 20.4802 145.605 20.7352 145.435C20.8202 145.01 20.9052 145.01 21.0752 145.01Z" fill="#082471"/>
<path d="M40.7101 141.27C40.7101 142.205 40.5401 143.14 40.2851 143.905C39.9451 144.67 39.5201 145.435 39.0101 145.945C38.4151 146.54 37.8201 146.965 36.9701 147.305C36.2051 147.645 35.3551 147.815 34.4201 147.815C33.4851 147.815 32.6351 147.645 31.8701 147.305C31.1051 146.965 30.4251 146.54 29.8301 145.945C29.2351 145.35 28.8101 144.67 28.5551 143.905C28.2151 143.14 28.1301 142.205 28.1301 141.27C28.1301 140.335 28.3001 139.4 28.5551 138.635C28.8951 137.87 29.3201 137.105 29.8301 136.595C30.4251 136 31.0201 135.575 31.8701 135.235C32.6351 134.895 33.4851 134.725 34.4201 134.725C35.3551 134.725 36.2051 134.895 36.9701 135.235C37.7351 135.575 38.4151 136 39.0101 136.595C39.6051 137.19 40.0301 137.87 40.2851 138.635C40.5401 139.4 40.7101 140.25 40.7101 141.27ZM38.9251 141.27C38.9251 140.505 38.8401 139.74 38.5851 139.145C38.3301 138.55 38.0751 137.955 37.6501 137.53C37.2251 137.105 36.8001 136.765 36.2051 136.51C35.6101 136.255 35.0151 136.17 34.3351 136.17C33.6551 136.17 33.0601 136.255 32.4651 136.51C31.8701 136.765 31.4451 137.105 31.0201 137.53C30.5951 137.955 30.3401 138.465 30.0851 139.145C29.8301 139.74 29.7451 140.505 29.7451 141.27C29.7451 142.035 29.8301 142.8 30.0851 143.395C30.3401 143.99 30.5951 144.585 31.0201 145.01C31.4451 145.435 31.8701 145.775 32.4651 146.03C33.0601 146.285 33.6551 146.37 34.3351 146.37C35.0151 146.37 35.6951 146.285 36.2051 146.03C36.8001 145.775 37.2251 145.435 37.6501 145.01C38.0751 144.585 38.3301 144.075 38.5851 143.395C38.7551 142.715 38.9251 142.035 38.9251 141.27Z" fill="#082471"/>
<path d="M54.055 143.48C54.14 143.65 54.1401 143.82 54.2251 143.99C54.3101 143.82 54.3101 143.65 54.3951 143.48C54.4801 143.31 54.5651 143.14 54.6501 143.055L58.9851 135.15C59.0701 134.98 59.155 134.895 59.24 134.895C59.325 134.895 59.41 134.81 59.58 134.81H60.855V147.645H59.3251V138.21C59.3251 138.125 59.3251 137.955 59.3251 137.785C59.3251 137.615 59.3251 137.53 59.3251 137.36L54.905 145.35C54.735 145.605 54.5651 145.775 54.3101 145.775H54.055C53.8 145.775 53.5451 145.605 53.4601 145.35L48.955 137.275C48.955 137.445 48.955 137.615 48.955 137.7C48.955 137.87 48.955 137.955 48.955 138.125V147.56H47.425V134.725H48.7C48.87 134.725 48.955 134.725 49.04 134.81C49.125 134.81 49.2101 134.895 49.2951 135.065L53.715 142.97C53.97 143.14 53.97 143.31 54.055 143.48Z" fill="#082471"/>
<path d="M70.3751 142.885V147.73H68.675V134.895H72.5001C73.3501 134.895 74.0301 134.98 74.6251 135.15C75.2201 135.32 75.7301 135.575 76.1551 135.915C76.5801 136.255 76.8351 136.68 77.0051 137.19C77.1751 137.7 77.2601 138.21 77.2601 138.805C77.2601 139.4 77.1751 139.91 76.9201 140.42C76.7501 140.93 76.4101 141.355 75.9851 141.695C75.5601 142.035 75.0501 142.375 74.455 142.545C73.86 142.715 73.1801 142.885 72.4151 142.885H70.3751ZM70.3751 141.44H72.4151C72.9251 141.44 73.3501 141.355 73.6901 141.27C74.0301 141.1 74.3701 140.93 74.6251 140.76C74.8801 140.505 75.0501 140.25 75.2201 139.91C75.3901 139.57 75.3901 139.23 75.3901 138.805C75.3901 137.955 75.1351 137.36 74.6251 136.85C74.1151 136.425 73.35 136.17 72.33 136.17H70.29V141.44H70.3751Z" fill="#082471"/>
<path d="M93.2401 147.645H91.8801C91.7101 147.645 91.6251 147.645 91.5401 147.56C91.4551 147.475 91.3701 147.39 91.2851 147.305L90.0951 144.245H84.4001L83.2101 147.305C83.2101 147.39 83.1251 147.475 82.9551 147.56C82.8701 147.645 82.7001 147.645 82.6151 147.645H81.2551L86.3551 134.81H88.1401L93.2401 147.645ZM84.8251 142.885H89.5851L87.5451 137.7C87.3751 137.36 87.2901 136.935 87.1201 136.51C87.0351 136.765 86.9501 137.02 86.9501 137.19C86.8651 137.36 86.8651 137.615 86.7801 137.7L84.8251 142.885Z" fill="#082471"/>
<path d="M100.635 134.895C100.72 134.895 100.805 134.98 100.89 135.15L108.37 144.84C108.37 144.67 108.37 144.5 108.37 144.415C108.37 144.245 108.37 144.16 108.37 143.99V134.895H109.9V147.73H109.05C108.88 147.73 108.795 147.73 108.71 147.645C108.625 147.56 108.54 147.475 108.455 147.39L101.06 137.7C101.06 137.87 101.06 137.955 101.06 138.125C101.06 138.295 101.06 138.38 101.06 138.55V147.73H99.53V134.895H100.465C100.38 134.81 100.55 134.81 100.635 134.895Z" fill="#082471"/>
<path d="M122.31 142.545V147.645H120.61V142.545L115.935 134.81H117.465C117.635 134.81 117.72 134.81 117.805 134.895C117.89 134.98 117.975 135.065 118.06 135.15L121.035 140.165C121.12 140.335 121.29 140.59 121.375 140.76C121.46 140.93 121.545 141.1 121.63 141.27C121.715 141.1 121.8 140.93 121.885 140.675C121.97 140.505 122.055 140.335 122.14 140.08L125.03 135.065C125.115 134.98 125.115 134.895 125.285 134.81C125.37 134.725 125.54 134.64 125.625 134.64H127.155L122.31 142.545Z" fill="#082471"/>
<path d="M53.2051 113.22C53.9701 113.305 54.7351 113.39 55.4151 113.475C66.9751 108.29 76.7501 99.8751 83.6351 88.8251C90.2651 78.1151 93.4951 66.0451 93.2401 53.8051L80.5751 41.1401C85.7601 67.8301 75.7301 96.1351 53.2051 113.22Z" fill="#F9556D"/>
<path d="M48.7002 112.71C48.7852 112.71 48.9552 112.795 49.0402 112.795C73.0952 95.6251 83.4652 65.6201 76.6652 38.0801L58.6452 20.0601C73.0952 49.4701 70.2052 85.6801 48.7002 112.71Z" fill="#F9556D"/>
<path d="M109.73 68.6802C106.67 82.4502 99.3601 94.7752 88.5651 104.21C85.4201 106.93 82.0202 109.395 78.5352 111.435C96.2152 106.25 110.495 93.0752 117.125 75.9902L109.73 68.6802Z" fill="#F9556D"/>
<path d="M106.925 66.64L96.555 56.27C96.385 68.17 92.985 79.815 86.61 90.185C80.32 100.3 71.65 108.375 61.365 113.815C61.365 113.815 61.365 113.815 61.45 113.815C63.83 113.815 66.125 113.645 68.42 113.39C87.8 105.315 102.675 88.06 106.925 66.64Z" fill="#F9556D"/>
<path d="M50.2301 12.41L37.8201 0C15.8051 8.5 0.0800781 29.92 0.0800781 54.91C0.0800781 82.365 19.2051 105.655 44.7901 112.03C68.6751 83.045 69.9501 42.5 50.2301 12.41Z" fill="#F9556D"/>
<path d="M135.57 64.6852C135.57 32.3852 109.135 5.86523 76.7502 5.86523C69.3552 5.86523 62.2152 7.22521 55.6702 9.77521L131.575 85.6802C134.125 79.2202 135.57 72.0802 135.57 64.6852Z" fill="#F9556D"/>
</svg>
