<svg width="235" height="128" viewBox="0 0 235 128" fill="none" xmlns="http://www.w3.org/2000/svg">
<path d="M118.74 59.8399C117.72 58.4799 117.21 56.5249 117.21 54.0599V45.7299C117.21 43.1799 117.72 41.2249 118.74 39.8649C119.76 38.5049 121.46 37.9099 123.925 37.9099C126.22 37.9099 127.835 38.5049 128.77 39.6099C129.705 40.7999 130.215 42.4149 130.215 44.6249V46.5799H126.135V44.5399C126.135 43.6899 126.135 43.0949 126.05 42.5849C125.965 42.0749 125.795 41.7349 125.455 41.3949C125.115 41.0549 124.605 40.9699 123.925 40.9699C123.245 40.9699 122.735 41.1399 122.395 41.4799C122.055 41.8199 121.8 42.2449 121.715 42.7549C121.63 43.2649 121.545 43.9449 121.545 44.7949V54.9099C121.545 56.2699 121.715 57.2049 122.055 57.7999C122.395 58.3949 122.99 58.6499 123.925 58.6499C124.605 58.6499 125.03 58.4799 125.37 58.2249C125.71 57.8849 125.88 57.5449 125.965 57.0349C126.05 56.5249 126.135 55.8449 126.135 54.9949V52.8699H130.215V54.7399C130.215 57.0349 129.705 58.7349 128.77 60.0099C127.835 61.2849 126.22 61.8799 123.84 61.8799C121.46 61.8799 119.76 61.1999 118.74 59.8399Z" fill="#666666" fill-opacity="0.5"/>
<path d="M135.825 59.9249C134.805 58.6499 134.295 56.6949 134.295 54.2299V45.4749C134.295 43.0099 134.805 41.1399 135.825 39.8649C136.845 38.5899 138.63 37.9949 141.01 37.9949C143.39 37.9949 145.175 38.5899 146.195 39.8649C147.215 41.1399 147.725 43.0099 147.725 45.4749V54.2299C147.725 56.6949 147.215 58.6499 146.11 59.9249C145.09 61.1999 143.305 61.8799 140.925 61.8799C138.63 61.8799 136.845 61.1999 135.825 59.9249ZM142.965 57.7999C143.305 57.2049 143.475 56.3549 143.475 55.1649V44.4549C143.475 43.3499 143.305 42.4999 142.965 41.9049C142.625 41.3099 142.03 41.0549 141.01 41.0549C140.075 41.0549 139.395 41.3099 139.055 41.9049C138.715 42.4999 138.545 43.3499 138.545 44.4549V55.2499C138.545 56.3549 138.715 57.2899 139.055 57.8849C139.395 58.4799 139.99 58.8199 141.01 58.8199C142.03 58.7349 142.625 58.3949 142.965 57.7999Z" fill="#666666" fill-opacity="0.5"/>
<path d="M152.74 38.165H157.16L160.475 54.4L163.875 38.165H168.21L168.635 61.54H165.49L165.15 45.305L161.835 61.54H159.285L155.885 45.22L155.545 61.54H152.315L152.74 38.165Z" fill="#666666" fill-opacity="0.5"/>
<path d="M173.565 38.165H180.45C184.445 38.165 186.4 40.375 186.4 44.795C186.4 49.045 184.275 51.17 180.11 51.17H177.73V61.54H173.48V38.165H173.565ZM179.43 48.11C180.62 48.11 181.385 47.855 181.81 47.345C182.235 46.835 182.405 45.985 182.405 44.71C182.405 43.775 182.32 43.095 182.235 42.585C182.065 42.075 181.81 41.735 181.385 41.48C180.96 41.225 180.365 41.14 179.43 41.14H177.815V48.11H179.43Z" fill="#666666" fill-opacity="0.5"/>
<path d="M192.52 38.165H197.11L201.785 61.54H197.79L196.855 56.1H192.775L191.84 61.54H187.845L192.52 38.165ZM196.43 53.38L194.815 43.52L193.2 53.38H196.43Z" fill="#666666" fill-opacity="0.5"/>
<path d="M205.525 38.165H208.5L214.195 51.51V38.165H217.68V61.54H214.875L209.18 47.515V61.54H205.525V38.165Z" fill="#666666" fill-opacity="0.5"/>
<path d="M226.01 52.615L221.25 38.165H225.245L228.135 47.43L230.855 38.165H234.765L230.09 52.615V61.54H226.01V52.615Z" fill="#666666" fill-opacity="0.5"/>
<path d="M125.285 71.74V72.93H121.8V82.45H120.355V72.93H116.87V71.74H125.285Z" fill="#666666" fill-opacity="0.5"/>
<path d="M136.165 82.5349H135.06C134.89 82.5349 134.805 82.535 134.72 82.45C134.635 82.365 134.55 82.2799 134.55 82.1949L133.53 79.6449H128.685L127.665 82.1949C127.665 82.2799 127.58 82.365 127.495 82.45C127.41 82.535 127.325 82.5349 127.155 82.5349H126.05L130.3 71.825H131.745L136.165 82.5349ZM129.11 78.54H133.105L131.405 74.2049C131.32 73.9499 131.15 73.6099 131.065 73.1849C130.98 73.3549 130.98 73.6099 130.895 73.7799C130.81 73.9499 130.81 74.1199 130.725 74.2049L129.11 78.54Z" fill="#666666" fill-opacity="0.5"/>
<path d="M143.475 81.43C143.73 81.43 144.07 81.43 144.24 81.43C144.495 81.43 144.75 81.345 144.92 81.345C145.175 81.26 145.345 81.26 145.515 81.175C145.685 81.09 145.855 81.005 146.11 80.92V78.455H144.41C144.325 78.455 144.24 78.455 144.155 78.37C144.07 78.285 144.07 78.285 144.07 78.2V77.35H147.385V81.43C147.13 81.6 146.875 81.77 146.535 81.94C146.28 82.11 145.94 82.195 145.6 82.28C145.26 82.365 144.92 82.45 144.495 82.535C144.155 82.62 143.73 82.62 143.22 82.62C142.455 82.62 141.69 82.45 141.095 82.195C140.415 81.94 139.905 81.515 139.395 81.09C138.885 80.58 138.545 80.07 138.29 79.39C138.035 78.71 137.865 77.945 137.865 77.18C137.865 76.33 138.035 75.65 138.29 74.97C138.545 74.29 138.885 73.695 139.395 73.27C139.905 72.76 140.415 72.42 141.095 72.165C141.775 71.91 142.54 71.74 143.39 71.74C143.815 71.74 144.24 71.74 144.58 71.825C144.92 71.91 145.26 71.995 145.6 72.08C145.94 72.165 146.195 72.335 146.45 72.505C146.705 72.675 146.96 72.845 147.215 73.1L146.79 73.78C146.705 73.95 146.62 73.95 146.45 73.95C146.365 73.95 146.28 73.95 146.195 73.865C146.11 73.78 145.94 73.695 145.77 73.61C145.6 73.525 145.43 73.44 145.175 73.355C144.92 73.27 144.665 73.185 144.41 73.1C144.155 73.015 143.73 73.015 143.305 73.015C142.71 73.015 142.115 73.1 141.69 73.27C141.18 73.44 140.755 73.78 140.415 74.12C140.075 74.46 139.82 74.97 139.65 75.48C139.48 75.99 139.395 76.585 139.395 77.265C139.395 77.945 139.48 78.54 139.65 79.05C139.82 79.56 140.075 80.07 140.5 80.41C140.84 80.75 141.265 81.09 141.775 81.26C142.37 81.345 142.965 81.43 143.475 81.43Z" fill="#666666" fill-opacity="0.5"/>
<path d="M157.075 81.26H161.75V82.45H155.63V71.74H157.075V81.26Z" fill="#666666" fill-opacity="0.5"/>
<path d="M166.51 82.5349H165.065V71.825H166.51V82.5349Z" fill="#666666" fill-opacity="0.5"/>
<path d="M171.95 71.8249C172.035 71.8249 172.12 71.9099 172.205 71.9949L178.41 80.0699C178.41 79.8999 178.41 79.8149 178.41 79.7299C178.41 79.6449 178.41 79.4749 178.41 79.3899V71.8249H179.685V82.5349H178.92C178.835 82.5349 178.75 82.5349 178.665 82.4499C178.58 82.4499 178.495 82.3649 178.41 82.2799L172.205 74.2049C172.205 74.2899 172.205 74.4599 172.205 74.5449C172.205 74.6299 172.205 74.7999 172.205 74.8849V82.5349H170.93V71.8249H171.695C171.78 71.7399 171.865 71.8249 171.95 71.8249Z" fill="#666666" fill-opacity="0.5"/>
<path d="M190.31 71.74V72.93H185.125V76.5H189.29V77.605H185.125V81.26H190.31V82.45H183.68V71.74H190.31Z" fill="#666666" fill-opacity="0.5"/>
<path d="M37.9901 5.43999L102.505 23.8V87.975L37.9901 69.615V5.43999ZM33.9102 0V72.845L106.755 93.5V20.655L33.9102 0Z" fill="#666666" fill-opacity="0.5"/>
<path d="M72.925 127.33L0.0800781 106.59V33.7449L72.925 54.4849V127.33Z" fill="#666666" fill-opacity="0.5"/>
<path d="M35.1001 4.675L98.7652 22.78L71.6501 49.895L7.98512 31.705L35.1001 4.675ZM33.9101 0L0.0800781 33.83L72.9251 54.485L106.755 20.655L33.9101 0Z" fill="#666666" fill-opacity="0.5"/>
<path d="M77.0051 123.165L106.67 93.5L77.0051 85.085V123.165Z" fill="#666666" fill-opacity="0.5"/>
</svg>
