<svg width="50" height="50" viewBox="0 0 50 50" fill="none" xmlns="http://www.w3.org/2000/svg">
<path d="M13.0061 31.7146C12.2421 30.9509 11.9544 31.3346 11.7845 31.5047C7.38496 35.9042 3.47914 46.5196 5.54398 45.4828C13.0608 41.7086 14.3133 42.8323 18.7127 38.433C18.8827 38.263 19.2738 37.9826 18.4876 37.1962L13.0061 31.7146Z" fill="white"/>
<path d="M36.7232 31.6557C36.5239 31.0212 36.9415 30.7154 37.1173 30.5257C46.8275 20.0424 52.9987 6.07527 48.4255 1.50176C43.8763 -3.04711 30.34 3.30442 19.8595 12.9445C19.6522 13.1355 19.2435 13.4972 18.5124 13.3445L15.2471 12.567C14.3405 12.3514 13.0595 12.7138 12.4005 13.3728L0.419127 25.354C-0.239855 26.0132 -0.0257533 26.6708 0.894958 26.8153L9.56074 28.1772C10.4814 28.322 11.7739 27.9012 12.4327 27.242C12.4327 27.242 12.8798 26.7937 13.3291 27.2428C15.8075 29.7209 20.4132 34.3266 22.7745 36.688C23.2439 37.1573 22.7943 37.6036 22.7943 37.6036C22.1352 38.2628 21.7145 39.5549 21.8593 40.4758L23.221 49.1414C23.3657 50.0624 24.0233 50.2765 24.6823 49.6174L36.6639 37.6358C37.3227 36.9768 37.6853 35.6961 37.4694 34.7895L36.7232 31.6557ZM34.0407 16.1765C32.0113 14.1471 32.0113 10.8572 34.0407 8.82809C36.07 6.79871 39.3599 6.79871 41.3895 8.82809C43.4185 10.857 43.4185 14.1471 41.3895 16.1764C39.3599 18.2057 36.0698 18.2057 34.0407 16.1765Z" fill="white"/>
</svg>
