<svg width="529" height="385" viewBox="0 0 529 385" fill="none" xmlns="http://www.w3.org/2000/svg">
<path fill-rule="evenodd" clip-rule="evenodd" d="M90.4744 93.3351C104.956 93.3351 116.712 81.5793 116.712 67.0979C116.712 52.6165 104.956 40.8607 90.4744 40.8607C75.993 40.8607 64.2372 52.6165 64.2372 67.0979C64.2372 81.5793 75.993 93.3351 90.4744 93.3351ZM130.642 106.412C126.953 110.184 122.713 113.433 118.061 116.076L118.776 129.428L107.681 133.338L99.8349 122.518L96.8065 122.931H84.0045L76.7363 134.136L66.8251 131.3L66.4947 131.19L65.4761 130.805V117.452L63.2736 116.268L52.4263 108.45L51.2425 108.918L39.9823 113.268C37.3393 110.377 34.9165 107.266 32.7966 103.935L40.643 93.1423C38.2203 88.5171 36.4308 83.5064 35.357 78.1929L22.4725 74.7515L22.1421 62.9957L34.8615 58.8936C35.6323 53.525 37.1741 48.4318 39.3491 43.6689L30.9521 33.3447C32.9068 29.9033 35.1368 26.6822 37.6146 23.6537L50.334 27.811L62.8882 18.1475L62.1724 4.79492C65.6963 3.17058 69.413 1.87663 73.2399 0.885504L81.0863 11.7052L96.9442 11.2923L104.212 0.0595703L115.5 3.41836V16.771C120.263 19.1662 124.668 22.1946 128.55 25.7736L131.881 24.4797L140.994 20.9557C143.637 23.8465 146.06 26.985 148.18 30.2888L140.306 41.0534C142.728 45.6787 144.518 50.7169 145.592 56.0028L158.476 59.4442L158.779 71.2L146.087 75.3022C145.316 80.6432 143.775 85.764 141.6 90.5269L149.997 100.879C148.07 104.32 145.812 107.541 143.334 110.57L130.642 106.412Z" fill="#C4D1EB"/>
<path fill-rule="evenodd" clip-rule="evenodd" d="M53.8855 98.098C54.1883 98.098 54.5187 97.9878 54.7665 97.7676C55.3446 97.272 55.4272 96.4186 54.9592 95.8404C48.2691 87.8013 44.58 77.6148 44.58 67.1254C44.58 62.1147 45.3784 57.1867 47.0302 52.4788C47.278 51.763 46.8926 50.9922 46.1492 50.7444C45.4334 50.4691 44.6626 50.8545 44.3872 51.5978C42.6803 56.581 41.7993 61.8119 41.7993 67.1529C41.7993 78.2755 45.7087 89.0953 52.8118 97.6574C53.0871 97.9328 53.4725 98.098 53.8855 98.098Z" fill="white"/>
<path fill-rule="evenodd" clip-rule="evenodd" d="M57.7672 34.7488C58.0976 34.7488 58.428 34.6387 58.7308 34.3633C63.2184 30.1511 68.4218 26.9299 74.2033 24.8376C74.9191 24.5622 75.3045 23.7914 75.0292 23.048C74.7539 22.3322 73.983 21.9468 73.2672 22.2221C67.1278 24.4521 61.594 27.866 56.8312 32.3536C56.2805 32.8767 56.253 33.7577 56.7761 34.2807C57.0239 34.6111 57.3818 34.7488 57.7672 34.7488Z" fill="white"/>
<path fill-rule="evenodd" clip-rule="evenodd" d="M100.909 23.5712C101.515 23.5712 102.093 23.1582 102.23 22.525C102.423 21.7817 101.955 21.0383 101.239 20.8456C97.4125 19.882 93.4755 19.3865 89.511 19.3865C88.7401 19.3865 88.1069 20.0197 88.1069 20.763C88.1069 21.5339 88.7401 22.1671 89.511 22.1671C93.2553 22.1671 96.9445 22.6351 100.551 23.5437C100.661 23.5437 100.771 23.5712 100.909 23.5712Z" fill="white"/>
<path fill-rule="evenodd" clip-rule="evenodd" d="M263.618 23.048C207.206 23.048 213.621 108.477 172.903 134.467C118.969 168.936 26.2168 151.866 26.2168 211.003C26.2168 314.823 146.555 352.431 277.659 352.431C408.762 352.431 520.648 294.863 481.609 191.318C442.598 87.8012 394.749 23.048 263.618 23.048Z" fill="#E0E8F5"/>
<path fill-rule="evenodd" clip-rule="evenodd" d="M411.267 328.341C385.718 328.341 365.015 332.03 365.015 336.573C365.015 341.088 385.718 344.777 411.267 344.777C436.816 344.777 457.547 341.088 457.547 336.573C457.519 332.03 436.816 328.341 411.267 328.341Z" fill="#C4D1EB"/>
<path fill-rule="evenodd" clip-rule="evenodd" d="M197.295 259.155H243.878C254.174 293.486 266.178 313.859 289.194 313.859H139.865C116.849 313.859 104.845 293.459 94.5488 259.155H197.295Z" fill="#B0C2E4"/>
<path fill-rule="evenodd" clip-rule="evenodd" d="M411.349 89.9763H355.406H206.05C208.445 66.3546 214.337 50.772 228.653 50.772H377.982H380.872C392.931 51.7356 403.09 64.8129 411.349 89.9763Z" fill="#B0C2E4"/>
<path fill-rule="evenodd" clip-rule="evenodd" d="M197.295 259.155C216.402 182.095 187.136 50.7994 228.653 50.7994H377.982C319.175 50.7994 402.264 313.859 289.194 313.859C266.178 313.859 254.174 293.459 243.878 259.155H197.295Z" fill="#C4D1EB"/>
<path fill-rule="evenodd" clip-rule="evenodd" d="M284.073 313.502C386.654 302.709 308.328 50.7994 365.868 50.7994H377.982C319.175 50.7994 402.264 313.859 289.194 313.859C287.432 313.859 285.753 313.749 284.073 313.502Z" fill="#9DB2D9"/>
<path fill-rule="evenodd" clip-rule="evenodd" d="M196.745 259.155C215.851 182.095 186.586 50.7994 228.103 50.7994H237.794C196.249 50.7994 225.515 182.068 206.436 259.155H196.745Z" fill="#9DB2D9"/>
<path fill-rule="evenodd" clip-rule="evenodd" d="M106.663 269.259C116.326 297.423 128.082 313.859 148.758 313.859H139.865C116.849 313.859 104.845 293.459 94.5488 259.155H98.3481H103.441H243.878H248.448H253.046C261.938 288.723 272.042 307.94 289.414 312.703C287.707 313.033 285.945 313.336 284.101 313.502C266.563 310.969 255.964 295.028 247.126 269.287H106.663V269.259Z" fill="#859AC6"/>
<path fill-rule="evenodd" clip-rule="evenodd" d="M401.273 89.9762C393.702 66.9052 384.534 54.0206 373.797 51.295C375.119 50.9646 376.495 50.7994 377.982 50.7994H380.873C392.932 51.763 403.09 64.8128 411.35 90.0038H401.273V89.9762Z" fill="#859AC6"/>
<path fill-rule="evenodd" clip-rule="evenodd" d="M328.398 65.5562H236.555C234.682 65.5562 233.113 67.0979 233.113 68.97C233.113 70.8421 234.682 72.3839 236.555 72.3839H328.398C330.271 72.3839 331.785 70.8421 331.785 68.97C331.785 67.0704 330.243 65.5562 328.398 65.5562ZM321.818 153.298H230.305C228.433 153.298 226.891 154.84 226.891 156.712C226.891 158.611 228.433 160.153 230.305 160.153H321.818C323.691 160.153 325.232 158.611 325.232 156.712C325.232 154.84 323.691 153.298 321.818 153.298ZM321.818 139.725H230.305C228.433 139.725 226.891 141.267 226.891 143.139C226.891 145.011 228.433 146.553 230.305 146.553H321.818C323.691 146.553 325.232 145.011 325.232 143.139C325.232 141.267 323.691 139.725 321.818 139.725ZM321.818 116.626H263.563C261.69 116.626 260.149 118.168 260.149 120.04C260.149 121.912 261.69 123.454 263.563 123.454H321.818C323.691 123.454 325.232 121.912 325.232 120.04C325.232 118.168 323.691 116.626 321.818 116.626ZM322.837 103.852H230.993C229.121 103.852 227.579 105.394 227.579 107.266C227.579 109.138 229.121 110.68 230.993 110.68H322.837C324.709 110.68 326.251 109.138 326.251 107.266C326.279 105.394 324.737 103.852 322.837 103.852ZM323.883 91.0775H232.039C230.167 91.0775 228.626 92.6193 228.626 94.4914C228.626 96.3635 230.167 97.9328 232.039 97.9328H323.883C325.755 97.9328 327.297 96.3635 327.297 94.4914C327.297 92.6193 325.755 91.0775 323.883 91.0775ZM326.113 78.3031H234.297C232.397 78.3031 230.856 79.8723 230.856 81.7445C230.856 83.6166 232.397 85.1583 234.297 85.1583H326.113C327.985 85.1583 329.527 83.6166 329.527 81.7445C329.527 79.8448 328.013 78.3031 326.113 78.3031Z" fill="white"/>
<path fill-rule="evenodd" clip-rule="evenodd" d="M422.995 191.952C433.154 201.23 428.749 210.535 421.206 227.797C413.69 245.032 412.341 308.766 412.341 308.766L418.535 307.885C418.535 307.885 417.654 242.389 426.051 224.714C434.448 207.011 438 198.146 445.516 203.928C453.059 209.654 422.995 191.952 422.995 191.952Z" fill="#9DB2D9"/>
<path fill-rule="evenodd" clip-rule="evenodd" d="M417.379 179.92C418.618 174.414 425.969 168.44 435.77 163.374C434.311 171.496 429.658 184.766 434.476 187.519C441.001 191.208 435.109 172.652 437.642 162.466C446.865 157.951 457.96 154.289 468.174 152.472C468.147 152.499 468.147 152.555 468.147 152.582C462.393 167.174 454.877 172.928 457.96 175.13C460.273 176.782 467.871 159.933 477.92 151.288C485.436 150.875 491.796 151.921 495.568 154.895C501.377 159.492 505.286 163.595 499.422 177.608C496.091 180.003 491.768 181.71 486.73 182.206C473.46 183.527 467.266 183.995 476.571 188.4C481.086 190.575 488.74 188.29 494.934 186.858C492.925 190.548 490.474 194.732 487.446 199.523C485.546 202.551 483.454 205.194 481.224 207.452C476.957 208.25 473.212 208.278 471.258 207.424C465.063 204.754 449.15 196.357 445.131 199.908C441.249 203.377 474.644 205.58 472.304 214.362C456.115 223.695 437.587 219.262 434.311 210.673C429.906 199.192 413.662 196.494 417.379 179.92Z" fill="#C4D1EB"/>
<path fill-rule="evenodd" clip-rule="evenodd" d="M450.857 242.829C433.155 229.559 415.012 241.948 405.734 256.099C396.456 270.25 403.091 302.104 403.091 302.104C403.091 302.104 406.615 302.104 406.615 300.782C406.615 299.461 396.869 263.175 419.885 246.821C434.283 236.58 444.635 241.508 445.984 246.381C447.306 251.254 440.23 260.119 440.23 260.119L450.857 242.829Z" fill="#9DB2D9"/>
<path fill-rule="evenodd" clip-rule="evenodd" d="M410.139 215.546C427.841 215.546 433.595 242.967 428.722 258.907C423.877 274.848 417.214 304.499 417.214 304.499L412.782 300.066C412.782 300.066 429.603 258.467 425.611 239.883C421.619 221.3 411.901 218.189 410.139 218.189C408.377 218.189 410.139 215.546 410.139 215.546Z" fill="#9DB2D9"/>
<path fill-rule="evenodd" clip-rule="evenodd" d="M424.978 259.045C426.244 257.393 427.758 256.017 429.658 255.136C429.383 256.457 429.107 257.724 428.722 258.907C426.519 266.176 423.931 276.279 421.756 285.117C421.564 283.988 421.261 282.254 420.793 279.528C420.683 278.895 420.6 278.207 420.518 277.463C422.28 271.599 423.932 265.157 424.978 259.045Z" fill="#9DB2D9"/>
<path fill-rule="evenodd" clip-rule="evenodd" d="M429.823 259.155C463.439 245.004 445.736 225.567 475.36 238.397C477.452 239.305 480.013 241.59 482.545 244.729C479.902 245.472 476.709 246.023 473.157 245.472C464.292 244.151 467.403 251.226 482.022 252.988C484.775 253.319 487.006 253.787 488.85 254.447C495.815 267.8 498.954 285.365 484.225 291.504C481.334 292.688 477.755 293.376 473.763 293.652C469.22 290.045 474.864 269.149 467.871 272.04C461.154 274.82 469.991 289.935 468.78 293.762C462.117 293.652 454.794 292.578 447.774 290.844C444.993 289.274 442.873 287.182 442.212 284.456C439.982 275.151 454.601 269.397 455.042 261.44C455.455 254.117 449.673 277.546 434.421 281.015C420.628 274.518 414.103 265.763 429.823 259.155Z" fill="#C4D1EB"/>
<path fill-rule="evenodd" clip-rule="evenodd" d="M405.871 234.129C409.423 226.613 400.145 224.824 400.585 230.578C400.971 235.699 400.998 248.06 395.795 251.446C386.792 250.455 374.513 246.821 365.235 241.287C365.125 240.572 365.235 239.773 365.621 238.975C369.613 231.018 395.272 224.383 387.315 221.74C380.956 219.62 369.86 232.12 360.885 238.369C355.517 234.294 351.91 229.421 351.91 223.998C351.91 216.675 360.858 208.333 372.393 204.341C377.597 204.864 382.415 207.699 389.958 211.994C401.108 218.299 398.52 208.085 388.004 202.056C397.089 202.524 406.147 206.405 412.837 215.683C412.837 215.683 412.203 219.675 416.416 225.815C427.869 242.554 414.626 252.327 398.823 251.694C399.732 247.289 403.421 239.333 405.871 234.129Z" fill="#C4D1EB"/>
<path fill-rule="evenodd" clip-rule="evenodd" d="M449.783 242.086C458.428 248.776 468.064 256.595 479.847 261.881C491.658 267.194 489.29 284.511 489.29 284.511C489.29 284.511 491.08 269.562 481.224 264.441C471.395 259.348 464.925 253.236 457.464 252.08C449.976 250.896 445.846 249.712 445.846 249.712C445.846 249.712 448.214 244.977 446.837 243.215C445.433 241.425 449.783 242.086 449.783 242.086Z" fill="#9DB2D9"/>
<path fill-rule="evenodd" clip-rule="evenodd" d="M492.429 163.567C460.768 172.019 437.56 192.282 433.237 197.21C428.887 202.111 428.887 203.487 428.887 203.487L432.246 209.764L433.815 208.966C433.815 208.966 431.255 203.652 437.945 196.77C449.48 184.876 463.521 175.516 473.157 171.413C482.821 167.311 492.429 163.567 492.429 163.567Z" fill="#9DB2D9"/>
<path fill-rule="evenodd" clip-rule="evenodd" d="M405.045 338.83H417.159C425.749 338.83 432.714 331.865 432.714 323.248V295.441H389.49V323.248C389.463 331.837 396.456 338.83 405.045 338.83Z" fill="#859AC6"/>
<path d="M432.686 300.424H389.462V303.48H432.686V300.424Z" fill="white"/>
<path d="M432.686 305.986H389.462V307.775H432.686V305.986Z" fill="white"/>
<path fill-rule="evenodd" clip-rule="evenodd" d="M361.628 18.0649L397.364 32.7115L387.563 45.2382L361.628 18.0649Z" fill="#C4D1EB"/>
<path fill-rule="evenodd" clip-rule="evenodd" d="M402.402 26.8198L362.73 18.1475L412.121 21.754L402.402 26.8198Z" fill="#C4D1EB"/>
<path fill-rule="evenodd" clip-rule="evenodd" d="M402.402 26.8198L401.466 43.2559L397.364 32.7115L361.628 18.0649L362.73 18.1475L402.402 26.8198Z" fill="#9DB2D9"/>
<path fill-rule="evenodd" clip-rule="evenodd" d="M401.466 43.256L393.014 38.2728L397.364 32.7115L401.466 43.256Z" fill="#859AC6"/>
<path fill-rule="evenodd" clip-rule="evenodd" d="M410.662 42.0446C409.505 41.9069 409.781 40.2 410.854 40.3377L412.561 40.5304C413.69 40.668 413.442 42.375 412.369 42.2373L410.662 42.0446ZM469.22 110.129C469.991 110.129 470.349 111.065 469.854 111.561C469.744 111.726 469.468 111.836 469.22 111.836H468.119C467.018 111.836 466.963 110.129 468.119 110.129H469.22ZM463.026 109.964C464.045 109.964 464.182 111.671 462.916 111.671L461.209 111.561C459.97 111.423 460.328 109.716 461.319 109.854L463.026 109.964ZM456.281 109.331C457.354 109.468 457.189 111.175 456.005 111.038L456.281 109.331ZM449.756 107.899C450.775 108.285 450.389 109.826 449.233 109.523C448.655 109.358 448.132 109.165 447.553 108.945C446.535 108.505 447.14 106.963 448.187 107.348C448.682 107.541 449.233 107.734 449.756 107.899ZM443.919 104.953C444.828 105.697 443.699 106.991 442.846 106.275C442.35 105.889 441.91 105.476 441.497 105.008C440.753 104.1 442.102 103.054 442.79 103.88C443.148 104.265 443.506 104.65 443.919 104.953ZM440.726 99.7774C440.863 101.016 439.156 101.099 439.019 100.08C438.909 99.4746 438.853 98.8689 438.826 98.2632C438.826 97.0793 440.533 97.1344 440.533 98.2356C440.56 98.7312 440.616 99.2543 440.726 99.7774ZM441.194 93.3902C440.918 94.4088 439.266 94.0784 439.542 92.9221C439.679 92.344 439.872 91.7934 440.037 91.2427C440.45 90.114 442.047 90.8022 441.662 91.7934C441.497 92.2889 441.331 92.8395 441.194 93.3902ZM443.561 87.0855C443.148 88.0767 441.524 87.471 441.992 86.3697C442.24 85.8466 442.488 85.3236 442.708 84.8005C443.341 83.6992 444.745 84.6903 444.277 85.5713C444.029 86.0944 443.782 86.59 443.561 87.0855ZM446.617 81.0011C446.012 82.0473 444.58 81.1113 445.103 80.2028L445.902 78.6885C446.48 77.6699 447.939 78.5784 447.416 79.4869C447.14 80.01 446.865 80.5331 446.617 81.0011ZM449.811 74.9168C449.178 76.018 447.774 75.0269 448.269 74.1459L449.012 72.6317C449.591 71.613 450.995 72.3564 450.554 73.3475L449.811 74.9168ZM452.564 68.5295C452.179 69.5482 450.637 69.1352 450.94 67.9789C451.105 67.4558 451.27 66.9603 451.408 66.4096C451.683 65.3084 453.335 65.7214 453.06 66.8226C452.95 67.4008 452.784 67.9789 452.564 68.5295ZM453.445 61.4265C453.583 62.5553 451.876 62.748 451.738 61.6192C451.683 61.0961 451.573 60.573 451.435 60.05C451.16 58.9487 452.839 58.5633 453.087 59.637C453.252 60.2427 453.362 60.8208 453.445 61.4265ZM450.802 54.7089C451.463 55.645 450.086 56.6361 449.425 55.7276C449.095 55.2871 448.792 54.8741 448.407 54.4611C447.608 53.4976 449.013 52.5064 449.673 53.3048C450.059 53.7453 450.444 54.2409 450.802 54.7089ZM445.654 49.8084C446.535 50.4416 445.709 51.8181 444.69 51.24C444.222 50.9096 443.754 50.6343 443.286 50.359C442.322 49.8084 443.148 48.2942 444.167 48.8723C444.663 49.2027 445.158 49.5055 445.654 49.8084ZM439.432 46.5597C440.478 47.0002 439.79 48.5695 438.798 48.129C438.275 47.9087 437.752 47.716 437.229 47.4958C436.183 47.1103 436.761 45.486 437.835 45.899C438.358 46.0917 438.909 46.3119 439.432 46.5597ZM432.879 44.2746C433.898 44.5499 433.568 46.2018 432.384 45.899L430.759 45.4585C429.713 45.1831 430.071 43.5313 431.2 43.8066L432.879 44.2746ZM426.162 42.6228C427.345 42.8981 426.822 44.5499 425.831 44.3021L424.179 43.9718C423.078 43.6965 423.326 42.1547 424.482 42.2924L426.162 42.6228ZM419.361 41.4114C420.435 41.549 420.298 43.256 419.114 43.1183L417.407 42.8705C416.333 42.7329 416.498 40.9984 417.655 41.1636L419.361 41.4114Z" fill="#859AC6"/>
<path fill-rule="evenodd" clip-rule="evenodd" d="M232.866 16.826L197.158 31.4726L206.959 43.9992L232.866 16.826Z" fill="#C4D1EB"/>
<path fill-rule="evenodd" clip-rule="evenodd" d="M192.119 25.5534L231.764 16.9086L182.401 20.5152L192.119 25.5534Z" fill="#C4D1EB"/>
<path fill-rule="evenodd" clip-rule="evenodd" d="M192.12 25.5534L193.056 41.9894L197.158 31.4726L232.866 16.826L231.764 16.9086L192.12 25.5534Z" fill="#9DB2D9"/>
<path fill-rule="evenodd" clip-rule="evenodd" d="M193.056 41.9894L201.48 37.0338L197.158 31.4725L193.056 41.9894Z" fill="#859AC6"/>
<path fill-rule="evenodd" clip-rule="evenodd" d="M183.86 40.7781C185.016 40.6405 184.741 38.9335 183.667 39.0712L181.96 39.2639C180.832 39.4016 181.079 41.1085 182.153 40.9708L183.86 40.7781ZM125.301 108.89C124.53 108.89 124.145 109.826 124.668 110.322C124.778 110.487 125.053 110.597 125.301 110.597H126.402C127.504 110.597 127.531 108.89 126.375 108.89H125.301ZM131.496 108.725C130.477 108.725 130.339 110.432 131.578 110.432L133.313 110.322C134.524 110.184 134.194 108.505 133.175 108.615L131.496 108.725ZM138.241 108.092C137.167 108.202 137.305 109.936 138.516 109.799L138.241 108.092ZM144.766 106.633C143.747 107.018 144.132 108.56 145.289 108.257C145.867 108.064 146.39 107.872 146.941 107.679C147.987 107.211 147.354 105.669 146.307 106.082C145.839 106.302 145.289 106.467 144.766 106.633ZM150.575 103.742C149.694 104.458 150.823 105.752 151.649 105.063C152.144 104.65 152.612 104.237 152.998 103.797C153.768 102.861 152.419 101.842 151.731 102.668C151.373 103.054 150.988 103.384 150.575 103.742ZM153.796 98.5109C153.631 99.7498 155.365 99.8324 155.475 98.8138C155.585 98.2081 155.668 97.6024 155.668 96.9967C155.668 95.8129 153.961 95.8679 153.961 96.9692C153.961 97.4923 153.879 98.0154 153.796 98.5109ZM153.328 92.1237C153.603 93.1423 155.255 92.812 154.98 91.6557C154.815 91.105 154.649 90.5269 154.484 89.9763C154.071 88.8475 152.474 89.5358 152.86 90.5269C153.025 91.05 153.19 91.5731 153.328 92.1237ZM150.96 85.8466C151.373 86.8377 152.97 86.232 152.529 85.1308C152.282 84.6077 152.034 84.0846 151.814 83.5615C151.18 82.4603 149.776 83.4514 150.244 84.3324C150.492 84.8279 150.74 85.3235 150.96 85.8466ZM147.904 79.7622C148.482 80.8084 149.942 79.8999 149.418 78.9638L148.62 77.4496C148.042 76.4309 146.583 77.3395 147.106 78.248C147.381 78.7436 147.656 79.2666 147.904 79.7622ZM144.711 73.6778C145.344 74.7791 146.748 73.7879 146.252 72.9345L145.509 71.3927C144.931 70.3741 143.527 71.1174 143.94 72.1361L144.711 73.6778ZM141.93 67.2906C142.343 68.3093 143.857 67.9238 143.554 66.7675C143.362 66.2444 143.224 65.7213 143.086 65.1707C142.811 64.0695 141.159 64.51 141.434 65.5837C141.572 66.1618 141.737 66.7124 141.93 67.2906ZM141.077 60.16C140.939 61.2888 142.646 61.4815 142.783 60.3803C142.839 59.8572 142.949 59.3066 143.059 58.811C143.334 57.7098 141.682 57.2968 141.407 58.398C141.269 58.9762 141.159 59.5544 141.077 60.16ZM143.692 53.47C143.031 54.406 144.435 55.3696 145.096 54.4611C145.426 54.0206 145.729 53.6076 146.115 53.1947C146.886 52.2586 145.509 51.2399 144.848 52.0384C144.435 52.5064 144.05 53.0019 143.692 53.47ZM148.868 48.597C147.987 49.2302 148.785 50.6067 149.831 50.001C150.299 49.6982 150.768 49.3954 151.236 49.1201C152.199 48.5694 151.373 47.0827 150.355 47.6334C149.859 47.9362 149.363 48.2391 148.868 48.597ZM155.062 45.2932C154.016 45.7337 154.732 47.303 155.723 46.8625C156.246 46.6698 156.769 46.4495 157.292 46.2293C158.311 45.8438 157.733 44.2195 156.659 44.6325C156.164 44.8527 155.613 45.073 155.062 45.2932ZM161.642 43.0081C160.624 43.2835 160.954 44.9353 162.11 44.66L163.735 44.192C164.808 43.9167 164.423 42.2648 163.322 42.5401L161.642 43.0081ZM168.36 41.3838C167.176 41.6591 167.699 43.311 168.69 43.0632L170.342 42.7328C171.443 42.4575 171.168 40.9158 170.012 41.0534L168.36 41.3838ZM175.16 40.1724C174.086 40.3101 174.224 42.017 175.408 41.8794L177.087 41.6316C178.188 41.4939 178.023 39.787 176.867 39.9247L175.16 40.1724Z" fill="#859AC6"/>
<path fill-rule="evenodd" clip-rule="evenodd" d="M0.970703 370.381C0.970703 376.107 42.9006 380.76 94.6592 380.76C146.39 380.76 188.32 376.107 188.32 370.381C188.32 356.257 0.970703 356.56 0.970703 370.381Z" fill="#C4D1EB"/>
<path fill-rule="evenodd" clip-rule="evenodd" d="M440.34 355.679C396.263 355.679 360.555 362.259 360.555 370.353C360.555 378.448 396.263 385 440.34 385C484.39 385 520.125 378.42 520.125 370.353C520.125 362.259 484.417 355.679 440.34 355.679Z" fill="#C4D1EB"/>
<path fill-rule="evenodd" clip-rule="evenodd" d="M279.999 173.093C276.943 171.689 273.832 170.477 270.776 169.321L269.977 169.018L269.151 169.211C260.011 171.248 249.907 173.093 240.519 173.038C236.279 173.01 231.406 172.625 227.442 170.945L224.991 169.927L206.022 207.727L208.335 209.048C208.555 209.159 208.803 209.379 208.996 209.572C209.574 210.067 210.097 210.535 210.703 210.948C216.512 216.069 224.358 220.391 232.315 219.731V219.841C232.122 221.878 232.507 223.998 233.554 225.732C234.132 226.751 234.958 227.604 235.921 228.265C236.912 228.926 238.014 229.366 239.225 229.504C240.409 229.614 241.62 229.477 242.749 229.091C243.162 231.459 244.07 233.771 245.915 235.396C247.87 237.158 250.43 237.626 252.991 237.488C253.459 239.58 254.395 241.535 256.157 242.857C258.084 244.343 260.479 244.646 262.847 244.426C262.902 244.756 263.012 245.114 263.122 245.445C263.673 246.849 264.691 247.922 266.04 248.556C267.527 249.244 269.261 249.437 270.858 249.382C275.786 249.244 281.706 247.207 286.248 245.445L287.074 245.114L290.158 248.831C291.424 250.318 293.186 251.254 295.113 251.419C297.04 251.612 298.968 251.006 300.482 249.795C301.968 248.528 302.905 246.766 303.07 244.811C303.097 244.619 303.097 244.398 303.097 244.178C304.309 245.307 305.85 246.05 307.502 246.188C309.402 246.381 311.302 245.858 312.788 244.619L312.953 244.481L312.981 244.454C314.192 243.407 314.991 241.976 315.349 240.461C316.45 241.287 317.744 241.81 319.12 241.948C321.048 242.141 322.947 241.618 324.434 240.379L324.572 240.269C326.003 239.03 326.912 237.295 327.132 235.451C327.187 234.79 327.159 234.129 327.077 233.496C327.71 233.771 328.371 233.909 329.059 233.992C330.959 234.212 332.858 233.661 334.345 232.422L334.373 232.395L334.538 232.257C335.942 231.046 336.823 229.339 337.016 227.467C337.208 225.622 336.713 223.75 335.529 222.291L335.391 222.098L333.382 219.786C339.686 220.143 343.788 217.473 349.542 213.977L351.277 213.701L351.772 213.426C352.13 213.178 352.516 212.958 352.874 212.738L355.104 211.416L335.942 169.927L333.409 171C329.555 172.625 323.58 172.928 319.423 172.955C310.035 172.983 299.931 171.166 290.791 169.128L289.965 168.936L289.167 169.238C286.771 170.119 284.404 171.083 282.091 172.102L279.999 173.093Z" fill="#9DB2D9"/>
<path fill-rule="evenodd" clip-rule="evenodd" d="M298.583 196.577C299.546 199.66 300.785 202.331 302.354 204.588C302.795 205.222 302.63 206.075 302.024 206.516C301.914 206.571 301.831 206.626 301.749 206.681C299.188 207.892 296.848 208.608 294.673 208.883C291.893 209.186 289.47 208.718 287.377 207.424C285.285 206.158 283.606 204.175 282.284 201.422C281.844 200.486 281.431 199.495 281.073 198.394C279.008 197.816 277.136 197.045 275.401 196.081C273.777 195.2 272.318 194.154 270.996 192.998C259.929 199.413 251.394 204.891 245.365 209.516C239.473 214.032 236.059 217.556 235.178 220.116C235.013 221.713 235.344 223.144 236.032 224.273C236.417 224.934 236.94 225.512 237.518 225.897C238.124 226.31 238.812 226.558 239.528 226.641C240.547 226.751 241.703 226.531 242.915 225.897C243.107 225.705 243.328 225.595 243.548 225.54L258.36 216.647C262.654 214.059 265.765 212.214 267.582 211.113C268.216 210.7 269.069 210.921 269.482 211.554C269.868 212.215 269.675 213.068 269.014 213.481C266.619 214.913 263.563 216.785 259.764 219.07L245.337 227.715L245.365 227.825C245.695 230.358 246.466 232.175 247.733 233.276C248.944 234.377 250.678 234.818 252.963 234.652H253.046L253.459 234.625C259.241 231.266 264.059 228.43 267.858 226.063C271.657 223.722 274.438 221.878 276.172 220.556C276.778 220.088 277.659 220.226 278.127 220.832C278.567 221.437 278.457 222.318 277.852 222.759C276.062 224.108 273.254 225.98 269.317 228.403C265.71 230.633 261.14 233.331 255.634 236.524C255.992 238.424 256.735 239.773 257.809 240.599C258.993 241.508 260.727 241.838 262.957 241.563C267.28 239.25 270.859 237.35 273.639 235.809C276.255 234.377 278.182 233.248 279.393 232.505C279.586 230.688 280.44 228.898 281.954 227.632C283.523 226.365 285.423 225.815 287.267 226.008C288.093 226.09 288.919 226.31 289.718 226.668C289.69 226.283 289.69 225.897 289.745 225.512C289.938 223.75 290.791 222.043 292.223 220.777L292.443 220.584C293.985 219.345 295.857 218.877 297.674 219.042C298.39 219.125 299.078 219.318 299.766 219.593C299.766 219.373 299.794 219.18 299.794 218.96C299.987 217.17 300.868 215.436 302.327 214.169L302.464 214.059C304.006 212.793 305.906 212.325 307.723 212.49C309.567 212.683 311.329 213.591 312.623 215.105L315.019 217.886L315.046 217.418C315.239 215.628 316.092 213.921 317.524 212.655L317.717 212.517C319.258 211.251 321.131 210.783 322.975 210.948C324.792 211.141 326.582 212.022 327.876 213.536L330.491 216.537C338.145 218.106 342.027 215.215 348.552 211.278L350.286 211.003C350.644 210.783 351.029 210.563 351.442 210.315L334.511 173.616C330.877 175.185 325.26 175.791 319.424 175.818C311.66 175.846 301.914 174.524 290.158 171.909C287.68 172.845 285.34 173.781 283.22 174.69C284.872 175.516 286.386 176.341 287.735 177.167C292.195 179.865 295.114 182.563 296.435 185.206C296.545 185.399 296.573 185.619 296.6 185.785C296.986 189.887 297.646 193.438 298.583 196.577ZM275.043 238.286C277.026 237.185 278.622 236.304 279.806 235.588C280.082 236.387 280.522 237.185 281.073 237.873L285.23 242.857C279.008 245.252 274.19 246.491 270.776 246.601C269.289 246.628 268.106 246.463 267.252 246.05C266.536 245.72 266.013 245.169 265.765 244.481C265.628 244.151 265.545 243.82 265.49 243.435C269.344 241.37 272.511 239.691 275.043 238.286ZM292.361 247.069L283.22 236.084C282.422 235.148 282.119 233.964 282.202 232.835C282.312 231.679 282.835 230.578 283.771 229.807C284.734 229.008 285.918 228.706 287.047 228.788C288.203 228.898 289.277 229.421 290.075 230.357L299.216 241.342C300.014 242.306 300.317 243.462 300.234 244.619C300.124 245.747 299.601 246.876 298.665 247.647C297.702 248.418 296.545 248.748 295.389 248.666C294.26 248.528 293.159 248.005 292.361 247.069ZM304.694 241.81L293.544 229.036L293.434 228.926C292.718 228.045 292.443 226.944 292.553 225.842C292.663 224.741 293.186 223.667 294.095 222.924L294.233 222.814C295.169 222.043 296.325 221.74 297.426 221.85C298.583 221.96 299.711 222.539 300.537 223.475L308.108 232.147L312.183 236.91C312.596 237.681 312.761 238.534 312.678 239.415C312.568 240.516 312.045 241.59 311.164 242.361L311.027 242.471C310.063 243.242 308.934 243.517 307.833 243.407C306.677 243.297 305.548 242.719 304.694 241.81ZM310.035 230.082L303.621 222.511L303.511 222.401C302.795 221.52 302.492 220.391 302.63 219.262C302.767 218.134 303.29 217.06 304.199 216.289L304.281 216.234C305.218 215.463 306.374 215.16 307.503 215.27C308.659 215.381 309.788 215.959 310.586 216.895L323.361 231.899L323.443 232.009C324.159 232.918 324.462 234.047 324.352 235.175C324.242 236.277 323.691 237.35 322.782 238.121L322.7 238.204C321.736 238.975 320.607 239.25 319.479 239.167C318.322 239.057 317.221 238.479 316.395 237.543L314.523 235.313C314.358 235.065 314.193 234.818 314.028 234.597L313.835 234.405L310.035 230.082ZM326.279 229.587L318.818 220.969L318.735 220.859C318.02 219.978 317.744 218.849 317.854 217.776C317.964 216.675 318.488 215.601 319.396 214.83L319.506 214.72C320.442 213.976 321.599 213.674 322.7 213.784C323.884 213.894 324.985 214.472 325.811 215.408L333.272 224.025L333.354 224.135C334.07 225.016 334.346 226.145 334.235 227.219C334.125 228.32 333.575 229.394 332.666 230.165L332.556 230.275C331.592 231.046 330.464 231.349 329.335 231.239C328.234 231.101 327.105 230.55 326.279 229.587ZM272.153 190.272C271.657 189.804 270.914 189.749 270.391 190.107C258.828 196.77 249.907 202.524 243.658 207.314C238.95 210.893 235.701 214.004 233.884 216.619C226.121 218.189 218.109 213.701 212.438 208.663C211.529 208.14 210.731 207.121 209.767 206.571L226.341 173.561C229.975 175.075 234.683 175.873 240.519 175.873C248.283 175.901 258.029 174.579 269.785 171.964C276.75 174.579 282.284 177.14 286.359 179.618C290.213 181.958 292.718 184.215 293.902 186.335C294.26 190.41 294.921 194.099 295.94 197.375C296.793 200.156 297.867 202.606 299.161 204.781C297.426 205.497 295.802 205.965 294.343 206.103C292.195 206.378 290.351 205.992 288.809 205.084C287.212 204.12 285.891 202.496 284.789 200.238C284.321 199.275 283.908 198.229 283.551 197.072C283.523 196.962 283.495 196.825 283.44 196.714C282.807 194.512 282.284 191.924 281.954 188.978C281.871 188.207 281.183 187.657 280.412 187.739C279.641 187.822 279.091 188.51 279.173 189.281C279.448 191.456 279.751 193.438 280.192 195.228C278.953 194.815 277.797 194.264 276.723 193.686C275.016 192.722 273.502 191.594 272.153 190.272Z" fill="#E0E8F5"/>
<path fill-rule="evenodd" clip-rule="evenodd" d="M348.524 161.943C352.433 175.13 359.344 191.181 370.329 207.699C366.612 209.764 357.774 213.591 349.901 214.72C340.21 193.135 335.75 183.114 332.666 170.202C338.227 166.678 341.531 164.723 348.524 161.943Z" fill="white"/>
<path fill-rule="evenodd" clip-rule="evenodd" d="M447.168 173.285C411.487 188.648 385.223 198.421 368.787 205.387C359.453 190.905 353.259 176.837 349.432 164.888C368.924 154.206 393.84 140.523 424.152 123.812C433.843 138.596 441.496 155.06 447.168 173.285Z" fill="#859AC6"/>
<path fill-rule="evenodd" clip-rule="evenodd" d="M211.942 161.943C208.032 175.13 201.122 191.181 190.137 207.699C193.854 209.764 202.691 213.591 210.565 214.72C220.256 193.135 224.716 183.114 227.8 170.202C222.239 166.678 218.935 164.723 211.942 161.943Z" fill="white"/>
<path fill-rule="evenodd" clip-rule="evenodd" d="M117.84 175.213C151.208 189.474 175.959 198.697 191.679 205.359C201.012 190.878 207.206 176.81 211.033 164.861C192.587 154.73 169.241 141.928 141.077 126.427C131.358 141.019 123.622 157.262 117.84 175.213Z" fill="#859AC6"/>
<path fill-rule="evenodd" clip-rule="evenodd" d="M343.073 171.028C341.173 171.028 339.631 172.57 339.631 174.469C339.631 176.369 341.173 177.911 343.073 177.911C344.972 177.911 346.514 176.369 346.514 174.469C346.514 172.542 344.972 171.028 343.073 171.028Z" fill="#9DB2D9"/>
<path fill-rule="evenodd" clip-rule="evenodd" d="M217.531 170.918C215.631 170.918 214.089 172.459 214.089 174.359C214.089 176.259 215.631 177.801 217.531 177.801C219.43 177.801 220.972 176.259 220.972 174.359C220.972 172.459 219.43 170.918 217.531 170.918Z" fill="#9DB2D9"/>
<path fill-rule="evenodd" clip-rule="evenodd" d="M39.8725 346.924C39.8725 346.924 36.4311 350.311 36.3485 351.577C36.2659 352.816 36.0456 366.169 37.4497 367.435C38.8538 368.674 42.9559 369.582 41.662 370.959C40.6433 372.005 32.9621 371.785 27.8413 371.51C26.3547 371.4 24.4825 359.368 23.9044 357.606C23.0509 355.046 19.9674 349.43 20.7383 347.668C21.1237 346.787 23.9594 344.804 26.5198 343.125C29.1904 341.336 31.7783 337.426 31.7783 337.426L39.8725 346.924Z" fill="#F9AF79"/>
<path fill-rule="evenodd" clip-rule="evenodd" d="M85.849 355.266L82.7655 364.131C82.5177 365.535 81.6367 368.949 81.6367 370.243C81.6367 375.006 102.808 366.196 98.1004 364.076C97.6599 363.884 96.3109 362.369 96.1732 360.745C95.953 358.24 97.9627 355.129 97.9627 355.129L85.849 355.266Z" fill="#F9AF79"/>
<path fill-rule="evenodd" clip-rule="evenodd" d="M115.087 188.097L122.768 207.975C122.768 207.975 127.779 255.411 124.861 283.795C123.622 295.689 97.2195 359.258 97.2195 359.258L84.1147 357.386L101.68 282.116L95.2373 253.346L86.0694 196.439L115.087 188.097Z" fill="#0E2952"/>
<path fill-rule="evenodd" clip-rule="evenodd" d="M78.9387 189.116L72.3587 211.223L62.3374 278.014L28.4741 340.51C28.4741 340.51 33.5674 348.328 39.0185 349.567L87.1154 286.411L113.16 207.342L112.251 189.777L78.9387 189.116Z" fill="#223F81"/>
<path fill-rule="evenodd" clip-rule="evenodd" d="M182.649 187.712C177.528 187.464 177.693 188.345 177.032 188.29C176.261 188.235 168.029 181.848 168.029 181.848C168.029 181.848 143.582 163.209 142.288 162.19L127.036 134.081L111.123 137.825C111.123 137.825 128.522 167.917 129.706 169.349C130.89 170.753 166.818 192.034 169.929 194.044C169.929 194.044 172.792 197.788 174.609 200.073C176.482 202.386 179.262 203.68 179.895 204.258C179.978 204.341 182.153 206.13 185.402 207.507C188.21 208.773 186.117 206.295 186.117 206.295C186.117 206.295 181.327 203.074 181.657 202.744C181.905 202.468 184.41 204.396 187.494 205.8C188.292 206.158 189.063 206.516 189.779 206.818C191.679 207.644 192.725 206.736 190.88 205.524C190.247 205.111 189.118 204.423 188.265 204.065C187.329 203.652 186.641 202.992 185.897 202.551C184.466 201.643 183.392 200.982 183.474 200.982C183.557 200.927 183.392 200.541 184.273 200.899C185.292 201.312 187.274 202.716 188.843 203.239C189.724 203.515 191.541 204.23 191.541 204.23C191.541 204.23 194.625 205.084 194.707 204.891C195.203 204.01 193.165 202.799 191.926 202.579C191.211 202 189.284 201.312 189.284 201.312C189.284 201.312 185.704 199 186.035 198.476C186.283 198.063 195.891 201.863 196.331 200.982C196.662 200.238 193.826 198.944 193.826 198.944C193.826 198.944 192.037 198.311 191.486 198.036C190.825 197.733 188.871 196.659 188.871 196.659C188.871 196.659 182.263 192.612 182.593 192.144C182.924 191.649 184.273 190.823 184.768 190.933C185.264 191.043 186.09 191.731 186.558 191.814C187.053 191.924 187.797 191.621 187.962 191.016C188.127 190.41 185.952 188.951 185.952 188.951C185.952 188.951 184.135 187.794 182.649 187.712Z" fill="#F9AF79"/>
<path fill-rule="evenodd" clip-rule="evenodd" d="M133.093 141.9L116.739 151.15C116.739 151.15 109.719 137.275 106.746 130.475C103.139 122.243 99.5049 111.368 100.579 111.175C103.607 110.597 107.709 110.515 111.261 112.579C123.567 119.903 133.093 141.9 133.093 141.9Z" fill="#466FB5"/>
<path fill-rule="evenodd" clip-rule="evenodd" d="M53.3072 224.548C50.444 219.868 49.8108 220.556 49.4804 219.951C49.0674 219.235 49.5079 208.112 49.5079 208.112C49.5079 208.112 50.6642 175.295 50.7743 173.561L65.3934 143.249L52.7566 131.356C52.7566 131.356 37.7521 164.723 37.2566 166.623C36.761 168.523 40.2574 213.068 40.4226 217.032C40.4226 217.032 38.936 221.795 38.1376 224.824C37.3116 227.825 37.8347 231.101 37.7246 231.954C37.6971 232.119 37.5319 235.065 38.2477 238.837C38.8809 242.058 39.7344 238.699 39.7344 238.699C39.7344 238.699 39.6242 232.532 40.0647 232.615C40.4226 232.67 40.3125 236.084 40.9733 239.635C41.1384 240.544 41.3036 241.452 41.4688 242.278C41.8818 244.481 43.3409 244.839 43.2308 242.471C43.2033 241.645 43.1207 240.241 42.9004 239.278C42.7077 238.231 42.8179 237.185 42.7903 236.277C42.6802 234.487 42.5976 233.138 42.6802 233.193C42.7903 233.221 43.0106 232.863 43.2308 233.826C43.4786 235.01 43.4786 237.598 43.9742 239.25C44.2495 240.214 44.7175 242.251 44.7175 242.251C44.7175 242.251 45.9839 245.197 46.2042 245.169C47.2228 245.087 46.92 242.802 46.3694 241.563C46.3969 240.599 45.8738 238.479 45.8738 238.479C45.8738 238.479 45.6811 233.936 46.2868 233.881C46.5621 233.881 47.0026 236.662 47.856 239.333C48.6544 241.81 49.8383 244.151 50.3338 244.068C51.1873 243.958 50.6091 241.095 50.6091 241.095C50.6091 241.095 50.0861 239.167 49.9759 238.479C49.8383 237.681 49.563 235.313 49.563 235.313C49.563 235.313 49.0399 227.026 49.6456 227.054C50.2237 227.081 51.7379 227.77 51.9306 228.293C52.1509 228.788 52.0408 229.917 52.261 230.413C52.4813 230.908 53.1695 231.376 53.7752 231.183C54.4084 230.991 54.2983 228.182 54.2983 228.182C54.2983 228.182 54.1331 225.925 53.3072 224.548Z" fill="#F9AF79"/>
<path fill-rule="evenodd" clip-rule="evenodd" d="M26.6572 343.015C26.6572 343.015 33.8979 365.177 36.9813 366.279C37.8073 366.554 42.4325 367.738 43.1758 369.5L43.2309 369.693C43.4512 370.821 42.5151 371.84 41.3588 371.84H26.6572C26.6572 371.84 24.5648 361.901 23.7389 357.496C23.7389 357.496 19.3614 346.814 19.857 345.851C20.3801 344.832 26.6572 343.015 26.6572 343.015Z" fill="#0E2952"/>
<path fill-rule="evenodd" clip-rule="evenodd" d="M80.4253 371.785L82.848 363.994C82.848 363.994 87.9413 366.169 90.5017 365.811C93.0621 365.48 98.0452 363.994 98.0452 363.994C108.204 367.38 116.574 369.032 115.032 371.785H80.4253Z" fill="#0E2952"/>
<path fill-rule="evenodd" clip-rule="evenodd" d="M176.482 192.475C178.602 193.301 180.639 193.273 182.566 192.117C181.107 194.237 177.996 194.072 176.482 192.475Z" fill="#F48661"/>
<path fill-rule="evenodd" clip-rule="evenodd" d="M81.3064 107.954C81.3064 107.954 71.4228 109.331 68.8073 111.258C65.889 113.433 56.8037 123.454 56.8037 123.454C56.8037 123.454 75.6901 177.58 74.9743 187.216C74.2309 196.825 72.1661 211.141 72.1661 211.141C72.1661 211.141 109.14 213.481 123.016 207.975C123.016 207.975 118.363 186.115 118.363 180.388C118.363 174.662 115.886 117.37 114.151 114.341C112.362 111.34 108.865 109.661 102.148 108.174C95.4574 106.743 81.3064 107.954 81.3064 107.954Z" fill="#6D96CE"/>
<path fill-rule="evenodd" clip-rule="evenodd" d="M84.0045 92.5091L81.5542 108.532C81.5542 108.532 90.5018 127.639 95.8153 125.987C100.303 124.583 97.5498 107.706 97.5498 107.706C97.5498 107.706 95.0995 98.621 95.8428 94.0509C96.5862 89.5633 84.0045 92.5091 84.0045 92.5091Z" fill="#F9AF79"/>
<path fill-rule="evenodd" clip-rule="evenodd" d="M95.8705 94.0783C96.5863 89.5632 84.0321 92.5091 84.0321 92.5091L83.8394 93.8306C84.1973 94.7391 84.6378 95.5099 85.1884 96.0606C87.9966 99.0615 92.4015 100.879 96.1733 101.016C95.7879 98.5659 95.5676 95.9504 95.8705 94.0783Z" fill="#F48661"/>
<path fill-rule="evenodd" clip-rule="evenodd" d="M81.9674 69.8235C81.6095 69.7133 79.1041 88.0766 83.8395 93.1424C88.5748 98.1806 97.7977 99.86 101.101 95.8404C102.726 93.8857 106.002 88.3519 103.717 82.1024C101.404 75.7977 101.294 69.3279 97.2196 66.4647C89.8688 61.2888 81.9674 69.8235 81.9674 69.8235Z" fill="#F9AF79"/>
<path fill-rule="evenodd" clip-rule="evenodd" d="M96.8342 50.9096C89.9514 65.0606 82.4905 63.0508 81.1414 64.5375C70.2666 65.804 63.549 83.9745 74.5615 92.399C79.7649 96.391 83.1237 98.4834 83.1237 98.4834L83.9496 96.0607C84.5278 94.2711 84.8031 92.344 84.5828 90.4443C84.4727 89.3431 84.2249 88.1042 83.7294 87.0855C82.4629 84.4425 86.4274 82.653 87.5287 80.423C88.3546 78.7161 88.4097 74.8066 89.7312 72.026L91.328 69.851C91.328 69.851 95.0172 66.9878 98.6237 67.8137C102.23 68.6397 104.626 59.3892 96.8342 50.9096Z" fill="#20386F"/>
<path fill-rule="evenodd" clip-rule="evenodd" d="M87.2811 83.7266C87.3087 85.9567 86.29 87.8012 84.9961 87.8012C83.6746 87.8288 82.6008 86.0392 82.5733 83.8092C82.5458 81.5517 83.5369 79.7346 84.8584 79.7071C86.1524 79.6796 87.2261 81.4691 87.2811 83.7266Z" fill="#F9AF79"/>
<path fill-rule="evenodd" clip-rule="evenodd" d="M44.5249 142.864L61.0711 155.748C61.0711 155.748 68.3669 148.783 72.056 141.019C75.7727 133.173 72.4965 110.267 68.5596 111.313C59.6946 113.736 44.5249 142.864 44.5249 142.864Z" fill="#466FB5"/>
<path fill-rule="evenodd" clip-rule="evenodd" d="M460.988 206.24C459.171 207.837 457.217 208.47 454.876 208.002C457.051 209.654 460.052 208.388 460.988 206.24Z" fill="#F48661"/>
<path fill-rule="evenodd" clip-rule="evenodd" d="M452.839 363.113C453.17 360.662 452.426 356.45 450.499 349.87C454.271 349.898 457.464 348.218 461.346 348.273C462.393 354.468 464.044 364.599 464.044 364.599L464.237 372.611L437.284 372.804C437.284 372.804 437.504 372.914 445.461 367.903C446.012 367.573 452.481 365.453 452.839 363.113Z" fill="#F9AF79"/>
<path fill-rule="evenodd" clip-rule="evenodd" d="M464.347 374.703H436.541C435.495 374.621 435.247 373.767 435.605 373.272C436.32 372.198 441.772 369.637 445.406 367.931C451.82 368.591 463.053 365.976 464.072 364.489C465.806 369.39 464.898 374.566 464.347 374.703Z" fill="#0E2952"/>
<path fill-rule="evenodd" clip-rule="evenodd" d="M486.4 363.113C486.73 360.662 487.336 357.606 486.482 349.457C490.282 349.457 493.888 348.741 497.743 348.824C497.743 355.184 497.633 364.627 497.633 364.627L497.798 372.638L470.845 372.831C470.845 372.831 471.092 372.941 479.021 367.931C479.6 367.573 486.097 365.453 486.4 363.113Z" fill="#F9AF79"/>
<path fill-rule="evenodd" clip-rule="evenodd" d="M497.907 374.703H470.101C469.082 374.621 468.807 373.767 469.165 373.272C469.881 372.198 475.332 369.637 478.994 367.931C485.408 368.591 496.641 365.976 497.66 364.489C499.394 369.39 498.485 374.566 497.907 374.703Z" fill="#0E2952"/>
<path fill-rule="evenodd" clip-rule="evenodd" d="M466.825 130.309L456.666 119.627C456.666 119.627 445.819 125.602 433.154 131.301C429.685 125.244 424.014 105.339 423.684 104.375C423.381 103.412 430.346 91.463 428.777 91.1877C427.208 90.8849 425.198 97.5749 423.573 96.8866C421.949 96.1984 417.682 80.6983 416.691 81.5518C414.846 83.1211 418.921 91.1877 417.957 91.7659C416.994 92.344 414.488 82.8182 412.616 83.2312C410.744 83.6442 415.782 91.9035 415.232 92.7019C414.653 93.5003 409.367 85.7365 408.266 87.5536C407.688 88.5172 413.167 94.2987 412.038 94.9595C410.937 95.5927 405.981 91.9586 405.375 93.1424C404.797 94.3263 409.973 95.5652 411.432 98.5385C412.891 101.539 415.507 102.696 416.388 108.312C417.269 113.928 419.637 144.103 425.776 146.525C431.172 148.618 466.825 130.309 466.825 130.309Z" fill="#F9AF79"/>
<path fill-rule="evenodd" clip-rule="evenodd" d="M460.272 188.015L468.504 192.612L485.216 218.161L455.317 288.531C455.317 288.531 458.676 299.13 459.777 304.389C460.906 309.923 463.741 357.386 463.741 357.386L450.995 357.606C450.995 357.606 438.853 307.087 436.816 290.651C434.338 270.746 449.48 223.31 449.48 223.31C452.316 213.619 458.428 193.714 458.428 193.714C458.428 193.714 459.915 188.868 460.272 188.015Z" fill="#20386F"/>
<path fill-rule="evenodd" clip-rule="evenodd" d="M488.905 178.406C488.905 178.406 488.051 184.408 491.465 191.291C493.557 195.448 497.136 198.752 499.697 203.873C504.542 213.564 507.185 227.329 505.368 236.167C505.368 236.167 495.347 274.49 495.732 288.503C495.898 293.652 497.66 302.985 498.788 309.262C499.807 314.823 500.137 356.753 500.137 356.753L485.876 356.34L474.974 288.669L470.376 228.541L460.3 188.042L488.905 178.406Z" fill="#223F81"/>
<path fill-rule="evenodd" clip-rule="evenodd" d="M458.731 90.114C459.997 84.1672 461.291 78.193 467.21 73.8981C471.973 70.4292 477.122 69.4381 482.573 71.4203C498.018 77.0091 489.703 89.2605 508.865 102.31C514.812 106.385 517.069 107.789 521.336 113.213C527.311 120.784 530.587 130.915 527.586 139.285C521.364 156.574 502.12 161.557 492.043 157.896C473.295 151.095 457.685 127.281 456.638 120.811C455.51 113.873 457.932 93.9408 458.731 90.114Z" fill="#20386F"/>
<path fill-rule="evenodd" clip-rule="evenodd" d="M455.757 137.027C451.215 139.119 442.983 142.258 442.983 142.258L438.303 127.474C464.733 112.469 462.668 114.892 482.49 115.167C498.348 115.415 504.983 112.387 518.639 149.196C518.639 149.196 508.259 153.876 504.543 155.363C502.946 150.82 500.055 141.735 498.376 146.911C495.815 154.729 493.971 162.631 492.704 170.753C491.906 175.571 490.171 181.738 491.08 186.638C491.08 186.638 480.288 188.868 472.028 189.226H471.946C467.954 189.116 463.907 188.786 460.273 187.987C460.273 187.987 458.648 153.821 457.795 152.389C456.831 150.82 452.812 145.699 456.226 138.073C456.831 136.752 456.666 136.586 455.757 137.027Z" fill="#6D96CE"/>
<path fill-rule="evenodd" clip-rule="evenodd" d="M475.58 196.329C475.387 196.357 474.561 196.246 473.873 196.274C472.937 196.274 472.084 196.439 472.084 196.439C472.084 196.439 471.726 196.109 470.982 195.778C470.68 195.668 470.184 195.586 469.881 195.448C469.551 195.31 469.248 195.008 468.918 194.87C468.064 194.512 467.293 194.429 467.045 194.842C466.853 195.228 471.533 198.063 471.533 198.063C475.855 198.091 480.398 200.294 490.447 193.769C496.201 191.263 524.062 177.498 524.613 174.497C524.943 172.817 520.649 159.795 517.18 149.912C514.482 151.095 508.755 153.656 505.534 155.005C508.48 161.227 511.949 169.486 511.591 170.505C511.508 170.78 511.15 171.248 492.319 183.582C491.851 183.885 491.355 184.215 490.86 184.546C489.538 185.427 488.107 186.335 486.62 187.326L481.251 186.748C481.251 186.748 472.744 187.354 472.469 188.317C472.359 188.758 473.075 188.978 473.956 189.116H473.983C474.093 189.116 474.259 189.143 474.369 189.143H474.396C475.332 189.254 476.323 189.254 476.571 189.364C476.847 189.446 477.37 189.667 477.838 189.969C472.524 192.144 472.937 191.373 471.175 191.263C470.735 191.236 470.267 191.373 469.854 191.318C469.138 191.263 468.587 190.823 468.037 190.795C467.238 190.768 466.55 191.126 466.412 191.291C466.22 191.484 466.577 191.759 467.266 192.089C471.34 193.851 474.754 193.163 475.828 193.438C476.544 193.603 475.222 193.879 473.13 193.659C472.634 193.603 471.946 193.796 471.258 193.631C470.79 193.521 470.377 193.218 469.936 193.135C469.523 193.025 469.083 193.025 468.752 192.97C468.284 192.888 467.651 192.53 467.293 192.475C465.917 192.309 465.283 192.557 465.118 192.667C464.815 192.943 470.982 195.31 470.982 195.31C470.982 195.31 475.25 195.944 476.186 195.944C476.131 195.916 476.709 196.191 475.58 196.329Z" fill="#F9AF79"/>
<path fill-rule="evenodd" clip-rule="evenodd" d="M480.535 100.603C480.535 100.603 481.747 110.377 482.463 113.736C483.206 117.26 484.335 128.437 476.984 130.254C469.633 132.071 471.918 118.113 471.781 114.506C471.67 110.9 469.578 98.3457 469.578 98.3457L480.535 100.603Z" fill="#F9AF79"/>
<path fill-rule="evenodd" clip-rule="evenodd" d="M480.948 103.714C480.866 103.742 480.811 103.797 480.728 103.852C476.654 106.165 473.13 105.807 470.487 103.99C469.991 100.879 469.578 98.3182 469.578 98.3182L480.563 100.576C480.535 100.603 480.701 101.897 480.948 103.714Z" fill="#F27458"/>
<path fill-rule="evenodd" clip-rule="evenodd" d="M478.333 75.1645C478.333 75.1645 482.628 76.3759 485.133 80.6707C487.611 84.9656 488.85 97.2169 479.682 102.475C470.542 107.706 464.044 99.3093 464.347 91.4629C464.65 83.589 466.825 73.2098 478.333 75.1645Z" fill="#F9AF79"/>
<path fill-rule="evenodd" clip-rule="evenodd" d="M462.337 88.0766C462.227 90.1139 463.108 91.8208 464.265 91.8759C465.448 91.9309 466.495 90.3341 466.577 88.2968C466.687 86.2595 465.806 84.5251 464.65 84.47C463.466 84.4425 462.448 86.0393 462.337 88.0766Z" fill="#F9AF79"/>
<path fill-rule="evenodd" clip-rule="evenodd" d="M477.039 74.8617C477.039 74.8617 481.967 87.7187 486.785 89.0678C491.603 90.4443 491.245 96.749 491.245 96.749C491.245 96.749 491.851 82.1575 487.446 78.5509C483.041 74.9994 477.039 74.8617 477.039 74.8617Z" fill="#20386F"/>
<path fill-rule="evenodd" clip-rule="evenodd" d="M484.72 91.573C483.977 93.5828 484.445 95.6476 485.821 96.1432C487.143 96.6388 488.85 95.4274 489.593 93.4176C490.336 91.4079 489.868 89.3706 488.492 88.875C487.17 88.3794 485.491 89.5908 484.72 91.573Z" fill="#F9AF79"/>
</svg>
