<svg width="553" height="417" viewBox="0 0 553 417" fill="none" xmlns="http://www.w3.org/2000/svg">
<path fill-rule="evenodd" clip-rule="evenodd" d="M290.613 45.6934C350.298 45.6934 375.445 86.4644 418.544 118.166C475.58 160.114 532.617 132.8 541.739 274.562C549.872 400.727 448.453 288.206 305.434 333.417C162.441 378.603 16.7734 396.794 60.0056 250.591C103.238 104.362 151.901 45.6934 290.613 45.6934Z" fill="#E9EFF8"/>
<path fill-rule="evenodd" clip-rule="evenodd" d="M96.2824 121.938C89.1127 128.707 85.8489 136.813 86.5177 146.256C103.479 157.814 112.254 168.622 112.815 178.707C92.8848 160.97 77.9301 161.024 71.1885 171.912C76.1645 177.931 79.6423 198.691 78.4384 208.269C76.325 225.15 80.9264 240.292 93.6606 245.99C96.5767 252.544 99.6532 255.996 102.89 256.343C99.8137 275.257 97.192 294.466 95.0785 313.942C97.2455 315.065 100.322 314.931 101.954 313.835C102.623 306.237 103.104 300.886 103.586 297.302C104.897 283.149 106.368 269.479 108 256.263C108.803 256.183 109.578 256.049 110.354 255.862C125.282 252.732 119.557 243.422 133.201 240.613C141.601 238.901 149.253 231.784 151.152 225.444C142.404 222.689 131.409 219.746 120.226 221.832C126.031 213.673 137.802 214.288 153.8 216.268C159.847 204.524 168.407 205.594 165.01 187.215C160.275 161.612 177.022 154.496 171.377 123.677C163.137 120.574 152.222 120.922 138.659 124.774C144.41 116.267 155.325 112.735 171.43 114.207C168.086 105.191 168.113 93.5003 169.718 88.5243C163.752 84.2172 157.706 84.2172 151.58 88.6046C154.309 83.9229 157.84 81.2476 162.201 80.5788C161.987 76.5659 160.248 72.0715 157.011 67.1223C151.66 67.256 145.721 68.4331 139.22 70.6804C142.19 72.6333 143.153 76.1646 142.11 81.2476C138.551 77.0475 133.254 75.6563 126.299 77.0475C124.827 95.3462 108.615 102.783 108.321 110.649C117.872 119.049 123.463 128.225 125.095 138.177C115.41 129.83 105.78 124.426 96.2824 121.938Z" fill="#BCC9E7"/>
<path fill-rule="evenodd" clip-rule="evenodd" d="M95.0791 313.942C97.1926 294.466 99.7876 275.257 102.891 256.343C113.913 184.914 133.148 111.103 149.895 80.231C127.557 132.88 112.121 205.246 103.613 297.275C103.132 300.86 102.623 306.237 101.981 313.808C100.323 314.931 97.2461 315.065 95.0791 313.942Z" fill="#AAB9DE"/>
<path fill-rule="evenodd" clip-rule="evenodd" d="M123.436 75.8436C130.365 84.6719 132.639 94.3564 130.311 104.897C109.257 115.009 97.5396 125.71 95.1586 136.946C120.6 120.36 137.454 122.955 143.206 136.385C136.572 142.324 129.134 165.117 128.867 176.086C128.385 195.454 120.627 211.747 105.298 215.974C100.884 222.849 96.844 226.22 93.1521 226.086C93.4197 247.916 93.0719 269.96 92.1355 292.272C89.5138 293.155 86.0627 292.486 84.404 290.961C84.9658 282.293 85.3136 276.194 85.3671 272.047C86.3035 255.915 86.9723 240.265 87.3736 225.096C86.4907 224.855 85.6347 224.588 84.8053 224.267C68.5398 218.194 76.5655 208.697 61.6643 203.213C52.4882 199.842 45.1045 190.559 44.0344 183.095C54.3609 181.49 67.2556 180.045 79.4548 184.299C74.3183 174.133 60.942 172.822 42.5898 172.313C37.7743 158.054 27.9293 157.813 34.9118 137.696C44.5962 109.659 26.9395 98.8241 38.5501 65.0623C48.3683 62.9488 60.5675 65.2228 75.2012 71.8574C70.1717 61.2902 58.4808 55.4581 40.1018 54.388C45.3988 44.7838 47.3517 31.6483 46.4154 25.7627C53.8793 21.9104 60.6745 22.9805 66.8008 28.9195C64.5269 23.1945 60.9955 19.5561 56.2068 18.0848C57.1432 13.5903 59.8452 8.85511 64.3396 3.82562C70.3589 4.86897 76.8331 7.2232 83.7887 10.8616C80.1236 12.547 78.4382 16.3458 78.7592 22.2582C83.4945 18.1383 89.6743 17.4694 97.272 20.225C95.8274 41.092 112.815 52.1943 111.772 61.1297C99.5728 68.9682 91.7342 78.3583 88.2029 89.2734C100.563 81.4884 112.307 77.0207 123.436 75.8436Z" fill="#D0D9EE"/>
<path fill-rule="evenodd" clip-rule="evenodd" d="M92.109 292.245C93.0453 269.96 93.3664 247.889 93.1256 226.059C92.8848 143.742 83.7622 57.3843 70.1719 19.7701C86.3839 82.8527 91.4402 166.936 85.3673 272.02C85.3138 276.14 84.9393 282.267 84.4042 290.934C86.0361 292.459 89.4872 293.128 92.109 292.245Z" fill="#BCC9E7"/>
<path fill-rule="evenodd" clip-rule="evenodd" d="M101.472 305.381C70.8405 305.381 45.9873 310.972 45.9873 317.874C45.9873 324.776 70.8405 330.368 101.472 330.368C132.104 330.368 156.957 324.776 156.957 317.874C156.957 310.945 132.104 305.381 101.472 305.381Z" fill="#D0D9EE"/>
<path fill-rule="evenodd" clip-rule="evenodd" d="M73.1153 268.944H127.102C129.537 268.944 131.516 270.923 131.516 273.358V285.744C131.516 288.179 129.537 290.159 127.102 290.159H73.1153C70.6809 290.159 68.7012 288.179 68.7012 285.744V273.358C68.7012 270.923 70.6809 268.944 73.1153 268.944Z" fill="#BCC9E7"/>
<path fill-rule="evenodd" clip-rule="evenodd" d="M73.5967 290.159H126.594L121.404 317.553H78.7867L73.5967 290.159Z" fill="#BCC9E7"/>
<path fill-rule="evenodd" clip-rule="evenodd" d="M126.594 290.159H73.5967L74.533 295.108H125.657L126.594 290.159Z" fill="#AAB9DE"/>
<path fill-rule="evenodd" clip-rule="evenodd" d="M121.029 354.739C187.857 354.739 242.057 360.545 242.057 367.688C242.057 374.857 187.883 380.636 121.029 380.636C54.174 380.636 0 374.831 0 367.688C0 360.545 54.174 354.739 121.029 354.739Z" fill="#D0D9EE"/>
<path d="M466.083 66.8547H444.521V74.292H466.083V66.8547Z" fill="#BCC9E7"/>
<path fill-rule="evenodd" clip-rule="evenodd" d="M465.896 62.7081C467.207 62.0927 468.063 60.9959 468.063 59.3105V58.7754C468.304 44.1953 481.119 40.1021 482.162 23.9703C482.242 22.7665 482.242 21.5893 482.135 20.439C480.129 8.21304 468.491 0 455.436 0C440.535 0 427.533 10.6743 428.47 25.7895C429.459 41.4398 441.659 45.3991 441.899 59.5513C441.899 61.0762 443.531 62.8418 444.922 62.7348H465.896V62.7081Z" fill="#D0D9EE"/>
<path fill-rule="evenodd" clip-rule="evenodd" d="M443.746 76.0309C443.906 77.6628 445.297 78.9469 446.983 78.9469H449.471L450.434 80.5253C450.995 81.4349 451.317 81.4884 452.387 81.4884H458.219C459.289 81.4884 459.61 81.4349 460.172 80.5253L461.135 78.9469H463.623C465.281 78.9469 466.646 77.6895 466.833 76.0844V74.9607C466.753 74.5862 466.405 74.3187 466.004 74.3187H444.548C444.147 74.3187 443.799 74.613 443.719 74.9607C443.719 74.9875 443.746 75.0678 443.719 75.0678V76.0309H443.746ZM465.736 68.5669H444.896C444.254 68.5669 443.746 69.0752 443.746 69.7172V71.4829C443.746 72.125 444.254 72.6333 444.896 72.6333H465.736C466.351 72.6333 466.887 72.125 466.887 71.4829V69.7172C466.86 69.0752 466.351 68.5669 465.736 68.5669ZM465.683 62.7081H444.923C444.254 62.7081 443.719 63.2431 443.719 63.9119V65.7579C443.719 66.3999 444.254 66.9617 444.923 66.9617H465.683C466.351 66.9617 466.887 66.4267 466.887 65.7579V63.9119C466.86 63.2431 466.325 62.7081 465.683 62.7081Z" fill="#8D9FCA"/>
<path fill-rule="evenodd" clip-rule="evenodd" d="M458.539 63.2699L460.787 36.0357H463.997C465.388 36.0357 466.619 35.4739 467.528 34.5643C468.438 33.6548 469 32.3974 469 31.033C469 29.6419 468.438 28.3845 467.528 27.5017C466.619 26.5921 465.361 26.0303 463.997 26.0303C462.633 26.0303 461.455 26.5653 460.573 27.4482C459.69 28.331 459.101 29.5884 458.994 30.9527L458.753 33.8153H448.962L448.721 30.9527C448.614 29.5884 448.026 28.3577 447.143 27.4482C446.26 26.5653 445.083 26.0303 443.719 26.0303C442.354 26.0303 441.097 26.5921 440.187 27.5017C439.278 28.4113 438.716 29.6686 438.716 31.033C438.716 32.4241 439.278 33.6815 440.187 34.5643C441.097 35.4739 442.354 36.0357 443.719 36.0357H446.929L449.176 63.2699H451.423L449.176 36.0357H458.566L456.319 63.2699H458.539ZM461.001 33.7618L461.241 31.0865C461.322 30.2572 461.643 29.5081 462.178 28.9998C462.659 28.5183 463.275 28.224 464.024 28.224C464.773 28.224 465.468 28.545 465.977 29.0266C466.485 29.5349 466.779 30.2304 466.779 30.9795C466.779 31.7553 466.458 32.4241 465.977 32.9324C465.468 33.4407 464.773 33.735 464.024 33.735H461.001V33.7618ZM446.688 33.7618H443.692C442.943 33.7618 442.247 33.4407 441.739 32.9592C441.231 32.4509 440.936 31.7553 440.936 31.0062C440.936 30.2572 441.257 29.5616 441.739 29.0533C442.247 28.545 442.916 28.2507 443.692 28.2507C444.414 28.2507 445.056 28.545 445.511 29.0266C446.046 29.5616 446.367 30.3107 446.447 31.1133L446.688 33.7618Z" fill="#8D9FCA"/>
<path d="M403.83 66.8547H382.268V74.292H403.83V66.8547Z" fill="#BCC9E7"/>
<path fill-rule="evenodd" clip-rule="evenodd" d="M403.643 62.7081C404.954 62.0927 405.81 60.9959 405.81 59.3105V58.7754C406.078 44.1953 418.865 40.1021 419.909 23.9703C419.989 22.7665 419.989 21.5893 419.882 20.439C417.876 8.21304 406.238 0 393.183 0C378.309 0 365.28 10.6743 366.216 25.7895C367.206 41.4398 379.405 45.3991 379.646 59.5513C379.646 61.0762 381.278 62.8418 382.669 62.7348H403.643V62.7081Z" fill="#D0D9EE"/>
<path fill-rule="evenodd" clip-rule="evenodd" d="M381.492 76.0309C381.652 77.6628 383.043 78.9469 384.729 78.9469H387.217L388.18 80.5253C388.742 81.4349 389.063 81.4884 390.133 81.4884H395.965C397.035 81.4884 397.356 81.4349 397.918 80.5253L398.881 78.9469H401.369C403.027 78.9469 404.392 77.6895 404.579 76.0844V74.9607C404.499 74.5862 404.151 74.3187 403.75 74.3187H382.294C381.893 74.3187 381.572 74.613 381.465 74.9607C381.465 74.9875 381.492 75.0678 381.465 75.0678V76.0309H381.492ZM403.482 68.5669H382.642C382 68.5669 381.492 69.0752 381.492 69.7172V71.4829C381.492 72.125 382 72.6333 382.642 72.6333H403.482C404.124 72.6333 404.633 72.125 404.633 71.4829V69.7172C404.606 69.0752 404.098 68.5669 403.482 68.5669ZM403.429 62.7081H382.669C382 62.7081 381.465 63.2431 381.465 63.9119V65.7579C381.465 66.3999 382 66.9617 382.669 66.9617H403.429C404.071 66.9617 404.633 66.4267 404.633 65.7579V63.9119C404.606 63.2431 404.071 62.7081 403.429 62.7081Z" fill="#8D9FCA"/>
<path fill-rule="evenodd" clip-rule="evenodd" d="M396.312 63.2699L398.56 36.0357H401.743C403.134 36.0357 404.392 35.4739 405.301 34.5643C406.211 33.6548 406.773 32.3974 406.773 31.033C406.773 29.6419 406.211 28.3845 405.301 27.5017C404.392 26.5921 403.134 26.0303 401.743 26.0303C400.379 26.0303 399.202 26.5653 398.319 27.4482C397.436 28.331 396.847 29.5884 396.74 30.9527L396.5 33.8153H386.708L386.467 30.9527C386.36 29.5884 385.772 28.3577 384.889 27.4482C384.006 26.5653 382.829 26.0303 381.465 26.0303C380.1 26.0303 378.843 26.5921 377.933 27.5017C377.024 28.4113 376.462 29.6686 376.462 31.033C376.462 32.4241 377.024 33.6815 377.933 34.5643C378.843 35.4739 380.1 36.0357 381.465 36.0357H384.675L386.922 63.2699H389.169L386.922 36.0357H396.312L394.065 63.2699H396.312ZM398.747 33.7618L398.988 31.0865C399.068 30.2572 399.389 29.5081 399.924 28.9998C400.406 28.5183 401.021 28.224 401.743 28.224C402.492 28.224 403.188 28.545 403.696 29.0266C404.204 29.5349 404.499 30.2304 404.499 30.9795C404.499 31.7553 404.178 32.4241 403.696 32.9324C403.188 33.4407 402.492 33.735 401.743 33.735H398.747V33.7618ZM384.434 33.7618H381.438C380.689 33.7618 379.993 33.4407 379.485 32.9592C378.977 32.4509 378.682 31.7553 378.682 31.0062C378.682 30.2572 379.003 29.5616 379.485 29.0533C379.993 28.545 380.662 28.2507 381.438 28.2507C382.16 28.2507 382.802 28.545 383.257 29.0266C383.792 29.5616 384.113 30.3107 384.193 31.1133L384.434 33.7618Z" fill="#8D9FCA"/>
<path d="M341.577 66.8547H320.015V74.292H341.577V66.8547Z" fill="#BCC9E7"/>
<path fill-rule="evenodd" clip-rule="evenodd" d="M341.39 62.7081C342.7 62.0927 343.557 60.9959 343.557 59.3105V58.7754C343.797 44.1953 356.612 40.1021 357.655 23.9703C357.735 22.7665 357.735 21.5893 357.628 20.439C355.622 8.21304 343.985 0 330.929 0C316.028 0 303.026 10.6743 303.963 25.7895C304.953 41.4398 317.152 45.3991 317.392 59.5513C317.392 61.0762 319.024 62.8418 320.416 62.7348H341.39V62.7081Z" fill="#D0D9EE"/>
<path fill-rule="evenodd" clip-rule="evenodd" d="M319.239 76.0309C319.399 77.6628 320.79 78.9469 322.476 78.9469H324.964L325.927 80.5253C326.489 81.4349 326.81 81.4884 327.88 81.4884H333.712C334.782 81.4884 335.103 81.4349 335.665 80.5253L336.628 78.9469H339.116C340.774 78.9469 342.139 77.6895 342.326 76.0844V74.9607C342.246 74.5862 341.898 74.3187 341.497 74.3187H320.068C319.667 74.3187 319.319 74.613 319.239 74.9607C319.239 74.9875 319.265 75.0678 319.239 75.0678V76.0309ZM341.229 68.5669H320.389C319.747 68.5669 319.239 69.0752 319.239 69.7172V71.4829C319.239 72.125 319.747 72.6333 320.389 72.6333H341.229C341.845 72.6333 342.38 72.125 342.38 71.4829V69.7172C342.38 69.0752 341.845 68.5669 341.229 68.5669ZM341.176 62.7081H320.416C319.747 62.7081 319.212 63.2431 319.212 63.9119V65.7579C319.212 66.3999 319.747 66.9617 320.416 66.9617H341.176C341.818 66.9617 342.38 66.4267 342.38 65.7579V63.9119C342.38 63.2431 341.818 62.7081 341.176 62.7081Z" fill="#8D9FCA"/>
<path fill-rule="evenodd" clip-rule="evenodd" d="M334.059 63.2699L336.307 36.0357H339.49C340.881 36.0357 342.139 35.4739 343.048 34.5643C343.958 33.6548 344.52 32.3974 344.52 31.033C344.52 29.6419 343.958 28.3845 343.048 27.5017C342.139 26.5921 340.881 26.0303 339.49 26.0303C338.126 26.0303 336.949 26.5653 336.066 27.4482C335.183 28.331 334.594 29.5884 334.487 30.9527L334.247 33.8153H324.455L324.214 30.9527C324.107 29.5884 323.519 28.3577 322.636 27.4482C321.753 26.5653 320.576 26.0303 319.212 26.0303C317.847 26.0303 316.59 26.5921 315.68 27.5017C314.771 28.4113 314.209 29.6686 314.209 31.033C314.209 32.4241 314.771 33.6815 315.68 34.5643C316.59 35.4739 317.847 36.0357 319.212 36.0357H322.422L324.669 63.2699H326.916L324.669 36.0357H334.059L331.812 63.2699H334.059ZM336.494 33.7618L336.735 31.0865C336.815 30.2572 337.136 29.5081 337.671 28.9998C338.153 28.5183 338.768 28.224 339.517 28.224C340.266 28.224 340.962 28.545 341.47 29.0266C341.978 29.5349 342.272 30.2304 342.272 30.9795C342.272 31.7553 341.951 32.4241 341.47 32.9324C340.962 33.4407 340.266 33.735 339.517 33.735H336.494V33.7618ZM322.208 33.7618H319.212C318.463 33.7618 317.767 33.4407 317.259 32.9592C316.75 32.4509 316.456 31.7553 316.456 31.0062C316.456 30.2572 316.777 29.5616 317.259 29.0533C317.767 28.545 318.436 28.2507 319.212 28.2507C319.934 28.2507 320.576 28.545 321.031 29.0266C321.566 29.5616 321.887 30.3107 321.967 31.1133L322.208 33.7618Z" fill="#8D9FCA"/>
<path fill-rule="evenodd" clip-rule="evenodd" d="M279.163 179.376C281.303 180.232 283.31 180.179 285.263 179.002C283.791 181.169 280.661 180.981 279.163 179.376Z" fill="#EF8857"/>
<path fill-rule="evenodd" clip-rule="evenodd" d="M366.617 187.402L394.708 187.081L403.83 235.904L377.077 243.368L366.617 187.402Z" fill="#165396"/>
<path fill-rule="evenodd" clip-rule="evenodd" d="M369.239 189.542L378.763 240.639L401.342 234.353L392.915 189.275L369.239 189.542Z" fill="#CBD4EB"/>
<path fill-rule="evenodd" clip-rule="evenodd" d="M374.67 256.584H381.198V242.218L377.078 243.368L374.67 230.5V256.584Z" fill="#0F3D86"/>
<path fill-rule="evenodd" clip-rule="evenodd" d="M533.875 381.92C493.077 378.629 354.311 384.194 312.096 386.388C269.88 388.555 220.896 383.525 195.454 376.088C170.013 368.651 22.9001 376.73 29.5882 396.687C36.2764 416.645 95.1321 405.623 161.88 413.648C228.627 421.674 378.763 412.632 412.632 413.648C446.501 414.638 477.56 411.642 521.194 407.629C564.827 403.616 557.524 383.819 533.875 381.92Z" fill="#D0D9EE"/>
<path fill-rule="evenodd" clip-rule="evenodd" d="M448.427 266.429H231.356C230.42 266.429 229.671 265.172 229.671 263.647V262.256C229.671 260.731 230.42 259.473 231.356 259.473H448.427C449.363 259.473 450.112 260.731 450.112 262.256V263.647C450.085 265.198 449.336 266.429 448.427 266.429Z" fill="#9D7558"/>
<path fill-rule="evenodd" clip-rule="evenodd" d="M495.163 166.214C497.624 174.935 491.578 183.951 484.917 185.823C478.255 187.723 473.494 181.784 471.032 173.062C468.544 164.341 471.942 155.727 478.603 153.827C485.265 151.955 492.675 157.492 495.163 166.214Z" fill="#F4AE7C"/>
<path fill-rule="evenodd" clip-rule="evenodd" d="M457.817 335.397C457.817 335.397 474.886 361.909 477.186 363.059C479.487 364.21 485.266 364.504 483.099 368.838C480.932 373.172 480.076 390.16 478.042 391.043C476.036 391.899 458.727 393.932 461.322 391.043C463.917 388.153 465.522 389.598 466.833 384.408C468.144 379.218 469.99 369.426 467.529 367.393C465.067 365.387 450.086 347.222 450.086 347.222L457.817 335.397Z" fill="#F4AE7C"/>
<path fill-rule="evenodd" clip-rule="evenodd" d="M371.862 346.767C371.862 346.767 351.101 380.984 347.249 384.06C343.397 387.137 330.716 391.738 341.096 392.514C351.476 393.29 356.479 389.063 363.006 387.137C369.534 385.211 377.613 384.06 374.537 379.057C371.46 374.055 372.744 363.166 379.379 356.238C386.014 349.309 371.862 346.767 371.862 346.767Z" fill="#F4AE7C"/>
<path fill-rule="evenodd" clip-rule="evenodd" d="M477.801 267.446C477.801 267.446 426.41 266.108 406.051 282.828C394.146 300.886 365.307 354.204 363.06 360.063C364.584 361.615 373.252 364.37 377.078 363.996C388.421 350.486 403.402 338.795 409.368 328.174C416.725 315.092 418.972 308.564 430.877 307.414C442.782 306.264 469.695 302.411 477.775 302.411C485.854 302.438 477.801 267.446 477.801 267.446Z" fill="#152F54"/>
<path fill-rule="evenodd" clip-rule="evenodd" d="M522.585 392.621H519.91L500.595 312.042H506.507L522.585 392.621Z" fill="#9D7558"/>
<path fill-rule="evenodd" clip-rule="evenodd" d="M441.926 392.621H444.601L466.779 309.18H460.84L441.926 392.621Z" fill="#9D7558"/>
<path fill-rule="evenodd" clip-rule="evenodd" d="M507.069 263.941L477.187 269.104C477.187 269.104 437.486 269.479 419.347 272.85C402.841 275.926 400.407 294.68 419.347 320.523C430.102 335.21 439.198 346.901 457.818 360.09C462.553 356.612 464.345 355.301 465.656 346.927C464.319 345.082 460.814 333.524 459.744 331.277C449.444 309.768 435.72 301.956 435.533 299.843C437.833 296.098 496.609 319.372 508.3 305.675C519.456 292.566 507.069 263.941 507.069 263.941Z" fill="#0F3D86"/>
<path fill-rule="evenodd" clip-rule="evenodd" d="M508.3 196.311C500.435 195.214 492.409 196.712 484.918 202.116C478.364 208.804 470.953 219.799 471.408 237.964C471.996 261.025 467.85 262.496 472.157 268.837C490.188 276.274 521.034 308.27 513.784 273.973C508.514 249.147 525.314 230.634 511.778 203.079C510.681 200.832 509.29 198.665 508.3 196.311Z" fill="#6998D0"/>
<path fill-rule="evenodd" clip-rule="evenodd" d="M471.407 246.632C471.059 258.644 469.374 262.202 470.658 265.974C478.015 266.723 491.472 269.666 494.816 274.375C498.641 279.752 502.494 280.528 500.701 276.542C498.909 272.582 494.174 266.937 501.477 247.595C508.781 228.253 512.232 215.171 505.062 201.715L471.407 246.632Z" fill="#406FB5"/>
<path fill-rule="evenodd" clip-rule="evenodd" d="M508.299 196.311C503.457 184.834 502.28 171.966 502.28 171.966L489.599 175.711C489.599 175.711 496.796 191.843 489.894 197.621C488.422 198.852 486.71 200.323 484.944 202.143C492.435 196.685 500.434 195.187 508.299 196.311Z" fill="#F4AE7C"/>
<path fill-rule="evenodd" clip-rule="evenodd" d="M502.654 175.015C501.905 174.347 500.968 173.517 499.979 172.634L489.625 175.684L489.599 175.738C489.839 176.3 492.488 182.453 492.836 188.365C495.912 186.492 499.31 183.442 503.162 178.119C502.948 176.942 502.788 175.898 502.654 175.015Z" fill="#E38034"/>
<path fill-rule="evenodd" clip-rule="evenodd" d="M499.391 199.922C486.336 204.497 487.78 218.248 475.769 238.553C469.535 249.066 463.757 248.906 463.757 248.906C463.757 248.906 449.177 249.013 431.52 246.873C420.471 245.508 419.749 248.799 427.453 251.554C442.97 257.092 459.048 263.058 472.023 261.613C484.998 260.169 507.176 227.076 508.326 218.462C509.878 206.53 505.972 197.621 499.391 199.922Z" fill="#F19651"/>
<path fill-rule="evenodd" clip-rule="evenodd" d="M492.676 315.038C491.873 315.038 491.044 315.038 490.188 315.012C479.567 314.744 472.344 313.273 466.538 312.096C459.663 310.705 455.891 309.929 451.423 312.069C449.925 312.791 448.106 312.149 447.41 310.651C446.688 309.153 447.33 307.334 448.828 306.638C455.115 303.642 460.412 304.712 467.742 306.21C473.334 307.334 480.262 308.752 490.348 308.992C501.718 309.26 508.647 307.575 512.205 303.642C515.362 300.137 516.298 294.278 515.148 285.209C514.746 282.133 514.345 279.591 513.997 277.344C513.008 271.03 512.366 266.857 513.168 260.41C513.917 254.417 515.897 246.391 520.498 230.875C520.98 229.27 522.665 228.36 524.244 228.842C525.849 229.323 526.758 230.982 526.277 232.587C517.636 261.64 518.091 264.476 519.937 276.408C520.284 278.708 520.686 281.303 521.087 284.434C522.505 295.375 521.087 302.759 516.646 307.682C512.071 312.738 504.634 315.038 492.676 315.038Z" fill="#9D7558"/>
<path fill-rule="evenodd" clip-rule="evenodd" d="M373.28 375.606C359.502 382.348 352.091 386.2 347.677 385.826C346.634 385.746 345.778 385.639 345.056 385.532C340.133 388.421 332.295 391.872 341.123 392.514C351.503 393.29 356.506 389.063 363.033 387.137C369.561 385.21 377.64 384.06 374.564 379.057C373.975 378.121 373.547 376.944 373.28 375.606Z" fill="#152F54"/>
<path fill-rule="evenodd" clip-rule="evenodd" d="M478.685 363.621C478.337 374.536 476.839 385.344 470.177 387.377C468.412 387.913 466.806 387.993 465.362 387.806C464.318 389.09 463.034 389.116 461.322 391.016C458.727 393.905 476.036 391.872 478.042 391.016C480.049 390.16 480.932 373.145 483.099 368.811C484.864 365.28 481.306 364.451 478.685 363.621Z" fill="#152F54"/>
<path fill-rule="evenodd" clip-rule="evenodd" d="M434.783 247.221C425.955 247.087 417.18 241.817 412.819 242.592C408.458 243.368 394.253 253.213 396.045 253.615C397.838 253.989 409.127 248.157 409.502 248.077C409.876 247.996 412.311 252.116 418.357 253.641C424.376 255.166 418.41 249.12 437.057 254.765C449.176 258.43 434.783 247.221 434.783 247.221Z" fill="#F19651"/>
<path fill-rule="evenodd" clip-rule="evenodd" d="M507.015 185.85L508.326 196.31C508.326 196.31 496.876 196.979 491.204 200.19C485.506 203.4 477.105 212.656 477.105 212.656L483.954 200.832L484.944 193.261L507.015 185.85Z" fill="white"/>
<path fill-rule="evenodd" clip-rule="evenodd" d="M502.146 198.638C493.639 197.033 489.706 204.657 484.195 217.097C478.684 229.537 469.267 244.626 467.422 246.579C465.549 248.531 435.907 246.579 435.907 246.579C435.907 246.579 435.024 255.166 435.907 256.183C436.79 257.199 441.926 257.092 441.926 257.092C441.926 257.092 443.986 258.724 445.912 260.035C447.839 261.319 464.104 263.754 471.675 263.379C479.246 263.005 486.148 262.363 487.192 261.212C488.208 260.062 508.834 228.28 510.119 216.883C511.349 205.433 506.48 199.467 502.146 198.638Z" fill="white"/>
<path fill-rule="evenodd" clip-rule="evenodd" d="M477.079 146.363C461.001 147.139 463.516 171.297 463.516 171.297C463.516 171.297 467.689 172.581 476.437 171.136C475.769 168.541 476.063 161.907 476.063 161.907C476.063 161.907 477.079 167.284 478.363 170.548C480.209 171.404 482.296 170.655 485.854 169.772C487.673 177.45 492.837 180.687 496.368 181.811C500.274 183.041 504.394 184.513 509.022 182.185C513.623 179.884 511.109 156.315 508.647 151.553C504.956 144.437 498.856 138.07 488.289 141.441C482.992 143.207 477.079 146.363 477.079 146.363Z" fill="#0F3970"/>
<path fill-rule="evenodd" clip-rule="evenodd" d="M508.379 171.885L511.697 176.433C511.697 176.433 521.167 176.032 521.515 187.001C521.809 195.588 527.293 196.524 533.714 194.946C540.135 193.368 542.756 200.43 542.756 200.43C542.756 200.43 536.684 199.226 533.019 206.209C528.016 215.706 513.569 213.807 509.476 203.962C506.079 195.802 511.349 195.561 507.844 189.596C504.313 183.656 510.466 176.915 510.466 176.915L507.256 172.527L508.379 171.885Z" fill="#0F3970"/>
<path fill-rule="evenodd" clip-rule="evenodd" d="M501.504 184.86C500.461 184.86 499.337 184.78 498.106 184.593C492.515 183.763 484.998 180.58 484.409 162.682C484.409 162.388 484.623 162.147 484.917 162.147C485.212 162.147 485.453 162.361 485.453 162.656C485.693 170.066 487.165 175.55 489.813 178.948C491.846 181.543 494.522 183.014 498.267 183.576C503.484 184.352 506.962 183.389 508.567 180.687C508.727 180.446 509.048 180.366 509.289 180.5C509.53 180.66 509.61 180.981 509.476 181.222C508.032 183.63 505.356 184.86 501.504 184.86Z" fill="#0F3970"/>
<path fill-rule="evenodd" clip-rule="evenodd" d="M405.168 148.397C412.605 148.183 409.85 142.672 418.41 144.865C422.905 146.016 419.588 147.888 425.42 147.273C431.252 146.658 434.141 146.069 434.863 149.895C435.612 153.72 435.96 154.924 438.769 155.513C441.578 156.101 442.836 161.131 438.769 164.555C434.676 167.98 436.682 169.371 437.565 172.18C438.475 174.989 435.398 175.203 433.713 177.798C432.028 180.419 435.265 180.901 432.83 183.175C430.422 185.449 427.052 185.235 427.052 185.235L416.912 165.786L405.168 148.397Z" fill="#0F3970"/>
<path fill-rule="evenodd" clip-rule="evenodd" d="M257.682 380.342C257.682 380.342 246.847 380.636 238.42 377.319C229.993 374.001 224.268 368.892 225.766 374.911C227.264 380.93 234.193 391.257 240.212 392.273C246.231 393.29 248.345 399.898 251.662 399.898C254.98 399.898 259.795 392.273 268.222 388.448C275.9 384.997 257.682 380.342 257.682 380.342Z" fill="#A6663E"/>
<path fill-rule="evenodd" clip-rule="evenodd" d="M339.009 380.769C339.009 380.769 334.461 387.056 326.516 391.417C318.329 395.938 308.859 398.105 314.718 400.138C320.577 402.172 329.137 403.777 337.511 401.342C343.37 399.63 350.245 399.282 352.064 396.5C353.883 393.718 349.924 386.762 351.583 376.382C352.894 368.089 339.009 380.769 339.009 380.769Z" fill="#A6663E"/>
<path fill-rule="evenodd" clip-rule="evenodd" d="M389.759 279.725C389.759 279.725 326.97 303.241 321.914 309.822C316.858 316.403 250.859 376.275 250.859 380.689C250.859 385.103 262.095 393.129 262.095 393.129C262.095 393.129 318.704 358.404 332.749 340.721C346.794 323.064 381.091 314.53 399.336 312.898C417.581 311.266 389.759 279.725 389.759 279.725Z" fill="#152F54"/>
<path fill-rule="evenodd" clip-rule="evenodd" d="M387.35 279.725C387.35 279.725 344.386 278.12 335.156 279.725C325.927 281.33 305.675 281.303 318.917 318.704C329.297 348.024 332.722 385.13 332.722 385.13L353.375 390.213C353.375 390.213 352.545 323.492 342.7 305.729C349.87 306.906 363.032 309.206 381.304 314.45C415.173 324.134 433.739 319.292 433.739 319.292L438.769 301.635L387.35 279.725Z" fill="#0F3D86"/>
<path fill-rule="evenodd" clip-rule="evenodd" d="M423.226 168.782L433.74 199.815L420.471 208.536L412.953 181.73L423.226 168.782Z" fill="#F4AE7C"/>
<path fill-rule="evenodd" clip-rule="evenodd" d="M419.294 204.31L412.953 181.73L423.226 168.782L427.078 180.125C425.741 190.371 422.557 198.852 419.294 204.31Z" fill="#E38034"/>
<path fill-rule="evenodd" clip-rule="evenodd" d="M396.473 174.052C396.126 183.496 400.754 191.655 408.138 192.378C415.494 193.1 422.236 186.064 423.146 176.674C424.082 167.284 418.865 159.071 411.482 158.349C404.098 157.626 397.008 159.151 396.473 174.052Z" fill="#F4AE7C"/>
<path fill-rule="evenodd" clip-rule="evenodd" d="M438.769 198.905C470.979 220.655 450.941 255.835 443.879 281.517C437.859 303.401 438.047 316.644 437.137 316.644C436.228 316.644 414.076 313.326 401.422 301.876C388.768 290.426 380.234 279.351 380.234 279.351C380.234 279.351 396.446 276.461 401.743 255.514C404.419 244.866 403.215 239.088 409.341 222.234C415.468 205.38 438.769 198.905 438.769 198.905Z" fill="#6998D0"/>
<path fill-rule="evenodd" clip-rule="evenodd" d="M438.769 198.905L435.318 190.452C435.318 190.452 424.376 197.675 420.016 201.099C415.655 204.523 412.953 205.326 412.953 205.326C412.953 205.326 411.374 217.418 412.391 216.321C425.313 202.49 438.769 198.905 438.769 198.905Z" fill="#6998D0"/>
<path fill-rule="evenodd" clip-rule="evenodd" d="M453.055 405.837H450.246L430.074 321.673H436.254L453.055 405.837Z" fill="#9D7558"/>
<path fill-rule="evenodd" clip-rule="evenodd" d="M368.784 405.837H371.593L394.734 318.704H388.554L368.784 405.837Z" fill="#9D7558"/>
<path fill-rule="evenodd" clip-rule="evenodd" d="M421.728 324.83C432.991 324.83 440.134 322.797 444.708 318.356C450.353 312.845 451.53 304.337 451.53 293.235C451.557 269.88 452.868 265.065 459.422 250.805C460.145 249.227 459.449 247.354 457.871 246.632C456.292 245.91 454.42 246.605 453.697 248.184C446.742 263.245 445.243 268.783 445.217 293.235C445.19 304.498 443.772 310.464 440.294 313.861C436.709 317.339 430.262 318.784 419.347 318.516C408.806 318.249 401.557 316.777 395.724 315.6C388.073 314.049 382.535 312.925 375.954 316.055C374.376 316.804 373.707 318.677 374.483 320.255C375.232 321.834 377.105 322.503 378.683 321.753C383.338 319.533 387.297 320.336 394.467 321.78C400.54 323.011 408.084 324.562 419.186 324.83C420.043 324.803 420.899 324.83 421.728 324.83Z" fill="#9D7558"/>
<path fill-rule="evenodd" clip-rule="evenodd" d="M437.592 230.581C437.592 230.581 429.566 255.086 419.614 265.225C409.689 275.364 389.678 278.762 383.418 278.361C388.421 276.354 397.918 270.629 401.744 255.514C404.419 244.866 403.215 239.088 409.341 222.234C413.889 209.714 427.908 202.918 434.836 200.27C426.195 206.476 415.387 216.696 412.07 224.481C408.378 233.095 437.592 230.581 437.592 230.581Z" fill="#406FB5"/>
<path fill-rule="evenodd" clip-rule="evenodd" d="M326.756 252.09C326.756 252.09 312.898 245.776 311.4 246.365C309.902 246.98 294.546 256.236 294.546 257.788C294.546 259.313 308.083 252.063 308.083 252.063C308.083 252.063 306.585 256.076 307.494 258.002C308.404 259.928 318.811 259.928 328.201 259.313C337.591 258.697 326.756 252.09 326.756 252.09Z" fill="#F4AE7C"/>
<path fill-rule="evenodd" clip-rule="evenodd" d="M437.137 211.666C449.898 237.83 406.104 264.369 380.128 266.723C354.151 269.077 323.278 260.57 323.278 260.57L326.756 252.063C326.756 252.063 378.817 245.268 380.128 244.305C381.438 243.395 432.456 202.089 437.137 211.666Z" fill="#6998D0"/>
<path fill-rule="evenodd" clip-rule="evenodd" d="M396.446 149.761C392.915 148.29 388.955 146.711 390.186 152.704C390.721 155.326 390.186 154.576 389.25 156.984C388.313 159.392 391.604 161.291 392.674 162.629C393.744 163.967 391.122 165.411 393.263 167.016C395.403 168.622 398.239 166.428 400.218 167.016C406.184 168.782 405.435 164.1 408.779 163.137C412.123 162.174 413.755 162.308 414.397 164.448C415.039 166.588 412.043 173.624 414.611 172.955C417.153 172.287 417.714 177.985 418.41 181.195C419.106 184.406 420.845 178.975 420.738 175.31C420.577 169.665 421.968 167.311 424.028 165.732C426.115 164.154 426.998 149.815 416.939 149.279C406.906 148.744 406.826 147.781 402.546 146.872C398.265 145.962 398.051 150.43 396.446 149.761Z" fill="#0F3970"/>
<path d="M255.782 266.429H248.425V399.925H255.782V266.429Z" fill="#9D7558"/>
<path fill-rule="evenodd" clip-rule="evenodd" d="M266.269 176.166L300.084 175.764L311.079 234.593L278.842 243.555L266.269 176.166Z" fill="#165396"/>
<path fill-rule="evenodd" clip-rule="evenodd" d="M268.863 178.306L280.554 240.854L308.591 233.042L298.291 177.958L268.863 178.306Z" fill="#CBD4EB"/>
<path fill-rule="evenodd" clip-rule="evenodd" d="M275.953 259.473H283.792V242.191L278.842 243.556L275.953 228.066V259.473Z" fill="#0F3D86"/>
<path fill-rule="evenodd" clip-rule="evenodd" d="M422.183 166.053C423.868 166.053 425.232 168.006 425.232 170.414C425.232 172.822 423.868 174.775 422.183 174.775C420.497 174.775 419.133 172.822 419.133 170.414C419.133 168.006 420.497 166.053 422.183 166.053Z" fill="#F4AE7C"/>
<path fill-rule="evenodd" clip-rule="evenodd" d="M86.3838 167.23C87.0258 165.893 87.7482 163.539 88.0959 159.365C88.0424 159.793 87.3201 165.063 85.2869 168.06C76.9134 173.544 60.8886 191.87 61.2096 195.347C61.2096 195.347 55.5648 185.77 55.4578 185.716C55.4578 185.716 45.051 172.474 57.384 164.903C63.6441 161.051 63.6173 156.101 63.3498 151.794C63.0823 147.487 65.062 129.001 77.6357 133.843C77.6357 133.843 79.6421 132.934 80.5517 133.067C80.5517 133.067 79.8026 133.201 79.4281 133.602C80.8995 133.522 82.9594 133.629 84.6984 134.619C89.3533 137.241 93.4732 160.73 86.3838 167.23Z" fill="#0F3970"/>
<path fill-rule="evenodd" clip-rule="evenodd" d="M106.448 139.247C111.371 149.065 107.304 160.382 97.6198 164.395C87.8818 168.407 77.2611 166.134 72.3386 156.315C67.4161 146.497 71.0812 134.699 80.4981 129.991C89.8883 125.282 101.526 129.429 106.448 139.247Z" fill="#0F3970"/>
<path fill-rule="evenodd" clip-rule="evenodd" d="M94.9716 177.503C100.563 178.761 107.626 194.304 111.077 204.256C114.554 214.288 120.467 226.755 124.346 230.634C128.225 234.513 153.667 243.475 153.667 243.475C153.667 243.475 90.7982 243.609 92.1091 243.475C93.3932 243.342 94.9716 177.503 94.9716 177.503Z" fill="#6998D0"/>
<path fill-rule="evenodd" clip-rule="evenodd" d="M128.332 238.499C124.881 238.018 112.468 239.596 117.765 237.402C123.062 235.182 122.313 232.373 122.313 232.373C122.313 232.373 114.822 238.633 113.458 233.149C112.281 228.414 111.852 211.747 107.412 195.026C103.746 186.733 98.9845 178.44 94.9449 177.53C94.9449 177.53 94.8111 183.416 94.5703 191.682C96.122 209.954 98.7437 236.787 99.3858 243.556C107.706 243.556 121.671 243.556 133.335 243.529L141.093 243.154C141.12 243.154 131.783 238.981 128.332 238.499Z" fill="#406FB5"/>
<path fill-rule="evenodd" clip-rule="evenodd" d="M74.3994 174.052C74.3994 174.052 56.6089 184.004 52.4622 186.118C48.3156 188.231 64.0729 250.297 67.6042 252.946C71.1088 255.594 101.981 253.4 105.513 250.056C109.017 246.712 102.811 236.413 105.86 215.84C108.91 195.24 96.5773 177.477 94.9988 177.503C93.4204 177.53 83.0939 174.052 83.0939 174.052H74.3994Z" fill="#6998D0"/>
<path fill-rule="evenodd" clip-rule="evenodd" d="M67.6037 252.946C71.1083 255.594 93.2059 255.674 102.596 252.732C103.666 252.411 108.482 250.484 108.589 248.665C107.465 248.451 102.944 248.986 101.125 248.558C94.7576 247.087 91.253 239.222 91.253 239.222C91.253 239.222 87.7484 237.964 79.9099 234.647C72.0714 231.33 75.3085 221.271 75.1212 216.856C74.9339 212.442 67.3897 197.969 53.1841 187.001L51.8732 187.589C50.8833 197.702 64.3399 250.484 67.6037 252.946Z" fill="#406FB5"/>
<path fill-rule="evenodd" clip-rule="evenodd" d="M189.837 204.256H146.979L127.477 245.776H174.668L192.325 208.189C193.208 206.369 191.87 204.256 189.837 204.256Z" fill="#406FB5"/>
<path fill-rule="evenodd" clip-rule="evenodd" d="M130.044 246.365H104.255C102.649 246.365 101.365 245.08 101.365 243.475C101.365 241.87 102.649 240.586 104.255 240.586H128.198L144.383 205.754C145.052 204.31 146.791 203.667 148.236 204.336C149.68 205.005 150.322 206.744 149.654 208.189L132.693 244.706C132.184 245.723 131.168 246.365 130.044 246.365Z" fill="#0F3D86"/>
<path fill-rule="evenodd" clip-rule="evenodd" d="M85.3137 237.509C96.4963 239.596 99.2518 242.164 105.351 243.154C112.254 244.278 111.451 245.803 106.314 245.803C101.178 245.803 88.2832 245.99 83.8691 245.027C79.4281 244.01 85.3137 237.509 85.3137 237.509Z" fill="#F4AE7C"/>
<path fill-rule="evenodd" clip-rule="evenodd" d="M51.0711 187.268C42.5103 214.663 30.3379 245.776 32.2908 245.776C34.217 245.776 83.4418 247.756 85.3947 246.097C87.3209 244.438 86.7858 238.071 86.4916 237.242C86.224 236.413 58.5084 231.49 58.5084 231.49C58.5084 231.49 62.1467 224.374 63.5378 210.489C64.9022 196.632 52.703 182.078 51.0711 187.268Z" fill="#6998D0"/>
<path fill-rule="evenodd" clip-rule="evenodd" d="M80.9266 150.243L74.0244 175.47C74.0244 175.47 85.6886 193.689 88.8989 192.057C92.1092 190.425 87.1064 177.263 87.1064 175.47C87.1064 173.678 92.1092 155.192 92.1092 155.192L80.9266 150.243Z" fill="#F4AE7C"/>
<path fill-rule="evenodd" clip-rule="evenodd" d="M87.3469 176.754C87.1864 176.166 87.1062 175.711 87.1062 175.47C87.1062 173.678 92.1089 155.192 92.1089 155.192L80.9263 150.243L78.6523 158.589C80.632 167.23 84.2436 172.956 87.3469 176.754Z" fill="#F29F65"/>
<path fill-rule="evenodd" clip-rule="evenodd" d="M106.769 149.814C108.08 157.118 107.224 166.856 100.723 169.317C94.2223 171.778 86.4105 167.07 83.2537 158.75C80.0969 150.457 82.7989 141.708 89.2998 139.247C95.7739 136.786 105.191 141.093 106.769 149.814Z" fill="#F4AE7C"/>
<path fill-rule="evenodd" clip-rule="evenodd" d="M84.7794 153.934C85.6889 156.503 84.8864 159.098 83.0137 159.793C81.141 160.462 78.8671 158.937 77.9575 156.369C77.0479 153.801 77.8505 151.206 79.7231 150.51C81.5958 149.868 83.8698 151.393 84.7794 153.934Z" fill="#F4AE7C"/>
<path fill-rule="evenodd" clip-rule="evenodd" d="M106.823 140.638C104.603 157.814 83.7624 155.593 83.7624 155.593C83.7624 155.593 79.4552 149.948 77.529 152.918C75.6029 155.887 80.2043 135.502 92.1895 134.86C96.1221 134.646 106.823 140.638 106.823 140.638Z" fill="#0F3970"/>
<path fill-rule="evenodd" clip-rule="evenodd" d="M51.8203 370.55H54.4153L71.1089 293.235H65.4106L51.8203 370.55Z" fill="#9D7558"/>
<path fill-rule="evenodd" clip-rule="evenodd" d="M132.158 370.55H129.563L110.167 290.506H115.839L132.158 370.55Z" fill="#9D7558"/>
<path fill-rule="evenodd" clip-rule="evenodd" d="M81.3013 296.151C70.948 296.151 64.3936 294.305 60.2202 290.212C55.0302 285.156 53.9601 277.344 53.9334 267.124C53.9334 259.099 53.7194 253.882 53.2913 249.655C53.1308 248.077 54.2812 246.632 55.8863 246.471C57.4647 246.311 58.9094 247.461 59.0699 249.067C59.5247 253.507 59.7387 258.885 59.7387 267.124C59.7654 277.451 61.0763 282.935 64.2599 286.065C67.5504 289.249 73.4628 290.587 83.495 290.319C93.1794 290.078 99.8408 288.714 105.191 287.644C112.227 286.226 117.31 285.182 123.33 288.072C124.774 288.767 125.39 290.479 124.694 291.924C123.998 293.369 122.286 293.984 120.842 293.289C116.561 291.255 112.923 291.978 106.342 293.315C100.777 294.439 93.8215 295.857 83.6555 296.098C82.8262 296.124 82.0503 296.151 81.3013 296.151Z" fill="#9D7558"/>
<path fill-rule="evenodd" clip-rule="evenodd" d="M57.7852 246.124L73.6227 246.793L69.3958 290.533C69.3958 290.533 57.5979 282.989 57.7585 274.883C57.9725 266.75 57.7852 246.124 57.7852 246.124Z" fill="#9D7558"/>
<path fill-rule="evenodd" clip-rule="evenodd" d="M136.01 250.19C149.413 248.157 153.961 248.799 162.148 264.048C170.334 279.297 181.249 306.772 187.536 310.33C196.979 315.68 200.109 328.762 203.989 328.174C207.868 327.585 210.382 329.298 206.155 332.802C201.929 336.307 195.107 339.303 192.779 338.688C190.452 338.072 188.633 327.987 182.56 324.723C176.46 321.459 178.306 318.757 178.707 315.868C179.109 312.978 160.944 299.656 147.22 283.096C138.846 272.983 134.539 266.295 133.897 260.222C133.255 254.176 136.01 250.19 136.01 250.19Z" fill="#F4AE7C"/>
<path fill-rule="evenodd" clip-rule="evenodd" d="M169.21 305.515C166.106 297.623 162.976 284.594 160.034 272.662C155.86 255.675 151.499 251.635 148.717 249.842C145.373 249.013 141.387 249.388 135.983 250.217C135.983 250.217 133.227 254.203 133.869 260.249C134.512 266.295 138.819 272.983 147.192 283.123C154.415 291.817 162.869 299.629 169.21 305.515Z" fill="#F29F65"/>
<path fill-rule="evenodd" clip-rule="evenodd" d="M140.077 263.62C140.077 263.62 136.519 290.506 133.202 293.235C130.821 295.188 129.135 295.322 127.477 287.296C125.818 279.27 130.045 249.334 130.045 249.334L140.077 263.62Z" fill="#142D4D"/>
<path fill-rule="evenodd" clip-rule="evenodd" d="M137.241 278.173L104.255 283.711L122.875 257.012L137.054 254.123L145.534 256.076L137.241 278.173Z" fill="#F19651"/>
<path fill-rule="evenodd" clip-rule="evenodd" d="M178.681 315.868C177.611 320.175 177.745 323.359 179.591 324.964C181.436 326.569 188.472 338.42 188.472 338.42L190.666 338.072L185.61 327.211L178.681 315.868Z" fill="#003D81"/>
<path fill-rule="evenodd" clip-rule="evenodd" d="M192.779 338.688C195.106 339.303 201.928 336.334 206.155 332.802C210.382 329.298 207.867 327.585 203.988 328.174C203.774 328.201 203.56 328.201 203.346 328.147C201.42 332.481 195.026 335.718 192.966 331.144C190.933 326.622 182.185 317.58 178.68 315.654C178.68 315.734 178.68 315.788 178.68 315.841C178.279 318.73 176.46 321.432 182.533 324.696C188.632 328.014 190.451 338.073 192.779 338.688Z" fill="#003D81"/>
<path fill-rule="evenodd" clip-rule="evenodd" d="M68.6742 251.26C56.9833 272.261 64.9556 285.611 79.1879 286.975C93.4203 288.339 115.866 285.744 128.948 274.856C142.03 263.968 152.784 252.491 151.286 250.752C149.788 249.067 68.6742 251.26 68.6742 251.26Z" fill="#F29F65"/>
<path fill-rule="evenodd" clip-rule="evenodd" d="M135.047 266.937C137.455 259.741 140.21 254.23 145.561 254.123C151.179 254.016 154.657 256.932 154.897 266.135C155.192 277.103 155.566 313.38 155.058 329.512C154.683 341.737 158.241 345.643 157.92 358.378C157.706 367.982 167.926 363.113 163.966 368.089C161.264 371.513 153.158 370.39 148.209 369.747C143.795 369.186 150.51 355.916 144.384 352.385C139.14 349.335 139.033 344.413 142.35 340.667C145.668 336.922 142.725 325.873 140.504 318.115C138.284 310.383 134.86 301.983 132.612 283.684C131.944 278.494 133.576 271.325 135.047 266.937Z" fill="#F4AE7C"/>
<path fill-rule="evenodd" clip-rule="evenodd" d="M160.463 364.183C158.777 364.691 156.69 365.28 154.871 365.333C151.179 365.467 150.083 361.401 149.842 355.89C149.628 351.074 146.123 343.503 142.538 340.427C142.485 340.507 142.405 340.614 142.324 340.667C139.007 344.413 139.114 349.335 144.358 352.385C150.484 355.916 143.769 369.186 148.183 369.748C153.159 370.39 161.238 371.486 163.94 368.089C166.535 364.879 163.352 364.611 160.463 364.183Z" fill="#003D81"/>
<path fill-rule="evenodd" clip-rule="evenodd" d="M143.154 339.33C143.154 339.33 137.777 344.948 138.258 347.275C138.74 349.603 140.398 355.515 140.693 360.063C140.96 364.611 141.228 369.828 141.228 369.828C141.228 369.828 143.154 369.828 143.314 369.266C143.475 368.731 144.545 350.78 144.545 350.78L143.154 339.33Z" fill="#003D81"/>
<path fill-rule="evenodd" clip-rule="evenodd" d="M63.0286 249.361C63.0286 249.361 56.0997 278.816 64.8478 287.002C73.6226 295.161 110.033 287.831 118.62 287.323C124.426 287.002 130.044 294.091 130.044 294.091C130.044 294.091 125.977 277.665 128.76 264.396C131.515 251.127 135.983 250.217 135.983 250.217L130.044 249.388H63.0286V249.361Z" fill="#0F3970"/>
<path fill-rule="evenodd" clip-rule="evenodd" d="M61.451 241.656C64.4205 247.943 58.2674 258.831 60.4076 261.961C62.5746 265.091 74.9343 262.389 83.0403 255.889C91.1464 249.361 106.476 247.943 106.476 247.943L61.451 241.656Z" fill="#6998D0"/>
<path fill-rule="evenodd" clip-rule="evenodd" d="M74.0243 295.322C98.5297 296.232 124.346 295.803 124.346 292.138C124.346 288.473 123.249 285.905 104.255 287.376C85.2604 288.848 72.3657 290.881 66.6406 289.597C60.9423 288.313 74.0243 295.322 74.0243 295.322Z" fill="#9D7558"/>
<path fill-rule="evenodd" clip-rule="evenodd" d="M197.568 252.464H21.1075C20.3585 252.464 19.7432 251.26 19.7432 249.789V248.451C19.7432 246.98 20.3585 245.776 21.1075 245.776H197.568C198.317 245.776 198.932 246.98 198.932 248.451V249.789C198.932 251.26 198.317 252.464 197.568 252.464Z" fill="#9D7558"/>
<path fill-rule="evenodd" clip-rule="evenodd" d="M483.018 138.284C483.393 138.926 482.349 139.622 481.921 138.846L481.359 137.749C480.985 137.107 482.028 136.411 482.456 137.187L483.018 138.284ZM421.728 137.829C421.246 138.498 420.256 137.776 420.711 137.107L420.925 136.786C421.407 136.117 422.397 136.839 421.942 137.508L421.728 137.829ZM424.082 134.458C423.601 135.127 422.611 134.405 423.066 133.736L423.788 132.72C424.269 132.051 425.259 132.773 424.804 133.442L424.082 134.458ZM426.945 130.419C426.463 131.088 425.473 130.365 425.928 129.697L426.65 128.68C427.132 128.011 428.122 128.733 427.667 129.402L426.945 130.419ZM429.78 126.352C429.299 127.021 428.309 126.299 428.764 125.63L429.486 124.614C429.968 123.945 430.958 124.667 430.503 125.336L429.78 126.352ZM432.643 122.286C432.161 122.955 431.172 122.233 431.626 121.564L432.349 120.547C432.83 119.878 433.82 120.601 433.365 121.269L432.643 122.286ZM435.479 118.22C434.997 118.888 434.007 118.166 434.462 117.497L435.184 116.481C435.666 115.812 436.656 116.534 436.201 117.203L435.479 118.22ZM438.341 114.153C437.86 114.822 436.87 114.1 437.325 113.431L438.047 112.414C438.528 111.746 439.518 112.468 439.064 113.137L438.341 114.153ZM441.177 110.114C440.695 110.782 439.706 110.06 440.16 109.391L440.883 108.375C441.364 107.706 442.354 108.428 441.899 109.097L441.177 110.114ZM444.013 106.047C443.531 106.716 442.541 105.994 442.996 105.325L443.718 104.308C444.2 103.639 445.19 104.362 444.735 105.031L444.013 106.047ZM446.875 101.981C446.394 102.65 445.404 101.927 445.859 101.259L446.581 100.242C447.063 99.5731 448.052 100.295 447.598 100.964L446.875 101.981ZM449.711 97.9145C449.23 98.5833 448.24 97.8609 448.694 97.1921L449.417 96.1755C449.898 95.5067 450.888 96.229 450.433 96.8978L449.711 97.9145ZM452.574 93.8748C452.092 94.5436 451.102 93.8213 451.557 93.1525L452.279 92.1359C452.761 91.4671 453.751 92.1894 453.296 92.8582L452.574 93.8748ZM455.409 89.8084C454.928 90.4772 453.938 89.7549 454.393 89.0861L455.115 88.0695C455.597 87.4007 456.586 88.123 456.132 88.7918L455.409 89.8084ZM456.961 88.9523C456.586 88.3103 457.63 87.6147 458.058 88.3905L458.62 89.4874C458.994 90.1295 457.951 90.825 457.523 90.0492L456.961 88.9523ZM459.181 93.3665C458.807 92.7245 459.85 92.0289 460.278 92.8047L460.84 93.9016C461.215 94.5436 460.171 95.2392 459.743 94.4634L459.181 93.3665ZM461.402 97.8074C461.027 97.1654 462.071 96.4698 462.499 97.2456L463.061 98.3425C463.435 98.9846 462.392 99.6801 461.964 98.9043L461.402 97.8074ZM463.596 102.248C463.221 101.606 464.264 100.911 464.692 101.687L465.254 102.783C465.629 103.425 464.585 104.121 464.157 103.345L463.596 102.248ZM465.816 106.689C465.442 106.047 466.485 105.352 466.913 106.127L467.475 107.224C467.849 107.866 466.806 108.562 466.378 107.786L465.816 106.689ZM468.037 111.13C467.662 110.488 468.705 109.793 469.133 110.568L469.695 111.665C470.07 112.307 469.026 113.003 468.598 112.227L468.037 111.13ZM470.257 115.544C469.882 114.902 470.926 114.207 471.354 114.983L471.916 116.079C472.29 116.722 471.247 117.417 470.819 116.641L470.257 115.544ZM472.477 119.985C472.103 119.343 473.146 118.648 473.574 119.424L474.136 120.52C474.511 121.162 473.467 121.858 473.039 121.082L472.477 119.985ZM474.698 124.426C474.323 123.784 475.367 123.089 475.795 123.864L476.357 124.961C476.731 125.603 475.688 126.299 475.26 125.523L474.698 124.426ZM476.918 128.867C476.544 128.225 477.587 127.53 478.015 128.305L478.577 129.402C478.952 130.044 477.908 130.74 477.48 129.964L476.918 128.867ZM479.139 133.308C478.764 132.666 479.808 131.97 480.236 132.746L480.798 133.843C481.172 134.485 480.129 135.181 479.701 134.405L479.139 133.308Z" fill="#8D9FCA"/>
<path fill-rule="evenodd" clip-rule="evenodd" d="M403.028 138.445C403.215 139.167 402.038 139.541 401.824 138.685L401.583 137.482C401.396 136.759 402.573 136.385 402.787 137.241L403.028 138.445ZM275.391 139.889C274.616 140.21 274.161 139.06 274.883 138.766L276.007 138.257C276.783 137.936 277.237 139.087 276.515 139.381L275.391 139.889ZM279.913 137.883C279.137 138.204 278.682 137.054 279.404 136.759L280.528 136.251C281.304 135.93 281.758 137.08 281.036 137.375L279.913 137.883ZM284.461 135.876C283.685 136.197 283.23 135.047 283.952 134.753L285.076 134.244C285.852 133.923 286.306 135.074 285.584 135.368L284.461 135.876ZM289.008 133.897C288.233 134.218 287.778 133.067 288.5 132.773L289.624 132.265C290.4 131.944 290.854 133.094 290.132 133.388L289.008 133.897ZM293.53 131.89C292.754 132.211 292.299 131.061 293.021 130.767L294.145 130.258C294.921 129.937 295.376 131.088 294.653 131.382L293.53 131.89ZM298.078 129.911C297.302 130.232 296.847 129.081 297.569 128.787L298.693 128.279C299.469 127.958 299.923 129.108 299.201 129.402L298.078 129.911ZM302.626 127.904C301.85 128.225 301.395 127.075 302.117 126.781L303.241 126.272C304.017 125.951 304.471 127.102 303.749 127.396L302.626 127.904ZM307.173 125.924C306.398 126.245 305.943 125.095 306.665 124.801L307.789 124.293C308.565 123.972 309.019 125.122 308.297 125.416L307.173 125.924ZM311.695 123.918C310.919 124.239 310.464 123.089 311.186 122.794L312.31 122.286C313.086 121.965 313.541 123.115 312.818 123.41L311.695 123.918ZM316.243 121.938C315.467 122.259 315.012 121.109 315.734 120.815L316.858 120.306C317.634 119.985 318.088 121.136 317.366 121.43L316.243 121.938ZM320.79 119.932C320.015 120.253 319.56 119.103 320.282 118.808L321.406 118.3C322.182 117.979 322.636 119.129 321.914 119.424L320.79 119.932ZM325.338 117.952C324.563 118.273 324.108 117.123 324.83 116.829L325.954 116.32C326.73 115.999 327.184 117.15 326.462 117.444L325.338 117.952ZM329.86 115.946C329.084 116.267 328.629 115.116 329.351 114.822L330.475 114.314C331.251 113.993 331.706 115.143 330.983 115.437L329.86 115.946ZM334.408 113.966C333.632 114.287 333.177 113.137 333.899 112.842L335.023 112.334C335.799 112.013 336.253 113.163 335.531 113.458L334.408 113.966ZM338.955 111.96C338.18 112.281 337.725 111.13 338.447 110.836L339.571 110.328C340.347 110.007 340.801 111.157 340.079 111.451L338.955 111.96ZM343.477 109.98C342.701 110.301 342.246 109.151 342.968 108.856L344.092 108.348C344.868 108.027 345.323 109.177 344.6 109.472L343.477 109.98ZM348.025 107.973C347.249 108.294 346.794 107.144 347.516 106.85L348.64 106.342C349.416 106.021 349.871 107.171 349.148 107.465L348.025 107.973ZM352.573 105.994C351.797 106.315 351.342 105.164 352.064 104.87L353.188 104.362C353.964 104.041 354.418 105.191 353.696 105.485L352.573 105.994ZM357.12 103.987C356.345 104.308 355.89 103.158 356.612 102.864L357.736 102.355C358.512 102.034 358.966 103.185 358.244 103.479L357.12 103.987ZM361.642 102.008C360.866 102.329 360.411 101.178 361.133 100.884L362.257 100.376C363.033 100.055 363.488 101.205 362.765 101.499L361.642 102.008ZM366.19 100.001C365.414 100.322 364.959 99.1719 365.681 98.8776L366.805 98.3693C367.581 98.0482 368.036 99.1986 367.313 99.4929L366.19 100.001ZM370.738 97.9947C369.962 98.3158 369.507 97.1654 370.229 96.8711L371.353 96.3628C372.129 96.0418 372.583 97.1922 371.861 97.4864L370.738 97.9947ZM375.259 96.0151C374.483 96.3361 374.028 95.1857 374.75 94.8914L375.874 94.3832C376.65 94.0621 377.105 95.2125 376.382 95.5068L375.259 96.0151ZM379.807 94.0086C379.031 94.3296 378.576 93.1793 379.298 92.885L380.422 92.3767C381.198 92.0557 381.653 93.206 380.93 93.5003L379.807 94.0086ZM384.355 92.0289C383.579 92.35 383.124 91.1996 383.846 90.9053L384.97 90.397C385.746 90.076 386.201 91.2263 385.478 91.5206L384.355 92.0289ZM388.903 90.0225C388.127 90.3435 387.672 89.1931 388.394 88.8989L389.518 88.3906C390.294 88.0695 390.748 89.2199 390.026 89.5142L388.903 90.0225ZM391.926 88.8186C391.738 88.0963 392.915 87.7218 393.129 88.5778L393.37 89.7817C393.558 90.504 392.38 90.8786 392.166 90.0225L391.926 88.8186ZM392.889 93.6876C392.701 92.9653 393.879 92.5907 394.093 93.4468L394.333 94.6507C394.521 95.373 393.343 95.7475 393.129 94.8914L392.889 93.6876ZM393.852 98.5565C393.665 97.8342 394.842 97.4597 395.056 98.3158L395.296 99.5196C395.484 100.242 394.307 100.616 394.093 99.7604L393.852 98.5565ZM394.815 103.426C394.628 102.703 395.805 102.329 396.019 103.185L396.26 104.389C396.447 105.111 395.27 105.485 395.056 104.629L394.815 103.426ZM395.778 108.294C395.591 107.572 396.768 107.198 396.982 108.054L397.223 109.258C397.41 109.98 396.233 110.354 396.019 109.498L395.778 108.294ZM396.741 113.137C396.554 112.414 397.731 112.04 397.945 112.896L398.186 114.1C398.373 114.822 397.196 115.197 396.982 114.341L396.741 113.137ZM397.731 118.006C397.544 117.283 398.721 116.909 398.935 117.765L399.176 118.969C399.363 119.691 398.186 120.066 397.972 119.21L397.731 118.006ZM398.694 122.875C398.507 122.152 399.684 121.778 399.898 122.634L400.139 123.838C400.326 124.56 399.149 124.935 398.935 124.079L398.694 122.875ZM399.657 127.744C399.47 127.021 400.647 126.647 400.861 127.503L401.102 128.707C401.289 129.429 400.112 129.804 399.898 128.947L399.657 127.744ZM400.62 132.613C400.433 131.89 401.61 131.516 401.824 132.372L402.065 133.576C402.252 134.298 401.075 134.673 400.861 133.816L400.62 132.613Z" fill="#8D9FCA"/>
<path fill-rule="evenodd" clip-rule="evenodd" d="M230.179 99.8139C229.377 99.9209 229.216 98.6903 230.019 98.5833L231.249 98.4228C232.052 98.3157 232.213 99.5464 231.41 99.6534L230.179 99.8139ZM379.271 135.983C379.86 136.572 378.977 137.428 378.389 136.866L377.506 135.983C376.917 135.395 377.8 134.539 378.389 135.101L379.271 135.983ZM375.74 132.479C376.329 133.067 375.446 133.923 374.857 133.362L373.974 132.479C373.386 131.89 374.269 131.034 374.857 131.596L375.74 132.479ZM372.236 128.974C372.824 129.563 371.941 130.419 371.353 129.857L370.47 128.974C369.881 128.386 370.764 127.53 371.353 128.091L372.236 128.974ZM368.704 125.496C369.293 126.085 368.41 126.941 367.821 126.379L366.938 125.496C366.35 124.908 367.233 124.052 367.821 124.614L368.704 125.496ZM365.173 121.992C365.761 122.58 364.879 123.436 364.29 122.875L363.407 121.992C362.819 121.403 363.701 120.547 364.29 121.109L365.173 121.992ZM361.668 118.514C362.257 119.103 361.374 119.959 360.785 119.397L359.903 118.514C359.314 117.925 360.197 117.069 360.785 117.631L361.668 118.514ZM358.137 115.009C358.725 115.598 357.843 116.454 357.254 115.892L356.371 115.009C355.783 114.421 356.666 113.565 357.254 114.127L358.137 115.009ZM354.606 111.532C355.194 112.12 354.311 112.976 353.723 112.414L352.84 111.532C352.251 110.943 353.134 110.087 353.723 110.649L354.606 111.532ZM351.101 108.027C351.69 108.615 350.807 109.472 350.218 108.91L349.335 108.027C348.747 107.438 349.63 106.582 350.218 107.144L351.101 108.027ZM347.57 104.549C348.158 105.138 347.275 105.994 346.687 105.432L345.804 104.549C345.215 103.961 346.098 103.104 346.687 103.666L347.57 104.549ZM344.065 101.045C344.654 101.633 343.771 102.489 343.182 101.927L342.299 101.045C341.711 100.456 342.594 99.5999 343.182 100.162L344.065 101.045ZM340.534 97.5667C341.122 98.1552 340.239 99.0113 339.651 98.4495L338.768 97.5667C338.179 96.9781 339.062 96.122 339.651 96.6838L340.534 97.5667ZM337.002 94.0621C337.591 94.6506 336.708 95.5067 336.12 94.9449L335.237 94.0621C334.648 93.4735 335.531 92.6174 336.12 93.1793L337.002 94.0621ZM333.498 90.5842C334.086 91.1728 333.204 92.0289 332.615 91.4671L331.732 90.5842C331.144 89.9957 332.026 89.1396 332.615 89.7014L333.498 90.5842ZM329.966 87.0797C330.555 87.6682 329.672 88.5243 329.084 87.9625L328.709 87.588L328.602 87.6147C327.799 87.7217 327.639 86.4911 328.442 86.3841L329.164 86.3038L329.966 87.0797ZM324.776 86.8389C325.579 86.7319 325.74 87.9625 324.937 88.0695L323.706 88.23C322.904 88.337 322.743 87.1064 323.546 86.9994L324.776 86.8389ZM319.854 87.4542C320.657 87.3472 320.817 88.5778 320.015 88.6848L318.784 88.8453C317.981 88.9523 317.821 87.7217 318.623 87.6147L319.854 87.4542ZM314.932 88.0695C315.734 87.9625 315.895 89.1931 315.092 89.3001L313.861 89.4606C313.059 89.5676 312.898 88.337 313.701 88.23L314.932 88.0695ZM310.009 88.6848C310.812 88.5778 310.972 89.8084 310.17 89.9154L308.939 90.0759C308.136 90.183 307.976 88.9523 308.778 88.8453L310.009 88.6848ZM305.087 89.3001C305.889 89.1931 306.05 90.4237 305.247 90.5307L304.016 90.6913C303.214 90.7983 303.053 89.5676 303.856 89.4606L305.087 89.3001ZM300.164 89.8887C300.967 89.7817 301.127 91.0123 300.325 91.1193L299.094 91.2798C298.291 91.3868 298.131 90.1562 298.933 90.0492L300.164 89.8887ZM295.242 90.504C296.044 90.397 296.205 91.6276 295.402 91.7346L294.172 91.8951C293.369 92.0021 293.208 90.7715 294.011 90.6645L295.242 90.504ZM290.319 91.1193C291.122 91.0123 291.282 92.2429 290.48 92.3499L289.249 92.5104C288.446 92.6174 288.286 91.3868 289.089 91.2798L290.319 91.1193ZM285.397 91.7346C286.199 91.6276 286.36 92.8582 285.557 92.9652L284.327 93.1257C283.524 93.2328 283.363 92.0021 284.166 91.8951L285.397 91.7346ZM280.474 92.3499C281.277 92.2429 281.437 93.4735 280.635 93.5805L279.404 93.741C278.602 93.8481 278.441 92.6174 279.244 92.5104L280.474 92.3499ZM275.552 92.9385C276.354 92.8315 276.515 94.0621 275.712 94.1691L274.482 94.3296C273.679 94.4366 273.519 93.206 274.321 93.099L275.552 92.9385ZM270.629 93.5538C271.432 93.4468 271.592 94.6774 270.79 94.7844L269.559 94.9449C268.757 95.0519 268.596 93.8213 269.399 93.7143L270.629 93.5538ZM265.707 94.1691C266.509 94.0621 266.67 95.2927 265.867 95.3997L264.637 95.5602C263.834 95.6672 263.674 94.4366 264.476 94.3296L265.707 94.1691ZM260.784 94.7844C261.587 94.6774 261.747 95.908 260.945 96.015L259.714 96.1755C258.912 96.2826 258.751 95.0519 259.554 94.9449L260.784 94.7844ZM255.862 95.373C256.664 95.266 256.825 96.4966 256.022 96.6036L254.792 96.7641C253.989 96.8711 253.829 95.6405 254.631 95.5335L255.862 95.373ZM250.939 95.9883C251.742 95.8813 251.902 97.1119 251.1 97.2189L249.869 97.3794C249.067 97.4864 248.906 96.2558 249.709 96.1488L250.939 95.9883ZM246.017 96.6036C246.819 96.4966 246.98 97.7272 246.177 97.8342L244.947 97.9947C244.144 98.1017 243.984 96.8711 244.786 96.7641L246.017 96.6036ZM241.094 97.2189C241.897 97.1119 242.058 98.3425 241.255 98.4495L240.024 98.61C239.222 98.717 239.061 97.4864 239.864 97.3794L241.094 97.2189ZM236.172 97.8342C236.975 97.7272 237.135 98.9578 236.332 99.0648L235.102 99.2253C234.299 99.3323 234.139 98.1017 234.941 97.9947L236.172 97.8342Z" fill="#8D9FCA"/>
<g clip-path="url(#clip0_318_1764)">
<path d="M242.11 145.581C241.675 143.559 240.879 141.671 239.793 139.989L241.978 137.803L236.934 132.763L234.75 134.946C233.068 133.859 231.18 133.064 229.158 132.629V129.541H222.028V132.629C220.005 133.064 218.117 133.859 216.435 134.946L214.252 132.763L209.208 137.803L211.393 139.989C210.306 141.671 209.51 143.559 209.076 145.581H205.98L205.976 152.711H209.076C209.51 154.734 210.306 156.621 211.393 158.304L209.199 160.497L214.24 165.541L216.435 163.346C218.117 164.433 220.005 165.229 222.028 165.663V168.771H229.158V165.663C231.18 165.229 233.068 164.433 234.751 163.346L236.946 165.541L241.986 160.497L239.793 158.304C240.88 156.621 241.676 154.734 242.11 152.711H245.21V145.581H242.11ZM225.593 157.439C221.018 157.439 217.31 153.731 217.31 149.156C217.31 144.582 221.018 140.874 225.593 140.874C230.167 140.874 233.875 144.582 233.875 149.156C233.875 153.731 230.167 157.439 225.593 157.439Z" fill="#8D9FCA"/>
<path d="M206.668 165.116C205.85 165.116 205.065 165.32 204.367 165.703C200.695 160.995 198.679 155.147 198.679 149.156C198.679 134.316 210.752 122.243 225.593 122.243C227.397 122.243 229.2 122.422 230.953 122.776C231.569 122.901 232.171 122.502 232.296 121.885C232.421 121.267 232.022 120.666 231.404 120.541C229.504 120.157 227.548 119.962 225.593 119.962C217.795 119.962 210.463 122.999 204.949 128.513C199.435 134.027 196.398 141.358 196.398 149.156C196.398 155.716 198.626 162.117 202.681 167.249C202.159 168.029 201.878 168.946 201.878 169.906C201.878 171.185 202.377 172.388 203.281 173.292C204.186 174.197 205.388 174.695 206.668 174.695C207.947 174.695 209.15 174.197 210.055 173.292C210.959 172.388 211.458 171.185 211.458 169.905C211.458 168.626 210.959 167.423 210.055 166.519C209.15 165.614 207.947 165.116 206.668 165.116ZM208.442 171.68C207.968 172.154 207.338 172.415 206.668 172.415C205.998 172.415 205.368 172.154 204.894 171.68C204.42 171.206 204.159 170.576 204.159 169.906C204.159 169.235 204.42 168.605 204.894 168.131C205.368 167.657 205.998 167.397 206.668 167.397C207.338 167.397 207.968 167.658 208.442 168.131C208.916 168.605 209.177 169.235 209.177 169.906C209.177 170.576 208.916 171.206 208.442 171.68Z" fill="#8D9FCA"/>
<path d="M248.504 131.062C249.744 129.202 249.545 126.66 247.905 125.02C247 124.116 245.797 123.617 244.518 123.617C243.239 123.617 242.036 124.116 241.131 125.02C240.226 125.925 239.728 127.127 239.728 128.407C239.728 129.686 240.226 130.889 241.131 131.794C242.036 132.698 243.239 133.196 244.518 133.196C245.335 133.196 246.121 132.992 246.818 132.609C250.491 137.317 252.507 143.165 252.507 149.156C252.507 163.997 240.433 176.07 225.593 176.07C223.807 176.07 222.02 175.894 220.284 175.546C219.667 175.423 219.066 175.823 218.942 176.441C218.819 177.059 219.219 177.659 219.837 177.783C221.72 178.159 223.657 178.351 225.593 178.351C233.391 178.351 240.723 175.314 246.237 169.8C251.751 164.286 254.787 156.954 254.787 149.156C254.787 142.596 252.56 136.194 248.504 131.062ZM242.744 130.181C242.27 129.707 242.009 129.077 242.009 128.407C242.009 127.737 242.27 127.107 242.744 126.633C243.218 126.159 243.848 125.898 244.518 125.898C245.188 125.898 245.818 126.159 246.292 126.633C247.27 127.611 247.27 129.203 246.292 130.181C245.818 130.655 245.188 130.916 244.518 130.916C243.848 130.916 243.218 130.655 242.744 130.181Z" fill="#8D9FCA"/>
<path d="M220.887 168.771C220.887 169.401 221.398 169.912 222.028 169.912H229.158C229.788 169.912 230.299 169.401 230.299 168.771V166.56C231.798 166.157 233.232 165.562 234.579 164.786L236.14 166.347C236.353 166.561 236.643 166.681 236.946 166.681C237.248 166.681 237.539 166.561 237.753 166.347L242.793 161.303C243.238 160.858 243.238 160.136 242.793 159.691L241.233 158.132C242.009 156.784 242.604 155.351 243.007 153.852H245.21C245.84 153.852 246.35 153.341 246.35 152.711V145.58C246.35 144.951 245.84 144.44 245.21 144.44H243.007C242.603 142.941 242.009 141.508 241.233 140.16L242.784 138.61C242.998 138.396 243.118 138.105 243.118 137.803C243.118 137.501 242.998 137.21 242.784 136.996L237.74 131.956C237.295 131.511 236.573 131.511 236.127 131.957L234.579 133.506C233.232 132.73 231.798 132.135 230.299 131.732V129.541C230.299 128.911 229.788 128.401 229.158 128.401H222.028C221.398 128.401 220.887 128.911 220.887 129.541V131.732C219.388 132.135 217.955 132.73 216.607 133.506L215.059 131.957C214.614 131.512 213.891 131.511 213.446 131.956L208.402 136.997C208.188 137.211 208.068 137.501 208.068 137.803C208.068 138.105 208.188 138.396 208.402 138.61L209.953 140.16C209.177 141.508 208.582 142.941 208.179 144.44H205.98C205.35 144.44 204.84 144.951 204.84 145.58L204.836 152.711C204.835 153.013 204.956 153.304 205.17 153.517C205.383 153.731 205.673 153.852 205.976 153.852H208.179C208.582 155.351 209.177 156.784 209.953 158.132L208.393 159.691C207.948 160.136 207.948 160.858 208.393 161.303L213.434 166.347C213.647 166.561 213.937 166.681 214.24 166.681H214.24C214.543 166.681 214.833 166.561 215.047 166.347L216.607 164.786C217.955 165.562 219.388 166.157 220.887 166.56V168.771ZM217.054 162.388C216.603 162.096 216.009 162.16 215.629 162.539L214.24 163.928L210.812 160.497L212.2 159.11C212.58 158.73 212.643 158.136 212.351 157.685C211.317 156.085 210.59 154.331 210.191 152.471C210.078 151.946 209.614 151.571 209.076 151.571H207.117L207.12 146.721H209.076C209.614 146.721 210.078 146.346 210.191 145.82C210.59 143.961 211.317 142.207 212.351 140.607C212.643 140.156 212.58 139.562 212.2 139.182L210.821 137.803L214.252 134.376L215.629 135.753C216.009 136.133 216.603 136.196 217.054 135.904C218.654 134.87 220.408 134.143 222.267 133.744C222.792 133.631 223.168 133.167 223.168 132.629V130.682H228.018V132.629C228.018 133.167 228.393 133.631 228.918 133.744C230.777 134.143 232.532 134.87 234.131 135.904C234.583 136.196 235.176 136.133 235.556 135.753L236.934 134.376L240.364 137.803L238.986 139.182C238.606 139.562 238.543 140.156 238.835 140.607C239.869 142.207 240.595 143.961 240.995 145.82C241.107 146.346 241.572 146.721 242.11 146.721H244.069V151.571H242.11C241.572 151.571 241.108 151.946 240.995 152.471C240.596 154.33 239.869 156.085 238.835 157.684C238.543 158.136 238.606 158.73 238.986 159.11L240.373 160.497L236.945 163.928L235.557 162.539C235.176 162.159 234.583 162.096 234.131 162.388C232.531 163.422 230.777 164.149 228.918 164.548C228.393 164.661 228.018 165.125 228.018 165.663V167.631H223.168V165.663C223.168 165.126 222.792 164.661 222.267 164.548C220.408 164.149 218.654 163.422 217.054 162.388Z" fill="#8D9FCA"/>
<path d="M235.016 149.156C235.016 143.96 230.789 139.733 225.593 139.733C220.397 139.733 216.17 143.96 216.17 149.156C216.17 154.352 220.397 158.579 225.593 158.579C230.789 158.579 235.016 154.352 235.016 149.156ZM218.451 149.156C218.451 145.218 221.655 142.014 225.593 142.014C229.531 142.014 232.735 145.218 232.735 149.156C232.735 153.094 229.531 156.299 225.593 156.299C221.655 156.299 218.451 153.095 218.451 149.156Z" fill="#8D9FCA"/>
<path d="M236.094 124.275C236.394 124.275 236.688 124.153 236.9 123.941C237.112 123.728 237.234 123.434 237.234 123.133C237.234 122.835 237.112 122.54 236.9 122.327C236.688 122.115 236.394 121.993 236.094 121.993C235.792 121.993 235.5 122.115 235.288 122.327C235.075 122.54 234.953 122.833 234.953 123.133C234.953 123.434 235.075 123.728 235.288 123.941C235.5 124.153 235.792 124.275 236.094 124.275Z" fill="#8D9FCA"/>
<path d="M215.142 174.058C214.843 174.058 214.548 174.18 214.336 174.392C214.124 174.604 214.002 174.899 214.002 175.198C214.002 175.5 214.124 175.793 214.336 176.005C214.548 176.217 214.843 176.339 215.142 176.339C215.442 176.339 215.737 176.217 215.949 176.005C216.161 175.793 216.283 175.498 216.283 175.198C216.283 174.899 216.161 174.604 215.949 174.392C215.737 174.18 215.442 174.058 215.142 174.058Z" fill="#8D9FCA"/>
</g>
<defs>
<clipPath id="clip0_318_1764">
<rect width="58.3886" height="58.3886" fill="white" transform="translate(196.398 119.962)"/>
</clipPath>
</defs>
</svg>
