<svg width="23" height="20" viewBox="0 0 23 20" fill="none" xmlns="http://www.w3.org/2000/svg">
<path d="M22.6668 3.10942C21.8404 3.47192 20.9599 3.7122 20.0418 3.82887C20.9862 3.26498 21.7071 2.37887 22.046 1.31081C21.1654 1.83581 20.1932 2.20665 19.1571 2.41359C18.321 1.52331 17.1293 0.971924 15.8293 0.971924C13.3071 0.971924 11.2765 3.01915 11.2765 5.52887C11.2765 5.88998 11.3071 6.2372 11.3821 6.56776C7.59458 6.38303 4.24319 4.56776 1.9918 1.80248C1.59875 2.48442 1.36819 3.26498 1.36819 4.10526C1.36819 5.68303 2.18069 7.08165 3.3918 7.89137C2.65986 7.87748 1.9418 7.66498 1.33347 7.33026C1.33347 7.34415 1.33347 7.3622 1.33347 7.38026C1.33347 9.59414 2.91264 11.433 4.98347 11.8566C4.61264 11.958 4.20847 12.0066 3.78902 12.0066C3.49736 12.0066 3.20291 11.99 2.92652 11.9289C3.5168 13.733 5.1918 15.0594 7.18347 15.1025C5.63347 16.315 3.66541 17.0455 1.53486 17.0455C1.16125 17.0455 0.802913 17.0289 0.44458 16.983C2.46264 18.2844 4.8543 19.0275 7.43347 19.0275C15.8168 19.0275 20.4001 12.083 20.4001 6.06359C20.4001 5.8622 20.3932 5.66776 20.3835 5.4747C21.2876 4.83303 22.0474 4.03165 22.6668 3.10942Z" fill="#082471"/>
</svg>
