<svg width="33" height="36" viewBox="0 0 33 36" fill="none" xmlns="http://www.w3.org/2000/svg">
<path d="M29.4962 14.8812H29.4071V12.698C29.4071 5.6851 23.722 0 16.709 0C9.69604 0 4.01102 5.6851 4.01102 12.698V14.8812H3.4764C1.51599 14.8812 0.00115834 16.6188 0.00115834 18.6238V24.1931C-0.0482188 26.1363 1.48716 27.7517 3.43044 27.8011C3.44579 27.8015 3.46105 27.8018 3.4764 27.802H6.77341C7.2404 27.78 7.60122 27.3836 7.57922 26.9166C7.57845 26.8998 7.57718 26.883 7.57538 26.8663V15.9504C7.57538 15.4158 7.26352 14.8811 6.77341 14.8811H5.7932V12.6979C5.7932 6.66932 10.6804 1.7821 16.709 1.7821C22.7377 1.7821 27.6249 6.66932 27.6249 12.6979V14.8811H26.6447C26.1546 14.8811 25.8427 15.4157 25.8427 15.9504V26.8663C25.793 27.3311 26.1295 27.7483 26.5944 27.798C26.6111 27.7998 26.6279 27.8011 26.6447 27.8019H27.6694L27.5803 27.9355C26.2433 29.7123 24.1455 30.753 21.9219 30.7424C21.4351 28.3555 19.1054 26.8151 16.7185 27.302C14.6773 27.7182 13.2057 29.5058 13.1892 31.589C13.2136 34.0322 15.2013 36 17.6446 35.9998C18.8542 35.9802 20.0071 35.4839 20.8525 34.6186C21.423 34.0345 21.7968 33.2868 21.9219 32.48C24.7064 32.4906 27.3325 31.1858 29.006 28.9602L29.8526 27.7127C31.7684 27.579 32.9713 26.3761 32.9713 24.6384V19.0691C32.9714 17.1535 31.5457 14.8812 29.4962 14.8812ZM5.7932 26.0198H3.4764C2.517 25.9964 1.75818 25.1998 1.78155 24.2404C1.78197 24.2246 1.78257 24.2088 1.78334 24.193V18.6237C1.78334 17.599 2.49619 16.6633 3.4764 16.6633H5.7932V26.0198ZM19.5605 33.3712C19.0668 33.9066 18.373 34.2132 17.6447 34.2178C16.1951 34.1948 15.0188 33.0381 14.9715 31.5891C14.9709 30.1373 16.1473 28.9599 17.5991 28.9593C19.0509 28.9587 20.2283 30.1351 20.2289 31.5869C20.2289 31.5876 20.2289 31.5884 20.2289 31.5891C20.266 32.2506 20.0234 32.8973 19.5605 33.3712ZM31.1892 24.6386C31.1892 25.8415 30.0308 26.0198 29.4962 26.0198H27.6249V16.6634H29.4962C30.4764 16.6634 31.1892 18.0446 31.1892 19.0693V24.6386Z" fill="white"/>
</svg>
