<svg width="163" height="163" viewBox="0 0 163 163" fill="none" xmlns="http://www.w3.org/2000/svg">
<path d="M51.042 8.43153C52.0283 8.1242 53.1492 7.74341 54.2497 7.32647C55.3502 6.90953 56.4564 6.55022 57.3737 6.16491C60.4932 4.40337 58.7197 4.58303 55.7043 5.40448C54.1864 5.77396 52.4343 6.48807 50.8225 7.06094C49.239 7.71177 47.8388 8.34227 47.0459 8.67673L48.0107 8.81232C47.6714 9.42699 49.1011 9.11401 51.0408 8.43153" fill="#082471"/>
<path d="M3.87506 105.785C3.29281 103.417 2.96745 100.992 2.90459 98.5539C2.83673 96.4692 3.19641 95.1641 3.75516 95.9551C2.98829 89.1507 2.60712 87.5146 1.91943 85.7858C1.48745 84.7098 1.20838 83.5787 1.09035 82.4254C0.821763 79.9119 0.855178 77.3752 1.18989 74.8696C0.771653 76.4504 0.469234 78.0595 0.28503 79.6842C0.0882237 81.3689 0.03167 83.1034 0 84.8751C0.03167 85.7587 0.062209 86.6626 0.093879 87.5586C0.114238 88.0106 0.141384 88.4626 0.161743 88.9145L0.301996 90.2783C0.401531 91.1823 0.505589 92.0964 0.603993 93.0139C0.754802 93.9178 0.905612 94.8297 1.05642 95.7494C2.27119 103.076 4.64984 110.099 6.28311 116.602C8.49436 121.542 9.71478 121.323 8.77147 118.785C7.05563 115.19 5.5219 110.016 3.87958 105.791" fill="#082471"/>
<path d="M17.4774 133.682C17.6855 133.427 17.4774 132.671 17.0182 131.635C16.792 131.114 16.4911 130.525 16.1529 129.884C15.8453 129.228 15.4901 128.528 15.1101 127.805C14.3183 126.383 13.5718 124.783 12.7993 123.35C12.0641 121.896 11.4114 120.536 10.8595 119.547C10.7504 120.58 10.9008 121.624 11.2972 122.584C11.8428 124.194 12.5035 125.763 13.2743 127.279C14.583 129.795 16.18 132.349 17.3846 134.177C17.4265 133.999 17.6459 133.984 17.4785 133.682" fill="#082471"/>
<path d="M18.38 135.673C18.104 135.266 17.759 134.755 17.3835 134.182C17.336 134.36 17.4717 134.703 18.38 135.673Z" fill="#082471"/>
<path d="M16.9412 124.835C16.3983 123.771 15.8825 122.995 15.6891 123.605C15.8503 124.155 16.0545 124.692 16.2999 125.21C16.5815 125.762 16.9152 126.33 17.2805 126.898C17.6458 127.466 18.0259 128.044 18.4331 128.58C18.8403 129.117 19.2836 129.622 19.6852 130.097C19.2938 129.299 18.8719 128.528 18.5168 127.716C18.1774 127.189 17.5305 125.866 16.9412 124.835Z" fill="#082471"/>
<path d="M40.2402 153.034L38.0334 151.632L35.8844 150.131L36.416 152.299C37.6839 153.179 39.0446 153.919 40.3589 154.727C37.0155 152.496 38.3716 153.07 39.8477 153.689C40.409 153.973 41.0053 154.182 41.6212 154.31C41.8768 154.3 41.5737 154.018 40.2334 153.033" fill="#082471"/>
<path d="M48.5807 159.072C49.5656 159.524 50.5157 160.049 51.4231 160.641C52.0395 161.048 52.7152 161.357 53.4262 161.558C54.0732 161.616 54.7145 161.694 55.3615 161.73C54.1085 161.108 52.825 160.55 51.5159 160.058C50.5599 159.661 49.5772 159.332 48.5751 159.072" fill="#082471"/>
<path d="M42.5249 152.106C41.1676 151.304 41.7117 152.049 42.8427 152.935C43.8397 153.823 44.9893 154.524 46.236 155.004C44.5925 153.816 45.3967 153.352 42.5227 152.106" fill="#082471"/>
<path d="M112.051 5.25867L108.797 4.51292C107.712 4.2779 106.612 4.1118 105.527 3.91406C108.039 4.90234 110.637 5.65583 113.288 6.16486C112.877 5.86317 112.475 5.53437 112.052 5.26093" fill="#082471"/>
<path d="M73.0627 2.748C74.9086 2.54461 76.776 2.42484 78.6491 2.21128C79.5879 2.10733 80.5323 2.07569 81.4768 1.9853C82.4212 1.9175 83.3645 1.81355 84.3146 1.79773L87.1672 1.69378C88.1162 1.66214 89.0663 1.71412 90.0152 1.72994C91.8942 1.77324 93.7686 1.93324 95.6276 2.20902C97.1613 2.17739 98.6894 2.22484 100.244 2.23501C94.6964 0.829762 89.003 0.0818792 83.2808 0.00680966C77.1084 -0.082887 70.955 0.71394 65.0095 2.37286C62.3492 4.44174 67.3361 2.40902 73.0627 2.748Z" fill="#082471"/>
<path d="M162.792 62.2202C162.666 60.2293 162.339 58.1717 161.993 56.0147C161.566 53.8836 161.112 51.6487 160.439 49.4024C160.173 48.9696 159.934 48.6001 159.874 48.6465C157.597 43.7006 154.879 38.9693 151.753 34.51C148.5 29.8321 144.408 25.7971 139.683 22.6097C140.891 23.8634 142.021 25.1894 143.068 26.5802C143.543 27.2051 144.075 27.8876 144.794 28.7633C145.493 29.6593 146.354 30.7643 147.496 32.2332C146.282 31.4704 145.169 30.5565 144.185 29.5135C143.154 28.4834 142.183 27.3942 141.279 26.2514C139.336 23.7439 137.125 21.4552 134.686 19.4256C136.715 21.2696 136.182 21.2233 134.702 20.3838C133.951 19.977 132.996 19.3307 131.937 18.6957C130.879 18.0607 129.778 17.3567 128.803 16.7466C124.487 13.5627 119.788 10.9321 114.816 8.91621C109.112 6.58243 103.158 4.9094 97.0721 3.92987C95.7894 3.83609 93.7806 3.68468 91.5434 3.42932C90.4123 3.34571 89.2326 3.26209 88.0438 3.17396C86.8551 3.08582 85.6686 3.10616 84.5375 3.08017C83.4064 3.05419 82.3364 3.11181 81.3818 3.16379C80.5676 3.20284 79.7562 3.2862 78.9511 3.4135C77.6527 3.66886 77.0894 3.97846 77.7205 4.37732C76.8281 4.46094 76.0364 4.51856 75.3159 4.54907C74.5965 4.60105 73.9586 4.65302 73.3602 4.66884C72.176 4.7163 71.1954 4.63268 70.2724 4.62703C68.2098 4.46591 66.1355 4.54478 64.0911 4.86206C60.3099 6.33095 56.721 7.46087 53.1898 8.66085C51.4061 9.20773 49.6835 9.85404 47.9111 10.4224L45.3029 11.3919C44.4263 11.7049 43.5553 12.0382 42.7014 12.4178C39.1276 13.8441 35.7221 15.6595 32.5466 17.8313C29.0938 20.2069 26.0649 23.1448 23.5863 26.5226C23.6021 25.778 22.0627 26.9599 20.331 28.7633C18.579 30.5508 16.7003 32.979 15.6269 34.3179C15.0795 35.084 14.4381 35.9744 13.7335 36.9439C13.0288 37.9133 12.3615 39.0286 11.6331 40.1438C10.2459 42.3863 9.00695 44.717 7.92429 47.1211C5.937 51.6068 5.22782 55.0045 6.83959 53.5718C7.71974 52.3057 8.47721 50.9588 9.10174 49.5493C9.46142 48.7414 9.89349 47.9188 10.2905 47.0329C10.6875 46.1471 11.1037 45.2251 11.589 44.3211C13.2973 40.5399 15.6896 37.1062 18.6457 34.1925C19.4067 33.4253 20.2439 32.7374 21.1443 32.1395C21.6137 31.8581 21.7279 31.9202 21.5967 32.2389C21.2947 32.8592 20.0584 34.5631 18.5971 36.5947C17.9037 37.6478 17.1267 38.7619 16.4277 39.8873C15.7547 41.0342 15.0874 42.1539 14.5558 43.1697C13.5548 45.2488 12.9236 46.8115 13.3195 47.0826C13.6068 46.1866 14.264 45.7267 15.093 44.8318C16.1468 43.6986 17.0626 42.4447 17.8212 41.0963C15.6303 45.1448 16.5532 44.5821 17.8528 43.4149C16.1192 46.1518 14.5605 48.9955 13.186 51.9289C11.7835 53.0644 10.7395 53.539 10.338 52.8328C8.30707 55.91 6.76562 59.2828 5.76847 62.8315C5.26082 64.5774 4.85148 66.3504 4.54239 68.1421C4.3863 69.0381 4.28676 69.95 4.16687 70.8539C4.04698 71.7578 3.93274 72.6719 3.88636 73.5894C3.83999 74.5069 3.76081 75.4391 3.69295 76.3668C3.67259 77.2944 3.6511 78.2323 3.62509 79.1701C3.61491 79.6447 3.59907 80.1136 3.58889 80.587C3.57871 81.0605 3.60473 81.535 3.60925 82.0152C3.61943 82.9689 3.62509 83.9361 3.62961 84.9022C3.73367 88.7948 3.93726 92.8218 4.14085 97.1629C4.2189 98.1584 4.36707 99.4296 4.56388 100.779C4.82515 102.118 5.12941 103.535 5.46873 104.827C5.79666 105.939 6.18327 107.033 6.62695 108.104C7.00247 108.948 7.38816 109.453 7.63926 109.479C8.51584 109.297 7.75237 106.488 6.90406 102.763C6.71065 101.831 6.43467 100.856 6.25709 99.8341C6.07951 98.8126 5.88158 97.7709 5.69156 96.7336C5.38342 94.773 5.20921 92.7937 5.17013 90.8094C6.27632 94.6511 6.94818 99.7719 8.26361 105.175C9.4629 110.643 11.4703 115.903 14.2198 120.781C13.8907 119.739 13.5944 118.686 13.315 117.634C15.8957 123.089 19.108 128.224 22.8861 132.932C24.1817 134.878 25.6387 136.711 27.2419 138.413C26.3811 137.866 25.4842 137.345 24.6596 136.741C25.5724 137.846 26.5734 138.955 27.4817 140.112C28.4408 141.222 29.3853 142.306 30.272 143.27C31.064 144.094 31.9092 144.866 32.8022 145.579C33.3542 146.055 34.0417 146.347 34.768 146.413C33.6287 145.419 32.5422 144.367 31.5128 143.26C30.5797 142.364 29.7291 141.416 28.2791 140.223C28.123 139.432 29.9429 140.958 30.7878 141.416C34.1668 144.538 37.8164 147.354 41.6936 149.831C42.3349 150.336 42.9197 150.836 43.4309 151.3C44.1661 151.571 45.1524 152.03 46.253 152.555C56.9432 158.38 68.8569 161.608 81.0286 161.977C93.2004 162.345 105.288 159.844 116.312 154.676C117.181 154.391 118.084 154.223 118.998 154.175C122.677 151.917 126.213 149.434 129.586 146.74C139.29 139.547 147.172 130.183 152.599 119.398C158.027 108.613 160.849 96.7078 160.84 84.6367C160.84 83.4231 160.803 82.2186 160.746 81.0209C160.819 80.8492 160.892 80.6819 160.965 80.4899C161.305 79.5 161.644 78.3645 161.956 77.0877C162.268 75.8109 162.457 74.4041 162.675 72.8572C162.843 71.3206 162.947 69.6528 162.993 67.8709C162.977 66.1048 162.993 64.1975 162.79 62.2281" fill="#082471"/>
</svg>
