<svg width="44" height="44" viewBox="0 0 44 44" fill="none" xmlns="http://www.w3.org/2000/svg">
<g clip-path="url(#clip0_259_396)">
<path d="M0.859375 29.6587H40.5423V32.4817C40.5423 33.9071 39.3868 35.0627 37.9613 35.0627H3.44042C2.01498 35.0627 0.859375 33.9072 0.859375 32.4817V29.6587Z" fill="#F9556D"/>
<path d="M0.859375 8.76855C0.859375 7.34302 2.01489 6.1875 3.44042 6.1875H37.9613C39.3868 6.1875 40.5424 7.34302 40.5424 8.76855V29.6586H0.859375V8.76855Z" fill="white"/>
<path d="M12.7983 43.1406H28.6108V41.9406C28.6108 40.7049 27.6091 39.7031 26.3734 39.7031H15.0358C13.8001 39.7031 12.7983 40.7049 12.7983 41.9406V43.1406Z" fill="#F9556D"/>
<path d="M23.4546 35.0625H17.9546V39.7031H23.4546V35.0625Z" fill="#C9F3FF"/>
<path d="M43.1404 13.0165V9.32757L43.1403 9.32749H41.1526C40.9352 8.33963 40.5467 7.41598 40.0192 6.58943C40.0191 6.58934 40.0191 6.58917 40.0192 6.58909L41.4241 5.18418V5.18409L38.8157 2.57563H38.8156L37.4107 3.98054C37.4106 3.98063 37.4104 3.98063 37.4103 3.98054C36.5839 3.45297 35.6602 3.06462 34.6723 2.8472V0.859461L34.6722 0.859375H30.9832C30.9832 0.859375 30.9832 0.859375 30.9832 0.859461V2.84952C29.9967 3.06797 29.0744 3.45692 28.2492 3.98466C28.2491 3.98475 28.249 3.98475 28.2489 3.98466L26.8399 2.57572H26.8399L24.2314 5.18418V5.18427L25.6428 6.5957C25.6429 6.59579 25.6429 6.59596 25.6428 6.59605C25.1174 7.42088 24.7304 8.34221 24.5135 9.32749H22.5151L22.5154 9.32757V13.0165L22.5155 13.0166H24.5162C24.734 14.0005 25.1216 14.9205 25.6472 15.744C25.6473 15.7441 25.6473 15.7443 25.6472 15.7444L24.2317 17.1599V17.16L26.8401 19.7685H26.8402L28.2558 18.3529C28.2558 18.3528 28.256 18.3528 28.256 18.3528C29.0796 18.8785 29.9996 19.2661 30.9835 19.4839V21.4846V21.4847H34.6725C34.6725 21.4847 34.6725 21.4847 34.6725 21.4846V19.4862C35.6578 19.2694 36.5792 18.8824 37.404 18.3569C37.4041 18.3569 37.4042 18.3569 37.4043 18.3569L38.8158 19.7684H38.8158L41.4243 17.1599V17.1598L40.0154 15.7509C40.0153 15.7508 40.0153 15.7506 40.0154 15.7505C40.5431 14.9254 40.9321 14.0031 41.1505 13.0166L43.1404 13.0165Z" fill="#F9556D"/>
<path d="M32.8281 15.6406C35.2961 15.6406 37.2969 13.6399 37.2969 11.1719C37.2969 8.70385 35.2961 6.70312 32.8281 6.70312C30.3601 6.70312 28.3594 8.70385 28.3594 11.1719C28.3594 13.6399 30.3601 15.6406 32.8281 15.6406Z" fill="white"/>
<path d="M18.7081 16.949C18.7081 16.6238 18.6745 16.3063 18.6108 15.9999L19.9424 15.2311L18.4914 12.718L17.1589 13.4873C16.6878 13.0659 16.1301 12.7394 15.5159 12.5374V11H12.614V12.5374C11.9997 12.7394 11.4421 13.0659 10.971 13.4873L9.63847 12.718L8.1875 15.2311L9.5191 15.9999C9.45542 16.3064 9.42182 16.6238 9.42182 16.949C9.42182 17.2743 9.45542 17.5917 9.5191 17.8981L8.1875 18.6669L9.63847 21.1801L10.971 20.4108C11.4421 20.8321 11.9998 21.1587 12.614 21.3606V22.898H15.5159V21.3606C16.1302 21.1587 16.6878 20.8322 17.1589 20.4108L18.4914 21.1801L19.9424 18.6669L18.6108 17.8981C18.6745 17.5917 18.7081 17.2743 18.7081 16.949Z" fill="white"/>
<path d="M18.7081 16.949C18.7081 16.6238 18.6745 16.3063 18.6108 15.9999L19.9424 15.2311L18.4914 12.718L17.1589 13.4873C16.6878 13.0659 16.1301 12.7394 15.5159 12.5374V11H12.614V12.5374C11.9997 12.7394 11.4421 13.0659 10.971 13.4873L9.63847 12.718L8.1875 15.2311L9.5191 15.9999C9.45542 16.3064 9.42182 16.6238 9.42182 16.949C9.42182 17.2743 9.45542 17.5917 9.5191 17.8981L8.1875 18.6669L9.63847 21.1801L10.971 20.4108C11.4421 20.8321 11.9998 21.1587 12.614 21.3606V22.898H15.5159V21.3606C16.1302 21.1587 16.6878 20.8322 17.1589 20.4108L18.4914 21.1801L19.9424 18.6669L18.6108 17.8981C18.6745 17.5917 18.7081 17.2743 18.7081 16.949Z" fill="#F9556D"/>
<path d="M20.7051 31.3662C20.4791 31.3662 20.2573 31.4581 20.0975 31.618C19.9377 31.7779 19.8457 31.9987 19.8457 32.2256C19.8457 32.4516 19.9377 32.6733 20.0975 32.8331C20.2573 32.9929 20.4791 33.085 20.7051 33.085C20.9311 33.085 21.1528 32.993 21.3127 32.8331C21.4724 32.6724 21.5645 32.4516 21.5645 32.2256C21.5645 31.9986 21.4725 31.7779 21.3127 31.618C21.1528 31.4582 20.9311 31.3662 20.7051 31.3662Z" fill="#082471"/>
<path d="M37.1055 28.7993C36.8786 28.7993 36.6569 28.8912 36.497 29.0511C36.3373 29.211 36.2461 29.4318 36.2461 29.6587C36.2461 29.8847 36.3373 30.1064 36.497 30.2662C36.6569 30.426 36.8786 30.5181 37.1055 30.5181C37.3315 30.5181 37.5523 30.4261 37.713 30.2662C37.8729 30.1055 37.9648 29.8847 37.9648 29.6587C37.9648 29.4327 37.873 29.211 37.713 29.0511C37.5523 28.8912 37.3314 28.7993 37.1055 28.7993Z" fill="#082471"/>
<path d="M11.6821 24.6641C11.4561 24.6641 11.2344 24.7559 11.0746 24.9159C10.9148 25.0757 10.8228 25.2974 10.8228 25.5234C10.8228 25.7495 10.9147 25.9712 11.0746 26.1309C11.2344 26.2908 11.4561 26.3828 11.6821 26.3828C11.9081 26.3828 12.1299 26.2909 12.2897 26.1309C12.4496 25.9712 12.5415 25.7495 12.5415 25.5234C12.5415 25.2974 12.4496 25.0757 12.2897 24.9159C12.1298 24.756 11.9081 24.6641 11.6821 24.6641Z" fill="#082471"/>
<path d="M43.9999 9.3274C43.9999 8.85277 43.6151 8.46802 43.1405 8.46802H41.8172C41.6365 7.86448 41.3955 7.28234 41.0966 6.72736L42.0321 5.79176C42.3677 5.45617 42.3677 4.91202 42.0321 4.57643L39.4236 1.96797C39.0879 1.63238 38.5439 1.63238 38.2082 1.96797L37.2726 2.90348C36.7176 2.60459 36.1356 2.36363 35.532 2.18281V0.859375C35.532 0.384828 35.1471 0 34.6726 0H30.9836C30.509 0 30.1242 0.384742 30.1242 0.859375V2.18599C29.5219 2.36715 28.941 2.60829 28.3872 2.90709L27.448 1.96788C27.1123 1.6323 26.5684 1.6323 26.2326 1.96788L23.624 4.57643C23.4195 4.78105 23.3404 5.06301 23.3851 5.32804H3.44034C1.54335 5.32812 0 6.87148 0 8.76855V32.4815C0 34.3785 1.54335 35.9219 3.44034 35.9219H17.0954V38.8438H15.036C13.3284 38.8438 11.9391 40.233 11.9391 41.9406V43.1406C11.9391 43.6152 12.324 44 12.7985 44H28.611C29.0855 44 29.4704 43.6152 29.4704 43.1406V41.9406C29.4704 40.233 28.0812 38.8438 26.3736 38.8438H24.3141V35.9219H37.9613C39.8584 35.9219 41.4018 34.3785 41.4018 32.4815V18.3976L42.0321 17.7672C42.1933 17.6061 42.2838 17.3875 42.2838 17.1596C42.2838 16.9317 42.1933 16.713 42.0321 16.5519L41.0929 15.6128C41.3918 15.0589 41.6329 14.4781 41.8141 13.8758H43.1407C43.3686 13.8758 43.5872 13.7852 43.7484 13.6241C43.9095 13.463 44.0001 13.2443 44.0001 13.0164L43.9999 9.3274ZM27.7516 41.9406V42.2812H13.6579V41.9406C13.6579 41.1806 14.276 40.5625 15.036 40.5625H26.3736C27.1334 40.5625 27.7516 41.1806 27.7516 41.9406ZM22.5954 38.8438H18.8141V35.9219H22.5954V38.8438ZM39.683 32.4815C39.683 33.4308 38.9107 34.2031 37.9613 34.2031H3.44034C2.49107 34.2031 1.71875 33.4308 1.71875 32.4815V30.5179H33.6678C34.1424 30.5179 34.5272 30.133 34.5272 29.6585C34.5272 29.1839 34.1424 28.7991 33.6678 28.7991H1.71875V26.3828H8.27862C8.75316 26.3828 9.13799 25.998 9.13799 25.5234C9.13799 25.0489 8.75316 24.6641 8.27862 24.6641H1.71875V8.76855C1.71875 7.81919 2.49107 7.04688 3.44034 7.04688H24.407C24.1828 7.50466 23.9962 7.97921 23.8497 8.46802H22.5157C22.2878 8.46802 22.0692 8.5586 21.908 8.71973C21.7469 8.88087 21.6562 9.09949 21.6562 9.3274L21.6563 13.0164C21.6563 13.491 22.0412 13.8757 22.5157 13.8757H23.8529C24.0334 14.4755 24.2733 15.0539 24.5704 15.6057L23.6242 16.552C23.2886 16.8876 23.2886 17.4317 23.6242 17.7673L26.2328 20.3758C26.5684 20.7114 27.1124 20.7114 27.4482 20.3758L28.3944 19.4296C28.9462 19.7268 29.5247 19.9667 30.1244 20.1471L30.1243 21.4844C30.1243 21.9589 30.5091 22.3438 30.9836 22.3438L34.6727 22.3437C35.1472 22.3437 35.5321 21.9589 35.5321 21.4843V20.1502C36.133 19.9702 36.7128 19.7305 37.2658 19.4333L38.2082 20.3758C38.3695 20.5369 38.588 20.6275 38.8159 20.6275C39.0438 20.6275 39.2624 20.5369 39.4236 20.3758L39.683 20.1163V32.4815ZM42.2812 12.157H41.1506C40.7476 12.157 40.3987 12.437 40.3115 12.8306C40.1179 13.7048 39.7749 14.5312 39.2919 15.2865C39.0743 15.6258 39.1218 16.0723 39.4078 16.3583L40.2091 17.1597L38.8159 18.5528L38.0121 17.749C37.7505 17.4875 37.3508 17.4225 37.0198 17.588C36.9932 17.6012 36.9674 17.6159 36.9424 17.6318C36.1872 18.113 35.3614 18.4543 34.4879 18.6466C34.0939 18.7333 33.8132 19.0824 33.8132 19.4859V20.625H31.8429V19.4837C31.8429 19.0806 31.5629 18.7317 31.1694 18.6446C30.2973 18.4515 29.4726 18.1094 28.7184 17.6281C28.5804 17.5399 28.4199 17.4931 28.2561 17.4931C28.0282 17.4931 27.8094 17.5838 27.6482 17.7449L26.8403 18.5528L25.4472 17.1596L26.255 16.3518C26.541 16.0658 26.5885 15.6194 26.371 15.28C25.89 14.5263 25.5484 13.7022 25.3554 12.8306C25.2683 12.437 24.9194 12.157 24.5163 12.157H23.375L23.3751 10.1868H24.514C24.9174 10.1868 25.2666 9.9061 25.3534 9.51208C25.5454 8.63955 25.8864 7.81455 26.3669 7.05959C26.5843 6.72031 26.537 6.27387 26.251 5.98795L25.4471 5.18409L26.8403 3.79096L27.6416 4.59224C27.9363 4.88684 28.3918 4.92267 28.7256 4.70035C29.4775 4.22151 30.2996 3.88111 31.1694 3.68861C31.5628 3.60147 31.8429 3.25256 31.8429 2.8496L31.843 1.71875H33.8133V2.84711C33.8133 3.2505 34.094 3.59966 34.488 3.68637C35.3638 3.87922 36.1916 4.22185 36.9483 4.70491C36.9736 4.72106 36.9997 4.73576 37.0264 4.74916C37.357 4.91451 37.7572 4.84971 38.0187 4.58812L38.8159 3.79087L40.209 5.18409L39.4119 5.98125C39.3718 6.0213 39.3359 6.06512 39.3045 6.11222C39.1149 6.39667 39.1121 6.7662 39.2961 7.05315C39.7787 7.80948 40.121 8.63672 40.3135 9.51191C40.4002 9.90593 40.7493 10.1866 41.1529 10.1866H42.2813V12.157H42.2812Z" fill="#082471"/>
<path d="M32.8281 5.84375C29.8902 5.84375 27.5 8.23393 27.5 11.1719C27.5 14.1098 29.8902 16.5 32.8281 16.5C35.7661 16.5 38.1562 14.1098 38.1562 11.1719C38.1562 8.23393 35.7661 5.84375 32.8281 5.84375ZM32.8281 14.7812C30.8379 14.7812 29.2188 13.1621 29.2188 11.1719C29.2188 9.18165 30.8379 7.5625 32.8281 7.5625C34.8184 7.5625 36.4375 9.18165 36.4375 11.1719C36.4375 13.1621 34.8184 14.7812 32.8281 14.7812Z" fill="#082471"/>
<path d="M14.0654 16.0894C13.8385 16.0894 13.6177 16.1813 13.4579 16.3412C13.2971 16.501 13.2061 16.7227 13.2061 16.9496C13.2061 17.1756 13.2971 17.3973 13.4579 17.5572C13.6177 17.717 13.8386 17.8081 14.0654 17.8081C14.2914 17.8081 14.5132 17.717 14.673 17.5572C14.8328 17.3973 14.9248 17.1756 14.9248 16.9496C14.9248 16.7227 14.8329 16.501 14.673 16.3412C14.5132 16.1813 14.2914 16.0894 14.0654 16.0894Z" fill="#082471"/>
<path d="M20.7728 15.4535C20.8318 15.2333 20.8009 14.9988 20.6869 14.8014L19.2359 12.2882C18.9986 11.8773 18.473 11.7363 18.062 11.9737L17.2354 12.4509C16.9639 12.2589 16.6767 12.0928 16.3755 11.9536V11C16.3755 10.5254 15.9907 10.1406 15.5161 10.1406H12.6141C12.1396 10.1406 11.7547 10.5254 11.7547 11V11.9536C11.4535 12.0929 11.1663 12.2589 10.8949 12.4509L10.0683 11.9737C9.87091 11.8597 9.6363 11.829 9.41621 11.8878C9.19596 11.9469 9.00835 12.0908 8.8944 12.2882L7.44343 14.8014C7.20607 15.2124 7.34692 15.7379 7.75796 15.9753L8.58485 16.4527C8.57007 16.6176 8.5626 16.7833 8.5626 16.9489C8.5626 17.1145 8.57007 17.2803 8.58485 17.4451L7.75796 17.9226C7.34692 18.1599 7.20607 18.6855 7.44343 19.0965L8.8944 21.6097C9.00835 21.8071 9.19604 21.9511 9.41621 22.0101C9.6363 22.069 9.87091 22.0382 10.0683 21.9242L10.8949 21.447C11.1663 21.639 11.4535 21.8051 11.7547 21.9442V22.8979C11.7547 23.3724 12.1396 23.7572 12.6141 23.7572H15.5161C15.9907 23.7572 16.3755 23.3724 16.3755 22.8979V21.9442C16.6767 21.805 16.9639 21.639 17.2354 21.447L18.062 21.9242C18.4731 22.1615 18.9985 22.0207 19.2359 21.6097L20.6869 19.0965C20.8009 18.8991 20.8318 18.6646 20.7728 18.4444C20.7137 18.2243 20.5698 18.0366 20.3724 17.9226L19.5454 17.4453C19.5603 17.2804 19.5678 17.1146 19.5678 16.9491C19.5678 16.7836 19.5603 16.6178 19.5454 16.4528L20.3724 15.9754C20.5697 15.8613 20.7137 15.6736 20.7728 15.4535ZM17.7696 16.1746C17.8222 16.4281 17.8489 16.6886 17.8489 16.949C17.8489 17.2094 17.8222 17.47 17.7696 17.7235C17.6942 18.0866 17.8603 18.4571 18.1813 18.6424L18.7687 18.9815L18.177 20.0063L17.5887 19.6666C17.2674 19.4811 16.863 19.5228 16.5862 19.7704C16.1943 20.1208 15.744 20.3812 15.2477 20.5443C14.895 20.6602 14.6567 20.9895 14.6567 21.3607V22.0388H13.4734V21.3607C13.4734 20.9895 13.2351 20.6602 12.8824 20.5443C12.3861 20.3812 11.9357 20.1207 11.5439 19.7704C11.2672 19.5228 10.8629 19.481 10.5414 19.6666L9.95306 20.0063L9.36147 18.9815L9.94877 18.6424C10.2698 18.4571 10.4359 18.0866 10.3605 17.7235C10.308 17.4702 10.2813 17.2097 10.2813 16.949C10.2813 16.6884 10.308 16.4279 10.3605 16.1746C10.4359 15.8115 10.2699 15.4411 9.94877 15.2556L9.36147 14.9165L9.95306 13.8919L10.5414 14.2315C10.8627 14.4171 11.2671 14.3754 11.5439 14.1278C11.9358 13.7773 12.3861 13.5169 12.8824 13.3538C13.2351 13.2379 13.4734 12.9087 13.4734 12.5374V11.8594H14.6567V12.5374C14.6567 12.9087 14.895 13.2379 15.2477 13.3538C15.744 13.5169 16.1944 13.7774 16.5862 14.1278C16.8628 14.3752 17.2671 14.417 17.5887 14.2315L18.177 13.8918L18.7687 14.9165L18.1813 15.2556C17.8603 15.4411 17.6942 15.8116 17.7696 16.1746Z" fill="#082471"/>
</g>
<defs>
<clipPath id="clip0_259_396">
<rect width="44" height="44" fill="white"/>
</clipPath>
</defs>
</svg>
