<svg width="13" height="23" viewBox="0 0 13 23" fill="none" xmlns="http://www.w3.org/2000/svg">
<path d="M3.71363 12.9235C3.62829 12.9235 1.75096 12.9235 0.897626 12.9235C0.442515 12.9235 0.300293 12.7529 0.300293 12.3262C0.300293 11.1884 0.300293 10.0222 0.300293 8.88443C0.300293 8.42932 0.47096 8.28709 0.897626 8.28709H3.71363C3.71363 8.20176 3.71363 6.55198 3.71363 5.78398C3.71363 4.6462 3.91274 3.56532 4.48163 2.56976C5.07896 1.54576 5.93229 0.863093 7.01318 0.46487C7.72429 0.20887 8.4354 0.0950928 9.2034 0.0950928H11.991C12.3892 0.0950928 12.5598 0.265759 12.5598 0.663982V3.90665C12.5598 4.30487 12.3892 4.47554 11.991 4.47554C11.223 4.47554 10.455 4.47554 9.68696 4.50398C8.91896 4.50398 8.52074 4.87376 8.52074 5.6702C8.49229 6.52354 8.52074 7.34843 8.52074 8.2302H11.8203C12.2754 8.2302 12.4461 8.40087 12.4461 8.85598V12.2978C12.4461 12.7529 12.3038 12.8951 11.8203 12.8951C10.7963 12.8951 8.60607 12.8951 8.52074 12.8951V22.168C8.52074 22.6515 8.37852 22.8222 7.86652 22.8222C6.67185 22.8222 5.50563 22.8222 4.31096 22.8222C3.88429 22.8222 3.71363 22.6515 3.71363 22.2249C3.71363 19.2382 3.71363 13.0089 3.71363 12.9235Z" fill="white"/>
</svg>
