<svg width="18" height="25" viewBox="0 0 18 25" fill="none" xmlns="http://www.w3.org/2000/svg">
<path d="M8.17964 24.6738C8.31548 24.8776 8.54419 25 8.78906 25C9.03394 25 9.26265 24.8776 9.39849 24.6738C11.1318 22.0739 13.6849 18.8629 15.464 15.5972C16.8866 12.9861 17.5781 10.7591 17.5781 8.78906C17.5781 3.94277 13.6354 0 8.78906 0C3.94277 0 0 3.94277 0 8.78906C0 10.7591 0.691553 12.9861 2.11411 15.5972C3.89189 18.8604 6.44985 22.0792 8.17964 24.6738ZM8.78906 1.46484C12.8276 1.46484 16.1133 4.75049 16.1133 8.78906C16.1133 10.508 15.4801 12.5058 14.1777 14.8964C12.6441 17.7113 10.4558 20.5667 8.78906 22.9672C7.12261 20.5671 4.93408 17.7115 3.40044 14.8964C2.098 12.5058 1.46484 10.508 1.46484 8.78906C1.46484 4.75049 4.75049 1.46484 8.78906 1.46484Z" fill="#F9556D"/>
<path d="M8.78906 13.1836C11.2122 13.1836 13.1836 11.2122 13.1836 8.78906C13.1836 6.36592 11.2122 4.39453 8.78906 4.39453C6.36592 4.39453 4.39453 6.36592 4.39453 8.78906C4.39453 11.2122 6.36592 13.1836 8.78906 13.1836ZM8.78906 5.85938C10.4045 5.85938 11.7188 7.17363 11.7188 8.78906C11.7188 10.4045 10.4045 11.7188 8.78906 11.7188C7.17363 11.7188 5.85938 10.4045 5.85938 8.78906C5.85938 7.17363 7.17363 5.85938 8.78906 5.85938Z" fill="#F9556D"/>
</svg>
