<svg width="34" height="49" viewBox="0 0 34 49" fill="none" xmlns="http://www.w3.org/2000/svg">
<path d="M15.8212 47.7247C16.084 48.1188 16.5264 48.3555 17 48.3555C17.4736 48.3555 17.916 48.1189 18.1788 47.7247C21.5314 42.6958 26.4697 36.485 29.9108 30.1685C32.6624 25.118 34 20.8105 34 17C34 7.6262 26.3738 0 17 0C7.6262 0 0 7.6262 0 17C0 20.8105 1.33762 25.118 4.08916 30.1685C7.52779 36.4802 12.4755 42.7062 15.8212 47.7247ZM17 2.83333C24.8115 2.83333 31.1667 9.1885 31.1667 17C31.1667 20.3248 29.942 24.1889 27.4228 28.813C24.4566 34.2576 20.2238 39.7807 17 44.4237C13.7767 39.7813 9.54361 34.2579 6.57721 28.813C4.058 24.1889 2.83333 20.3248 2.83333 17C2.83333 9.1885 9.1885 2.83333 17 2.83333Z" fill="#082471"/>
<path d="M17 25.4999C21.6869 25.4999 25.5 21.6868 25.5 16.9999C25.5 12.313 21.6869 8.49988 17 8.49988C12.3131 8.49988 8.5 12.313 8.5 16.9999C8.5 21.6868 12.3131 25.4999 17 25.4999ZM17 11.3332C20.1246 11.3332 22.6667 13.8753 22.6667 16.9999C22.6667 20.1245 20.1246 22.6665 17 22.6665C13.8754 22.6665 11.3333 20.1245 11.3333 16.9999C11.3333 13.8753 13.8754 11.3332 17 11.3332Z" fill="#082471"/>
</svg>
