<svg width="50" height="45" viewBox="0 0 50 45" fill="none" xmlns="http://www.w3.org/2000/svg">
<rect width="50" height="45" fill="#F9556D"/>
<path d="M44.6609 15.8961C44.321 14.7753 43.7456 13.8328 42.9348 13.0176C42.1241 12.228 41.1041 11.6166 39.8749 11.1835C38.6457 10.7505 37.2334 10.5212 35.6119 10.5212C34.2519 10.5212 33.0488 10.6486 31.9504 10.9288C30.8519 11.1835 29.8319 11.5911 28.9166 12.1006C27.9751 12.6101 27.0858 13.2724 26.2489 14.0111C25.4643 14.6989 24.5751 15.4121 23.7644 16.3037L23.6074 16.482C23.5813 16.5075 23.5813 16.533 23.5551 16.533L17.9583 22.9778L22.4044 4C19.1613 4.56042 16.1537 5.80862 13.5384 7.59177L7 35.5363L13.4076 42.516L16.5198 29.0405L22.1428 40.1215H28.9689L32.6304 43L31.2704 40.1215L23.8951 25.0921L28.3412 20.2521C29.492 19.0039 30.355 17.8831 31.2704 17.2972C32.2381 16.6604 33.3365 16.3292 34.5134 16.3292C35.7165 16.3292 36.658 16.6604 37.338 17.2972C38.018 17.934 38.2795 18.8766 38.1226 20.1502C38.0441 20.7616 37.8872 21.322 37.6518 21.857C37.4164 22.3664 37.0503 22.9014 36.5795 23.4363C36.1088 23.9713 35.5072 24.5572 34.7749 25.143C34.0426 25.7544 33.1534 26.4167 32.1334 27.1809L29.0735 29.4226L25.5951 25.8308L28.472 31.6897L32.6304 40.147H42.9087L43.5363 34.7211H30.3812L35.7165 31.0274C37.1549 30.034 38.4103 29.0914 39.5087 28.2508C40.6072 27.4102 41.5225 26.5441 42.281 25.678C43.0133 24.8119 43.6148 23.8948 44.0594 22.9268C44.504 21.9589 44.7917 20.8635 44.9225 19.6408C45.0794 18.2652 45.0009 17.017 44.6609 15.8961Z" fill="white"/>
</svg>
