<svg width="25" height="20" viewBox="0 0 25 20" fill="none" xmlns="http://www.w3.org/2000/svg">
<path d="M21.5556 0.9H21.5555L3.88203 0.9L3.88192 0.9C3.09133 0.900856 2.33336 1.2153 1.77433 1.77433C1.2153 2.33336 0.900856 3.09133 0.9 3.88192V3.88203L0.9 16.868L0.9 16.8681C0.900856 17.6587 1.2153 18.4166 1.77433 18.9757C2.33336 19.5347 3.09133 19.8491 3.88192 19.85H3.88203H21.5555H21.5556C22.3462 19.8491 23.1041 19.5347 23.6632 18.9757C24.2222 18.4166 24.5366 17.6587 24.5375 16.8681V16.868V3.88203V3.88192C24.5366 3.09133 24.2222 2.33336 23.6632 1.77433C23.1041 1.2153 22.3462 0.900856 21.5556 0.9ZM3.88215 2.6625H21.5554C21.5554 2.6625 21.5554 2.6625 21.5554 2.6625C21.8788 2.66291 22.1887 2.79153 22.4174 3.02015C22.646 3.2488 22.7746 3.5588 22.775 3.88215V4.42509L12.7188 10.8897L2.6625 4.42509L2.6625 3.88215C2.6625 3.88212 2.6625 3.88208 2.6625 3.88205C2.66291 3.55873 2.79153 3.24877 3.02015 3.02015C3.24877 2.79153 3.55873 2.66291 3.88205 2.6625C3.88208 2.6625 3.88212 2.6625 3.88215 2.6625ZM3.02015 17.7299C2.79153 17.5012 2.66291 17.1913 2.6625 16.8679C2.6625 16.8679 2.6625 16.8679 2.6625 16.8679L2.6625 6.52066L12.242 12.6786C12.3842 12.7701 12.5497 12.8187 12.7188 12.8187C12.8878 12.8187 13.0533 12.7701 13.1955 12.6786L22.775 6.52066V16.8679C22.7746 17.1912 22.646 17.5012 22.4174 17.7299C22.1887 17.9585 21.8787 18.0871 21.5554 18.0875H3.88215C3.5588 18.0871 3.2488 17.9585 3.02015 17.7299Z" fill="#F9556D" stroke="#F9556D" stroke-width="0.2"/>
</svg>
