<svg width="24" height="19" viewBox="0 0 24 19" fill="none" xmlns="http://www.w3.org/2000/svg">
<path d="M20.5555 0H2.88203C2.11792 0.000827182 1.38535 0.304735 0.845041 0.845041C0.304734 1.38535 0.000827182 2.11792 0 2.88203V15.868C0.000827182 16.6321 0.304734 17.3647 0.845041 17.905C1.38535 18.4453 2.11792 18.7492 2.88203 18.75H20.5555C21.3196 18.7492 22.0522 18.4453 22.5925 17.905C23.1328 17.3647 23.4367 16.6321 23.4375 15.868V2.88203C23.4367 2.11792 23.1328 1.38535 22.5925 0.845041C22.0522 0.304735 21.3196 0.000827182 20.5555 0ZM2.88203 1.5625H20.5555C20.9053 1.56291 21.2407 1.70207 21.4881 1.94944C21.7354 2.19681 21.8746 2.5322 21.875 2.88203V3.47969L11.7188 10.0086L1.5625 3.47969V2.88203C1.56291 2.5322 1.70207 2.19681 1.94944 1.94944C2.19681 1.70207 2.5322 1.56291 2.88203 1.5625ZM20.5555 17.1875H2.88203C2.5322 17.1871 2.19681 17.0479 1.94944 16.8006C1.70207 16.5532 1.56291 16.2178 1.5625 15.868V5.3375L11.2961 11.5945C11.4221 11.6756 11.5689 11.7187 11.7188 11.7187C11.8686 11.7187 12.0154 11.6756 12.1414 11.5945L21.875 5.3375V15.868C21.8746 16.2178 21.7354 16.5532 21.4881 16.8006C21.2407 17.0479 20.9053 17.1871 20.5555 17.1875Z" fill="#F9556D"/>
</svg>
