<svg width="149" height="161" viewBox="0 0 149 161" fill="none" xmlns="http://www.w3.org/2000/svg">
<path d="M70.3801 64.09L71.3151 62.475L90.6951 28.815L74.1201 0L37.0601 64.09L74.1201 128.265L90.6951 99.45L71.3151 65.79L70.3801 64.09Z" fill="#666666" fill-opacity="0.5"/>
<path d="M50.915 94.605L37.06 118.49L5.695 64.09L37.06 9.775L50.915 33.66L53.72 28.815L37.06 0L0 64.09L37.06 128.265L53.72 99.45L50.915 94.605Z" fill="#666666" fill-opacity="0.5"/>
<path d="M110.245 56.2701H110.33V45.9851L86.9551 86.4451L89.9301 91.5451L110.245 56.2701Z" fill="#666666" fill-opacity="0.5"/>
<path d="M110.245 42.16H110.33V31.79L82.8752 79.305L85.8502 84.4901L110.245 42.16Z" fill="#666666" fill-opacity="0.5"/>
<path d="M77.6901 70.2951L110.245 13.8551H110.33V1.44507L74.1201 64.0901L77.6901 70.2951Z" fill="#666666" fill-opacity="0.5"/>
<path d="M110.245 28.0502H110.33V17.6802L78.7952 72.2501L81.7702 77.4352L110.245 28.0502Z" fill="#666666" fill-opacity="0.5"/>
<path d="M111.945 1.44507V126.82L148.155 64.0901L111.945 1.44507Z" fill="#666666" fill-opacity="0.5"/>
<path d="M110.245 70.4652H110.33V60.0952L91.0352 93.5002L94.0102 98.6002L110.245 70.4652Z" fill="#666666" fill-opacity="0.5"/>
<path d="M110.245 84.575H110.33V74.29L95.1152 100.555L98.0902 105.655L110.245 84.575Z" fill="#666666" fill-opacity="0.5"/>
<path d="M110.33 113.39L106.42 120.105L110.33 126.82V113.39Z" fill="#666666" fill-opacity="0.5"/>
<path d="M105.315 118.15L110.245 109.565H110.33V102.51L103.275 114.665L105.315 118.15Z" fill="#666666" fill-opacity="0.5"/>
<path d="M110.245 98.6851L110.33 98.7701V88.4001L99.1951 107.61L102.17 112.795L110.245 98.6851Z" fill="#666666" fill-opacity="0.5"/>
<path d="M38.93 152.83C39.61 153.595 39.95 154.53 39.95 155.55C39.95 156.91 39.44 158.015 38.505 158.865C37.57 159.715 36.21 160.14 34.425 160.14H28.05V143.055H34.34C36.04 143.055 37.315 143.395 38.25 144.16C39.1 144.925 39.61 145.945 39.61 147.305C39.61 148.41 39.355 149.26 38.76 149.94C38.165 150.62 37.4 151.045 36.465 151.215C37.4 151.555 38.25 152.065 38.93 152.83ZM30.2601 150.535H33.915C35.02 150.535 35.785 150.28 36.38 149.77C36.975 149.26 37.23 148.58 37.23 147.645C37.23 146.795 36.975 146.115 36.38 145.605C35.785 145.095 34.935 144.84 33.745 144.84H30.175V150.535H30.2601ZM36.635 157.505C37.315 156.995 37.57 156.23 37.57 155.21C37.57 154.275 37.23 153.51 36.55 153C35.87 152.49 35.02 152.15 33.83 152.15H30.175V158.27H33.915C35.105 158.27 36.04 158.015 36.635 157.505Z" fill="#666666" fill-opacity="0.5"/>
<path d="M56.6101 160.14L52.1051 153.17H49.7251V160.14H47.5151V143.055H53.1251C55.0801 143.055 56.5251 143.48 57.4601 144.415C58.3951 145.35 58.9051 146.54 58.9051 148.155C58.9051 149.515 58.4801 150.705 57.7151 151.555C56.9501 152.405 55.8451 152.915 54.3151 153.17L58.9901 160.225H56.6101V160.14ZM49.7251 151.555H52.9551C55.4201 151.555 56.6951 150.45 56.6951 148.24C56.6951 146.03 55.4201 144.925 52.9551 144.925H49.7251V151.555Z" fill="#666666" fill-opacity="0.5"/>
<path d="M76.5001 156.23H69.0201L67.5751 160.225H65.1951L71.4851 143.48H73.9501L80.2401 160.225H77.8601L76.5001 156.23ZM75.9051 154.445L72.7601 145.775L69.6151 154.445H75.9051Z" fill="#666666" fill-opacity="0.5"/>
<path d="M100.725 160.14H98.5151L89.6751 146.625V160.14H87.3801V143.055H89.5901L98.4301 156.57V143.055H100.64V160.14H100.725Z" fill="#666666" fill-opacity="0.5"/>
<path d="M122.485 156.145C121.805 157.42 120.785 158.44 119.425 159.12C118.065 159.8 116.45 160.14 114.58 160.14H109.14V143.055H114.58C116.45 143.055 118.065 143.395 119.425 144.075C120.785 144.755 121.805 145.775 122.485 147.05C123.165 148.325 123.505 149.855 123.505 151.555C123.505 153.34 123.165 154.785 122.485 156.145ZM119.51 156.4C120.7 155.21 121.295 153.595 121.295 151.555C121.295 149.43 120.7 147.815 119.51 146.71C118.32 145.52 116.62 145.01 114.41 145.01H111.35V158.185H114.41C116.62 158.185 118.32 157.59 119.51 156.4Z" fill="#666666" fill-opacity="0.5"/>
</svg>
