<svg width="235" height="128" viewBox="0 0 235 128" fill="none" xmlns="http://www.w3.org/2000/svg">
<path d="M118.74 59.8402C117.72 58.4802 117.21 56.5251 117.21 54.0602V45.7302C117.21 43.1802 117.72 41.2252 118.74 39.8652C119.76 38.5052 121.46 37.9102 123.925 37.9102C126.22 37.9102 127.835 38.5052 128.77 39.6102C129.705 40.8002 130.215 42.4152 130.215 44.6252V46.5802H126.135V44.5402C126.135 43.6902 126.135 43.0952 126.05 42.5852C125.965 42.0752 125.795 41.7352 125.455 41.3952C125.115 41.0552 124.605 40.9702 123.925 40.9702C123.245 40.9702 122.735 41.1402 122.395 41.4802C122.055 41.8202 121.8 42.2452 121.715 42.7552C121.63 43.2652 121.545 43.9452 121.545 44.7952V54.9101C121.545 56.2701 121.715 57.2052 122.055 57.8002C122.395 58.3952 122.99 58.6502 123.925 58.6502C124.605 58.6502 125.03 58.4802 125.37 58.2252C125.71 57.8852 125.88 57.5451 125.965 57.0351C126.05 56.5251 126.135 55.8452 126.135 54.9952V52.8702H130.215V54.7402C130.215 57.0352 129.705 58.7351 128.77 60.0101C127.835 61.2851 126.22 61.8802 123.84 61.8802C121.46 61.8802 119.76 61.2002 118.74 59.8402Z" fill="#082471"/>
<path d="M135.825 59.9251C134.805 58.6501 134.295 56.6951 134.295 54.2301V45.4751C134.295 43.0101 134.805 41.1401 135.825 39.8651C136.845 38.5901 138.63 37.9951 141.01 37.9951C143.39 37.9951 145.175 38.5901 146.195 39.8651C147.215 41.1401 147.725 43.0101 147.725 45.4751V54.2301C147.725 56.6951 147.215 58.6501 146.11 59.9251C145.09 61.2001 143.305 61.8801 140.925 61.8801C138.63 61.8801 136.845 61.2001 135.825 59.9251ZM142.965 57.8001C143.305 57.2051 143.475 56.3551 143.475 55.1651V44.4551C143.475 43.3501 143.305 42.5001 142.965 41.9051C142.625 41.3101 142.03 41.0551 141.01 41.0551C140.075 41.0551 139.395 41.3101 139.055 41.9051C138.715 42.5001 138.545 43.3501 138.545 44.4551V55.2501C138.545 56.3551 138.715 57.2901 139.055 57.8851C139.395 58.4801 139.99 58.8201 141.01 58.8201C142.03 58.7351 142.625 58.3951 142.965 57.8001Z" fill="#082471"/>
<path d="M152.74 38.165H157.16L160.475 54.4L163.875 38.165H168.21L168.635 61.54H165.49L165.15 45.305L161.835 61.54H159.285L155.885 45.22L155.545 61.54H152.315L152.74 38.165Z" fill="#082471"/>
<path d="M173.565 38.165H180.45C184.445 38.165 186.4 40.375 186.4 44.795C186.4 49.045 184.275 51.17 180.11 51.17H177.73V61.54H173.48V38.165H173.565ZM179.43 48.11C180.62 48.11 181.385 47.855 181.81 47.345C182.235 46.835 182.405 45.985 182.405 44.71C182.405 43.775 182.32 43.095 182.235 42.585C182.065 42.075 181.81 41.735 181.385 41.48C180.96 41.225 180.365 41.14 179.43 41.14H177.815V48.11H179.43Z" fill="#082471"/>
<path d="M192.52 38.165H197.11L201.785 61.54H197.79L196.855 56.1H192.775L191.84 61.54H187.845L192.52 38.165ZM196.43 53.38L194.815 43.52L193.2 53.38H196.43Z" fill="#082471"/>
<path d="M205.525 38.165H208.5L214.195 51.51V38.165H217.68V61.54H214.875L209.18 47.515V61.54H205.525V38.165Z" fill="#082471"/>
<path d="M226.01 52.615L221.25 38.165H225.245L228.135 47.43L230.855 38.165H234.765L230.09 52.615V61.54H226.01V52.615Z" fill="#082471"/>
<path d="M125.285 71.7402V72.9302H121.8V82.4502H120.355V72.9302H116.87V71.7402H125.285Z" fill="#082471"/>
<path d="M136.165 82.5352H135.06C134.89 82.5352 134.805 82.5352 134.72 82.4502C134.635 82.3652 134.55 82.2802 134.55 82.1952L133.53 79.6452H128.685L127.665 82.1952C127.665 82.2802 127.58 82.3652 127.495 82.4502C127.41 82.5352 127.325 82.5352 127.155 82.5352H126.05L130.3 71.8252H131.745L136.165 82.5352ZM129.11 78.5402H133.105L131.405 74.2052C131.32 73.9502 131.15 73.6102 131.065 73.1852C130.98 73.3552 130.98 73.6102 130.895 73.7802C130.81 73.9502 130.81 74.1202 130.725 74.2052L129.11 78.5402Z" fill="#082471"/>
<path d="M143.475 81.4302C143.73 81.4302 144.07 81.4302 144.24 81.4302C144.495 81.4302 144.75 81.3452 144.92 81.3452C145.175 81.2602 145.345 81.2602 145.515 81.1752C145.685 81.0902 145.855 81.0052 146.11 80.9202V78.4552H144.41C144.325 78.4552 144.24 78.4552 144.155 78.3702C144.07 78.2852 144.07 78.2852 144.07 78.2002V77.3502H147.385V81.4302C147.13 81.6002 146.875 81.7702 146.535 81.9402C146.28 82.1102 145.94 82.1952 145.6 82.2802C145.26 82.3652 144.92 82.4502 144.495 82.5352C144.155 82.6202 143.73 82.6202 143.22 82.6202C142.455 82.6202 141.69 82.4502 141.095 82.1952C140.415 81.9402 139.905 81.5152 139.395 81.0902C138.885 80.5802 138.545 80.0702 138.29 79.3902C138.035 78.7102 137.865 77.9452 137.865 77.1802C137.865 76.3302 138.035 75.6502 138.29 74.9702C138.545 74.2902 138.885 73.6952 139.395 73.2702C139.905 72.7602 140.415 72.4202 141.095 72.1652C141.775 71.9102 142.54 71.7402 143.39 71.7402C143.815 71.7402 144.24 71.7402 144.58 71.8252C144.92 71.9102 145.26 71.9952 145.6 72.0802C145.94 72.1652 146.195 72.3352 146.45 72.5052C146.705 72.6752 146.96 72.8452 147.215 73.1002L146.79 73.7802C146.705 73.9502 146.62 73.9502 146.45 73.9502C146.365 73.9502 146.28 73.9502 146.195 73.8652C146.11 73.7802 145.94 73.6952 145.77 73.6102C145.6 73.5252 145.43 73.4402 145.175 73.3552C144.92 73.2702 144.665 73.1852 144.41 73.1002C144.155 73.0152 143.73 73.0152 143.305 73.0152C142.71 73.0152 142.115 73.1002 141.69 73.2702C141.18 73.4402 140.755 73.7802 140.415 74.1202C140.075 74.4602 139.82 74.9702 139.65 75.4802C139.48 75.9902 139.395 76.5852 139.395 77.2652C139.395 77.9452 139.48 78.5402 139.65 79.0502C139.82 79.5602 140.075 80.0702 140.5 80.4102C140.84 80.7502 141.265 81.0902 141.775 81.2602C142.37 81.3452 142.965 81.4302 143.475 81.4302Z" fill="#082471"/>
<path d="M157.075 81.2602H161.75V82.4502H155.63V71.7402H157.075V81.2602Z" fill="#082471"/>
<path d="M166.51 82.5352H165.065V71.8252H166.51V82.5352Z" fill="#082471"/>
<path d="M171.95 71.8249C172.035 71.8249 172.12 71.9099 172.205 71.9949L178.41 80.0699C178.41 79.8999 178.41 79.8149 178.41 79.7299C178.41 79.6449 178.41 79.4749 178.41 79.3899V71.8249H179.685V82.5349H178.92C178.835 82.5349 178.75 82.5349 178.665 82.4499C178.58 82.4499 178.495 82.3649 178.41 82.2799L172.205 74.2049C172.205 74.2899 172.205 74.4599 172.205 74.5449C172.205 74.6299 172.205 74.7999 172.205 74.8849V82.5349H170.93V71.8249H171.695C171.78 71.7399 171.865 71.8249 171.95 71.8249Z" fill="#082471"/>
<path d="M190.31 71.7402V72.9302H185.125V76.5002H189.29V77.6052H185.125V81.2602H190.31V82.4502H183.68V71.7402H190.31Z" fill="#082471"/>
<path d="M37.9901 5.43999L102.505 23.8V87.975L37.9901 69.615V5.43999ZM33.9102 0V72.845L106.755 93.5V20.655L33.9102 0Z" fill="#F8962D"/>
<path d="M72.925 127.33L0.0800781 106.59V33.7451L72.925 54.4851V127.33Z" fill="#F8962D"/>
<path d="M35.1001 4.675L98.7652 22.78L71.6501 49.895L7.98512 31.705L35.1001 4.675ZM33.9101 0L0.0800781 33.83L72.9251 54.485L106.755 20.655L33.9101 0Z" fill="#F8962D"/>
<path d="M77.0051 123.165L106.67 93.5L77.0051 85.085V123.165Z" fill="#F8962D"/>
</svg>
