<svg width="150" height="153" viewBox="0 0 150 153" fill="none" xmlns="http://www.w3.org/2000/svg">
<path d="M13.0001 149.685C13.4251 149.685 13.6801 149.685 14.0201 149.6C14.2751 149.515 14.5301 149.43 14.7851 149.345C14.9551 149.26 15.1251 149.175 15.2951 149.005C15.4651 148.92 15.5501 148.835 15.6351 148.665C15.7201 148.58 15.8901 148.495 15.9751 148.41C16.0601 148.325 16.1451 148.325 16.3151 148.325C16.4001 148.325 16.4851 148.325 16.5701 148.41C16.6551 148.41 16.7401 148.495 16.7401 148.58L17.9301 150.025C17.2501 150.79 16.4851 151.385 15.5501 151.81C14.6151 152.235 13.5951 152.405 12.4051 152.405C11.4701 152.405 10.6201 152.235 9.85514 151.895C9.09014 151.555 8.49513 151.045 7.98513 150.45C7.47514 149.855 7.05012 149.175 6.79512 148.325C6.54012 147.475 6.37012 146.625 6.37012 145.69C6.37012 144.84 6.45511 143.99 6.62511 143.225C6.79511 142.46 7.13511 141.695 7.4751 141.015C7.8151 140.335 8.2401 139.74 8.7501 139.23C9.2601 138.72 9.7701 138.21 10.4501 137.87C11.0451 137.53 11.7251 137.19 12.4051 137.02C13.0851 136.85 13.8501 136.68 14.6151 136.68C15.2101 136.68 15.7201 136.765 16.2301 136.85C16.7401 136.935 17.1651 137.105 17.5051 137.275C17.8451 137.445 18.2701 137.7 18.5251 137.955C18.8651 138.21 19.1201 138.55 19.2901 138.805L18.1001 140.165C18.0151 140.25 17.9301 140.335 17.8451 140.42C17.7601 140.505 17.5901 140.505 17.4201 140.505C17.3351 140.505 17.1651 140.505 17.0801 140.42C16.9951 140.335 16.9101 140.335 16.7401 140.25C16.6551 140.165 16.4851 140.08 16.4001 139.995C16.3151 139.91 16.1451 139.825 15.9751 139.74C15.8051 139.655 15.5501 139.57 15.3801 139.57C15.1251 139.485 14.8701 139.485 14.5301 139.485C13.8501 139.485 13.2551 139.655 12.7451 139.91C12.1501 140.165 11.7251 140.59 11.3001 141.1C10.8751 141.61 10.5351 142.205 10.3651 142.97C10.1101 143.735 10.0251 144.5 10.0251 145.435C10.0251 146.115 10.1101 146.71 10.2801 147.22C10.4501 147.73 10.6201 148.155 10.9601 148.495C11.2151 148.835 11.5551 149.09 11.9801 149.345C12.1501 149.6 12.5751 149.685 13.0001 149.685Z" fill="#082471"/>
<path d="M39.0103 143.735C39.0103 144.585 38.9253 145.35 38.7553 146.115C38.5853 146.88 38.3303 147.56 37.9053 148.24C37.5653 148.92 37.1403 149.515 36.6303 150.025C36.1203 150.535 35.5253 151.045 34.9303 151.385C34.3353 151.725 33.6552 152.065 32.8902 152.235C32.1252 152.405 31.3602 152.575 30.5952 152.575C29.5752 152.575 28.6402 152.405 27.8752 152.065C27.1102 151.725 26.4303 151.215 25.8353 150.62C25.2403 150.025 24.8153 149.26 24.5603 148.41C24.2203 147.56 24.1353 146.71 24.1353 145.69C24.1353 144.84 24.2202 144.075 24.3902 143.31C24.5602 142.545 24.8152 141.865 25.2402 141.185C25.5802 140.505 26.0052 139.91 26.5152 139.4C27.0252 138.89 27.6202 138.38 28.2152 138.04C28.8102 137.7 29.4903 137.36 30.2553 137.19C31.0203 137.02 31.7852 136.85 32.5502 136.85C33.5702 136.85 34.4202 137.02 35.2702 137.36C36.0352 137.7 36.7153 138.21 37.3103 138.805C37.9053 139.4 38.3303 140.165 38.5853 141.015C38.8403 141.865 39.0103 142.715 39.0103 143.735ZM35.5252 143.82C35.5252 143.225 35.4402 142.63 35.2702 142.12C35.1002 141.61 34.9302 141.185 34.5902 140.76C34.3352 140.42 33.9103 140.08 33.4853 139.91C33.0603 139.74 32.5502 139.57 32.0402 139.57C31.3602 139.57 30.6802 139.74 30.1702 139.995C29.5752 140.25 29.1502 140.675 28.7252 141.185C28.3002 141.695 28.0452 142.375 27.7902 143.055C27.6202 143.82 27.4502 144.585 27.4502 145.52C27.4502 146.115 27.5353 146.71 27.7053 147.22C27.8753 147.73 28.0453 148.155 28.3853 148.495C28.6403 148.835 29.0653 149.175 29.4053 149.345C29.8303 149.515 30.3402 149.685 30.8502 149.685C31.5302 149.685 32.2102 149.515 32.7202 149.26C33.3152 149.005 33.7402 148.58 34.1652 148.07C34.5902 147.56 34.8452 146.88 35.1002 146.2C35.3552 145.52 35.5252 144.67 35.5252 143.82Z" fill="#082471"/>
<path d="M53.375 146.965C53.46 146.71 53.63 146.54 53.715 146.285C53.8 146.03 53.97 145.86 54.14 145.605L58.8151 137.53C58.9851 137.275 59.155 137.105 59.325 137.105C59.495 137.02 59.7501 137.02 59.9201 137.02H62.6401L60.7701 152.32H57.7951L58.9 143.395C58.9 143.225 58.9851 142.97 58.9851 142.8C59.0701 142.545 59.0701 142.375 59.1551 142.12L54.5651 150.025C54.3951 150.28 54.2251 150.45 54.0551 150.535C53.8001 150.62 53.545 150.705 53.29 150.705H52.865C52.61 150.705 52.3551 150.62 52.1851 150.535C52.0151 150.45 51.8451 150.28 51.7601 150.025L49.04 142.12C49.04 142.375 49.04 142.63 49.04 142.8C49.04 143.055 49.0401 143.225 48.9551 143.395L47.935 152.405H44.875L46.745 137.105H49.3801C49.5501 137.105 49.6351 137.105 49.8051 137.105C49.8901 137.105 50.06 137.105 50.145 137.19C50.23 137.19 50.315 137.275 50.4 137.36C50.485 137.445 50.485 137.53 50.57 137.7L53.29 145.775C53.12 146.03 53.205 146.54 53.375 146.965Z" fill="#082471"/>
<path d="M72.2451 147.22L71.65 152.405H68.25L70.1201 137.105H75.2201C76.1551 137.105 76.92 137.19 77.6 137.445C78.28 137.7 78.7901 137.955 79.2151 138.38C79.6401 138.805 79.98 139.23 80.15 139.74C80.32 140.25 80.4051 140.845 80.4051 141.44C80.4051 142.29 80.2351 143.055 79.9801 143.735C79.7251 144.415 79.3001 145.095 78.7901 145.605C78.2801 146.115 77.6 146.54 76.75 146.795C75.985 147.05 74.965 147.22 73.86 147.22H72.2451ZM73.1801 139.57L72.585 144.585H74.2C74.71 144.585 75.135 144.5 75.475 144.33C75.815 144.16 76.07 143.99 76.325 143.735C76.495 143.48 76.665 143.14 76.75 142.8C76.835 142.46 76.9201 142.035 76.9201 141.61C76.9201 141.27 76.92 141.015 76.835 140.76C76.75 140.505 76.6651 140.25 76.4951 140.08C76.3251 139.91 76.155 139.74 75.9 139.655C75.645 139.57 75.305 139.485 74.965 139.485H73.1801V139.57Z" fill="#082471"/>
<path d="M97.1502 152.32H94.5152C94.2602 152.32 94.0052 152.235 93.8352 152.15C93.6652 151.98 93.5803 151.81 93.4953 151.64L92.9852 148.92H87.8002L86.6952 151.64C86.6102 151.81 86.4402 151.98 86.2702 152.15C86.0152 152.32 85.7602 152.405 85.5052 152.405H82.7852L90.0953 137.105H93.5802L97.1502 152.32ZM88.7352 146.54H92.5602L91.7953 142.12C91.7103 141.78 91.6252 141.355 91.6252 141.015C91.5402 140.675 91.4552 140.335 91.4552 139.995C91.3702 140.165 91.2852 140.335 91.2002 140.59C91.1152 140.845 91.0303 141.015 90.9453 141.185C90.8603 141.355 90.7752 141.61 90.6902 141.78C90.6052 141.95 90.5203 142.12 90.5203 142.205L88.7352 146.54Z" fill="#082471"/>
<path d="M107.35 137.021C107.435 137.021 107.52 137.021 107.605 137.106C107.69 137.106 107.775 137.19 107.86 137.275C107.945 137.36 107.945 137.446 108.03 137.531L113.385 146.965C113.385 146.71 113.385 146.456 113.47 146.286C113.47 146.031 113.555 145.86 113.555 145.69L114.575 137.021H117.635L115.765 152.321H113.98C113.725 152.321 113.47 152.321 113.3 152.236C113.13 152.151 112.96 151.981 112.875 151.811L107.52 142.375C107.52 142.545 107.52 142.801 107.435 142.971C107.435 143.141 107.435 143.311 107.35 143.481L106.33 152.406H103.27L105.14 137.106H106.925C107.18 137.021 107.265 137.021 107.35 137.021Z" fill="#082471"/>
<path d="M131.15 146.455L130.385 152.32H126.985L127.75 146.455L123.84 136.935H126.9C127.155 136.935 127.41 137.02 127.58 137.105C127.75 137.275 127.835 137.445 127.92 137.615L129.365 142.29C129.45 142.63 129.535 142.885 129.62 143.225C129.705 143.48 129.79 143.82 129.79 144.075C129.96 143.82 130.045 143.565 130.215 143.225C130.385 142.97 130.555 142.63 130.725 142.29L133.36 137.615C133.445 137.445 133.615 137.275 133.785 137.105C133.955 136.935 134.21 136.85 134.55 136.85H137.355L131.15 146.455Z" fill="#082471"/>
<path d="M149.595 120.785L101.825 35.4453L71.9053 88.9103L89.7553 120.785H149.595Z" fill="#F8962D"/>
<path d="M83.4652 120.785L68.7602 94.5205L54.0552 120.785H83.4652Z" fill="#F8962D"/>
<path d="M67.2301 0L0.0800781 120.785H47.0851L90.775 41.99L67.2301 0Z" fill="#F9556D"/>
</svg>
