<svg width="191" height="136" viewBox="0 0 191 136" fill="none" xmlns="http://www.w3.org/2000/svg">
<path d="M39.18 67.235C32.125 67.235 26.26 61.455 26.26 54.315C26.26 47.26 32.04 41.395 39.18 41.395C46.235 41.395 52.1 47.175 52.1 54.315C52.015 61.37 46.235 67.235 39.18 67.235Z" fill="#666666" fill-opacity="0.5"/>
<path d="M134.295 37.315C134.295 16.745 117.465 0 96.9801 0C76.4101 0 59.665 16.83 59.665 37.315V91.885C59.665 91.8 134.295 83.555 134.295 37.315Z" fill="#666666" fill-opacity="0.5"/>
<path d="M0.0800781 109.735C0.0800781 124.015 11.7251 135.745 26.0051 135.745C40.2851 135.745 51.9301 124.1 51.9301 109.82V71.9101C52.0151 71.8251 0.165078 77.6051 0.0800781 109.735ZM26.0901 116.535C22.3501 116.535 19.2901 113.475 19.2901 109.735C19.2901 105.995 22.3501 102.935 26.0901 102.935C29.8301 102.935 32.8901 105.995 32.8901 109.735C32.8901 113.475 29.8301 116.535 26.0901 116.535Z" fill="#666666" fill-opacity="0.5"/>
<path d="M64.5951 119.51C63.2351 118.745 62.13 117.725 61.365 116.365C60.6 115.005 60.175 113.56 60.175 111.86C60.175 110.16 60.6 108.715 61.365 107.355C62.13 105.995 63.2351 104.975 64.5951 104.21C65.9551 103.445 67.4851 103.105 69.2701 103.105C70.6301 103.105 71.9051 103.36 73.0951 103.87C74.2851 104.38 75.2201 105.06 75.9851 105.995L73.9451 107.95C72.7551 106.59 71.2251 105.995 69.4401 105.995C68.2501 105.995 67.2301 106.25 66.2951 106.76C65.3601 107.27 64.6801 107.95 64.1701 108.885C63.6601 109.82 63.4051 110.84 63.4051 111.945C63.4051 113.05 63.6601 114.155 64.1701 115.005C64.6801 115.94 65.4451 116.62 66.2951 117.13C67.2301 117.64 68.2501 117.895 69.4401 117.895C71.2251 117.895 72.7551 117.215 73.9451 115.855L75.9851 117.81C75.2201 118.745 74.2001 119.425 73.0951 119.935C71.9051 120.445 70.6301 120.7 69.2701 120.7C67.4851 120.615 65.9551 120.275 64.5951 119.51Z" fill="#666666" fill-opacity="0.5"/>
<path d="M81.85 119.51C80.49 118.745 79.385 117.725 78.535 116.365C77.77 115.005 77.345 113.56 77.345 111.86C77.345 110.245 77.77 108.715 78.535 107.355C79.3 105.995 80.405 104.975 81.85 104.21C83.21 103.445 84.825 103.105 86.525 103.105C88.225 103.105 89.84 103.445 91.2 104.21C92.56 104.975 93.665 105.995 94.515 107.355C95.28 108.715 95.705 110.16 95.705 111.86C95.705 113.56 95.28 115.005 94.515 116.365C93.75 117.725 92.645 118.745 91.2 119.51C89.84 120.275 88.225 120.615 86.525 120.615C84.825 120.615 83.21 120.275 81.85 119.51ZM89.585 117.13C90.52 116.62 91.2 115.94 91.71 115.005C92.22 114.07 92.475 113.05 92.475 111.945C92.475 110.84 92.22 109.82 91.71 108.885C91.2 107.95 90.52 107.27 89.585 106.76C88.65 106.25 87.63 105.995 86.525 105.995C85.42 105.995 84.4 106.25 83.465 106.76C82.53 107.27 81.85 107.95 81.34 108.885C80.83 109.82 80.575 110.84 80.575 111.945C80.575 113.05 80.83 114.07 81.34 115.005C81.85 115.94 82.53 116.62 83.465 117.13C84.4 117.64 85.42 117.895 86.525 117.895C87.63 117.895 88.65 117.64 89.585 117.13Z" fill="#666666" fill-opacity="0.5"/>
<path d="M114.66 120.445V109.225L109.05 118.575H107.605L101.995 109.395V120.53H99.02V103.53H101.655L108.37 114.75L115 103.53H117.635V120.53H114.66V120.445Z" fill="#666666" fill-opacity="0.5"/>
<path d="M133.02 104.125C134.125 104.635 134.975 105.315 135.57 106.25C136.165 107.185 136.42 108.205 136.42 109.48C136.42 110.67 136.165 111.775 135.57 112.71C134.975 113.645 134.125 114.325 133.02 114.835C131.915 115.345 130.64 115.6 129.195 115.6H125.37V120.53H122.225V103.53H129.195C130.64 103.445 131.915 103.7 133.02 104.125ZM132.17 111.945C132.85 111.35 133.275 110.5 133.275 109.48C133.275 108.375 132.935 107.525 132.17 107.015C131.49 106.42 130.385 106.165 129.025 106.165H125.37V112.88H129.025C130.385 112.795 131.49 112.54 132.17 111.945Z" fill="#666666" fill-opacity="0.5"/>
<path d="M149.68 116.45H141.18L139.48 120.36H136.335L143.985 103.36H147.13L154.78 120.36H151.465L149.68 116.45ZM148.66 113.985L145.43 106.59L142.285 113.985H148.66Z" fill="#666666" fill-opacity="0.5"/>
<path d="M171.95 103.445V120.445H169.315L159.965 108.97V120.445H156.82V103.445H159.455L168.805 114.92V103.445H171.95Z" fill="#666666" fill-opacity="0.5"/>
<path d="M183.85 114.41V120.36H180.705V114.41L174.075 103.36H177.475L182.405 111.605L187.42 103.36H190.565L183.85 114.41Z" fill="#666666" fill-opacity="0.5"/>
</svg>
