<svg width="23" height="23" viewBox="0 0 23 23" fill="none" xmlns="http://www.w3.org/2000/svg">
<path d="M19.2755 13.7104C18.7757 13.19 18.1729 12.9117 17.534 12.9117C16.9002 12.9117 16.2923 13.1848 15.7719 13.7052L14.1437 15.3282C14.0098 15.256 13.8758 15.1891 13.747 15.1221C13.5615 15.0293 13.3863 14.9418 13.2369 14.849C11.7118 13.8804 10.3259 12.6181 8.99656 10.9848C8.35252 10.1707 7.91972 9.48544 7.60543 8.78987C8.02792 8.40345 8.4195 8.00157 8.80077 7.61514C8.94504 7.47088 9.0893 7.32146 9.23357 7.17719C10.3156 6.09521 10.3156 4.69377 9.23357 3.61178L7.82698 2.2052C7.66726 2.04548 7.50238 1.8806 7.34781 1.71573C7.03867 1.39628 6.71408 1.06653 6.37918 0.757392C5.8794 0.262769 5.28173 0 4.65315 0C4.02456 0 3.41659 0.262769 2.90135 0.757392C2.8962 0.762545 2.8962 0.762545 2.89105 0.767697L1.13926 2.53495C0.479758 3.19444 0.103638 3.99821 0.0212011 4.93078C-0.102455 6.43526 0.340645 7.83669 0.680699 8.75381C1.51538 11.0054 2.76224 13.0921 4.62223 15.3282C6.87895 18.0229 9.59423 20.1508 12.6959 21.6501C13.881 22.2117 15.4627 22.8763 17.23 22.9897C17.3382 22.9948 17.4515 23 17.5546 23C18.7448 23 19.7443 22.5724 20.5275 21.7222C20.5326 21.7119 20.5429 21.7068 20.5481 21.6965C20.816 21.3719 21.1251 21.0782 21.4497 20.7639C21.6713 20.5526 21.898 20.3311 22.1195 20.0992C22.6296 19.5685 22.8975 18.9503 22.8975 18.3165C22.8975 17.6776 22.6245 17.0645 22.1041 16.5493L19.2755 13.7104ZM21.12 19.1358C21.1148 19.1358 21.1148 19.1409 21.12 19.1358C20.9191 19.3521 20.713 19.5479 20.4914 19.7643C20.1565 20.0838 19.8165 20.4187 19.497 20.7948C18.9766 21.3513 18.3635 21.614 17.5597 21.614C17.4824 21.614 17.4 21.614 17.3227 21.6089C15.7925 21.511 14.3704 20.9133 13.3039 20.4032C10.3877 18.9915 7.82698 16.9872 5.69907 14.4471C3.94212 12.3295 2.76739 10.3716 1.98939 8.26949C1.51022 6.98656 1.33505 5.98701 1.41233 5.04413C1.46385 4.44131 1.69571 3.94153 2.12335 3.51389L3.8803 1.75694C4.13276 1.51994 4.40068 1.39113 4.66345 1.39113C4.98805 1.39113 5.25082 1.58692 5.41569 1.75179C5.42084 1.75694 5.42599 1.7621 5.43115 1.76725C5.74544 2.06093 6.04427 2.36492 6.35857 2.68952C6.51829 2.85439 6.68316 3.01927 6.84804 3.18929L8.25462 4.59588C8.80077 5.14203 8.80077 5.64695 8.25462 6.1931C8.10521 6.34252 7.96094 6.49193 7.81152 6.6362C7.37873 7.0793 6.96654 7.49149 6.51829 7.89337C6.50798 7.90367 6.49768 7.90883 6.49253 7.91913C6.04943 8.36223 6.13186 8.79503 6.22461 9.08871C6.22976 9.10417 6.23491 9.11962 6.24006 9.13508C6.60588 10.0213 7.12111 10.856 7.90426 11.8504L7.90942 11.8555C9.33146 13.6073 10.8308 14.9727 12.4847 16.0186C12.6959 16.1526 12.9123 16.2608 13.1184 16.3638C13.3039 16.4565 13.4791 16.5441 13.6285 16.6369C13.6491 16.6472 13.6697 16.6626 13.6903 16.6729C13.8655 16.7605 14.0304 16.8017 14.2004 16.8017C14.6281 16.8017 14.896 16.5338 14.9836 16.4462L16.7457 14.6841C16.9208 14.509 17.1991 14.2977 17.5237 14.2977C17.8431 14.2977 18.1059 14.4987 18.2656 14.6738C18.2708 14.679 18.2708 14.679 18.2759 14.6841L21.1148 17.5231C21.6455 18.0486 21.6455 18.5896 21.12 19.1358Z" fill="#F9556D"/>
</svg>
