<svg width="82" height="82" viewBox="0 0 82 82" fill="none" xmlns="http://www.w3.org/2000/svg">
<g clip-path="url(#clip0_257_214)">
<path d="M68.3547 0.192205L42.2012 8.02385L45.8687 20.3078C47.0699 19.7633 48.2711 19.0106 49.5203 18.0176C49.9848 17.6492 50.4973 17.377 51.0578 17.2168C52.3711 16.8164 53.7965 17.0406 54.9496 17.8094C56.1027 18.5781 56.8395 19.8274 56.9676 21.2207C57.1438 23.0465 56.1828 24.8403 54.5652 25.6891C53.7324 26.1375 52.7875 26.3137 51.8586 26.2016C50.3211 26.0254 48.9277 26.0414 47.6625 26.2817L51.3461 38.5977L64.3508 34.7059C64.4148 34.6899 64.4789 34.6738 64.543 34.6738C64.6551 34.6738 64.7672 34.7059 64.8633 34.7539C65.0234 34.85 65.1355 34.9942 65.1836 35.1703C65.584 36.7879 65.6641 38.5336 65.4238 40.5195C65.3438 41.1922 65.4719 41.8488 65.7922 42.4574C66.4008 43.6106 67.666 44.2992 68.9633 44.1711C69.9723 44.075 70.8531 43.5465 71.4137 42.7297C71.9582 41.9129 72.1184 40.9039 71.8301 39.959C71.702 39.5586 71.5098 39.1903 71.2535 38.8539C69.9883 37.2684 69.0914 35.7469 68.4988 34.1934C68.4348 34.0172 68.4348 33.825 68.5148 33.6649C68.5949 33.5047 68.7391 33.3766 68.9152 33.3285L81.8879 29.4367L74.0883 3.29924C73.3676 0.848845 70.7891 -0.528498 68.3547 0.192205Z" fill="#F9556D"/>
<path d="M65.2159 50.0808H52.4034C52.5795 51.3781 52.9479 52.7394 53.5405 54.2289C53.7647 54.7734 53.8608 55.3499 53.8608 55.9425C53.8608 57.3199 53.2522 58.6171 52.1791 59.498C51.1061 60.3789 49.7127 60.7312 48.3194 60.4589C46.5256 60.1066 45.0682 58.6652 44.7159 56.8714C44.5237 55.9425 44.6198 54.9816 45.0042 54.1328C45.6127 52.7074 45.9971 51.3781 46.1413 50.0968H33.3127V63.6621C33.3127 63.8382 33.2327 64.0144 33.1045 64.1425C32.9764 64.2707 32.8002 64.3347 32.6241 64.3187C30.9745 64.2386 29.2768 63.8222 27.435 63.0214C26.8264 62.7492 26.1377 62.6851 25.4651 62.8132C24.1838 63.0695 23.1749 64.0945 22.9186 65.3597C22.7264 66.3527 22.9667 67.3617 23.5913 68.1144C24.2159 68.8832 25.1448 69.3156 26.1217 69.3156C26.5381 69.3156 26.9545 69.2355 27.3389 69.0753C29.2288 68.3226 30.9424 67.8902 32.592 67.7621C32.7842 67.746 32.9604 67.8101 33.0885 67.9382C33.2167 68.0664 33.2967 68.2425 33.2967 68.4187V81.9999H60.5874C63.1338 81.9999 65.1999 79.9339 65.1999 77.3875V50.0808H65.2159Z" fill="#082471"/>
<path d="M31.9832 82V69.1875C30.6859 69.3636 29.3246 69.732 27.8352 70.3406C27.2906 70.5648 26.7141 70.6609 26.1215 70.6609C24.7441 70.6609 23.4469 70.0523 22.566 68.9793C21.6852 67.9062 21.3328 66.5128 21.6051 65.1195C21.9574 63.3257 23.3988 61.8683 25.1926 61.516C26.1215 61.3238 27.0824 61.4199 27.9312 61.8043C29.3566 62.4128 30.6859 62.7812 31.9672 62.9253V50.0648H18.418C18.2418 50.0648 18.0656 49.9847 17.9375 49.8566C17.8094 49.7285 17.7453 49.5523 17.7613 49.3761C17.8414 47.7265 18.2578 46.0289 19.0586 44.1871C19.3309 43.5785 19.3949 42.8898 19.2668 42.2332C19.0105 40.9519 17.9855 39.9429 16.7203 39.6867C15.7273 39.4945 14.7184 39.7347 13.9656 40.3593C13.1969 40.9839 12.7645 41.9128 12.7645 42.8898C12.7645 43.3062 12.8445 43.7226 12.9887 44.107C13.7414 45.9968 14.1738 47.7105 14.302 49.3601C14.318 49.5363 14.2539 49.7285 14.1258 49.8566C13.9977 49.9847 13.8215 50.0648 13.6453 50.0648H0.0800781V77.3554C0.0800781 79.9019 2.14609 81.9679 4.69258 81.9679H31.9832V82Z" fill="#082471"/>
<path d="M0.0800781 48.7675H12.8926C12.7164 47.4702 12.348 46.1089 11.7395 44.6194C11.5152 44.0749 11.4191 43.4983 11.4191 42.9058C11.4191 41.5284 12.0277 40.2312 13.1008 39.3503C14.1738 38.4694 15.5672 38.1171 16.9445 38.3894C18.7383 38.7417 20.1957 40.1831 20.548 41.9769C20.7402 42.9058 20.6441 43.8667 20.2598 44.7155C19.6512 46.1409 19.2828 47.4702 19.1227 48.7515H31.9832V35.1862C31.9832 35.0101 32.0633 34.8339 32.1914 34.7058C32.3195 34.5776 32.4957 34.5136 32.6719 34.5296C34.3215 34.6097 36.0191 35.0261 37.8609 35.8269C38.4695 36.0991 39.1582 36.1632 39.8309 36.0351C41.1121 35.7788 42.1211 34.7538 42.3773 33.4886C42.5695 32.4956 42.3293 31.4866 41.7047 30.7339C41.0801 29.9651 40.1512 29.5327 39.1742 29.5327C38.7578 29.5327 38.3414 29.6128 37.957 29.7729C36.0672 30.5257 34.3535 30.9581 32.7039 31.0862C32.5277 31.1022 32.3355 31.0382 32.2074 30.9101C32.0793 30.7819 31.9992 30.6058 31.9992 30.4296V16.8804H4.69258C2.14609 16.8804 0.0800781 18.9464 0.0800781 21.4929V48.7675Z" fill="#082471"/>
</g>
<defs>
<clipPath id="clip0_257_214">
<rect width="82" height="82" fill="white"/>
</clipPath>
</defs>
</svg>
