<svg width="23" height="24" viewBox="0 0 23 24" fill="none" xmlns="http://www.w3.org/2000/svg">
<g clip-path="url(#clip0_330_2761)">
<path d="M22.6666 5.10955C21.8402 5.47205 20.9596 5.71232 20.0416 5.82899C20.986 5.2651 21.7068 4.37899 22.0457 3.31093C21.1652 3.83593 20.1929 4.20677 19.1568 4.41371C18.3207 3.52343 17.1291 2.97205 15.8291 2.97205C13.3068 2.97205 11.2763 5.01927 11.2763 7.52899C11.2763 7.8901 11.3068 8.23732 11.3818 8.56788C7.59434 8.38316 4.24295 6.56788 1.99156 3.8026C1.5985 4.48455 1.36795 5.2651 1.36795 6.10538C1.36795 7.68316 2.18045 9.08177 3.39156 9.89149C2.65961 9.8776 1.94156 9.6651 1.33322 9.33038C1.33322 9.34427 1.33322 9.36232 1.33322 9.38038C1.33322 11.5943 2.91239 13.4332 4.98322 13.8568C4.61239 13.9582 4.20822 14.0068 3.78878 14.0068C3.49711 14.0068 3.20267 13.9901 2.92628 13.929C3.51656 15.7332 5.19156 17.0595 7.18322 17.1026C5.63322 18.3151 3.66517 19.0457 1.53461 19.0457C1.161 19.0457 0.802669 19.029 0.444336 18.9832C2.46239 20.2845 4.85406 21.0276 7.43322 21.0276C15.8166 21.0276 20.3999 14.0832 20.3999 8.06371C20.3999 7.86232 20.3929 7.66788 20.3832 7.47482C21.2874 6.83316 22.0471 6.03177 22.6666 5.10955Z" fill="white"/>
</g>
<defs>
<clipPath id="clip0_330_2761">
<rect width="22.2222" height="22.2222" fill="white" transform="translate(0.444336 0.888733)"/>
</clipPath>
</defs>
</svg>
