<svg width="36" height="36" viewBox="0 0 36 36" fill="none" xmlns="http://www.w3.org/2000/svg">
<path d="M32.8359 0.0703125H3.16406C1.4194 0.0703125 0 1.48971 0 3.23438V32.7656C0 34.5103 1.4194 35.9297 3.16406 35.9297H32.8359C34.5806 35.9297 36 34.5103 36 32.7656V3.23438C36 1.48971 34.5806 0.0703125 32.8359 0.0703125ZM3.16406 2.17969H32.8359C33.4175 2.17969 33.8906 2.65282 33.8906 3.23438V8.50781H2.10938V3.23438C2.10938 2.65282 2.58251 2.17969 3.16406 2.17969ZM32.8359 33.8203H3.16406C2.58251 33.8203 2.10938 33.3472 2.10938 32.7656V10.6172H33.8906V32.7656C33.8906 33.3472 33.4175 33.8203 32.8359 33.8203Z" fill="white"/>
<path d="M21.5793 13.8665C21.044 13.6371 20.4239 13.8851 20.1945 14.4205L13.8663 29.1861C13.6368 29.7214 13.8849 30.3415 14.4203 30.571C14.9558 30.8005 15.5758 30.5523 15.8051 30.017L22.1332 15.2514C22.3627 14.716 22.1147 14.096 21.5793 13.8665Z" fill="white"/>
<path d="M12.4957 17.3411C12.1317 16.8862 11.4679 16.8126 11.0133 17.1764L5.73983 21.3952C5.21255 21.8168 5.2122 22.6203 5.73983 23.0423L11.0133 27.2611C11.4681 27.625 12.1319 27.5512 12.4957 27.0964C12.8595 26.6415 12.7858 25.9778 12.3309 25.614L8.087 22.2187L12.3309 18.8236C12.7858 18.4597 12.8595 17.796 12.4957 17.3411Z" fill="white"/>
<path d="M30.2604 21.3952L24.987 17.1764C24.5321 16.8125 23.8684 16.8862 23.5046 17.3411C23.1407 17.7959 23.2144 18.4597 23.6693 18.8235L27.9133 22.2187L23.6693 25.6139C23.2144 25.9778 23.1407 26.6415 23.5046 27.0963C23.869 27.5517 24.5328 27.6245 24.987 27.261L30.2604 23.0422C30.7877 22.6206 30.7881 21.8172 30.2604 21.3952Z" fill="white"/>
<path d="M5.34375 6.39844C5.92624 6.39844 6.39844 5.92624 6.39844 5.34375C6.39844 4.76126 5.92624 4.28906 5.34375 4.28906C4.76126 4.28906 4.28906 4.76126 4.28906 5.34375C4.28906 5.92624 4.76126 6.39844 5.34375 6.39844Z" fill="white"/>
<path d="M9.5625 6.39844C10.145 6.39844 10.6172 5.92624 10.6172 5.34375C10.6172 4.76126 10.145 4.28906 9.5625 4.28906C8.98001 4.28906 8.50781 4.76126 8.50781 5.34375C8.50781 5.92624 8.98001 6.39844 9.5625 6.39844Z" fill="white"/>
<path d="M13.7812 6.39844C14.3637 6.39844 14.8359 5.92624 14.8359 5.34375C14.8359 4.76126 14.3637 4.28906 13.7812 4.28906C13.1988 4.28906 12.7266 4.76126 12.7266 5.34375C12.7266 5.92624 13.1988 6.39844 13.7812 6.39844Z" fill="white"/>
<path d="M24.3281 6.39844H30.6562C31.2387 6.39844 31.7109 5.92622 31.7109 5.34375C31.7109 4.76128 31.2387 4.28906 30.6562 4.28906H24.3281C23.7457 4.28906 23.2734 4.76128 23.2734 5.34375C23.2734 5.92622 23.7457 6.39844 24.3281 6.39844Z" fill="white"/>
</svg>
